# Blender 5.0.0
# www.blender.org
mtllib HiyokoAfroPropeller.mtl
o Untitled
v -0.868731 0.459750 0.535294
v -0.868731 0.459750 -0.764706
v -0.868731 0.859750 0.535294
v -0.868731 0.859750 -0.764706
v -0.768731 -0.340250 0.435294
v -0.768731 -0.340250 -0.664706
v -0.768731 0.359750 0.435294
v -0.768731 0.359750 -0.664706
v -0.768731 0.459750 0.435294
v -0.768731 0.459750 -0.664706
v -0.768731 0.459750 -0.764706
v -0.768731 0.459750 -0.864706
v -0.768731 0.859750 0.535294
v -0.768731 0.859750 -0.764706
v -0.768731 0.859750 -0.864706
v -0.768731 1.059750 0.535294
v -0.768731 1.059750 -0.764706
v -0.668731 -0.440250 0.435294
v -0.668731 -0.440250 -0.664706
v -0.668731 -0.340250 0.535294
v -0.668731 -0.340250 0.435294
v -0.668731 -0.340250 -0.664706
v -0.668731 -0.340250 -0.764706
v -0.668731 0.359750 0.535294
v -0.668731 0.359750 0.435294
v -0.668731 0.359750 -0.664706
v -0.668731 0.359750 -0.764706
v -0.668731 0.459750 0.535294
v -0.668731 0.459750 0.435294
v -0.668731 0.459750 -0.664706
v -0.668731 0.459750 -0.764706
v -0.668731 1.059750 0.535294
v -0.668731 1.059750 -0.764706
v -0.668731 1.159750 0.535294
v -0.668731 1.159750 -0.764706
v -0.568731 -0.340250 0.435294
v -0.568731 -0.340250 0.335294
v -0.568731 -0.340250 -0.564706
v -0.568731 -0.340250 -0.664706
v -0.568731 0.359750 0.435294
v -0.568731 0.359750 -0.664706
v -0.568731 0.459750 0.435294
v -0.568731 0.459750 -0.664706
v -0.568731 0.559750 0.435294
v -0.568731 0.559750 0.335294
v -0.568731 0.559750 -0.564706
v -0.568731 0.559750 -0.664706
v -0.368731 -0.640250 0.235294
v -0.368731 -0.640250 0.135294
v -0.368731 -0.640250 -0.364706
v -0.368731 -0.640250 -0.464706
v -0.368731 -0.540250 0.235294
v -0.368731 -0.540250 0.135294
v -0.368731 -0.540250 -0.364706
v -0.368731 -0.540250 -0.464706
v -0.268731 -0.640250 0.135294
v -0.268731 -0.640250 0.035294
v -0.268731 -0.640250 -0.264706
v -0.268731 -0.640250 -0.364706
v -0.268731 -0.540250 0.135294
v -0.268731 -0.540250 0.035294
v -0.268731 -0.540250 -0.264706
v -0.268731 -0.540250 -0.364706
v -0.268731 -0.140250 0.635294
v -0.268731 -0.140250 0.535294
v -0.268731 0.159750 0.635294
v -0.268731 0.159750 0.535294
v -0.168731 -0.640250 0.035294
v -0.168731 -0.640250 -0.064706
v -0.168731 -0.640250 -0.164706
v -0.168731 -0.640250 -0.264706
v -0.168731 -0.540250 0.035294
v -0.168731 -0.540250 -0.064706
v -0.168731 -0.540250 -0.164706
v -0.168731 -0.540250 -0.264706
v -0.168731 -0.440250 -0.064706
v -0.168731 -0.440250 -0.164706
v -0.168731 -0.240250 0.635294
v -0.168731 -0.240250 0.535294
v -0.168731 -0.140250 0.635294
v -0.168731 -0.140250 0.535294
v -0.168731 0.159750 0.635294
v -0.168731 0.159750 0.535294
v -0.168731 0.259750 0.635294
v -0.168731 0.259750 0.535294
v -0.168731 0.559750 0.735294
v -0.168731 0.559750 0.435294
v -0.168731 0.659750 0.735294
v -0.168731 0.659750 0.435294
v -0.068731 -0.740250 -0.064706
v -0.068731 -0.740250 -0.164706
v -0.068731 -0.640250 -0.064706
v -0.068731 -0.640250 -0.164706
v -0.068731 -0.540250 0.035294
v -0.068731 -0.540250 -0.064706
v -0.068731 -0.540250 -0.164706
v -0.068731 -0.540250 -0.264706
v -0.068731 -0.440250 0.035294
v -0.068731 -0.440250 -0.064706
v -0.068731 -0.440250 -0.164706
v -0.068731 -0.440250 -0.264706
v 0.031269 -0.640250 0.035294
v 0.031269 -0.640250 -0.064706
v 0.031269 -0.640250 -0.164706
v 0.031269 -0.640250 -0.264706
v 0.031269 -0.540250 0.035294
v 0.031269 -0.540250 -0.064706
v 0.031269 -0.540250 -0.164706
v 0.031269 -0.540250 -0.264706
v 0.131269 -0.640250 0.135294
v 0.131269 -0.640250 0.035294
v 0.131269 -0.640250 -0.264706
v 0.131269 -0.640250 -0.364706
v 0.131269 -0.540250 0.135294
v 0.131269 -0.540250 0.035294
v 0.131269 -0.540250 -0.264706
v 0.131269 -0.540250 -0.364706
v 0.231269 -0.640250 0.235294
v 0.231269 -0.640250 0.135294
v 0.231269 -0.640250 -0.364706
v 0.231269 -0.640250 -0.464706
v 0.231269 -0.540250 0.235294
v 0.231269 -0.540250 0.135294
v 0.231269 -0.540250 -0.364706
v 0.231269 -0.540250 -0.464706
v 0.431269 0.659750 0.535294
v 0.431269 0.659750 0.435294
v 0.431269 0.659750 0.235294
v 0.431269 0.659750 -0.464706
v 0.431269 0.759750 0.535294
v 0.431269 0.759750 0.435294
v 0.431269 0.759750 0.235294
v 0.431269 0.759750 -0.464706
v 0.531269 -0.340250 0.335294
v 0.531269 -0.340250 0.235294
v 0.531269 -0.340250 -0.464706
v 0.531269 -0.340250 -0.564706
v 0.531269 0.459750 0.235294
v 0.531269 0.459750 -0.464706
v 0.531269 0.559750 0.535294
v 0.531269 0.559750 0.435294
v 0.531269 0.559750 0.335294
v 0.531269 0.659750 0.535294
v 0.531269 0.659750 0.435294
v 0.531269 0.659750 0.335294
v 0.531269 0.659750 -0.564706
v 0.631269 -0.340250 0.435294
v 0.631269 -0.340250 0.335294
v 0.631269 -0.340250 0.235294
v 0.631269 -0.340250 -0.464706
v 0.631269 -0.340250 -0.564706
v 0.631269 -0.340250 -0.664706
v 0.631269 0.359750 0.435294
v 0.631269 0.359750 0.335294
v 0.631269 0.359750 0.235294
v 0.631269 0.359750 -0.464706
v 0.631269 0.359750 -0.564706
v 0.631269 0.359750 -0.664706
v 0.631269 0.459750 0.535294
v 0.631269 0.459750 0.435294
v 0.631269 0.459750 0.335294
v 0.631269 0.459750 0.235294
v 0.631269 0.459750 -0.464706
v 0.631269 0.459750 -0.564706
v 0.631269 0.459750 -0.664706
v 0.631269 0.559750 0.535294
v 0.631269 0.559750 0.335294
v 0.631269 0.559750 -0.564706
v 0.631269 0.559750 -0.664706
v -0.668731 -0.340250 0.435294
v -0.668731 -0.340250 0.335294
v -0.668731 -0.340250 -0.564706
v -0.668731 -0.340250 -0.664706
v -0.668731 0.359750 0.435294
v -0.668731 0.359750 0.335294
v -0.668731 0.359750 -0.564706
v -0.668731 0.359750 -0.664706
v -0.668731 0.459750 0.535294
v -0.668731 0.459750 0.435294
v -0.668731 0.459750 0.335294
v -0.668731 0.459750 -0.564706
v -0.668731 0.459750 -0.664706
v -0.668731 0.559750 0.535294
v -0.668731 0.559750 0.335294
v -0.668731 0.559750 -0.564706
v -0.668731 0.559750 -0.664706
v -0.568731 -0.340250 0.335294
v -0.568731 -0.340250 -0.564706
v -0.568731 0.559750 0.535294
v -0.568731 0.559750 0.435294
v -0.568731 0.559750 0.335294
v -0.568731 0.659750 0.535294
v -0.568731 0.659750 0.435294
v -0.568731 0.659750 0.335294
v -0.568731 0.659750 -0.564706
v -0.468731 0.659750 0.535294
v -0.468731 0.659750 0.435294
v -0.468731 0.659750 0.235294
v -0.468731 0.659750 -0.464706
v -0.468731 0.759750 0.535294
v -0.468731 0.759750 0.435294
v -0.468731 0.759750 0.235294
v -0.468731 0.759750 -0.464706
v -0.268731 -0.640250 0.235294
v -0.268731 -0.640250 0.135294
v -0.268731 -0.640250 -0.364706
v -0.268731 -0.640250 -0.464706
v -0.268731 -0.540250 0.235294
v -0.268731 -0.540250 0.135294
v -0.268731 -0.540250 -0.364706
v -0.268731 -0.540250 -0.464706
v -0.168731 -0.640250 0.135294
v -0.168731 -0.640250 0.035294
v -0.168731 -0.640250 -0.264706
v -0.168731 -0.640250 -0.364706
v -0.168731 -0.540250 0.135294
v -0.168731 -0.540250 0.035294
v -0.168731 -0.540250 -0.264706
v -0.168731 -0.540250 -0.364706
v -0.068731 -0.640250 0.035294
v -0.068731 -0.640250 -0.064706
v -0.068731 -0.640250 -0.164706
v -0.068731 -0.640250 -0.264706
v -0.068731 -0.540250 0.035294
v -0.068731 -0.540250 -0.064706
v -0.068731 -0.540250 -0.164706
v -0.068731 -0.540250 -0.264706
v 0.031269 -0.740250 -0.064706
v 0.031269 -0.740250 -0.164706
v 0.031269 -0.640250 -0.064706
v 0.031269 -0.640250 -0.164706
v 0.031269 -0.540250 0.035294
v 0.031269 -0.540250 -0.064706
v 0.031269 -0.540250 -0.164706
v 0.031269 -0.540250 -0.264706
v 0.031269 -0.440250 0.035294
v 0.031269 -0.440250 -0.064706
v 0.031269 -0.440250 -0.164706
v 0.031269 -0.440250 -0.264706
v 0.131269 -0.640250 0.035294
v 0.131269 -0.640250 -0.064706
v 0.131269 -0.640250 -0.164706
v 0.131269 -0.640250 -0.264706
v 0.131269 -0.540250 0.035294
v 0.131269 -0.540250 -0.064706
v 0.131269 -0.540250 -0.164706
v 0.131269 -0.540250 -0.264706
v 0.131269 -0.440250 -0.064706
v 0.131269 -0.440250 -0.164706
v 0.131269 -0.240250 0.635294
v 0.131269 -0.240250 0.535294
v 0.131269 -0.140250 0.635294
v 0.131269 -0.140250 0.535294
v 0.131269 0.159750 0.635294
v 0.131269 0.159750 0.535294
v 0.131269 0.259750 0.635294
v 0.131269 0.259750 0.535294
v 0.131269 0.559750 0.735294
v 0.131269 0.559750 0.435294
v 0.131269 0.659750 0.735294
v 0.131269 0.659750 0.435294
v 0.231269 -0.640250 0.135294
v 0.231269 -0.640250 0.035294
v 0.231269 -0.640250 -0.264706
v 0.231269 -0.640250 -0.364706
v 0.231269 -0.540250 0.135294
v 0.231269 -0.540250 0.035294
v 0.231269 -0.540250 -0.264706
v 0.231269 -0.540250 -0.364706
v 0.231269 -0.140250 0.635294
v 0.231269 -0.140250 0.535294
v 0.231269 -0.040250 0.635294
v 0.231269 -0.040250 0.535294
v 0.231269 0.159750 0.635294
v 0.231269 0.159750 0.535294
v 0.331269 -0.640250 0.235294
v 0.331269 -0.640250 0.135294
v 0.331269 -0.640250 -0.364706
v 0.331269 -0.640250 -0.464706
v 0.331269 -0.540250 0.235294
v 0.331269 -0.540250 0.135294
v 0.331269 -0.540250 -0.364706
v 0.331269 -0.540250 -0.464706
v 0.531269 -0.340250 0.435294
v 0.531269 -0.340250 0.335294
v 0.531269 -0.340250 -0.564706
v 0.531269 -0.340250 -0.664706
v 0.531269 0.359750 0.435294
v 0.531269 0.359750 -0.664706
v 0.531269 0.459750 0.435294
v 0.531269 0.459750 -0.664706
v 0.531269 0.559750 0.435294
v 0.531269 0.559750 0.335294
v 0.531269 0.559750 -0.564706
v 0.531269 0.559750 -0.664706
v 0.631269 -0.440250 0.435294
v 0.631269 -0.440250 -0.664706
v 0.631269 -0.340250 0.535294
v 0.631269 -0.340250 0.435294
v 0.631269 -0.340250 -0.664706
v 0.631269 -0.340250 -0.764706
v 0.631269 0.359750 0.535294
v 0.631269 0.359750 0.435294
v 0.631269 0.359750 -0.664706
v 0.631269 0.359750 -0.764706
v 0.631269 0.459750 0.535294
v 0.631269 0.459750 0.435294
v 0.631269 0.459750 -0.664706
v 0.631269 0.459750 -0.764706
v 0.631269 1.059750 0.535294
v 0.631269 1.059750 -0.764706
v 0.631269 1.159750 0.535294
v 0.631269 1.159750 -0.764706
v 0.731269 -0.340250 0.435294
v 0.731269 -0.340250 -0.664706
v 0.731269 0.359750 0.435294
v 0.731269 0.359750 -0.664706
v 0.731269 0.459750 0.435294
v 0.731269 0.459750 -0.664706
v 0.731269 0.459750 -0.764706
v 0.731269 0.459750 -0.864706
v 0.731269 0.859750 0.535294
v 0.731269 0.859750 -0.764706
v 0.731269 0.859750 -0.864706
v 0.731269 1.059750 0.535294
v 0.731269 1.059750 -0.764706
v 0.831269 0.459750 0.535294
v 0.831269 0.459750 -0.764706
v 0.831269 0.859750 0.535294
v 0.831269 0.859750 -0.764706
v -0.168731 0.559750 0.735294
v -0.168731 0.659750 0.735294
v 0.131269 0.559750 0.735294
v 0.131269 0.659750 0.735294
v -0.268731 -0.140250 0.635294
v -0.268731 0.159750 0.635294
v -0.168731 -0.240250 0.635294
v -0.168731 -0.140250 0.635294
v -0.168731 0.159750 0.635294
v -0.168731 0.259750 0.635294
v -0.068731 0.159750 0.635294
v -0.068731 0.259750 0.635294
v 0.031269 0.059750 0.635294
v 0.031269 0.159750 0.635294
v 0.131269 -0.240250 0.635294
v 0.131269 -0.140250 0.635294
v 0.131269 -0.040250 0.635294
v 0.131269 0.059750 0.635294
v 0.131269 0.159750 0.635294
v 0.131269 0.259750 0.635294
v 0.231269 -0.140250 0.635294
v 0.231269 -0.040250 0.635294
v 0.231269 0.159750 0.635294
v -0.868731 0.459750 0.535294
v -0.868731 0.859750 0.535294
v -0.768731 0.859750 0.535294
v -0.768731 1.059750 0.535294
v -0.668731 -0.340250 0.535294
v -0.668731 0.359750 0.535294
v -0.668731 0.459750 0.535294
v -0.668731 0.559750 0.535294
v -0.668731 1.059750 0.535294
v -0.668731 1.159750 0.535294
v -0.568731 0.559750 0.535294
v -0.568731 0.659750 0.535294
v -0.468731 0.659750 0.535294
v -0.468731 0.759750 0.535294
v -0.268731 -0.140250 0.535294
v -0.268731 0.159750 0.535294
v -0.168731 -0.240250 0.535294
v -0.168731 -0.140250 0.535294
v -0.168731 0.159750 0.535294
v -0.168731 0.259750 0.535294
v -0.068731 0.259750 0.535294
v 0.131269 -0.240250 0.535294
v 0.131269 -0.140250 0.535294
v 0.131269 0.159750 0.535294
v 0.131269 0.259750 0.535294
v 0.231269 -0.140250 0.535294
v 0.231269 -0.040250 0.535294
v 0.231269 0.159750 0.535294
v 0.431269 0.659750 0.535294
v 0.431269 0.759750 0.535294
v 0.531269 0.559750 0.535294
v 0.531269 0.659750 0.535294
v 0.631269 -0.340250 0.535294
v 0.631269 0.359750 0.535294
v 0.631269 0.459750 0.535294
v 0.631269 0.559750 0.535294
v 0.631269 1.059750 0.535294
v 0.631269 1.159750 0.535294
v 0.731269 0.859750 0.535294
v 0.731269 1.059750 0.535294
v 0.831269 0.459750 0.535294
v 0.831269 0.859750 0.535294
v -0.768731 -0.340250 0.435294
v -0.768731 0.359750 0.435294
v -0.768731 0.459750 0.435294
v -0.668731 -0.440250 0.435294
v -0.668731 -0.340250 0.435294
v -0.668731 0.359750 0.435294
v -0.668731 0.459750 0.435294
v -0.568731 0.459750 0.435294
v -0.568731 0.559750 0.435294
v -0.568731 0.659750 0.435294
v -0.468731 0.659750 0.435294
v -0.468731 0.759750 0.435294
v -0.368731 0.559750 0.435294
v -0.368731 0.659750 0.435294
v -0.368731 0.759750 0.435294
v -0.268731 0.659750 0.435294
v -0.268731 0.759750 0.435294
v -0.168731 0.559750 0.435294
v -0.168731 0.659750 0.435294
v -0.168731 0.759750 0.435294
v 0.131269 0.559750 0.435294
v 0.131269 0.659750 0.435294
v 0.131269 0.759750 0.435294
v 0.231269 0.659750 0.435294
v 0.231269 0.759750 0.435294
v 0.331269 0.559750 0.435294
v 0.331269 0.659750 0.435294
v 0.331269 0.759750 0.435294
v 0.431269 0.659750 0.435294
v 0.431269 0.759750 0.435294
v 0.531269 0.459750 0.435294
v 0.531269 0.559750 0.435294
v 0.531269 0.659750 0.435294
v 0.631269 -0.440250 0.435294
v 0.631269 -0.340250 0.435294
v 0.631269 0.359750 0.435294
v 0.631269 0.459750 0.435294
v 0.731269 -0.340250 0.435294
v 0.731269 0.359750 0.435294
v 0.731269 0.459750 0.435294
v -0.668731 -0.340250 0.335294
v -0.668731 0.359750 0.335294
v -0.668731 0.459750 0.335294
v -0.668731 0.559750 0.335294
v -0.568731 -0.340250 0.335294
v -0.568731 0.559750 0.335294
v 0.531269 -0.340250 0.335294
v 0.531269 0.559750 0.335294
v 0.631269 -0.340250 0.335294
v 0.631269 0.359750 0.335294
v 0.631269 0.459750 0.335294
v 0.631269 0.559750 0.335294
v -0.368731 -0.640250 0.235294
v -0.368731 -0.540250 0.235294
v -0.268731 -0.640250 0.235294
v -0.268731 -0.540250 0.235294
v 0.231269 -0.640250 0.235294
v 0.231269 -0.540250 0.235294
v 0.331269 -0.640250 0.235294
v 0.331269 -0.540250 0.235294
v -0.268731 -0.640250 0.135294
v -0.268731 -0.540250 0.135294
v -0.168731 -0.640250 0.135294
v -0.168731 -0.540250 0.135294
v 0.131269 -0.640250 0.135294
v 0.131269 -0.540250 0.135294
v 0.231269 -0.640250 0.135294
v 0.231269 -0.540250 0.135294
v -0.168731 -0.640250 0.035294
v -0.168731 -0.540250 0.035294
v -0.068731 -0.640250 0.035294
v -0.068731 -0.540250 0.035294
v -0.068731 -0.440250 0.035294
v 0.031269 -0.640250 0.035294
v 0.031269 -0.540250 0.035294
v 0.031269 -0.440250 0.035294
v 0.131269 -0.640250 0.035294
v 0.131269 -0.540250 0.035294
v -0.168731 -0.540250 -0.064706
v -0.168731 -0.440250 -0.064706
v -0.068731 -0.740250 -0.064706
v -0.068731 -0.640250 -0.064706
v -0.068731 -0.540250 -0.064706
v -0.068731 -0.440250 -0.064706
v 0.031269 -0.740250 -0.064706
v 0.031269 -0.640250 -0.064706
v 0.031269 -0.540250 -0.064706
v 0.031269 -0.440250 -0.064706
v 0.131269 -0.540250 -0.064706
v 0.131269 -0.440250 -0.064706
v -0.168731 -0.640250 -0.164706
v -0.168731 -0.540250 -0.164706
v -0.068731 -0.640250 -0.164706
v -0.068731 -0.540250 -0.164706
v 0.031269 -0.640250 -0.164706
v 0.031269 -0.540250 -0.164706
v 0.131269 -0.640250 -0.164706
v 0.131269 -0.540250 -0.164706
v -0.268731 -0.640250 -0.264706
v -0.268731 -0.540250 -0.264706
v -0.168731 -0.640250 -0.264706
v -0.168731 -0.540250 -0.264706
v 0.131269 -0.640250 -0.264706
v 0.131269 -0.540250 -0.264706
v 0.231269 -0.640250 -0.264706
v 0.231269 -0.540250 -0.264706
v -0.368731 -0.640250 -0.364706
v -0.368731 -0.540250 -0.364706
v -0.268731 -0.640250 -0.364706
v -0.268731 -0.540250 -0.364706
v 0.231269 -0.640250 -0.364706
v 0.231269 -0.540250 -0.364706
v 0.331269 -0.640250 -0.364706
v 0.331269 -0.540250 -0.364706
v -0.468731 0.659750 -0.464706
v -0.468731 0.759750 -0.464706
v 0.431269 0.659750 -0.464706
v 0.431269 0.759750 -0.464706
v 0.531269 -0.340250 -0.464706
v 0.531269 0.459750 -0.464706
v 0.631269 -0.340250 -0.464706
v 0.631269 0.359750 -0.464706
v 0.631269 0.459750 -0.464706
v -0.568731 -0.340250 -0.564706
v -0.568731 0.659750 -0.564706
v 0.531269 -0.340250 -0.564706
v 0.531269 0.659750 -0.564706
v -0.668731 -0.340250 -0.664706
v -0.668731 0.359750 -0.664706
v -0.668731 0.459750 -0.664706
v -0.668731 0.559750 -0.664706
v -0.568731 -0.340250 -0.664706
v -0.568731 0.359750 -0.664706
v -0.568731 0.459750 -0.664706
v -0.568731 0.559750 -0.664706
v 0.531269 -0.340250 -0.664706
v 0.531269 0.359750 -0.664706
v 0.531269 0.459750 -0.664706
v 0.531269 0.559750 -0.664706
v 0.631269 -0.340250 -0.664706
v 0.631269 0.359750 -0.664706
v 0.631269 0.459750 -0.664706
v 0.631269 0.559750 -0.664706
v -0.668731 -0.340250 0.435294
v -0.668731 0.359750 0.435294
v -0.668731 0.459750 0.435294
v -0.568731 -0.340250 0.435294
v -0.568731 0.359750 0.435294
v -0.568731 0.459750 0.435294
v 0.531269 -0.340250 0.435294
v 0.531269 0.359750 0.435294
v 0.531269 0.459750 0.435294
v 0.631269 -0.340250 0.435294
v 0.631269 0.359750 0.435294
v 0.631269 0.459750 0.435294
v -0.568731 -0.340250 0.335294
v -0.568731 0.559750 0.335294
v -0.568731 0.659750 0.335294
v -0.368731 0.559750 0.335294
v -0.368731 0.659750 0.335294
v 0.331269 0.559750 0.335294
v 0.331269 0.659750 0.335294
v 0.531269 -0.340250 0.335294
v 0.531269 0.559750 0.335294
v 0.531269 0.659750 0.335294
v -0.468731 0.659750 0.235294
v -0.468731 0.759750 0.235294
v 0.431269 0.659750 0.235294
v 0.431269 0.759750 0.235294
v 0.531269 -0.340250 0.235294
v 0.531269 0.459750 0.235294
v 0.631269 -0.340250 0.235294
v 0.631269 0.359750 0.235294
v 0.631269 0.459750 0.235294
v -0.368731 -0.640250 0.135294
v -0.368731 -0.540250 0.135294
v -0.268731 -0.640250 0.135294
v -0.268731 -0.540250 0.135294
v 0.231269 -0.640250 0.135294
v 0.231269 -0.540250 0.135294
v 0.331269 -0.640250 0.135294
v 0.331269 -0.540250 0.135294
v -0.268731 -0.640250 0.035294
v -0.268731 -0.540250 0.035294
v -0.168731 -0.640250 0.035294
v -0.168731 -0.540250 0.035294
v 0.131269 -0.640250 0.035294
v 0.131269 -0.540250 0.035294
v 0.231269 -0.640250 0.035294
v 0.231269 -0.540250 0.035294
v -0.168731 -0.640250 -0.064706
v -0.168731 -0.540250 -0.064706
v -0.068731 -0.640250 -0.064706
v -0.068731 -0.540250 -0.064706
v 0.031269 -0.640250 -0.064706
v 0.031269 -0.540250 -0.064706
v 0.131269 -0.640250 -0.064706
v 0.131269 -0.540250 -0.064706
v -0.168731 -0.540250 -0.164706
v -0.168731 -0.440250 -0.164706
v -0.068731 -0.740250 -0.164706
v -0.068731 -0.640250 -0.164706
v -0.068731 -0.540250 -0.164706
v -0.068731 -0.440250 -0.164706
v 0.031269 -0.740250 -0.164706
v 0.031269 -0.640250 -0.164706
v 0.031269 -0.540250 -0.164706
v 0.031269 -0.440250 -0.164706
v 0.131269 -0.540250 -0.164706
v 0.131269 -0.440250 -0.164706
v -0.168731 -0.640250 -0.264706
v -0.168731 -0.540250 -0.264706
v -0.068731 -0.640250 -0.264706
v -0.068731 -0.540250 -0.264706
v -0.068731 -0.440250 -0.264706
v 0.031269 -0.640250 -0.264706
v 0.031269 -0.540250 -0.264706
v 0.031269 -0.440250 -0.264706
v 0.131269 -0.640250 -0.264706
v 0.131269 -0.540250 -0.264706
v -0.268731 -0.640250 -0.364706
v -0.268731 -0.540250 -0.364706
v -0.168731 -0.640250 -0.364706
v -0.168731 -0.540250 -0.364706
v 0.131269 -0.640250 -0.364706
v 0.131269 -0.540250 -0.364706
v 0.231269 -0.640250 -0.364706
v 0.231269 -0.540250 -0.364706
v -0.368731 -0.640250 -0.464706
v -0.368731 -0.540250 -0.464706
v -0.268731 -0.640250 -0.464706
v -0.268731 -0.540250 -0.464706
v 0.231269 -0.640250 -0.464706
v 0.231269 -0.540250 -0.464706
v 0.331269 -0.640250 -0.464706
v 0.331269 -0.540250 -0.464706
v -0.668731 -0.340250 -0.564706
v -0.668731 0.359750 -0.564706
v -0.668731 0.459750 -0.564706
v -0.668731 0.559750 -0.564706
v -0.568731 -0.340250 -0.564706
v -0.568731 0.559750 -0.564706
v 0.531269 -0.340250 -0.564706
v 0.531269 0.559750 -0.564706
v 0.631269 -0.340250 -0.564706
v 0.631269 0.359750 -0.564706
v 0.631269 0.459750 -0.564706
v 0.631269 0.559750 -0.564706
v -0.768731 -0.340250 -0.664706
v -0.768731 0.359750 -0.664706
v -0.768731 0.459750 -0.664706
v -0.668731 -0.440250 -0.664706
v -0.668731 -0.340250 -0.664706
v -0.668731 0.359750 -0.664706
v -0.668731 0.459750 -0.664706
v 0.631269 -0.440250 -0.664706
v 0.631269 -0.340250 -0.664706
v 0.631269 0.359750 -0.664706
v 0.631269 0.459750 -0.664706
v 0.731269 -0.340250 -0.664706
v 0.731269 0.359750 -0.664706
v 0.731269 0.459750 -0.664706
v -0.868731 0.459750 -0.764706
v -0.868731 0.859750 -0.764706
v -0.768731 0.459750 -0.764706
v -0.768731 0.859750 -0.764706
v -0.768731 1.059750 -0.764706
v -0.668731 -0.340250 -0.764706
v -0.668731 0.359750 -0.764706
v -0.668731 0.459750 -0.764706
v -0.668731 1.059750 -0.764706
v -0.668731 1.159750 -0.764706
v 0.631269 -0.340250 -0.764706
v 0.631269 0.359750 -0.764706
v 0.631269 0.459750 -0.764706
v 0.631269 1.059750 -0.764706
v 0.631269 1.159750 -0.764706
v 0.731269 0.459750 -0.764706
v 0.731269 0.859750 -0.764706
v 0.731269 1.059750 -0.764706
v 0.831269 0.459750 -0.764706
v 0.831269 0.859750 -0.764706
v -0.768731 0.459750 -0.864706
v -0.768731 0.859750 -0.864706
v 0.731269 0.459750 -0.864706
v 0.731269 0.859750 -0.864706
v -0.068731 -0.740250 -0.064706
v 0.031269 -0.740250 -0.064706
v -0.068731 -0.740250 -0.164706
v 0.031269 -0.740250 -0.164706
v -0.368731 -0.640250 0.235294
v -0.268731 -0.640250 0.235294
v 0.231269 -0.640250 0.235294
v 0.331269 -0.640250 0.235294
v -0.368731 -0.640250 0.135294
v -0.268731 -0.640250 0.135294
v -0.168731 -0.640250 0.135294
v 0.131269 -0.640250 0.135294
v 0.231269 -0.640250 0.135294
v 0.331269 -0.640250 0.135294
v -0.268731 -0.640250 0.035294
v -0.168731 -0.640250 0.035294
v -0.068731 -0.640250 0.035294
v 0.031269 -0.640250 0.035294
v 0.131269 -0.640250 0.035294
v 0.231269 -0.640250 0.035294
v -0.168731 -0.640250 -0.064706
v -0.068731 -0.640250 -0.064706
v 0.031269 -0.640250 -0.064706
v 0.131269 -0.640250 -0.064706
v -0.168731 -0.640250 -0.164706
v -0.068731 -0.640250 -0.164706
v 0.031269 -0.640250 -0.164706
v 0.131269 -0.640250 -0.164706
v -0.268731 -0.640250 -0.264706
v -0.168731 -0.640250 -0.264706
v -0.068731 -0.640250 -0.264706
v 0.031269 -0.640250 -0.264706
v 0.131269 -0.640250 -0.264706
v 0.231269 -0.640250 -0.264706
v -0.368731 -0.640250 -0.364706
v -0.268731 -0.640250 -0.364706
v -0.168731 -0.640250 -0.364706
v 0.131269 -0.640250 -0.364706
v 0.231269 -0.640250 -0.364706
v 0.331269 -0.640250 -0.364706
v -0.368731 -0.640250 -0.464706
v -0.268731 -0.640250 -0.464706
v 0.231269 -0.640250 -0.464706
v 0.331269 -0.640250 -0.464706
v -0.068731 -0.540250 0.035294
v 0.031269 -0.540250 0.035294
v -0.168731 -0.540250 -0.064706
v -0.068731 -0.540250 -0.064706
v 0.031269 -0.540250 -0.064706
v 0.131269 -0.540250 -0.064706
v -0.168731 -0.540250 -0.164706
v -0.068731 -0.540250 -0.164706
v 0.031269 -0.540250 -0.164706
v 0.131269 -0.540250 -0.164706
v -0.068731 -0.540250 -0.264706
v 0.031269 -0.540250 -0.264706
v -0.668731 -0.440250 0.435294
v 0.631269 -0.440250 0.435294
v -0.168731 -0.440250 0.035294
v -0.068731 -0.440250 0.035294
v 0.031269 -0.440250 0.035294
v 0.131269 -0.440250 0.035294
v -0.168731 -0.440250 -0.064706
v -0.068731 -0.440250 -0.064706
v 0.031269 -0.440250 -0.064706
v 0.131269 -0.440250 -0.064706
v -0.168731 -0.440250 -0.164706
v -0.068731 -0.440250 -0.164706
v 0.031269 -0.440250 -0.164706
v 0.131269 -0.440250 -0.164706
v -0.168731 -0.440250 -0.264706
v -0.068731 -0.440250 -0.264706
v 0.031269 -0.440250 -0.264706
v 0.131269 -0.440250 -0.264706
v -0.668731 -0.440250 -0.664706
v 0.631269 -0.440250 -0.664706
v -0.668731 -0.340250 0.535294
v 0.631269 -0.340250 0.535294
v -0.768731 -0.340250 0.435294
v -0.668731 -0.340250 0.435294
v 0.631269 -0.340250 0.435294
v 0.731269 -0.340250 0.435294
v -0.768731 -0.340250 -0.664706
v -0.668731 -0.340250 -0.664706
v 0.631269 -0.340250 -0.664706
v 0.731269 -0.340250 -0.664706
v -0.668731 -0.340250 -0.764706
v 0.631269 -0.340250 -0.764706
v -0.168731 -0.240250 0.635294
v 0.131269 -0.240250 0.635294
v -0.168731 -0.240250 0.535294
v 0.131269 -0.240250 0.535294
v -0.268731 -0.140250 0.635294
v -0.168731 -0.140250 0.635294
v 0.131269 -0.140250 0.635294
v 0.231269 -0.140250 0.635294
v -0.268731 -0.140250 0.535294
v -0.168731 -0.140250 0.535294
v 0.131269 -0.140250 0.535294
v 0.231269 -0.140250 0.535294
v -0.868731 0.459750 0.535294
v -0.668731 0.459750 0.535294
v 0.631269 0.459750 0.535294
v 0.831269 0.459750 0.535294
v -0.768731 0.459750 0.435294
v -0.668731 0.459750 0.435294
v 0.631269 0.459750 0.435294
v 0.731269 0.459750 0.435294
v 0.531269 0.459750 0.235294
v 0.631269 0.459750 0.235294
v 0.531269 0.459750 -0.464706
v 0.631269 0.459750 -0.464706
v -0.768731 0.459750 -0.664706
v -0.668731 0.459750 -0.664706
v 0.631269 0.459750 -0.664706
v 0.731269 0.459750 -0.664706
v -0.868731 0.459750 -0.764706
v -0.768731 0.459750 -0.764706
v -0.668731 0.459750 -0.764706
v 0.631269 0.459750 -0.764706
v 0.731269 0.459750 -0.764706
v 0.831269 0.459750 -0.764706
v -0.768731 0.459750 -0.864706
v 0.731269 0.459750 -0.864706
v -0.168731 0.559750 0.735294
v 0.131269 0.559750 0.735294
v -0.668731 0.559750 0.535294
v -0.568731 0.559750 0.535294
v 0.531269 0.559750 0.535294
v 0.631269 0.559750 0.535294
v -0.568731 0.559750 0.435294
v -0.168731 0.559750 0.435294
v 0.131269 0.559750 0.435294
v 0.531269 0.559750 0.435294
v -0.668731 0.559750 0.335294
v -0.568731 0.559750 0.335294
v 0.531269 0.559750 0.335294
v 0.631269 0.559750 0.335294
v -0.668731 0.559750 -0.564706
v -0.568731 0.559750 -0.564706
v 0.531269 0.559750 -0.564706
v 0.631269 0.559750 -0.564706
v -0.668731 0.559750 -0.664706
v -0.568731 0.559750 -0.664706
v 0.531269 0.559750 -0.664706
v 0.631269 0.559750 -0.664706
v -0.568731 0.659750 0.535294
v -0.468731 0.659750 0.535294
v 0.431269 0.659750 0.535294
v 0.531269 0.659750 0.535294
v -0.568731 0.659750 0.435294
v -0.468731 0.659750 0.435294
v 0.431269 0.659750 0.435294
v 0.531269 0.659750 0.435294
v -0.568731 0.659750 0.335294
v -0.368731 0.659750 0.335294
v 0.331269 0.659750 0.335294
v 0.531269 0.659750 0.335294
v -0.468731 0.659750 0.235294
v 0.431269 0.659750 0.235294
v -0.468731 0.659750 -0.464706
v 0.431269 0.659750 -0.464706
v -0.568731 0.659750 -0.564706
v 0.531269 0.659750 -0.564706
v -0.468731 0.759750 0.535294
v 0.431269 0.759750 0.535294
v -0.468731 0.759750 0.435294
v -0.368731 0.759750 0.435294
v -0.268731 0.759750 0.435294
v -0.168731 0.759750 0.435294
v 0.131269 0.759750 0.435294
v 0.231269 0.759750 0.435294
v 0.331269 0.759750 0.435294
v 0.431269 0.759750 0.435294
v -0.468731 0.759750 0.235294
v 0.431269 0.759750 0.235294
v -0.468731 0.759750 -0.464706
v 0.431269 0.759750 -0.464706
v -0.368731 -0.540250 0.235294
v -0.268731 -0.540250 0.235294
v 0.231269 -0.540250 0.235294
v 0.331269 -0.540250 0.235294
v -0.368731 -0.540250 0.135294
v -0.268731 -0.540250 0.135294
v -0.168731 -0.540250 0.135294
v 0.131269 -0.540250 0.135294
v 0.231269 -0.540250 0.135294
v 0.331269 -0.540250 0.135294
v -0.268731 -0.540250 0.035294
v -0.168731 -0.540250 0.035294
v -0.068731 -0.540250 0.035294
v 0.031269 -0.540250 0.035294
v 0.131269 -0.540250 0.035294
v 0.231269 -0.540250 0.035294
v -0.168731 -0.540250 -0.064706
v -0.068731 -0.540250 -0.064706
v 0.031269 -0.540250 -0.064706
v 0.131269 -0.540250 -0.064706
v -0.168731 -0.540250 -0.164706
v -0.068731 -0.540250 -0.164706
v 0.031269 -0.540250 -0.164706
v 0.131269 -0.540250 -0.164706
v -0.268731 -0.540250 -0.264706
v -0.168731 -0.540250 -0.264706
v -0.068731 -0.540250 -0.264706
v 0.031269 -0.540250 -0.264706
v 0.131269 -0.540250 -0.264706
v 0.231269 -0.540250 -0.264706
v -0.368731 -0.540250 -0.364706
v -0.268731 -0.540250 -0.364706
v -0.168731 -0.540250 -0.364706
v 0.131269 -0.540250 -0.364706
v 0.231269 -0.540250 -0.364706
v 0.331269 -0.540250 -0.364706
v -0.368731 -0.540250 -0.464706
v -0.268731 -0.540250 -0.464706
v 0.231269 -0.540250 -0.464706
v 0.331269 -0.540250 -0.464706
v -0.668731 -0.340250 0.435294
v -0.568731 -0.340250 0.435294
v 0.531269 -0.340250 0.435294
v 0.631269 -0.340250 0.435294
v -0.668731 -0.340250 0.335294
v -0.568731 -0.340250 0.335294
v 0.531269 -0.340250 0.335294
v 0.631269 -0.340250 0.335294
v 0.531269 -0.340250 0.235294
v 0.631269 -0.340250 0.235294
v -0.168731 -0.340250 0.035294
v 0.131269 -0.340250 0.035294
v -0.168731 -0.340250 -0.264706
v 0.131269 -0.340250 -0.264706
v 0.531269 -0.340250 -0.464706
v 0.631269 -0.340250 -0.464706
v -0.668731 -0.340250 -0.564706
v -0.568731 -0.340250 -0.564706
v 0.531269 -0.340250 -0.564706
v 0.631269 -0.340250 -0.564706
v -0.668731 -0.340250 -0.664706
v -0.568731 -0.340250 -0.664706
v 0.531269 -0.340250 -0.664706
v 0.631269 -0.340250 -0.664706
v -0.268731 0.159750 0.635294
v -0.168731 0.159750 0.635294
v 0.131269 0.159750 0.635294
v 0.231269 0.159750 0.635294
v -0.268731 0.159750 0.535294
v -0.168731 0.159750 0.535294
v 0.131269 0.159750 0.535294
v 0.231269 0.159750 0.535294
v -0.168731 0.259750 0.635294
v -0.068731 0.259750 0.635294
v 0.131269 0.259750 0.635294
v -0.168731 0.259750 0.535294
v -0.068731 0.259750 0.535294
v 0.131269 0.259750 0.535294
v -0.668731 0.459750 0.535294
v 0.631269 0.459750 0.535294
v -0.668731 0.459750 0.435294
v -0.568731 0.459750 0.435294
v 0.531269 0.459750 0.435294
v 0.631269 0.459750 0.435294
v -0.168731 0.659750 0.735294
v 0.131269 0.659750 0.735294
v -0.168731 0.659750 0.435294
v 0.131269 0.659750 0.435294
v -0.868731 0.859750 0.535294
v -0.768731 0.859750 0.535294
v 0.731269 0.859750 0.535294
v 0.831269 0.859750 0.535294
v -0.868731 0.859750 -0.764706
v -0.768731 0.859750 -0.764706
v 0.731269 0.859750 -0.764706
v 0.831269 0.859750 -0.764706
v -0.768731 0.859750 -0.864706
v 0.731269 0.859750 -0.864706
v -0.768731 1.059750 0.535294
v -0.668731 1.059750 0.535294
v 0.631269 1.059750 0.535294
v 0.731269 1.059750 0.535294
v -0.768731 1.059750 -0.764706
v -0.668731 1.059750 -0.764706
v 0.631269 1.059750 -0.764706
v 0.731269 1.059750 -0.764706
v -0.668731 1.159750 0.535294
v 0.631269 1.159750 0.535294
v -0.668731 1.159750 -0.764706
v 0.631269 1.159750 -0.764706
vn -1.0000 -0.0000 -0.0000
vn 1.0000 -0.0000 -0.0000
vn -0.0000 -0.0000 1.0000
vn -0.0000 -0.0000 -1.0000
vn -0.0000 -1.0000 -0.0000
vn -0.0000 1.0000 -0.0000
vt 0.994141 0.500000
vt 0.041016 0.500000
vt 0.208984 0.500000
vt 0.021484 0.500000
vt 0.962891 0.500000
vt 0.068359 0.500000
vt 0.205078 0.500000
vt 0.958984 0.500000
vt 0.111328 0.500000
vt 0.037109 0.500000
s 1
usemtl palette
f 3/1/1 2/1/1 1/1/1
f 4/1/1 2/1/1 3/1/1
f 7/2/1 6/2/1 5/2/1
f 8/2/1 6/2/1 7/2/1
f 9/3/1 8/3/1 7/3/1
f 10/3/1 8/3/1 9/3/1
f 14/1/1 12/1/1 11/1/1
f 15/1/1 12/1/1 14/1/1
f 16/1/1 14/1/1 13/1/1
f 17/1/1 14/1/1 16/1/1
f 21/2/1 19/2/1 18/2/1
f 22/2/1 19/2/1 21/2/1
f 24/2/1 21/2/1 20/2/1
f 25/2/1 21/2/1 24/2/1
f 26/2/1 23/2/1 22/2/1
f 27/2/1 23/2/1 26/2/1
f 28/3/1 25/3/1 24/3/1
f 29/3/1 25/3/1 28/3/1
f 30/3/1 27/3/1 26/3/1
f 31/3/1 27/3/1 30/3/1
f 34/1/1 33/1/1 32/1/1
f 35/1/1 33/1/1 34/1/1
f 40/4/1 37/4/1 36/4/1
f 41/4/1 39/4/1 38/4/1
f 42/4/1 37/4/1 40/4/1
f 43/4/1 41/4/1 38/4/1
f 44/4/1 37/4/1 42/4/1
f 45/4/1 37/4/1 44/4/1
f 46/4/1 43/4/1 38/4/1
f 47/4/1 43/4/1 46/4/1
f 52/3/1 49/3/1 48/3/1
f 53/3/1 49/3/1 52/3/1
f 54/3/1 51/3/1 50/3/1
f 55/3/1 51/3/1 54/3/1
f 60/3/1 57/3/1 56/3/1
f 61/3/1 57/3/1 60/3/1
f 62/3/1 59/3/1 58/3/1
f 63/3/1 59/3/1 62/3/1
f 66/5/1 65/5/1 64/5/1
f 67/5/1 65/5/1 66/5/1
f 72/3/1 69/3/1 68/3/1
f 73/3/1 69/3/1 72/3/1
f 74/3/1 71/3/1 70/3/1
f 75/3/1 71/3/1 74/3/1
f 76/3/1 74/3/1 73/3/1
f 77/3/1 74/3/1 76/3/1
f 80/5/1 79/5/1 78/5/1
f 81/5/1 79/5/1 80/5/1
f 84/5/1 83/5/1 82/5/1
f 85/5/1 83/5/1 84/5/1
f 88/6/1 87/6/1 86/6/1
f 89/6/1 87/6/1 88/6/1
f 92/3/1 91/3/1 90/3/1
f 93/3/1 91/3/1 92/3/1
f 95/7/1 93/7/1 92/7/1
f 96/7/1 93/7/1 95/7/1
f 98/3/1 95/3/1 94/3/1
f 99/3/1 95/3/1 98/3/1
f 100/3/1 97/3/1 96/3/1
f 101/3/1 97/3/1 100/3/1
f 106/3/1 103/3/1 102/3/1
f 107/3/1 103/3/1 106/3/1
f 108/3/1 105/3/1 104/3/1
f 109/3/1 105/3/1 108/3/1
f 114/3/1 111/3/1 110/3/1
f 115/3/1 111/3/1 114/3/1
f 116/3/1 113/3/1 112/3/1
f 117/3/1 113/3/1 116/3/1
f 122/3/1 119/3/1 118/3/1
f 123/3/1 119/3/1 122/3/1
f 124/3/1 121/3/1 120/3/1
f 125/3/1 121/3/1 124/3/1
f 130/1/1 127/1/1 126/1/1
f 131/1/1 127/1/1 130/1/1
f 132/4/1 129/4/1 128/4/1
f 133/4/1 129/4/1 132/4/1
f 138/4/1 135/4/1 134/4/1
f 139/4/1 137/4/1 136/4/1
f 142/4/1 138/4/1 134/4/1
f 142/4/1 139/4/1 138/4/1
f 143/1/1 141/1/1 140/1/1
f 144/1/1 141/1/1 143/1/1
f 145/4/1 139/4/1 142/4/1
f 146/4/1 137/4/1 139/4/1
f 146/4/1 139/4/1 145/4/1
f 153/2/1 148/2/1 147/2/1
f 154/2/1 148/2/1 153/2/1
f 155/2/1 150/2/1 149/2/1
f 156/2/1 150/2/1 155/2/1
f 157/2/1 152/2/1 151/2/1
f 158/2/1 152/2/1 157/2/1
f 160/3/1 154/3/1 153/3/1
f 161/3/1 154/3/1 160/3/1
f 162/3/1 156/3/1 155/3/1
f 163/3/1 156/3/1 162/3/1
f 164/3/1 158/3/1 157/3/1
f 165/3/1 158/3/1 164/3/1
f 166/1/1 161/1/1 160/1/1
f 166/1/1 160/1/1 159/1/1
f 167/1/1 161/1/1 166/1/1
f 168/1/1 165/1/1 164/1/1
f 169/1/1 165/1/1 168/1/1
f 170/2/2 171/2/2 174/2/2
f 174/2/2 171/2/2 175/2/2
f 172/2/2 173/2/2 176/2/2
f 176/2/2 173/2/2 177/2/2
f 174/3/2 175/3/2 179/3/2
f 179/3/2 175/3/2 180/3/2
f 176/3/2 177/3/2 181/3/2
f 181/3/2 177/3/2 182/3/2
f 179/1/2 180/1/2 183/1/2
f 178/1/2 179/1/2 183/1/2
f 183/1/2 180/1/2 184/1/2
f 181/1/2 182/1/2 185/1/2
f 185/1/2 182/1/2 186/1/2
f 187/4/2 188/4/2 191/4/2
f 189/1/2 190/1/2 192/1/2
f 192/1/2 190/1/2 193/1/2
f 191/4/2 188/4/2 194/4/2
f 194/4/2 188/4/2 195/4/2
f 196/1/2 197/1/2 200/1/2
f 200/1/2 197/1/2 201/1/2
f 198/4/2 199/4/2 202/4/2
f 202/4/2 199/4/2 203/4/2
f 204/3/2 205/3/2 208/3/2
f 208/3/2 205/3/2 209/3/2
f 206/3/2 207/3/2 210/3/2
f 210/3/2 207/3/2 211/3/2
f 212/3/2 213/3/2 216/3/2
f 216/3/2 213/3/2 217/3/2
f 214/3/2 215/3/2 218/3/2
f 218/3/2 215/3/2 219/3/2
f 220/3/2 221/3/2 224/3/2
f 224/3/2 221/3/2 225/3/2
f 222/3/2 223/3/2 226/3/2
f 226/3/2 223/3/2 227/3/2
f 228/3/2 229/3/2 230/3/2
f 230/3/2 229/3/2 231/3/2
f 230/7/2 231/7/2 233/7/2
f 233/7/2 231/7/2 234/7/2
f 232/3/2 233/3/2 236/3/2
f 236/3/2 233/3/2 237/3/2
f 234/3/2 235/3/2 238/3/2
f 238/3/2 235/3/2 239/3/2
f 240/3/2 241/3/2 244/3/2
f 244/3/2 241/3/2 245/3/2
f 242/3/2 243/3/2 246/3/2
f 246/3/2 243/3/2 247/3/2
f 245/3/2 246/3/2 248/3/2
f 248/3/2 246/3/2 249/3/2
f 250/5/2 251/5/2 252/5/2
f 252/5/2 251/5/2 253/5/2
f 254/8/2 255/8/2 256/8/2
f 256/8/2 255/8/2 257/8/2
f 258/6/2 259/6/2 260/6/2
f 260/6/2 259/6/2 261/6/2
f 262/3/2 263/3/2 266/3/2
f 266/3/2 263/3/2 267/3/2
f 264/3/2 265/3/2 268/3/2
f 268/3/2 265/3/2 269/3/2
f 270/5/2 271/5/2 272/5/2
f 272/5/2 271/5/2 273/5/2
f 272/8/2 273/8/2 274/8/2
f 274/8/2 273/8/2 275/8/2
f 276/3/2 277/3/2 280/3/2
f 280/3/2 277/3/2 281/3/2
f 278/3/2 279/3/2 282/3/2
f 282/3/2 279/3/2 283/3/2
f 284/4/2 285/4/2 288/4/2
f 286/4/2 287/4/2 289/4/2
f 288/4/2 285/4/2 290/4/2
f 286/4/2 289/4/2 291/4/2
f 290/4/2 285/4/2 292/4/2
f 292/4/2 285/4/2 293/4/2
f 286/4/2 291/4/2 294/4/2
f 294/4/2 291/4/2 295/4/2
f 296/2/2 297/2/2 299/2/2
f 299/2/2 297/2/2 300/2/2
f 298/2/2 299/2/2 302/2/2
f 302/2/2 299/2/2 303/2/2
f 300/2/2 301/2/2 304/2/2
f 304/2/2 301/2/2 305/2/2
f 302/3/2 303/3/2 306/3/2
f 306/3/2 303/3/2 307/3/2
f 304/3/2 305/3/2 308/3/2
f 308/3/2 305/3/2 309/3/2
f 310/1/2 311/1/2 312/1/2
f 312/1/2 311/1/2 313/1/2
f 314/2/2 315/2/2 316/2/2
f 316/2/2 315/2/2 317/2/2
f 316/3/2 317/3/2 318/3/2
f 318/3/2 317/3/2 319/3/2
f 320/1/2 321/1/2 323/1/2
f 323/1/2 321/1/2 324/1/2
f 322/1/2 323/1/2 325/1/2
f 325/1/2 323/1/2 326/1/2
f 327/1/2 328/1/2 329/1/2
f 329/1/2 328/1/2 330/1/2
f 333/6/3 332/6/3 331/6/3
f 334/6/3 332/6/3 333/6/3
f 338/5/3 336/5/3 335/5/3
f 339/5/3 336/5/3 338/5/3
f 341/5/3 338/5/3 337/5/3
f 341/5/3 340/5/3 339/5/3
f 341/5/3 339/5/3 338/5/3
f 342/5/3 340/5/3 341/5/3
f 343/5/3 341/5/3 337/5/3
f 344/8/3 342/8/3 341/8/3
f 344/5/3 341/5/3 343/5/3
f 345/5/3 343/5/3 337/5/3
f 346/5/3 343/5/3 345/5/3
f 347/5/3 343/5/3 346/5/3
f 348/8/3 344/8/3 343/8/3
f 348/5/3 343/5/3 347/5/3
f 349/8/3 342/8/3 344/8/3
f 349/8/3 344/8/3 348/8/3
f 350/8/3 342/8/3 349/8/3
f 351/5/3 347/5/3 346/5/3
f 352/8/3 348/8/3 347/8/3
f 352/5/3 347/5/3 351/5/3
f 352/8/3 349/8/3 348/8/3
f 353/8/3 349/8/3 352/8/3
f 356/1/3 355/1/3 354/1/3
f 360/1/3 356/1/3 354/1/3
f 360/1/3 357/1/3 356/1/3
f 361/1/3 357/1/3 360/1/3
f 362/1/3 357/1/3 361/1/3
f 364/1/3 363/1/3 362/1/3
f 364/1/3 362/1/3 361/1/3
f 365/1/3 363/1/3 364/1/3
f 366/1/3 363/1/3 365/1/3
f 367/1/3 363/1/3 366/1/3
f 368/2/3 359/2/3 358/2/3
f 369/2/3 359/2/3 368/2/3
f 370/2/3 368/2/3 358/2/3
f 371/2/3 368/2/3 370/2/3
f 372/2/3 359/2/3 369/2/3
f 373/2/3 359/2/3 372/2/3
f 374/2/3 359/2/3 373/2/3
f 375/2/3 370/2/3 358/2/3
f 378/2/3 359/2/3 374/2/3
f 379/2/3 376/2/3 375/2/3
f 381/2/3 378/2/3 377/2/3
f 383/1/3 363/1/3 367/1/3
f 385/1/3 383/1/3 382/1/3
f 386/2/3 381/2/3 380/2/3
f 386/2/3 380/2/3 379/2/3
f 386/2/3 375/2/3 358/2/3
f 386/2/3 379/2/3 375/2/3
f 387/3/3 360/3/3 359/3/3
f 387/2/3 381/2/3 386/2/3
f 387/2/3 359/2/3 378/2/3
f 387/2/3 378/2/3 381/2/3
f 388/3/3 360/3/3 387/3/3
f 389/1/3 385/1/3 384/1/3
f 390/1/3 383/1/3 385/1/3
f 390/1/3 363/1/3 383/1/3
f 390/1/3 385/1/3 389/1/3
f 391/1/3 363/1/3 390/1/3
f 392/1/3 389/1/3 388/1/3
f 392/1/3 390/1/3 389/1/3
f 393/1/3 390/1/3 392/1/3
f 394/1/3 392/1/3 388/1/3
f 395/1/3 392/1/3 394/1/3
f 400/2/3 397/2/3 396/2/3
f 401/3/3 398/3/3 397/3/3
f 401/2/3 397/2/3 400/2/3
f 402/3/3 398/3/3 401/3/3
f 406/9/3 405/9/3 404/9/3
f 408/4/3 404/4/3 403/4/3
f 408/9/3 406/9/3 404/9/3
f 409/4/3 407/4/3 406/4/3
f 409/9/3 406/9/3 408/9/3
f 410/4/3 407/4/3 409/4/3
f 411/4/3 409/4/3 408/4/3
f 411/8/3 410/8/3 409/8/3
f 412/8/3 410/8/3 411/8/3
f 413/4/3 408/4/3 403/4/3
f 413/4/3 411/4/3 408/4/3
f 414/1/3 412/1/3 411/1/3
f 414/4/3 411/4/3 413/4/3
f 415/1/3 412/1/3 414/1/3
f 416/4/3 413/4/3 403/4/3
f 417/4/3 415/4/3 414/4/3
f 418/4/3 415/4/3 417/4/3
f 419/4/3 417/4/3 416/4/3
f 419/1/3 418/1/3 417/1/3
f 420/1/3 418/1/3 419/1/3
f 421/4/3 416/4/3 403/4/3
f 421/4/3 419/4/3 416/4/3
f 422/8/3 420/8/3 419/8/3
f 422/4/3 419/4/3 421/4/3
f 423/8/3 420/8/3 422/8/3
f 424/9/3 422/9/3 421/9/3
f 424/4/3 423/4/3 422/4/3
f 425/4/3 423/4/3 424/4/3
f 426/4/3 421/4/3 403/4/3
f 427/9/3 424/9/3 421/9/3
f 427/4/3 421/4/3 426/4/3
f 428/9/3 424/9/3 427/9/3
f 429/2/3 400/2/3 399/2/3
f 430/2/3 400/2/3 429/2/3
f 433/2/3 431/2/3 430/2/3
f 434/3/3 432/3/3 431/3/3
f 434/2/3 431/2/3 433/2/3
f 435/3/3 432/3/3 434/3/3
f 440/4/3 437/4/3 436/4/3
f 440/4/3 439/4/3 438/4/3
f 440/4/3 438/4/3 437/4/3
f 441/4/3 439/4/3 440/4/3
f 444/4/3 443/4/3 442/4/3
f 445/4/3 443/4/3 444/4/3
f 446/4/3 443/4/3 445/4/3
f 447/4/3 443/4/3 446/4/3
f 450/3/3 449/3/3 448/3/3
f 451/3/3 449/3/3 450/3/3
f 454/3/3 453/3/3 452/3/3
f 455/3/3 453/3/3 454/3/3
f 458/3/3 457/3/3 456/3/3
f 459/3/3 457/3/3 458/3/3
f 462/3/3 461/3/3 460/3/3
f 463/3/3 461/3/3 462/3/3
f 466/3/3 465/3/3 464/3/3
f 467/3/3 465/3/3 466/3/3
f 470/3/3 468/3/3 467/3/3
f 471/3/3 468/3/3 470/3/3
f 472/3/3 470/3/3 469/3/3
f 473/3/3 470/3/3 472/3/3
f 478/3/3 475/3/3 474/3/3
f 479/3/3 475/3/3 478/3/3
f 480/3/3 477/3/3 476/3/3
f 481/7/3 478/7/3 477/7/3
f 481/3/3 477/3/3 480/3/3
f 482/7/3 478/7/3 481/7/3
f 484/3/3 483/3/3 482/3/3
f 485/3/3 483/3/3 484/3/3
f 488/3/3 487/3/3 486/3/3
f 489/3/3 487/3/3 488/3/3
f 492/3/3 491/3/3 490/3/3
f 493/3/3 491/3/3 492/3/3
f 496/3/3 495/3/3 494/3/3
f 497/3/3 495/3/3 496/3/3
f 500/3/3 499/3/3 498/3/3
f 501/3/3 499/3/3 500/3/3
f 504/3/3 503/3/3 502/3/3
f 505/3/3 503/3/3 504/3/3
f 508/3/3 507/3/3 506/3/3
f 509/3/3 507/3/3 508/3/3
f 512/4/3 511/4/3 510/4/3
f 513/4/3 511/4/3 512/4/3
f 516/4/3 515/4/3 514/4/3
f 517/4/3 515/4/3 516/4/3
f 518/4/3 515/4/3 517/4/3
f 521/4/3 520/4/3 519/4/3
f 522/4/3 520/4/3 521/4/3
f 527/2/3 524/2/3 523/2/3
f 528/3/3 525/3/3 524/3/3
f 528/2/3 524/2/3 527/2/3
f 529/1/3 526/1/3 525/1/3
f 529/3/3 525/3/3 528/3/3
f 530/1/3 526/1/3 529/1/3
f 535/2/3 532/2/3 531/2/3
f 536/3/3 533/3/3 532/3/3
f 536/2/3 532/2/3 535/2/3
f 537/1/3 534/1/3 533/1/3
f 537/3/3 533/3/3 536/3/3
f 538/1/3 534/1/3 537/1/3
f 539/2/4 540/2/4 542/2/4
f 540/3/4 541/3/4 543/3/4
f 542/2/4 540/2/4 543/2/4
f 543/3/4 541/3/4 544/3/4
f 545/2/4 546/2/4 548/2/4
f 546/3/4 547/3/4 549/3/4
f 548/2/4 546/2/4 549/2/4
f 549/3/4 547/3/4 550/3/4
f 551/4/4 552/4/4 554/4/4
f 552/9/4 553/9/4 554/9/4
f 554/9/4 553/9/4 555/9/4
f 551/4/4 554/4/4 556/4/4
f 554/4/4 555/4/4 556/4/4
f 556/4/4 555/4/4 557/4/4
f 551/4/4 556/4/4 558/4/4
f 556/9/4 557/9/4 559/9/4
f 558/4/4 556/4/4 559/4/4
f 559/9/4 557/9/4 560/9/4
f 561/4/4 562/4/4 563/4/4
f 563/4/4 562/4/4 564/4/4
f 565/4/4 566/4/4 567/4/4
f 567/4/4 566/4/4 568/4/4
f 568/4/4 566/4/4 569/4/4
f 570/3/4 571/3/4 572/3/4
f 572/3/4 571/3/4 573/3/4
f 574/3/4 575/3/4 576/3/4
f 576/3/4 575/3/4 577/3/4
f 578/3/4 579/3/4 580/3/4
f 580/3/4 579/3/4 581/3/4
f 582/3/4 583/3/4 584/3/4
f 584/3/4 583/3/4 585/3/4
f 586/3/4 587/3/4 588/3/4
f 588/3/4 587/3/4 589/3/4
f 590/3/4 591/3/4 592/3/4
f 592/3/4 591/3/4 593/3/4
f 594/3/4 595/3/4 598/3/4
f 598/3/4 595/3/4 599/3/4
f 596/3/4 597/3/4 600/3/4
f 597/7/4 598/7/4 601/7/4
f 600/3/4 597/3/4 601/3/4
f 601/7/4 598/7/4 602/7/4
f 602/3/4 603/3/4 604/3/4
f 604/3/4 603/3/4 605/3/4
f 606/3/4 607/3/4 608/3/4
f 608/3/4 607/3/4 609/3/4
f 609/3/4 610/3/4 612/3/4
f 612/3/4 610/3/4 613/3/4
f 611/3/4 612/3/4 614/3/4
f 614/3/4 612/3/4 615/3/4
f 616/3/4 617/3/4 618/3/4
f 618/3/4 617/3/4 619/3/4
f 620/3/4 621/3/4 622/3/4
f 622/3/4 621/3/4 623/3/4
f 624/3/4 625/3/4 626/3/4
f 626/3/4 625/3/4 627/3/4
f 628/3/4 629/3/4 630/3/4
f 630/3/4 629/3/4 631/3/4
f 632/4/4 633/4/4 636/4/4
f 634/4/4 635/4/4 636/4/4
f 633/4/4 634/4/4 636/4/4
f 636/4/4 635/4/4 637/4/4
f 638/4/4 639/4/4 640/4/4
f 640/4/4 639/4/4 641/4/4
f 641/4/4 639/4/4 642/4/4
f 642/4/4 639/4/4 643/4/4
f 644/2/4 645/2/4 648/2/4
f 645/3/4 646/3/4 649/3/4
f 648/2/4 645/2/4 649/2/4
f 649/3/4 646/3/4 650/3/4
f 647/2/4 648/2/4 651/2/4
f 651/2/4 648/2/4 652/2/4
f 652/2/4 653/2/4 655/2/4
f 653/3/4 654/3/4 656/3/4
f 655/2/4 653/2/4 656/2/4
f 656/3/4 654/3/4 657/3/4
f 658/1/4 659/1/4 660/1/4
f 660/1/4 659/1/4 661/1/4
f 661/1/4 662/1/4 666/1/4
f 663/2/4 664/2/4 668/2/4
f 664/3/4 665/3/4 669/3/4
f 668/2/4 664/2/4 669/2/4
f 669/3/4 665/3/4 670/3/4
f 666/1/4 667/1/4 671/1/4
f 661/1/4 666/1/4 671/1/4
f 671/1/4 667/1/4 672/1/4
f 661/1/4 671/1/4 674/1/4
f 674/1/4 671/1/4 675/1/4
f 673/1/4 674/1/4 676/1/4
f 676/1/4 674/1/4 677/1/4
f 678/1/4 679/1/4 680/1/4
f 680/1/4 679/1/4 681/1/4
f 684/3/5 683/3/5 682/3/5
f 685/3/5 683/3/5 684/3/5
f 690/3/5 687/3/5 686/3/5
f 691/3/5 687/3/5 690/3/5
f 694/3/5 689/3/5 688/3/5
f 695/3/5 689/3/5 694/3/5
f 696/3/5 692/3/5 691/3/5
f 697/3/5 692/3/5 696/3/5
f 700/3/5 694/3/5 693/3/5
f 701/3/5 694/3/5 700/3/5
f 702/3/5 698/3/5 697/3/5
f 703/3/5 698/3/5 702/3/5
f 704/3/5 700/3/5 699/3/5
f 705/3/5 700/3/5 704/3/5
f 711/3/5 707/3/5 706/3/5
f 712/3/5 707/3/5 711/3/5
f 713/3/5 709/3/5 708/3/5
f 714/3/5 709/3/5 713/3/5
f 717/3/5 711/3/5 710/3/5
f 718/3/5 711/3/5 717/3/5
f 719/3/5 715/3/5 714/3/5
f 720/3/5 715/3/5 719/3/5
f 722/3/5 717/3/5 716/3/5
f 723/3/5 717/3/5 722/3/5
f 724/3/5 721/3/5 720/3/5
f 725/3/5 721/3/5 724/3/5
f 729/3/5 727/3/5 726/3/5
f 730/3/5 727/3/5 729/3/5
f 732/3/5 729/3/5 728/3/5
f 733/3/5 729/3/5 732/3/5
f 734/3/5 731/3/5 730/3/5
f 735/3/5 731/3/5 734/3/5
f 736/3/5 734/3/5 733/3/5
f 737/3/5 734/3/5 736/3/5
f 740/2/5 739/2/5 738/2/5
f 741/2/5 739/2/5 740/2/5
f 742/2/5 739/2/5 741/2/5
f 743/2/5 739/2/5 742/2/5
f 744/2/5 740/2/5 738/2/5
f 744/10/5 741/10/5 740/10/5
f 745/10/5 741/10/5 744/10/5
f 746/10/5 743/10/5 742/10/5
f 747/2/5 739/2/5 743/2/5
f 747/10/5 743/10/5 746/10/5
f 748/2/5 744/2/5 738/2/5
f 751/2/5 739/2/5 747/2/5
f 752/10/5 749/10/5 748/10/5
f 752/2/5 748/2/5 738/2/5
f 753/10/5 749/10/5 752/10/5
f 754/10/5 751/10/5 750/10/5
f 755/2/5 739/2/5 751/2/5
f 755/10/5 751/10/5 754/10/5
f 756/2/5 753/2/5 752/2/5
f 756/2/5 754/2/5 753/2/5
f 756/2/5 755/2/5 754/2/5
f 756/2/5 752/2/5 738/2/5
f 757/2/5 739/2/5 755/2/5
f 757/2/5 755/2/5 756/2/5
f 761/2/5 759/2/5 758/2/5
f 762/2/5 759/2/5 761/2/5
f 764/2/5 761/2/5 760/2/5
f 765/2/5 761/2/5 764/2/5
f 766/2/5 763/2/5 762/2/5
f 767/2/5 763/2/5 766/2/5
f 768/2/5 766/2/5 765/2/5
f 769/2/5 766/2/5 768/2/5
f 772/5/5 771/5/5 770/5/5
f 773/5/5 771/5/5 772/5/5
f 778/5/5 775/5/5 774/5/5
f 779/5/5 775/5/5 778/5/5
f 780/5/5 777/5/5 776/5/5
f 781/5/5 777/5/5 780/5/5
f 786/1/5 783/1/5 782/1/5
f 787/1/5 783/1/5 786/1/5
f 788/1/5 785/1/5 784/1/5
f 789/1/5 785/1/5 788/1/5
f 792/4/5 791/4/5 790/4/5
f 793/4/5 791/4/5 792/4/5
f 794/1/5 786/1/5 782/1/5
f 797/1/5 785/1/5 789/1/5
f 798/1/5 795/1/5 794/1/5
f 798/1/5 794/1/5 782/1/5
f 799/1/5 795/1/5 798/1/5
f 800/1/5 795/1/5 799/1/5
f 801/1/5 797/1/5 796/1/5
f 802/1/5 785/1/5 797/1/5
f 802/1/5 797/1/5 801/1/5
f 803/1/5 785/1/5 802/1/5
f 804/1/5 800/1/5 799/1/5
f 804/1/5 801/1/5 800/1/5
f 804/1/5 802/1/5 801/1/5
f 805/1/5 802/1/5 804/1/5
f 812/1/5 809/1/5 808/1/5
f 813/6/5 807/6/5 806/6/5
f 814/6/5 807/6/5 813/6/5
f 815/1/5 811/1/5 810/1/5
f 816/1/5 812/1/5 808/1/5
f 817/1/5 812/1/5 816/1/5
f 818/1/5 811/1/5 815/1/5
f 819/1/5 811/1/5 818/1/5
f 824/1/5 821/1/5 820/1/5
f 825/1/5 821/1/5 824/1/5
f 826/1/5 823/1/5 822/1/5
f 827/1/5 823/1/5 826/1/5
f 832/1/5 829/1/5 828/1/5
f 833/1/5 829/1/5 832/1/5
f 834/1/5 831/1/5 830/1/5
f 835/1/5 831/1/5 834/1/5
f 840/4/5 837/4/5 836/4/5
f 840/4/5 839/4/5 838/4/5
f 840/4/5 838/4/5 837/4/5
f 841/4/5 839/4/5 840/4/5
f 842/4/5 840/4/5 836/4/5
f 843/4/5 839/4/5 841/4/5
f 844/4/5 842/4/5 836/4/5
f 844/4/5 843/4/5 842/4/5
f 845/4/5 839/4/5 843/4/5
f 845/4/5 843/4/5 844/4/5
f 848/1/5 847/1/5 846/1/5
f 849/1/5 847/1/5 848/1/5
f 850/1/5 847/1/5 849/1/5
f 851/1/5 847/1/5 850/1/5
f 852/1/5 847/1/5 851/1/5
f 853/1/5 847/1/5 852/1/5
f 854/1/5 847/1/5 853/1/5
f 855/1/5 847/1/5 854/1/5
f 858/4/5 857/4/5 856/4/5
f 859/4/5 857/4/5 858/4/5
f 860/3/6 861/3/6 864/3/6
f 864/3/6 861/3/6 865/3/6
f 862/3/6 863/3/6 868/3/6
f 868/3/6 863/3/6 869/3/6
f 865/3/6 866/3/6 870/3/6
f 870/3/6 866/3/6 871/3/6
f 867/3/6 868/3/6 874/3/6
f 874/3/6 868/3/6 875/3/6
f 871/3/6 872/3/6 876/3/6
f 876/3/6 872/3/6 877/3/6
f 873/3/6 874/3/6 878/3/6
f 878/3/6 874/3/6 879/3/6
f 880/3/6 881/3/6 885/3/6
f 885/3/6 881/3/6 886/3/6
f 882/3/6 883/3/6 887/3/6
f 887/3/6 883/3/6 888/3/6
f 884/3/6 885/3/6 891/3/6
f 891/3/6 885/3/6 892/3/6
f 888/3/6 889/3/6 893/3/6
f 893/3/6 889/3/6 894/3/6
f 890/3/6 891/3/6 896/3/6
f 896/3/6 891/3/6 897/3/6
f 894/3/6 895/3/6 898/3/6
f 898/3/6 895/3/6 899/3/6
f 900/2/6 901/2/6 904/2/6
f 904/2/6 901/2/6 905/2/6
f 902/2/6 903/2/6 906/2/6
f 906/2/6 903/2/6 907/2/6
f 905/2/6 906/2/6 908/2/6
f 905/2/6 908/2/6 910/2/6
f 908/2/6 909/2/6 910/2/6
f 910/2/6 909/2/6 911/2/6
f 905/2/6 910/2/6 912/2/6
f 910/10/6 911/10/6 912/10/6
f 911/2/6 909/2/6 913/2/6
f 912/10/6 911/10/6 913/10/6
f 912/2/6 913/2/6 914/2/6
f 913/2/6 909/2/6 914/2/6
f 914/2/6 909/2/6 915/2/6
f 905/2/6 912/2/6 917/2/6
f 912/2/6 914/2/6 917/2/6
f 917/2/6 914/2/6 918/2/6
f 916/2/6 917/2/6 920/2/6
f 920/2/6 917/2/6 921/2/6
f 918/2/6 919/2/6 922/2/6
f 922/2/6 919/2/6 923/2/6
f 924/5/6 925/5/6 928/5/6
f 928/5/6 925/5/6 929/5/6
f 926/8/6 927/8/6 930/8/6
f 930/8/6 927/8/6 931/8/6
f 932/5/6 933/5/6 935/5/6
f 933/8/6 934/8/6 936/8/6
f 935/5/6 933/5/6 936/5/6
f 936/8/6 934/8/6 937/8/6
f 938/3/6 939/3/6 940/3/6
f 940/3/6 939/3/6 941/3/6
f 941/3/6 939/3/6 942/3/6
f 942/3/6 939/3/6 943/3/6
f 944/6/6 945/6/6 946/6/6
f 946/6/6 945/6/6 947/6/6
f 948/1/6 949/1/6 952/1/6
f 952/1/6 949/1/6 953/1/6
f 950/1/6 951/1/6 954/1/6
f 954/1/6 951/1/6 955/1/6
f 953/1/6 954/1/6 956/1/6
f 956/1/6 954/1/6 957/1/6
f 958/1/6 959/1/6 962/1/6
f 962/1/6 959/1/6 963/1/6
f 960/1/6 961/1/6 964/1/6
f 964/1/6 961/1/6 965/1/6
f 966/1/6 967/1/6 968/1/6
f 968/1/6 967/1/6 969/1/6
