# MagicaVoxel @ Ephtracy

# group
o 

# material
mtllib Controller.mtl
usemtl palette

# normals
vn -1 0 0
vn 1 0 0
vn 0 0 1
vn 0 0 -1
vn 0 -1 0
vn 0 1 0

# texcoords
vt 0.0136719 0.5
vt 0.419922 0.5
vt 0.779297 0.5
vt 0.900391 0.5
vt 0.986328 0.5
vt 0.990234 0.5
vt 0.994141 0.5

# verts
v -1.7 0.6 0
v -1.7 0.6 -0.1
v -1.7 1.1 0
v -1.7 1.1 -0.1
v -1.6 0.2 0
v -1.6 0.2 -0.1
v -1.6 0.6 0
v -1.6 0.6 -0.1
v -1.6 1.1 0
v -1.6 1.1 -0.1
v -1.6 1.5 0
v -1.6 1.5 -0.1
v -1.5 0.1 0
v -1.5 0.1 -0.1
v -1.5 0.2 0
v -1.5 0.2 -0.1
v -1.5 1.5 0
v -1.5 1.5 -0.1
v -1.5 1.8 0
v -1.5 1.8 -0.1
v -1.4 0 0
v -1.4 0 -0.1
v -1.4 0.1 0
v -1.4 0.1 -0.1
v -1.4 1.8 0
v -1.4 1.8 -0.1
v -1.4 2 0
v -1.4 2 -0.1
v -1.3 2 0
v -1.3 2 -0.1
v -1.3 2.1 0
v -1.3 2.1 -0.1
v -1.2 2.1 0
v -1.2 2.1 -0.1
v -1.2 2.2 0
v -1.2 2.2 -0.1
v -1.1 1.7 0.1
v -1.1 1.7 0
v -1.1 2 0.1
v -1.1 2 0
v -1.1 2.2 0
v -1.1 2.2 -0.1
v -1.1 2.3 0
v -1.1 2.3 -0.1
v -1 1.6 0.1
v -1 1.6 0
v -1 1.7 0.1
v -1 1.7 0
v -1 2 0.1
v -1 2 0
v -1 2.1 0.1
v -1 2.1 0
v -0.8 1 0.1
v -0.8 1 0
v -0.8 1.2 0.1
v -0.8 1.2 0
v -0.7 0.6 0
v -0.7 0.6 -0.1
v -0.7 0.7 0
v -0.7 0.7 -0.1
v -0.6 0.8 0.1
v -0.6 0.8 0
v -0.6 1 0.1
v -0.6 1 0
v -0.6 1.2 0.1
v -0.6 1.2 0
v -0.6 1.4 0.1
v -0.6 1.4 0
v -0.3 1.6 0.1
v -0.3 1.6 0
v -0.3 1.7 0.1
v -0.3 1.7 0
v -0.2 1.8 0.1
v -0.2 1.8 0
v -0.2 2 0.1
v -0.2 2 0
v -0.1 1.5 0.1
v -0.1 1.5 0
v -0.1 1.6 0.1
v -0.1 1.6 0
v -0.1 1.7 0.1
v -0.1 1.7 0
v -0.1 1.8 0.1
v -0.1 1.8 0
v -0.1 2 0.1
v -0.1 2 0
v -0.1 2.1 0.1
v -0.1 2.1 0
v 0.0999999 0.7 0
v 0.0999999 0.7 -0.1
v 0.0999999 0.8 0
v 0.0999999 0.8 -0.1
v 0.2 0.6 0
v 0.2 0.6 -0.1
v 0.2 0.7 0
v 0.2 0.7 -0.1
v 0.2 0.9 0.1
v 0.2 0.9 0
v 0.2 1.2 0.1
v 0.2 1.2 0
v 0.2 1.6 0.1
v 0.2 1.6 0
v 0.2 1.7 0.1
v 0.2 1.7 0
v 0.3 0.8 0.1
v 0.3 0.8 0
v 0.3 0.9 0.1
v 0.3 0.9 0
v 0.3 1.2 0.1
v 0.3 1.2 0
v 0.3 1.3 0.1
v 0.3 1.3 0
v 0.5 1.6 0.1
v 0.5 1.6 0
v 0.5 1.8 0.1
v 0.5 1.8 0
v 0.7 1.4 0.1
v 0.7 1.4 0
v 0.7 1.6 0.1
v 0.7 1.6 0
v 0.7 1.8 0.1
v 0.7 1.8 0
v 0.7 2 0.1
v 0.7 2 0
v 0.8 0.6 0
v 0.8 0.6 -0.1
v 0.8 0.7 0
v 0.8 0.7 -0.1
v 0.9 0.4 0
v 0.9 0.4 -0.1
v 0.9 0.6 0
v 0.9 0.6 -0.1
v 0.9 1.6 0.1
v 0.9 1.6 0
v 0.9 1.8 0.1
v 0.9 1.8 0
v 1 0.2 0
v 1 0.2 -0.1
v 1 0.4 0
v 1 0.4 -0.1
v 1.1 0.1 0
v 1.1 0.1 -0.1
v 1.1 0.2 0
v 1.1 0.2 -0.1
v 1.2 0 0
v 1.2 0 -0.1
v 1.2 0.1 0
v 1.2 0.1 -0.1
v -1.2 0 0
v -1.2 0 -0.1
v -1.2 0.1 0
v -1.2 0.1 -0.1
v -1.1 0.1 0
v -1.1 0.1 -0.1
v -1.1 0.2 0
v -1.1 0.2 -0.1
v -1 0.2 0
v -1 0.2 -0.1
v -1 0.4 0
v -1 0.4 -0.1
v -0.9 0.4 0
v -0.9 0.4 -0.1
v -0.9 0.6 0
v -0.9 0.6 -0.1
v -0.8 0.6 0
v -0.8 0.6 -0.1
v -0.8 0.7 0
v -0.8 0.7 -0.1
v -0.7 1.6 0.1
v -0.7 1.6 0
v -0.7 1.7 0.1
v -0.7 1.7 0
v -0.7 2 0.1
v -0.7 2 0
v -0.7 2.1 0.1
v -0.7 2.1 0
v -0.6 1.7 0.1
v -0.6 1.7 0
v -0.6 2 0.1
v -0.6 2 0
v -0.4 0.8 0.1
v -0.4 0.8 0
v -0.4 1 0.1
v -0.4 1 0
v -0.4 1.2 0.1
v -0.4 1.2 0
v -0.4 1.4 0.1
v -0.4 1.4 0
v -0.2 0.6 0
v -0.2 0.6 -0.1
v -0.2 0.7 0
v -0.2 0.7 -0.1
v -0.2 1 0.1
v -0.2 1 0
v -0.2 1.2 0.1
v -0.2 1.2 0
v -0.2 1.6 0.1
v -0.2 1.6 0
v -0.2 1.7 0.1
v -0.2 1.7 0
v -0.1 0.7 0
v -0.1 0.7 -0.1
v -0.1 0.8 0
v -0.1 0.8 -0.1
v 0.0999999 1.5 0.1
v 0.0999999 1.5 0
v 0.0999999 1.6 0.1
v 0.0999999 1.6 0
v 0.0999999 1.7 0.1
v 0.0999999 1.7 0
v 0.0999999 1.8 0.1
v 0.0999999 1.8 0
v 0.0999999 2 0.1
v 0.0999999 2 0
v 0.0999999 2.1 0.1
v 0.0999999 2.1 0
v 0.2 1.8 0.1
v 0.2 1.8 0
v 0.2 2 0.1
v 0.2 2 0
v 0.3 1.6 0.1
v 0.3 1.6 0
v 0.3 1.7 0.1
v 0.3 1.7 0
v 0.6 0.8 0.1
v 0.6 0.8 0
v 0.6 0.9 0.1
v 0.6 0.9 0
v 0.6 1.2 0.1
v 0.6 1.2 0
v 0.6 1.3 0.1
v 0.6 1.3 0
v 0.7 0.6 0
v 0.7 0.6 -0.1
v 0.7 0.7 0
v 0.7 0.7 -0.1
v 0.7 0.9 0.1
v 0.7 0.9 0
v 0.7 1.2 0.1
v 0.7 1.2 0
v 0.7 1.6 0.1
v 0.7 1.6 0
v 0.7 1.8 0.1
v 0.7 1.8 0
v 0.9 1.4 0.1
v 0.9 1.4 0
v 0.9 1.6 0.1
v 0.9 1.6 0
v 0.9 1.8 0.1
v 0.9 1.8 0
v 0.9 2 0.1
v 0.9 2 0
v 1.1 1.6 0.1
v 1.1 1.6 0
v 1.1 1.8 0.1
v 1.1 1.8 0
v 1.1 2.2 0
v 1.1 2.2 -0.1
v 1.1 2.3 0
v 1.1 2.3 -0.1
v 1.2 2.1 0
v 1.2 2.1 -0.1
v 1.2 2.2 0
v 1.2 2.2 -0.1
v 1.3 2 0
v 1.3 2 -0.1
v 1.3 2.1 0
v 1.3 2.1 -0.1
v 1.4 0 0
v 1.4 0 -0.1
v 1.4 0.1 0
v 1.4 0.1 -0.1
v 1.4 1.8 0
v 1.4 1.8 -0.1
v 1.4 2 0
v 1.4 2 -0.1
v 1.5 0.1 0
v 1.5 0.1 -0.1
v 1.5 0.2 0
v 1.5 0.2 -0.1
v 1.5 1.5 0
v 1.5 1.5 -0.1
v 1.5 1.8 0
v 1.5 1.8 -0.1
v 1.6 0.2 0
v 1.6 0.2 -0.1
v 1.6 0.6 0
v 1.6 0.6 -0.1
v 1.6 1.1 0
v 1.6 1.1 -0.1
v 1.6 1.5 0
v 1.6 1.5 -0.1
v 1.7 0.6 0
v 1.7 0.6 -0.1
v 1.7 1.1 0
v 1.7 1.1 -0.1
v -1.1 1.7 0.1
v -1.1 2 0.1
v -1 1.6 0.1
v -1 1.7 0.1
v -1 2 0.1
v -1 2.1 0.1
v -0.8 1 0.1
v -0.8 1.2 0.1
v -0.7 1.6 0.1
v -0.7 1.7 0.1
v -0.7 2 0.1
v -0.7 2.1 0.1
v -0.6 0.8 0.1
v -0.6 1 0.1
v -0.6 1.2 0.1
v -0.6 1.4 0.1
v -0.6 1.7 0.1
v -0.6 2 0.1
v -0.4 0.8 0.1
v -0.4 1 0.1
v -0.4 1.2 0.1
v -0.4 1.4 0.1
v -0.3 1.6 0.1
v -0.3 1.7 0.1
v -0.2 1 0.1
v -0.2 1.2 0.1
v -0.2 1.6 0.1
v -0.2 1.7 0.1
v -0.2 1.8 0.1
v -0.2 2 0.1
v -0.1 1.5 0.1
v -0.1 1.6 0.1
v -0.1 1.7 0.1
v -0.1 1.8 0.1
v -0.1 2 0.1
v -0.1 2.1 0.1
v 0.0999999 1.5 0.1
v 0.0999999 1.6 0.1
v 0.0999999 1.7 0.1
v 0.0999999 1.8 0.1
v 0.0999999 2 0.1
v 0.0999999 2.1 0.1
v 0.2 0.9 0.1
v 0.2 1.2 0.1
v 0.2 1.6 0.1
v 0.2 1.7 0.1
v 0.2 1.8 0.1
v 0.2 2 0.1
v 0.3 0.8 0.1
v 0.3 0.9 0.1
v 0.3 1.2 0.1
v 0.3 1.3 0.1
v 0.3 1.6 0.1
v 0.3 1.7 0.1
v 0.5 1.6 0.1
v 0.5 1.8 0.1
v 0.6 0.8 0.1
v 0.6 0.9 0.1
v 0.6 1.2 0.1
v 0.6 1.3 0.1
v 0.7 0.9 0.1
v 0.7 1.2 0.1
v 0.7 1.4 0.1
v 0.7 1.6 0.1
v 0.7 1.8 0.1
v 0.7 2 0.1
v 0.9 1.4 0.1
v 0.9 1.6 0.1
v 0.9 1.8 0.1
v 0.9 2 0.1
v 1.1 1.6 0.1
v 1.1 1.8 0.1
v -1.7 0.6 0
v -1.7 1.1 0
v -1.6 0.2 0
v -1.6 0.6 0
v -1.6 1.1 0
v -1.6 1.5 0
v -1.5 0.1 0
v -1.5 0.2 0
v -1.5 0.6 0
v -1.5 1.1 0
v -1.5 1.5 0
v -1.5 1.8 0
v -1.4 0 0
v -1.4 0.1 0
v -1.4 0.2 0
v -1.4 1.5 0
v -1.4 1.8 0
v -1.4 2 0
v -1.3 1.8 0
v -1.3 2 0
v -1.3 2.1 0
v -1.2 0 0
v -1.2 0.1 0
v -1.2 0.2 0
v -1.2 2 0
v -1.2 2.1 0
v -1.2 2.2 0
v -1.1 0.1 0
v -1.1 0.2 0
v -1.1 0.4 0
v -1.1 1.7 0
v -1.1 2 0
v -1.1 2.1 0
v -1.1 2.2 0
v -1.1 2.3 0
v -1 0.2 0
v -1 0.4 0
v -1 0.6 0
v -1 1.6 0
v -1 1.7 0
v -1 2 0
v -1 2.1 0
v -0.9 0.4 0
v -0.9 0.6 0
v -0.9 0.7 0
v -0.8 0.6 0
v -0.8 0.7 0
v -0.8 0.8 0
v -0.8 1 0
v -0.8 1.2 0
v -0.7 0.6 0
v -0.7 0.7 0
v -0.7 0.8 0
v -0.7 1.6 0
v -0.7 1.7 0
v -0.7 2 0
v -0.7 2.1 0
v -0.6 0.8 0
v -0.6 1 0
v -0.6 1.2 0
v -0.6 1.4 0
v -0.6 1.7 0
v -0.6 2 0
v -0.4 0.8 0
v -0.4 1 0
v -0.4 1.2 0
v -0.4 1.4 0
v -0.3 1.6 0
v -0.3 1.7 0
v -0.2 0.6 0
v -0.2 0.7 0
v -0.2 0.8 0
v -0.2 1 0
v -0.2 1.2 0
v -0.2 1.6 0
v -0.2 1.7 0
v -0.2 1.8 0
v -0.2 2 0
v -0.1 0.7 0
v -0.1 0.8 0
v -0.1 0.9 0
v -0.1 1.5 0
v -0.1 1.6 0
v -0.1 1.7 0
v -0.1 1.8 0
v -0.1 2 0
v -0.1 2.1 0
v 0.0999999 0.7 0
v 0.0999999 0.8 0
v 0.0999999 0.9 0
v 0.0999999 1.5 0
v 0.0999999 1.6 0
v 0.0999999 1.7 0
v 0.0999999 1.8 0
v 0.0999999 2 0
v 0.0999999 2.1 0
v 0.2 0.6 0
v 0.2 0.7 0
v 0.2 0.8 0
v 0.2 0.9 0
v 0.2 1.2 0
v 0.2 1.6 0
v 0.2 1.7 0
v 0.2 1.8 0
v 0.2 2 0
v 0.3 0.8 0
v 0.3 0.9 0
v 0.3 1.2 0
v 0.3 1.3 0
v 0.3 1.6 0
v 0.3 1.7 0
v 0.5 1.6 0
v 0.5 1.8 0
v 0.6 0.8 0
v 0.6 0.9 0
v 0.6 1.2 0
v 0.6 1.3 0
v 0.7 0.6 0
v 0.7 0.7 0
v 0.7 0.8 0
v 0.7 0.9 0
v 0.7 1.2 0
v 0.7 1.4 0
v 0.7 1.6 0
v 0.7 1.8 0
v 0.7 2 0
v 0.8 0.6 0
v 0.8 0.7 0
v 0.8 0.8 0
v 0.9 0.4 0
v 0.9 0.6 0
v 0.9 0.7 0
v 0.9 1.4 0
v 0.9 1.6 0
v 0.9 1.8 0
v 0.9 2 0
v 1 0.2 0
v 1 0.4 0
v 1 0.6 0
v 1.1 0.1 0
v 1.1 0.2 0
v 1.1 0.4 0
v 1.1 1.6 0
v 1.1 1.8 0
v 1.1 2.1 0
v 1.1 2.2 0
v 1.1 2.3 0
v 1.2 0 0
v 1.2 0.1 0
v 1.2 0.2 0
v 1.2 2 0
v 1.2 2.1 0
v 1.2 2.2 0
v 1.3 1.8 0
v 1.3 2 0
v 1.3 2.1 0
v 1.4 0 0
v 1.4 0.1 0
v 1.4 0.2 0
v 1.4 1.5 0
v 1.4 1.8 0
v 1.4 2 0
v 1.5 0.1 0
v 1.5 0.2 0
v 1.5 0.6 0
v 1.5 1.1 0
v 1.5 1.5 0
v 1.5 1.8 0
v 1.6 0.2 0
v 1.6 0.6 0
v 1.6 1.1 0
v 1.6 1.5 0
v 1.7 0.6 0
v 1.7 1.1 0
v -1.7 0.6 -0.1
v -1.7 1.1 -0.1
v -1.6 0.2 -0.1
v -1.6 0.6 -0.1
v -1.6 1.1 -0.1
v -1.6 1.5 -0.1
v -1.5 0.1 -0.1
v -1.5 0.2 -0.1
v -1.5 0.6 -0.1
v -1.5 1.1 -0.1
v -1.5 1.5 -0.1
v -1.5 1.8 -0.1
v -1.4 0 -0.1
v -1.4 0.1 -0.1
v -1.4 0.2 -0.1
v -1.4 1.5 -0.1
v -1.4 1.8 -0.1
v -1.4 2 -0.1
v -1.3 1.8 -0.1
v -1.3 2 -0.1
v -1.3 2.1 -0.1
v -1.2 0 -0.1
v -1.2 0.1 -0.1
v -1.2 0.2 -0.1
v -1.2 2 -0.1
v -1.2 2.1 -0.1
v -1.2 2.2 -0.1
v -1.1 0.1 -0.1
v -1.1 0.2 -0.1
v -1.1 0.4 -0.1
v -1.1 2.1 -0.1
v -1.1 2.2 -0.1
v -1.1 2.3 -0.1
v -1 0.2 -0.1
v -1 0.4 -0.1
v -1 0.6 -0.1
v -0.9 0.4 -0.1
v -0.9 0.6 -0.1
v -0.9 0.7 -0.1
v -0.8 0.6 -0.1
v -0.8 0.7 -0.1
v -0.8 0.8 -0.1
v -0.7 0.6 -0.1
v -0.7 0.7 -0.1
v -0.7 0.8 -0.1
v -0.2 0.6 -0.1
v -0.2 0.7 -0.1
v -0.2 0.8 -0.1
v -0.1 0.7 -0.1
v -0.1 0.8 -0.1
v -0.1 0.9 -0.1
v 0.0999999 0.7 -0.1
v 0.0999999 0.8 -0.1
v 0.0999999 0.9 -0.1
v 0.2 0.6 -0.1
v 0.2 0.7 -0.1
v 0.2 0.8 -0.1
v 0.7 0.6 -0.1
v 0.7 0.7 -0.1
v 0.7 0.8 -0.1
v 0.8 0.6 -0.1
v 0.8 0.7 -0.1
v 0.8 0.8 -0.1
v 0.9 0.4 -0.1
v 0.9 0.6 -0.1
v 0.9 0.7 -0.1
v 1 0.2 -0.1
v 1 0.4 -0.1
v 1 0.6 -0.1
v 1.1 0.1 -0.1
v 1.1 0.2 -0.1
v 1.1 0.4 -0.1
v 1.1 2.1 -0.1
v 1.1 2.2 -0.1
v 1.1 2.3 -0.1
v 1.2 0 -0.1
v 1.2 0.1 -0.1
v 1.2 0.2 -0.1
v 1.2 2 -0.1
v 1.2 2.1 -0.1
v 1.2 2.2 -0.1
v 1.3 1.8 -0.1
v 1.3 2 -0.1
v 1.3 2.1 -0.1
v 1.4 0 -0.1
v 1.4 0.1 -0.1
v 1.4 0.2 -0.1
v 1.4 1.5 -0.1
v 1.4 1.8 -0.1
v 1.4 2 -0.1
v 1.5 0.1 -0.1
v 1.5 0.2 -0.1
v 1.5 0.6 -0.1
v 1.5 1.1 -0.1
v 1.5 1.5 -0.1
v 1.5 1.8 -0.1
v 1.6 0.2 -0.1
v 1.6 0.6 -0.1
v 1.6 1.1 -0.1
v 1.6 1.5 -0.1
v 1.7 0.6 -0.1
v 1.7 1.1 -0.1
v -1.4 0 0
v -1.2 0 0
v 1.2 0 0
v 1.4 0 0
v -1.4 0 -0.1
v -1.2 0 -0.1
v 1.2 0 -0.1
v 1.4 0 -0.1
v -1.5 0.1 0
v -1.4 0.1 0
v -1.2 0.1 0
v -1.1 0.1 0
v 1.1 0.1 0
v 1.2 0.1 0
v 1.4 0.1 0
v 1.5 0.1 0
v -1.5 0.1 -0.1
v -1.4 0.1 -0.1
v -1.2 0.1 -0.1
v -1.1 0.1 -0.1
v 1.1 0.1 -0.1
v 1.2 0.1 -0.1
v 1.4 0.1 -0.1
v 1.5 0.1 -0.1
v -1.6 0.2 0
v -1.5 0.2 0
v -1.1 0.2 0
v -1 0.2 0
v 1 0.2 0
v 1.1 0.2 0
v 1.5 0.2 0
v 1.6 0.2 0
v -1.6 0.2 -0.1
v -1.5 0.2 -0.1
v -1.1 0.2 -0.1
v -1 0.2 -0.1
v 1 0.2 -0.1
v 1.1 0.2 -0.1
v 1.5 0.2 -0.1
v 1.6 0.2 -0.1
v -1 0.4 0
v -0.9 0.4 0
v 0.9 0.4 0
v 1 0.4 0
v -1 0.4 -0.1
v -0.9 0.4 -0.1
v 0.9 0.4 -0.1
v 1 0.4 -0.1
v -1.7 0.6 0
v -1.6 0.6 0
v -0.9 0.6 0
v -0.8 0.6 0
v -0.7 0.6 0
v -0.2 0.6 0
v 0.2 0.6 0
v 0.7 0.6 0
v 0.8 0.6 0
v 0.9 0.6 0
v 1.6 0.6 0
v 1.7 0.6 0
v -1.7 0.6 -0.1
v -1.6 0.6 -0.1
v -0.9 0.6 -0.1
v -0.8 0.6 -0.1
v -0.7 0.6 -0.1
v -0.2 0.6 -0.1
v 0.2 0.6 -0.1
v 0.7 0.6 -0.1
v 0.8 0.6 -0.1
v 0.9 0.6 -0.1
v 1.6 0.6 -0.1
v 1.7 0.6 -0.1
v -0.8 0.7 0
v -0.7 0.7 0
v -0.2 0.7 0
v -0.1 0.7 0
v 0.0999999 0.7 0
v 0.2 0.7 0
v 0.7 0.7 0
v 0.8 0.7 0
v -0.8 0.7 -0.1
v -0.7 0.7 -0.1
v -0.2 0.7 -0.1
v -0.1 0.7 -0.1
v 0.0999999 0.7 -0.1
v 0.2 0.7 -0.1
v 0.7 0.7 -0.1
v 0.8 0.7 -0.1
v -0.6 0.8 0.1
v -0.4 0.8 0.1
v 0.3 0.8 0.1
v 0.6 0.8 0.1
v -0.6 0.8 0
v -0.4 0.8 0
v -0.1 0.8 0
v 0.0999999 0.8 0
v 0.3 0.8 0
v 0.6 0.8 0
v -0.1 0.8 -0.1
v 0.0999999 0.8 -0.1
v 0.2 0.9 0.1
v 0.3 0.9 0.1
v 0.6 0.9 0.1
v 0.7 0.9 0.1
v 0.2 0.9 0
v 0.3 0.9 0
v 0.6 0.9 0
v 0.7 0.9 0
v -0.8 1 0.1
v -0.6 1 0.1
v -0.4 1 0.1
v -0.2 1 0.1
v -0.8 1 0
v -0.6 1 0
v -0.4 1 0
v -0.2 1 0
v 0.7 1.4 0.1
v 0.9 1.4 0.1
v 0.7 1.4 0
v 0.9 1.4 0
v -0.1 1.5 0.1
v 0.0999999 1.5 0.1
v -0.1 1.5 0
v 0.0999999 1.5 0
v -1 1.6 0.1
v -0.7 1.6 0.1
v -0.3 1.6 0.1
v -0.2 1.6 0.1
v 0.2 1.6 0.1
v 0.3 1.6 0.1
v 0.5 1.6 0.1
v 0.7 1.6 0.1
v 0.9 1.6 0.1
v 1.1 1.6 0.1
v -1 1.6 0
v -0.7 1.6 0
v -0.3 1.6 0
v -0.2 1.6 0
v 0.2 1.6 0
v 0.3 1.6 0
v 0.5 1.6 0
v 0.7 1.6 0
v 0.9 1.6 0
v 1.1 1.6 0
v -1.1 1.7 0.1
v -1 1.7 0.1
v -0.7 1.7 0.1
v -0.6 1.7 0.1
v -0.1 1.7 0.1
v 0.0999999 1.7 0.1
v -1.1 1.7 0
v -1 1.7 0
v -0.7 1.7 0
v -0.6 1.7 0
v -0.1 1.7 0
v 0.0999999 1.7 0
v -0.2 1.8 0.1
v -0.1 1.8 0.1
v 0.0999999 1.8 0.1
v 0.2 1.8 0.1
v 0.7 1.8 0.1
v 0.9 1.8 0.1
v -0.2 1.8 0
v -0.1 1.8 0
v 0.0999999 1.8 0
v 0.2 1.8 0
v 0.7 1.8 0
v 0.9 1.8 0
v -1.7 1.1 0
v -1.6 1.1 0
v 1.6 1.1 0
v 1.7 1.1 0
v -1.7 1.1 -0.1
v -1.6 1.1 -0.1
v 1.6 1.1 -0.1
v 1.7 1.1 -0.1
v -0.8 1.2 0.1
v -0.6 1.2 0.1
v -0.4 1.2 0.1
v -0.2 1.2 0.1
v 0.2 1.2 0.1
v 0.3 1.2 0.1
v 0.6 1.2 0.1
v 0.7 1.2 0.1
v -0.8 1.2 0
v -0.6 1.2 0
v -0.4 1.2 0
v -0.2 1.2 0
v 0.2 1.2 0
v 0.3 1.2 0
v 0.6 1.2 0
v 0.7 1.2 0
v 0.3 1.3 0.1
v 0.6 1.3 0.1
v 0.3 1.3 0
v 0.6 1.3 0
v -0.6 1.4 0.1
v -0.4 1.4 0.1
v -0.6 1.4 0
v -0.4 1.4 0
v -1.6 1.5 0
v -1.5 1.5 0
v 1.5 1.5 0
v 1.6 1.5 0
v -1.6 1.5 -0.1
v -1.5 1.5 -0.1
v 1.5 1.5 -0.1
v 1.6 1.5 -0.1
v -0.1 1.6 0.1
v 0.0999999 1.6 0.1
v 0.7 1.6 0.1
v 0.9 1.6 0.1
v -0.1 1.6 0
v 0.0999999 1.6 0
v 0.7 1.6 0
v 0.9 1.6 0
v -0.3 1.7 0.1
v -0.2 1.7 0.1
v 0.2 1.7 0.1
v 0.3 1.7 0.1
v -0.3 1.7 0
v -0.2 1.7 0
v 0.2 1.7 0
v 0.3 1.7 0
v 0.5 1.8 0.1
v 0.7 1.8 0.1
v 0.9 1.8 0.1
v 1.1 1.8 0.1
v -1.5 1.8 0
v -1.4 1.8 0
v 0.5 1.8 0
v 0.7 1.8 0
v 0.9 1.8 0
v 1.1 1.8 0
v 1.4 1.8 0
v 1.5 1.8 0
v -1.5 1.8 -0.1
v -1.4 1.8 -0.1
v 1.4 1.8 -0.1
v 1.5 1.8 -0.1
v -1.1 2 0.1
v -1 2 0.1
v -0.7 2 0.1
v -0.6 2 0.1
v -0.2 2 0.1
v -0.1 2 0.1
v 0.0999999 2 0.1
v 0.2 2 0.1
v 0.7 2 0.1
v 0.9 2 0.1
v -1.4 2 0
v -1.3 2 0
v -1.1 2 0
v -1 2 0
v -0.7 2 0
v -0.6 2 0
v -0.2 2 0
v -0.1 2 0
v 0.0999999 2 0
v 0.2 2 0
v 0.7 2 0
v 0.9 2 0
v 1.3 2 0
v 1.4 2 0
v -1.4 2 -0.1
v -1.3 2 -0.1
v 1.3 2 -0.1
v 1.4 2 -0.1
v -1 2.1 0.1
v -0.7 2.1 0.1
v -0.1 2.1 0.1
v 0.0999999 2.1 0.1
v -1.3 2.1 0
v -1.2 2.1 0
v -1 2.1 0
v -0.7 2.1 0
v -0.1 2.1 0
v 0.0999999 2.1 0
v 1.2 2.1 0
v 1.3 2.1 0
v -1.3 2.1 -0.1
v -1.2 2.1 -0.1
v 1.2 2.1 -0.1
v 1.3 2.1 -0.1
v -1.2 2.2 0
v -1.1 2.2 0
v 1.1 2.2 0
v 1.2 2.2 0
v -1.2 2.2 -0.1
v -1.1 2.2 -0.1
v 1.1 2.2 -0.1
v 1.2 2.2 -0.1
v -1.1 2.3 0
v 1.1 2.3 0
v -1.1 2.3 -0.1
v 1.1 2.3 -0.1

# faces
f 3/7/1 2/7/1 1/7/1
f 4/7/1 2/7/1 3/7/1
f 7/7/1 6/7/1 5/7/1
f 8/7/1 6/7/1 7/7/1
f 11/7/1 10/7/1 9/7/1
f 12/7/1 10/7/1 11/7/1
f 15/7/1 14/7/1 13/7/1
f 16/7/1 14/7/1 15/7/1
f 19/7/1 18/7/1 17/7/1
f 20/7/1 18/7/1 19/7/1
f 23/7/1 22/7/1 21/7/1
f 24/7/1 22/7/1 23/7/1
f 27/7/1 26/7/1 25/7/1
f 28/7/1 26/7/1 27/7/1
f 31/7/1 30/7/1 29/7/1
f 32/7/1 30/7/1 31/7/1
f 35/7/1 34/7/1 33/7/1
f 36/7/1 34/7/1 35/7/1
f 39/7/1 38/7/1 37/7/1
f 40/7/1 38/7/1 39/7/1
f 43/7/1 42/7/1 41/7/1
f 44/7/1 42/7/1 43/7/1
f 47/7/1 46/7/1 45/7/1
f 48/7/1 46/7/1 47/7/1
f 51/7/1 50/7/1 49/7/1
f 52/7/1 50/7/1 51/7/1
f 55/7/1 54/7/1 53/7/1
f 56/7/1 54/7/1 55/7/1
f 59/7/1 58/7/1 57/7/1
f 60/7/1 58/7/1 59/7/1
f 63/7/1 62/7/1 61/7/1
f 64/7/1 62/7/1 63/7/1
f 67/7/1 66/7/1 65/7/1
f 68/7/1 66/7/1 67/7/1
f 71/7/1 70/7/1 69/7/1
f 72/7/1 70/7/1 71/7/1
f 75/7/1 74/7/1 73/7/1
f 76/7/1 74/7/1 75/7/1
f 79/7/1 78/7/1 77/7/1
f 80/7/1 78/7/1 79/7/1
f 83/7/1 82/7/1 81/7/1
f 84/7/1 82/7/1 83/7/1
f 87/7/1 86/7/1 85/7/1
f 88/7/1 86/7/1 87/7/1
f 91/7/1 90/7/1 89/7/1
f 92/7/1 90/7/1 91/7/1
f 95/7/1 94/7/1 93/7/1
f 96/7/1 94/7/1 95/7/1
f 99/7/1 98/7/1 97/7/1
f 100/7/1 98/7/1 99/7/1
f 103/7/1 102/7/1 101/7/1
f 104/7/1 102/7/1 103/7/1
f 107/7/1 106/7/1 105/7/1
f 108/7/1 106/7/1 107/7/1
f 111/7/1 110/7/1 109/7/1
f 112/7/1 110/7/1 111/7/1
f 115/3/1 114/3/1 113/3/1
f 116/3/1 114/3/1 115/3/1
f 119/4/1 118/4/1 117/4/1
f 120/4/1 118/4/1 119/4/1
f 123/1/1 122/1/1 121/1/1
f 124/1/1 122/1/1 123/1/1
f 127/7/1 126/7/1 125/7/1
f 128/7/1 126/7/1 127/7/1
f 131/7/1 130/7/1 129/7/1
f 132/7/1 130/7/1 131/7/1
f 135/2/1 134/2/1 133/2/1
f 136/2/1 134/2/1 135/2/1
f 139/7/1 138/7/1 137/7/1
f 140/7/1 138/7/1 139/7/1
f 143/7/1 142/7/1 141/7/1
f 144/7/1 142/7/1 143/7/1
f 147/7/1 146/7/1 145/7/1
f 148/7/1 146/7/1 147/7/1
f 149/7/2 150/7/2 151/7/2
f 151/7/2 150/7/2 152/7/2
f 153/7/2 154/7/2 155/7/2
f 155/7/2 154/7/2 156/7/2
f 157/7/2 158/7/2 159/7/2
f 159/7/2 158/7/2 160/7/2
f 161/7/2 162/7/2 163/7/2
f 163/7/2 162/7/2 164/7/2
f 165/7/2 166/7/2 167/7/2
f 167/7/2 166/7/2 168/7/2
f 169/7/2 170/7/2 171/7/2
f 171/7/2 170/7/2 172/7/2
f 173/7/2 174/7/2 175/7/2
f 175/7/2 174/7/2 176/7/2
f 177/7/2 178/7/2 179/7/2
f 179/7/2 178/7/2 180/7/2
f 181/7/2 182/7/2 183/7/2
f 183/7/2 182/7/2 184/7/2
f 185/7/2 186/7/2 187/7/2
f 187/7/2 186/7/2 188/7/2
f 189/7/2 190/7/2 191/7/2
f 191/7/2 190/7/2 192/7/2
f 193/7/2 194/7/2 195/7/2
f 195/7/2 194/7/2 196/7/2
f 197/7/2 198/7/2 199/7/2
f 199/7/2 198/7/2 200/7/2
f 201/7/2 202/7/2 203/7/2
f 203/7/2 202/7/2 204/7/2
f 205/7/2 206/7/2 207/7/2
f 207/7/2 206/7/2 208/7/2
f 209/7/2 210/7/2 211/7/2
f 211/7/2 210/7/2 212/7/2
f 213/7/2 214/7/2 215/7/2
f 215/7/2 214/7/2 216/7/2
f 217/7/2 218/7/2 219/7/2
f 219/7/2 218/7/2 220/7/2
f 221/7/2 222/7/2 223/7/2
f 223/7/2 222/7/2 224/7/2
f 225/7/2 226/7/2 227/7/2
f 227/7/2 226/7/2 228/7/2
f 229/7/2 230/7/2 231/7/2
f 231/7/2 230/7/2 232/7/2
f 233/7/2 234/7/2 235/7/2
f 235/7/2 234/7/2 236/7/2
f 237/7/2 238/7/2 239/7/2
f 239/7/2 238/7/2 240/7/2
f 241/3/2 242/3/2 243/3/2
f 243/3/2 242/3/2 244/3/2
f 245/4/2 246/4/2 247/4/2
f 247/4/2 246/4/2 248/4/2
f 249/1/2 250/1/2 251/1/2
f 251/1/2 250/1/2 252/1/2
f 253/2/2 254/2/2 255/2/2
f 255/2/2 254/2/2 256/2/2
f 257/7/2 258/7/2 259/7/2
f 259/7/2 258/7/2 260/7/2
f 261/7/2 262/7/2 263/7/2
f 263/7/2 262/7/2 264/7/2
f 265/7/2 266/7/2 267/7/2
f 267/7/2 266/7/2 268/7/2
f 269/7/2 270/7/2 271/7/2
f 271/7/2 270/7/2 272/7/2
f 273/7/2 274/7/2 275/7/2
f 275/7/2 274/7/2 276/7/2
f 277/7/2 278/7/2 279/7/2
f 279/7/2 278/7/2 280/7/2
f 281/7/2 282/7/2 283/7/2
f 283/7/2 282/7/2 284/7/2
f 285/7/2 286/7/2 287/7/2
f 287/7/2 286/7/2 288/7/2
f 289/7/2 290/7/2 291/7/2
f 291/7/2 290/7/2 292/7/2
f 293/7/2 294/7/2 295/7/2
f 295/7/2 294/7/2 296/7/2
f 300/7/3 298/7/3 297/7/3
f 301/7/3 298/7/3 300/7/3
f 305/7/3 300/7/3 299/7/3
f 306/6/3 301/6/3 300/6/3
f 306/7/3 300/7/3 305/7/3
f 307/7/3 302/7/3 301/7/3
f 307/6/3 301/6/3 306/6/3
f 308/7/3 302/7/3 307/7/3
f 310/7/3 304/7/3 303/7/3
f 311/7/3 304/7/3 310/7/3
f 313/7/3 307/7/3 306/7/3
f 314/7/3 307/7/3 313/7/3
f 315/7/3 310/7/3 309/7/3
f 316/6/3 311/6/3 310/6/3
f 316/7/3 310/7/3 315/7/3
f 317/7/3 312/7/3 311/7/3
f 317/6/3 311/6/3 316/6/3
f 318/7/3 312/7/3 317/7/3
f 321/7/3 317/7/3 316/7/3
f 322/7/3 317/7/3 321/7/3
f 323/7/3 320/7/3 319/7/3
f 324/7/3 320/7/3 323/7/3
f 330/7/3 326/7/3 325/7/3
f 331/7/3 326/7/3 330/7/3
f 333/7/3 328/7/3 327/7/3
f 334/7/3 328/7/3 333/7/3
f 335/7/3 332/7/3 331/7/3
f 335/7/3 331/7/3 330/7/3
f 335/7/3 330/7/3 329/7/3
f 336/7/3 332/7/3 335/7/3
f 337/7/3 332/7/3 336/7/3
f 338/7/3 332/7/3 337/7/3
f 343/7/3 337/7/3 336/7/3
f 344/7/3 337/7/3 343/7/3
f 346/7/3 340/7/3 339/7/3
f 347/7/3 340/7/3 346/7/3
f 349/7/3 342/7/3 341/7/3
f 350/7/3 342/7/3 349/7/3
f 353/7/3 346/7/3 345/7/3
f 354/6/3 347/6/3 346/6/3
f 354/7/3 346/7/3 353/7/3
f 355/7/3 348/7/3 347/7/3
f 355/6/3 347/6/3 354/6/3
f 356/7/3 348/7/3 355/7/3
f 357/7/3 355/7/3 354/7/3
f 358/7/3 355/7/3 357/7/3
f 360/3/3 352/3/3 351/3/3
f 361/3/3 352/3/3 360/3/3
f 363/4/3 360/4/3 359/4/3
f 364/4/3 360/4/3 363/4/3
f 365/1/3 362/1/3 361/1/3
f 366/1/3 362/1/3 365/1/3
f 367/2/3 365/2/3 364/2/3
f 368/2/3 365/2/3 367/2/3
f 372/7/3 370/7/3 369/7/3
f 373/7/3 370/7/3 372/7/3
f 376/7/3 372/7/3 371/7/3
f 377/5/3 373/5/3 372/5/3
f 377/7/3 372/7/3 376/7/3
f 378/7/3 374/7/3 373/7/3
f 378/5/3 373/5/3 377/5/3
f 379/7/3 374/7/3 378/7/3
f 382/7/3 376/7/3 375/7/3
f 383/5/3 377/5/3 376/5/3
f 383/5/3 378/5/3 377/5/3
f 383/7/3 376/7/3 382/7/3
f 383/5/3 379/5/3 378/5/3
f 384/7/3 380/7/3 379/7/3
f 384/5/3 379/5/3 383/5/3
f 385/7/3 380/7/3 384/7/3
f 387/5/3 383/5/3 382/5/3
f 387/7/3 386/7/3 385/7/3
f 387/5/3 385/5/3 384/5/3
f 387/5/3 384/5/3 383/5/3
f 388/7/3 386/7/3 387/7/3
f 390/7/3 382/7/3 381/7/3
f 391/5/3 387/5/3 382/5/3
f 391/7/3 382/7/3 390/7/3
f 391/5/3 388/5/3 387/5/3
f 392/5/3 388/5/3 391/5/3
f 393/7/3 389/7/3 388/7/3
f 393/5/3 388/5/3 392/5/3
f 394/7/3 389/7/3 393/7/3
f 396/7/3 392/7/3 391/7/3
f 397/5/3 394/5/3 393/5/3
f 397/7/3 392/7/3 396/7/3
f 397/5/3 393/5/3 392/5/3
f 398/5/3 394/5/3 397/5/3
f 399/5/3 394/5/3 398/5/3
f 400/5/3 394/5/3 399/5/3
f 401/7/3 395/7/3 394/7/3
f 401/5/3 394/5/3 400/5/3
f 402/7/3 395/7/3 401/7/3
f 404/7/3 398/7/3 397/7/3
f 405/5/3 399/5/3 398/5/3
f 405/7/3 398/7/3 404/7/3
f 406/5/3 399/5/3 405/5/3
f 407/5/3 399/5/3 406/5/3
f 408/5/3 399/5/3 407/5/3
f 409/5/3 402/5/3 401/5/3
f 409/5/3 401/5/3 400/5/3
f 410/5/3 402/5/3 409/5/3
f 411/7/3 406/7/3 405/7/3
f 412/5/3 407/5/3 406/5/3
f 412/7/3 406/7/3 411/7/3
f 413/5/3 407/5/3 412/5/3
f 414/7/3 413/7/3 412/7/3
f 415/5/3 407/5/3 413/5/3
f 415/7/3 413/7/3 414/7/3
f 416/5/3 407/5/3 415/5/3
f 417/5/3 407/5/3 416/5/3
f 418/5/3 407/5/3 417/5/3
f 420/7/3 416/7/3 415/7/3
f 421/5/3 417/5/3 416/5/3
f 421/7/3 416/7/3 420/7/3
f 422/5/3 407/5/3 418/5/3
f 425/5/3 402/5/3 410/5/3
f 426/5/3 417/5/3 421/5/3
f 426/5/3 421/5/3 420/5/3
f 427/5/3 417/5/3 426/5/3
f 428/5/3 423/5/3 422/5/3
f 428/5/3 422/5/3 418/5/3
f 429/5/3 423/5/3 428/5/3
f 430/5/3 423/5/3 429/5/3
f 431/5/3 425/5/3 424/5/3
f 432/5/3 426/5/3 420/5/3
f 435/5/3 431/5/3 430/5/3
f 435/5/3 430/5/3 429/5/3
f 436/5/3 431/5/3 435/5/3
f 436/5/3 435/5/3 434/5/3
f 437/5/3 431/5/3 436/5/3
f 438/7/3 420/7/3 419/7/3
f 439/5/3 433/5/3 432/5/3
f 439/7/3 420/7/3 438/7/3
f 439/5/3 432/5/3 420/5/3
f 440/5/3 433/5/3 439/5/3
f 441/5/3 433/5/3 440/5/3
f 442/5/3 436/5/3 434/5/3
f 443/5/3 436/5/3 442/5/3
f 444/5/3 431/5/3 437/5/3
f 445/5/3 431/5/3 444/5/3
f 446/5/3 425/5/3 431/5/3
f 446/5/3 431/5/3 445/5/3
f 447/7/3 440/7/3 439/7/3
f 448/5/3 441/5/3 440/5/3
f 448/7/3 440/7/3 447/7/3
f 448/5/3 443/5/3 442/5/3
f 448/5/3 445/5/3 444/5/3
f 448/5/3 442/5/3 441/5/3
f 448/5/3 444/5/3 443/5/3
f 449/5/3 445/5/3 448/5/3
f 450/5/3 445/5/3 449/5/3
f 451/5/3 445/5/3 450/5/3
f 452/5/3 445/5/3 451/5/3
f 453/5/3 445/5/3 452/5/3
f 454/5/3 425/5/3 446/5/3
f 455/5/3 402/5/3 425/5/3
f 455/5/3 425/5/3 454/5/3
f 457/7/3 449/7/3 448/7/3
f 458/5/3 450/5/3 449/5/3
f 458/7/3 449/7/3 457/7/3
f 459/5/3 450/5/3 458/5/3
f 460/5/3 452/5/3 451/5/3
f 461/5/3 452/5/3 460/5/3
f 464/5/3 402/5/3 455/5/3
f 466/7/3 457/7/3 456/7/3
f 467/5/3 462/5/3 461/5/3
f 467/5/3 459/5/3 458/5/3
f 467/7/3 457/7/3 466/7/3
f 467/5/3 458/5/3 457/5/3
f 467/5/3 460/5/3 459/5/3
f 467/5/3 461/5/3 460/5/3
f 468/5/3 462/5/3 467/5/3
f 469/5/3 462/5/3 468/5/3
f 470/5/3 462/5/3 469/5/3
f 471/5/3 462/5/3 470/5/3
f 472/5/3 462/5/3 471/5/3
f 473/5/3 464/5/3 463/5/3
f 474/5/3 467/5/3 466/5/3
f 474/5/3 468/5/3 467/5/3
f 475/5/3 468/5/3 474/5/3
f 476/5/3 470/5/3 469/5/3
f 477/5/3 470/5/3 476/5/3
f 478/5/3 470/5/3 477/5/3
f 479/5/3 472/5/3 471/5/3
f 479/5/3 473/5/3 472/5/3
f 480/5/3 478/5/3 477/5/3
f 480/5/3 479/5/3 478/5/3
f 481/5/3 473/5/3 479/5/3
f 481/5/3 479/5/3 480/5/3
f 482/5/3 474/5/3 466/5/3
f 485/5/3 480/5/3 477/5/3
f 486/7/3 466/7/3 465/7/3
f 487/5/3 483/5/3 482/5/3
f 487/7/3 466/7/3 486/7/3
f 487/5/3 482/5/3 466/5/3
f 488/5/3 483/5/3 487/5/3
f 489/5/3 483/5/3 488/5/3
f 490/5/3 485/5/3 484/5/3
f 491/5/3 480/5/3 485/5/3
f 491/5/3 485/5/3 490/5/3
f 492/5/3 480/5/3 491/5/3
f 493/5/3 473/5/3 481/5/3
f 494/5/3 464/5/3 473/5/3
f 494/5/3 473/5/3 493/5/3
f 496/7/3 488/7/3 487/7/3
f 497/5/3 489/5/3 488/5/3
f 497/5/3 490/5/3 489/5/3
f 497/7/3 488/7/3 496/7/3
f 497/5/3 491/5/3 490/5/3
f 499/7/3 496/7/3 495/7/3
f 500/5/3 497/5/3 496/5/3
f 500/7/3 496/7/3 499/7/3
f 501/5/3 491/5/3 497/5/3
f 501/5/3 497/5/3 500/5/3
f 502/5/3 493/5/3 492/5/3
f 503/5/3 493/5/3 502/5/3
f 504/5/3 464/5/3 494/5/3
f 506/7/3 499/7/3 498/7/3
f 507/5/3 500/5/3 499/5/3
f 507/5/3 501/5/3 500/5/3
f 507/7/3 499/7/3 506/7/3
f 507/5/3 502/5/3 501/5/3
f 509/7/3 506/7/3 505/7/3
f 510/5/3 507/5/3 506/5/3
f 510/7/3 506/7/3 509/7/3
f 511/5/3 502/5/3 507/5/3
f 511/5/3 507/5/3 510/5/3
f 512/5/3 504/5/3 503/5/3
f 513/5/3 402/5/3 464/5/3
f 513/5/3 464/5/3 504/5/3
f 513/5/3 504/5/3 512/5/3
f 514/7/3 403/7/3 402/7/3
f 514/5/3 402/5/3 513/5/3
f 515/7/3 403/7/3 514/7/3
f 517/7/3 509/7/3 508/7/3
f 518/5/3 513/5/3 512/5/3
f 518/5/3 510/5/3 509/5/3
f 518/7/3 509/7/3 517/7/3
f 518/5/3 512/5/3 511/5/3
f 518/5/3 511/5/3 510/5/3
f 519/5/3 513/5/3 518/5/3
f 520/7/3 514/7/3 513/7/3
f 520/5/3 513/5/3 519/5/3
f 521/7/3 514/7/3 520/7/3
f 522/5/3 519/5/3 518/5/3
f 522/5/3 518/5/3 517/5/3
f 523/7/3 520/7/3 519/7/3
f 523/5/3 519/5/3 522/5/3
f 524/7/3 520/7/3 523/7/3
f 525/7/3 517/7/3 516/7/3
f 526/5/3 522/5/3 517/5/3
f 526/7/3 517/7/3 525/7/3
f 527/5/3 522/5/3 526/5/3
f 528/5/3 522/5/3 527/5/3
f 529/7/3 523/7/3 522/7/3
f 529/5/3 522/5/3 528/5/3
f 530/7/3 523/7/3 529/7/3
f 531/7/3 527/7/3 526/7/3
f 532/5/3 528/5/3 527/5/3
f 532/7/3 527/7/3 531/7/3
f 533/5/3 528/5/3 532/5/3
f 534/5/3 528/5/3 533/5/3
f 535/7/3 529/7/3 528/7/3
f 535/5/3 528/5/3 534/5/3
f 536/7/3 529/7/3 535/7/3
f 537/7/3 533/7/3 532/7/3
f 538/5/3 534/5/3 533/5/3
f 538/7/3 533/7/3 537/7/3
f 539/7/3 535/7/3 534/7/3
f 539/5/3 534/5/3 538/5/3
f 540/7/3 535/7/3 539/7/3
f 541/7/3 539/7/3 538/7/3
f 542/7/3 539/7/3 541/7/3
f 543/7/4 544/7/4 546/7/4
f 546/7/4 544/7/4 547/7/4
f 545/7/4 546/7/4 550/7/4
f 546/5/4 547/5/4 551/5/4
f 550/7/4 546/7/4 551/7/4
f 547/7/4 548/7/4 552/7/4
f 551/5/4 547/5/4 552/5/4
f 552/7/4 548/7/4 553/7/4
f 549/7/4 550/7/4 556/7/4
f 550/5/4 551/5/4 557/5/4
f 551/5/4 552/5/4 557/5/4
f 556/7/4 550/7/4 557/7/4
f 552/5/4 553/5/4 557/5/4
f 553/7/4 554/7/4 558/7/4
f 557/5/4 553/5/4 558/5/4
f 558/7/4 554/7/4 559/7/4
f 556/5/4 557/5/4 561/5/4
f 559/7/4 560/7/4 561/7/4
f 558/5/4 559/5/4 561/5/4
f 557/5/4 558/5/4 561/5/4
f 561/7/4 560/7/4 562/7/4
f 555/7/4 556/7/4 564/7/4
f 556/5/4 561/5/4 565/5/4
f 564/7/4 556/7/4 565/7/4
f 561/5/4 562/5/4 565/5/4
f 565/5/4 562/5/4 566/5/4
f 562/7/4 563/7/4 567/7/4
f 566/5/4 562/5/4 567/5/4
f 567/7/4 563/7/4 568/7/4
f 565/7/4 566/7/4 570/7/4
f 567/5/4 568/5/4 571/5/4
f 570/7/4 566/7/4 571/7/4
f 566/5/4 567/5/4 571/5/4
f 571/5/4 568/5/4 572/5/4
f 568/7/4 569/7/4 573/7/4
f 572/5/4 568/5/4 573/5/4
f 573/7/4 569/7/4 574/7/4
f 571/7/4 572/7/4 576/7/4
f 573/5/4 574/5/4 577/5/4
f 576/7/4 572/7/4 577/7/4
f 572/5/4 573/5/4 577/5/4
f 577/5/4 574/5/4 578/5/4
f 577/7/4 578/7/4 579/7/4
f 578/5/4 574/5/4 580/5/4
f 579/7/4 578/7/4 580/7/4
f 580/5/4 574/5/4 581/5/4
f 580/7/4 581/7/4 582/7/4
f 581/5/4 574/5/4 583/5/4
f 582/7/4 581/7/4 583/7/4
f 583/5/4 574/5/4 584/5/4
f 583/7/4 584/7/4 586/7/4
f 584/5/4 574/5/4 587/5/4
f 586/7/4 584/7/4 587/7/4
f 585/7/4 586/7/4 588/7/4
f 586/5/4 587/5/4 589/5/4
f 588/7/4 586/7/4 589/7/4
f 587/5/4 574/5/4 590/5/4
f 589/5/4 587/5/4 590/5/4
f 589/7/4 590/7/4 591/7/4
f 590/5/4 574/5/4 592/5/4
f 591/7/4 590/7/4 592/7/4
f 592/5/4 574/5/4 593/5/4
f 592/7/4 593/7/4 595/7/4
f 593/5/4 574/5/4 596/5/4
f 595/7/4 593/7/4 596/7/4
f 594/7/4 595/7/4 598/7/4
f 595/5/4 596/5/4 599/5/4
f 598/7/4 595/7/4 599/7/4
f 597/7/4 598/7/4 600/7/4
f 598/5/4 599/5/4 601/5/4
f 600/7/4 598/7/4 601/7/4
f 599/5/4 596/5/4 602/5/4
f 601/5/4 599/5/4 602/5/4
f 601/7/4 602/7/4 604/7/4
f 602/5/4 596/5/4 605/5/4
f 604/7/4 602/7/4 605/7/4
f 603/7/4 604/7/4 607/7/4
f 604/5/4 605/5/4 608/5/4
f 607/7/4 604/7/4 608/7/4
f 606/7/4 607/7/4 610/7/4
f 607/5/4 608/5/4 611/5/4
f 610/7/4 607/7/4 611/7/4
f 609/7/4 610/7/4 613/7/4
f 610/5/4 611/5/4 614/5/4
f 613/7/4 610/7/4 614/7/4
f 596/5/4 574/5/4 615/5/4
f 614/5/4 611/5/4 615/5/4
f 605/5/4 596/5/4 615/5/4
f 608/5/4 605/5/4 615/5/4
f 611/5/4 608/5/4 615/5/4
f 574/7/4 575/7/4 616/7/4
f 615/5/4 574/5/4 616/5/4
f 616/7/4 575/7/4 617/7/4
f 612/7/4 613/7/4 619/7/4
f 614/5/4 615/5/4 620/5/4
f 613/5/4 614/5/4 620/5/4
f 619/7/4 613/7/4 620/7/4
f 620/5/4 615/5/4 621/5/4
f 615/7/4 616/7/4 622/7/4
f 621/5/4 615/5/4 622/5/4
f 622/7/4 616/7/4 623/7/4
f 620/5/4 621/5/4 624/5/4
f 619/5/4 620/5/4 624/5/4
f 621/7/4 622/7/4 625/7/4
f 624/5/4 621/5/4 625/5/4
f 625/7/4 622/7/4 626/7/4
f 618/7/4 619/7/4 627/7/4
f 619/5/4 624/5/4 628/5/4
f 627/7/4 619/7/4 628/7/4
f 628/5/4 624/5/4 629/5/4
f 629/5/4 624/5/4 630/5/4
f 624/7/4 625/7/4 631/7/4
f 630/5/4 624/5/4 631/5/4
f 631/7/4 625/7/4 632/7/4
f 628/7/4 629/7/4 633/7/4
f 629/5/4 630/5/4 634/5/4
f 633/7/4 629/7/4 634/7/4
f 634/5/4 630/5/4 635/5/4
f 635/5/4 630/5/4 636/5/4
f 630/7/4 631/7/4 637/7/4
f 636/5/4 630/5/4 637/5/4
f 637/7/4 631/7/4 638/7/4
f 634/7/4 635/7/4 639/7/4
f 635/5/4 636/5/4 640/5/4
f 639/7/4 635/7/4 640/7/4
f 636/7/4 637/7/4 641/7/4
f 640/5/4 636/5/4 641/5/4
f 641/7/4 637/7/4 642/7/4
f 640/7/4 641/7/4 643/7/4
f 643/7/4 641/7/4 644/7/4
f 649/7/5 646/7/5 645/7/5
f 650/7/5 646/7/5 649/7/5
f 651/7/5 648/7/5 647/7/5
f 652/7/5 648/7/5 651/7/5
f 661/7/5 654/7/5 653/7/5
f 662/7/5 654/7/5 661/7/5
f 663/7/5 656/7/5 655/7/5
f 664/7/5 656/7/5 663/7/5
f 665/7/5 658/7/5 657/7/5
f 666/7/5 658/7/5 665/7/5
f 667/7/5 660/7/5 659/7/5
f 668/7/5 660/7/5 667/7/5
f 677/7/5 670/7/5 669/7/5
f 678/7/5 670/7/5 677/7/5
f 679/7/5 672/7/5 671/7/5
f 680/7/5 672/7/5 679/7/5
f 681/7/5 674/7/5 673/7/5
f 682/7/5 674/7/5 681/7/5
f 683/7/5 676/7/5 675/7/5
f 684/7/5 676/7/5 683/7/5
f 689/7/5 686/7/5 685/7/5
f 690/7/5 686/7/5 689/7/5
f 691/7/5 688/7/5 687/7/5
f 692/7/5 688/7/5 691/7/5
f 705/7/5 694/7/5 693/7/5
f 706/7/5 694/7/5 705/7/5
f 707/7/5 696/7/5 695/7/5
f 708/7/5 696/7/5 707/7/5
f 709/7/5 698/7/5 697/7/5
f 710/7/5 698/7/5 709/7/5
f 711/7/5 700/7/5 699/7/5
f 712/7/5 700/7/5 711/7/5
f 713/7/5 702/7/5 701/7/5
f 714/7/5 702/7/5 713/7/5
f 715/7/5 704/7/5 703/7/5
f 716/7/5 704/7/5 715/7/5
f 725/7/5 718/7/5 717/7/5
f 726/7/5 718/7/5 725/7/5
f 727/7/5 720/7/5 719/7/5
f 728/7/5 720/7/5 727/7/5
f 729/7/5 722/7/5 721/7/5
f 730/7/5 722/7/5 729/7/5
f 731/7/5 724/7/5 723/7/5
f 732/7/5 724/7/5 731/7/5
f 737/7/5 734/7/5 733/7/5
f 738/7/5 734/7/5 737/7/5
f 741/7/5 736/7/5 735/7/5
f 742/7/5 736/7/5 741/7/5
f 743/7/5 740/7/5 739/7/5
f 744/7/5 740/7/5 743/7/5
f 749/7/5 746/7/5 745/7/5
f 750/7/5 746/7/5 749/7/5
f 751/7/5 748/7/5 747/7/5
f 752/7/5 748/7/5 751/7/5
f 757/7/5 754/7/5 753/7/5
f 758/7/5 754/7/5 757/7/5
f 759/7/5 756/7/5 755/7/5
f 760/7/5 756/7/5 759/7/5
f 763/4/5 762/4/5 761/4/5
f 764/4/5 762/4/5 763/4/5
f 767/7/5 766/7/5 765/7/5
f 768/7/5 766/7/5 767/7/5
f 779/7/5 770/7/5 769/7/5
f 780/7/5 770/7/5 779/7/5
f 781/7/5 772/7/5 771/7/5
f 782/7/5 772/7/5 781/7/5
f 783/7/5 774/7/5 773/7/5
f 784/7/5 774/7/5 783/7/5
f 785/3/5 776/3/5 775/3/5
f 786/3/5 776/3/5 785/3/5
f 787/2/5 778/2/5 777/2/5
f 788/2/5 778/2/5 787/2/5
f 795/7/5 790/7/5 789/7/5
f 796/7/5 790/7/5 795/7/5
f 797/7/5 792/7/5 791/7/5
f 798/7/5 792/7/5 797/7/5
f 799/7/5 794/7/5 793/7/5
f 800/7/5 794/7/5 799/7/5
f 807/7/5 802/7/5 801/7/5
f 808/7/5 802/7/5 807/7/5
f 809/7/5 804/7/5 803/7/5
f 810/7/5 804/7/5 809/7/5
f 811/1/5 806/1/5 805/1/5
f 812/1/5 806/1/5 811/1/5
f 813/7/6 814/7/6 817/7/6
f 817/7/6 814/7/6 818/7/6
f 815/7/6 816/7/6 819/7/6
f 819/7/6 816/7/6 820/7/6
f 821/7/6 822/7/6 829/7/6
f 829/7/6 822/7/6 830/7/6
f 823/7/6 824/7/6 831/7/6
f 831/7/6 824/7/6 832/7/6
f 825/7/6 826/7/6 833/7/6
f 833/7/6 826/7/6 834/7/6
f 827/7/6 828/7/6 835/7/6
f 835/7/6 828/7/6 836/7/6
f 837/7/6 838/7/6 839/7/6
f 839/7/6 838/7/6 840/7/6
f 841/7/6 842/7/6 843/7/6
f 843/7/6 842/7/6 844/7/6
f 845/7/6 846/7/6 849/7/6
f 849/7/6 846/7/6 850/7/6
f 847/7/6 848/7/6 851/7/6
f 851/7/6 848/7/6 852/7/6
f 853/7/6 854/7/6 857/7/6
f 857/7/6 854/7/6 858/7/6
f 855/4/6 856/4/6 859/4/6
f 859/4/6 856/4/6 860/4/6
f 861/7/6 862/7/6 865/7/6
f 865/7/6 862/7/6 866/7/6
f 863/7/6 864/7/6 867/7/6
f 867/7/6 864/7/6 868/7/6
f 869/3/6 870/3/6 875/3/6
f 875/3/6 870/3/6 876/3/6
f 871/2/6 872/2/6 877/2/6
f 877/2/6 872/2/6 878/2/6
f 873/7/6 874/7/6 881/7/6
f 881/7/6 874/7/6 882/7/6
f 879/7/6 880/7/6 883/7/6
f 883/7/6 880/7/6 884/7/6
f 885/7/6 886/7/6 897/7/6
f 897/7/6 886/7/6 898/7/6
f 887/7/6 888/7/6 899/7/6
f 899/7/6 888/7/6 900/7/6
f 889/7/6 890/7/6 901/7/6
f 901/7/6 890/7/6 902/7/6
f 891/7/6 892/7/6 903/7/6
f 903/7/6 892/7/6 904/7/6
f 893/1/6 894/1/6 905/1/6
f 905/1/6 894/1/6 906/1/6
f 895/7/6 896/7/6 909/7/6
f 909/7/6 896/7/6 910/7/6
f 907/7/6 908/7/6 911/7/6
f 911/7/6 908/7/6 912/7/6
f 913/7/6 914/7/6 919/7/6
f 919/7/6 914/7/6 920/7/6
f 915/7/6 916/7/6 921/7/6
f 921/7/6 916/7/6 922/7/6
f 917/7/6 918/7/6 925/7/6
f 925/7/6 918/7/6 926/7/6
f 923/7/6 924/7/6 927/7/6
f 927/7/6 924/7/6 928/7/6
f 929/7/6 930/7/6 933/7/6
f 933/7/6 930/7/6 934/7/6
f 931/7/6 932/7/6 935/7/6
f 935/7/6 932/7/6 936/7/6
f 937/7/6 938/7/6 939/7/6
f 939/7/6 938/7/6 940/7/6
