# MagicaVoxel @ Ephtracy

# group
o 

# material
mtllib Title.mtl
usemtl palette

# normals
vn -1 0 0
vn 1 0 0
vn 0 0 1
vn 0 0 -1
vn 0 -1 0
vn 0 1 0

# texcoords
vt 0.0136719 0.5
vt 0.376953 0.5
vt 0.634766 0.5

# verts
v -3.5 0 0
v -3.5 0 -0.1
v -3.5 0.5 0
v -3.5 0.5 -0.1
v -3.2 0.5 0
v -3.2 0.5 -0.1
v -3.2 0.7 0
v -3.2 0.7 -0.1
v -3 0.5 0
v -3 0.5 -0.1
v -3 0.7 0
v -3 0.7 -0.1
v -2.7 0.3 0
v -2.7 0.3 -0.1
v -2.7 0.6 0
v -2.7 0.6 -0.1
v -2.5 0 0
v -2.5 0 -0.1
v -2.5 0.1 0
v -2.5 0.1 -0.1
v -2.4 0.1 0
v -2.4 0.1 -0.1
v -2.4 0.2 0
v -2.4 0.2 -0.1
v -2.3 0.2 0
v -2.3 0.2 -0.1
v -2.3 0.7 0
v -2.3 0.7 -0.1
v -2 0 0
v -2 0 -0.1
v -2 0.5 0
v -2 0.5 -0.1
v -1.7 0.5 0
v -1.7 0.5 -0.1
v -1.7 0.7 0
v -1.7 0.7 -0.1
v -1.6 0.4 0
v -1.6 0.4 -0.1
v -1.6 0.5 0
v -1.6 0.5 -0.1
v -1.5 0.5 0
v -1.5 0.5 -0.1
v -1.5 0.6 0
v -1.5 0.6 -0.1
v -1.2 0 0
v -1.2 0 -0.1
v -1.2 0.1 0
v -1.2 0.1 -0.1
v -1.2 0.2 0
v -1.2 0.2 -0.1
v -1.2 0.3 0
v -1.2 0.3 -0.1
v -1.2 0.4 0
v -1.2 0.4 -0.1
v -1.2 0.5 0
v -1.2 0.5 -0.1
v -0.9 0.1 0
v -0.9 0.1 -0.1
v -0.9 0.2 0
v -0.9 0.2 -0.1
v -0.9 0.3 0
v -0.9 0.3 -0.1
v -0.9 0.4 0
v -0.9 0.4 -0.1
v -0.6 0.3 0
v -0.6 0.3 -0.1
v -0.6 0.4 0
v -0.6 0.4 -0.1
v -0.5 0 0
v -0.5 0 -0.1
v -0.5 0.1 0
v -0.5 0.1 -0.1
v -0.5 0.5 0
v -0.5 0.5 -0.1
v -0.5 0.6 0
v -0.5 0.6 -0.1
v -0.3 0.1 0
v -0.3 0.1 -0.1
v -0.3 0.2 0
v -0.3 0.2 -0.1
v -0.2 0.2 0
v -0.2 0.2 -0.1
v -0.2 0.3 0
v -0.2 0.3 -0.1
v 0.1 0 0
v 0.1 0 -0.1
v 0.1 0.1 0
v 0.1 0.1 -0.1
v 0.1 0.4 0
v 0.1 0.4 -0.1
v 0.1 0.5 0
v 0.1 0.5 -0.1
v 0.4 0.1 0
v 0.4 0.1 -0.1
v 0.4 0.2 0
v 0.4 0.2 -0.1
v 0.5 0.2 0
v 0.5 0.2 -0.1
v 0.5 0.5 0
v 0.5 0.5 -0.1
v 0.8 0.4 0
v 0.8 0.4 -0.1
v 0.8 0.5 0
v 0.8 0.5 -0.1
v 0.9 0 0
v 0.9 0 -0.1
v 0.9 0.1 0
v 0.9 0.1 -0.1
v 1.1 0.1 0
v 1.1 0.1 -0.1
v 1.1 0.2 0
v 1.1 0.2 -0.1
v 1.2 0.5 0
v 1.2 0.5 -0.1
v 1.2 0.7 0
v 1.2 0.7 -0.1
v 1.3 0.2 0
v 1.3 0.2 -0.1
v 1.3 0.4 0
v 1.3 0.4 -0.1
v 1.4 0.5 0
v 1.4 0.5 -0.1
v 1.4 0.7 0
v 1.4 0.7 -0.1
v 1.7 0 0
v 1.7 0 -0.1
v 1.7 0.1 0
v 1.7 0.1 -0.1
v 1.8 0.1 0
v 1.8 0.1 -0.1
v 1.8 0.3 0
v 1.8 0.3 -0.1
v 1.9 0.3 0
v 1.9 0.3 -0.1
v 1.9 0.6 0
v 1.9 0.6 -0.1
v 2.1 0 0
v 2.1 0 -0.1
v 2.1 0.5 0
v 2.1 0.5 -0.1
v 2.3 0.1 0
v 2.3 0.1 -0.1
v 2.3 0.2 0
v 2.3 0.2 -0.1
v 2.6 0 0
v 2.6 0 -0.1
v 2.6 0.1 0
v 2.6 0.1 -0.1
v 2.7 0.2 0
v 2.7 0.2 -0.1
v 2.7 0.5 0
v 2.7 0.5 -0.1
v 2.8 0.5 0
v 2.8 0.5 -0.1
v 2.8 0.6 0
v 2.8 0.6 -0.1
v 3.2 0 0
v 3.2 0 -0.1
v 3.2 0.1 0
v 3.2 0.1 -0.1
v 3.3 0.2 0
v 3.3 0.2 -0.1
v 3.3 0.5 0
v 3.3 0.5 -0.1
v 3.4 0.5 0
v 3.4 0.5 -0.1
v 3.4 0.6 0
v 3.4 0.6 -0.1
v -3.4 0.1 0
v -3.4 0.1 -0.1
v -3.4 0.3 0
v -3.4 0.3 -0.1
v -3.4 0.4 0
v -3.4 0.4 -0.1
v -3.4 0.5 0
v -3.4 0.5 -0.1
v -3.1 0.3 0
v -3.1 0.3 -0.1
v -3.1 0.4 0
v -3.1 0.4 -0.1
v -3.1 0.5 0
v -3.1 0.5 -0.1
v -3.1 0.7 0
v -3.1 0.7 -0.1
v -3 0 0
v -3 0 -0.1
v -3 0.1 0
v -3 0.1 -0.1
v -2.9 0.5 0
v -2.9 0.5 -0.1
v -2.9 0.7 0
v -2.9 0.7 -0.1
v -2.6 0.3 0
v -2.6 0.3 -0.1
v -2.6 0.6 0
v -2.6 0.6 -0.1
v -2.3 0 0
v -2.3 0 -0.1
v -2.3 0.1 0
v -2.3 0.1 -0.1
v -2.2 0.1 0
v -2.2 0.1 -0.1
v -2.2 0.7 0
v -2.2 0.7 -0.1
v -1.9 0.1 0
v -1.9 0.1 -0.1
v -1.9 0.3 0
v -1.9 0.3 -0.1
v -1.9 0.4 0
v -1.9 0.4 -0.1
v -1.9 0.5 0
v -1.9 0.5 -0.1
v -1.6 0.3 0
v -1.6 0.3 -0.1
v -1.6 0.4 0
v -1.6 0.4 -0.1
v -1.6 0.5 0
v -1.6 0.5 -0.1
v -1.6 0.6 0
v -1.6 0.6 -0.1
v -1.5 0 0
v -1.5 0 -0.1
v -1.5 0.1 0
v -1.5 0.1 -0.1
v -1.4 0.4 0
v -1.4 0.4 -0.1
v -1.4 0.7 0
v -1.4 0.7 -0.1
v -0.8 0 0
v -0.8 0 -0.1
v -0.8 0.5 0
v -0.8 0.5 -0.1
v -0.2 0 0
v -0.2 0 -0.1
v -0.2 0.1 0
v -0.2 0.1 -0.1
v -0.0999999 0.1 0
v -0.0999999 0.1 -0.1
v -0.0999999 0.4 0
v -0.0999999 0.4 -0.1
v -0.0999999 0.5 0
v -0.0999999 0.5 -0.1
v -0.0999999 0.6 0
v -0.0999999 0.6 -0.1
v 0.3 0.4 0
v 0.3 0.4 -0.1
v 0.3 0.5 0
v 0.3 0.5 -0.1
v 0.5 0 0
v 0.5 0 -0.1
v 0.5 0.1 0
v 0.5 0.1 -0.1
v 0.6 0.1 0
v 0.6 0.1 -0.1
v 0.6 0.5 0
v 0.6 0.5 -0.1
v 1.2 0 0
v 1.2 0 -0.1
v 1.2 0.1 0
v 1.2 0.1 -0.1
v 1.3 0.1 0
v 1.3 0.1 -0.1
v 1.3 0.2 0
v 1.3 0.2 -0.1
v 1.3 0.5 0
v 1.3 0.5 -0.1
v 1.3 0.7 0
v 1.3 0.7 -0.1
v 1.4 0.2 0
v 1.4 0.2 -0.1
v 1.4 0.5 0
v 1.4 0.5 -0.1
v 1.5 0.5 0
v 1.5 0.5 -0.1
v 1.5 0.7 0
v 1.5 0.7 -0.1
v 1.9 0 0
v 1.9 0 -0.1
v 1.9 0.2 0
v 1.9 0.2 -0.1
v 2 0.2 0
v 2 0.2 -0.1
v 2 0.6 0
v 2 0.6 -0.1
v 2.2 0.1 0
v 2.2 0.1 -0.1
v 2.2 0.5 0
v 2.2 0.5 -0.1
v 2.4 0 0
v 2.4 0 -0.1
v 2.4 0.2 0
v 2.4 0.2 -0.1
v 2.8 0 0
v 2.8 0 -0.1
v 2.8 0.1 0
v 2.8 0.1 -0.1
v 2.8 0.2 0
v 2.8 0.2 -0.1
v 2.8 0.3 0
v 2.8 0.3 -0.1
v 2.9 0.3 0
v 2.9 0.3 -0.1
v 2.9 0.4 0
v 2.9 0.4 -0.1
v 3 0.4 0
v 3 0.4 -0.1
v 3 0.6 0
v 3 0.6 -0.1
v 3.4 0 0
v 3.4 0 -0.1
v 3.4 0.1 0
v 3.4 0.1 -0.1
v 3.4 0.2 0
v 3.4 0.2 -0.1
v 3.4 0.3 0
v 3.4 0.3 -0.1
v 3.5 0.3 0
v 3.5 0.3 -0.1
v 3.5 0.4 0
v 3.5 0.4 -0.1
v 3.6 0.4 0
v 3.6 0.4 -0.1
v 3.6 0.6 0
v 3.6 0.6 -0.1
v -3.5 0 0
v -3.5 0.5 0
v -3.4 0.1 0
v -3.4 0.3 0
v -3.4 0.4 0
v -3.4 0.5 0
v -3.2 0.5 0
v -3.2 0.7 0
v -3.1 0.3 0
v -3.1 0.4 0
v -3.1 0.5 0
v -3.1 0.7 0
v -3 0 0
v -3 0.1 0
v -3 0.5 0
v -3 0.7 0
v -2.9 0.5 0
v -2.9 0.7 0
v -2.7 0.3 0
v -2.7 0.6 0
v -2.6 0.3 0
v -2.6 0.6 0
v -2.5 0 0
v -2.5 0.1 0
v -2.4 0.1 0
v -2.4 0.2 0
v -2.3 0 0
v -2.3 0.1 0
v -2.3 0.2 0
v -2.3 0.7 0
v -2.2 0.1 0
v -2.2 0.7 0
v -2 0 0
v -2 0.5 0
v -1.9 0.1 0
v -1.9 0.3 0
v -1.9 0.4 0
v -1.9 0.5 0
v -1.7 0.5 0
v -1.7 0.7 0
v -1.6 0.3 0
v -1.6 0.4 0
v -1.6 0.5 0
v -1.6 0.6 0
v -1.5 0 0
v -1.5 0.1 0
v -1.5 0.5 0
v -1.5 0.6 0
v -1.4 0.4 0
v -1.4 0.7 0
v -1.2 0 0
v -1.2 0.1 0
v -1.2 0.2 0
v -1.2 0.3 0
v -1.2 0.4 0
v -1.2 0.5 0
v -0.9 0.1 0
v -0.9 0.2 0
v -0.9 0.3 0
v -0.9 0.4 0
v -0.8 0 0
v -0.8 0.5 0
v -0.6 0.3 0
v -0.6 0.4 0
v -0.5 0 0
v -0.5 0.1 0
v -0.5 0.5 0
v -0.5 0.6 0
v -0.3 0.1 0
v -0.3 0.2 0
v -0.2 0 0
v -0.2 0.1 0
v -0.2 0.2 0
v -0.2 0.3 0
v -0.0999999 0.1 0
v -0.0999999 0.4 0
v -0.0999999 0.5 0
v -0.0999999 0.6 0
v 0.1 0 0
v 0.1 0.1 0
v 0.1 0.4 0
v 0.1 0.5 0
v 0.3 0.4 0
v 0.3 0.5 0
v 0.4 0.1 0
v 0.4 0.2 0
v 0.5 0 0
v 0.5 0.1 0
v 0.5 0.2 0
v 0.5 0.5 0
v 0.6 0.1 0
v 0.6 0.5 0
v 0.8 0.4 0
v 0.8 0.5 0
v 0.9 0 0
v 0.9 0.1 0
v 1.1 0.1 0
v 1.1 0.2 0
v 1.2 0 0
v 1.2 0.1 0
v 1.2 0.5 0
v 1.2 0.7 0
v 1.3 0.1 0
v 1.3 0.2 0
v 1.3 0.4 0
v 1.3 0.5 0
v 1.3 0.7 0
v 1.4 0.2 0
v 1.4 0.5 0
v 1.4 0.7 0
v 1.5 0.5 0
v 1.5 0.7 0
v 1.7 0 0
v 1.7 0.1 0
v 1.8 0.1 0
v 1.8 0.3 0
v 1.9 0 0
v 1.9 0.2 0
v 1.9 0.3 0
v 1.9 0.6 0
v 2 0.2 0
v 2 0.6 0
v 2.1 0 0
v 2.1 0.5 0
v 2.2 0.1 0
v 2.2 0.5 0
v 2.3 0.1 0
v 2.3 0.2 0
v 2.4 0 0
v 2.4 0.2 0
v 2.6 0 0
v 2.6 0.1 0
v 2.7 0.2 0
v 2.7 0.5 0
v 2.8 0 0
v 2.8 0.1 0
v 2.8 0.2 0
v 2.8 0.3 0
v 2.8 0.5 0
v 2.8 0.6 0
v 2.9 0.3 0
v 2.9 0.4 0
v 3 0.4 0
v 3 0.6 0
v 3.2 0 0
v 3.2 0.1 0
v 3.3 0.2 0
v 3.3 0.5 0
v 3.4 0 0
v 3.4 0.1 0
v 3.4 0.2 0
v 3.4 0.3 0
v 3.4 0.5 0
v 3.4 0.6 0
v 3.5 0.3 0
v 3.5 0.4 0
v 3.6 0.4 0
v 3.6 0.6 0
v -3.5 0 -0.1
v -3.5 0.5 -0.1
v -3.4 0.1 -0.1
v -3.4 0.3 -0.1
v -3.4 0.4 -0.1
v -3.4 0.5 -0.1
v -3.2 0.5 -0.1
v -3.2 0.7 -0.1
v -3.1 0.3 -0.1
v -3.1 0.4 -0.1
v -3.1 0.5 -0.1
v -3.1 0.7 -0.1
v -3 0 -0.1
v -3 0.1 -0.1
v -3 0.5 -0.1
v -3 0.7 -0.1
v -2.9 0.5 -0.1
v -2.9 0.7 -0.1
v -2.7 0.3 -0.1
v -2.7 0.6 -0.1
v -2.6 0.3 -0.1
v -2.6 0.6 -0.1
v -2.5 0 -0.1
v -2.5 0.1 -0.1
v -2.4 0.1 -0.1
v -2.4 0.2 -0.1
v -2.3 0 -0.1
v -2.3 0.1 -0.1
v -2.3 0.2 -0.1
v -2.3 0.7 -0.1
v -2.2 0.1 -0.1
v -2.2 0.7 -0.1
v -2 0 -0.1
v -2 0.5 -0.1
v -1.9 0.1 -0.1
v -1.9 0.3 -0.1
v -1.9 0.4 -0.1
v -1.9 0.5 -0.1
v -1.7 0.5 -0.1
v -1.7 0.7 -0.1
v -1.6 0.3 -0.1
v -1.6 0.4 -0.1
v -1.6 0.5 -0.1
v -1.6 0.6 -0.1
v -1.5 0 -0.1
v -1.5 0.1 -0.1
v -1.5 0.5 -0.1
v -1.5 0.6 -0.1
v -1.4 0.4 -0.1
v -1.4 0.7 -0.1
v -1.2 0 -0.1
v -1.2 0.1 -0.1
v -1.2 0.2 -0.1
v -1.2 0.3 -0.1
v -1.2 0.4 -0.1
v -1.2 0.5 -0.1
v -0.9 0.1 -0.1
v -0.9 0.2 -0.1
v -0.9 0.3 -0.1
v -0.9 0.4 -0.1
v -0.8 0 -0.1
v -0.8 0.5 -0.1
v -0.6 0.3 -0.1
v -0.6 0.4 -0.1
v -0.5 0 -0.1
v -0.5 0.1 -0.1
v -0.5 0.5 -0.1
v -0.5 0.6 -0.1
v -0.3 0.1 -0.1
v -0.3 0.2 -0.1
v -0.2 0 -0.1
v -0.2 0.1 -0.1
v -0.2 0.2 -0.1
v -0.2 0.3 -0.1
v -0.0999999 0.1 -0.1
v -0.0999999 0.4 -0.1
v -0.0999999 0.5 -0.1
v -0.0999999 0.6 -0.1
v 0.1 0 -0.1
v 0.1 0.1 -0.1
v 0.1 0.4 -0.1
v 0.1 0.5 -0.1
v 0.3 0.4 -0.1
v 0.3 0.5 -0.1
v 0.4 0.1 -0.1
v 0.4 0.2 -0.1
v 0.5 0 -0.1
v 0.5 0.1 -0.1
v 0.5 0.2 -0.1
v 0.5 0.5 -0.1
v 0.6 0.1 -0.1
v 0.6 0.5 -0.1
v 0.8 0.4 -0.1
v 0.8 0.5 -0.1
v 0.9 0 -0.1
v 0.9 0.1 -0.1
v 1.1 0.1 -0.1
v 1.1 0.2 -0.1
v 1.2 0 -0.1
v 1.2 0.1 -0.1
v 1.2 0.5 -0.1
v 1.2 0.7 -0.1
v 1.3 0.1 -0.1
v 1.3 0.2 -0.1
v 1.3 0.4 -0.1
v 1.3 0.5 -0.1
v 1.3 0.7 -0.1
v 1.4 0.2 -0.1
v 1.4 0.5 -0.1
v 1.4 0.7 -0.1
v 1.5 0.5 -0.1
v 1.5 0.7 -0.1
v 1.7 0 -0.1
v 1.7 0.1 -0.1
v 1.8 0.1 -0.1
v 1.8 0.3 -0.1
v 1.9 0 -0.1
v 1.9 0.2 -0.1
v 1.9 0.3 -0.1
v 1.9 0.6 -0.1
v 2 0.2 -0.1
v 2 0.6 -0.1
v 2.1 0 -0.1
v 2.1 0.5 -0.1
v 2.2 0.1 -0.1
v 2.2 0.5 -0.1
v 2.3 0.1 -0.1
v 2.3 0.2 -0.1
v 2.4 0 -0.1
v 2.4 0.2 -0.1
v 2.6 0 -0.1
v 2.6 0.1 -0.1
v 2.7 0.2 -0.1
v 2.7 0.5 -0.1
v 2.8 0 -0.1
v 2.8 0.1 -0.1
v 2.8 0.2 -0.1
v 2.8 0.3 -0.1
v 2.8 0.5 -0.1
v 2.8 0.6 -0.1
v 2.9 0.3 -0.1
v 2.9 0.4 -0.1
v 3 0.4 -0.1
v 3 0.6 -0.1
v 3.2 0 -0.1
v 3.2 0.1 -0.1
v 3.3 0.2 -0.1
v 3.3 0.5 -0.1
v 3.4 0 -0.1
v 3.4 0.1 -0.1
v 3.4 0.2 -0.1
v 3.4 0.3 -0.1
v 3.4 0.5 -0.1
v 3.4 0.6 -0.1
v 3.5 0.3 -0.1
v 3.5 0.4 -0.1
v 3.6 0.4 -0.1
v 3.6 0.6 -0.1
v -3.5 0 0
v -3 0 0
v -2.5 0 0
v -2.3 0 0
v -2 0 0
v -1.5 0 0
v -1.2 0 0
v -0.8 0 0
v -0.5 0 0
v -0.2 0 0
v 0.1 0 0
v 0.5 0 0
v 0.9 0 0
v 1.2 0 0
v 1.7 0 0
v 1.9 0 0
v 2.1 0 0
v 2.4 0 0
v 2.6 0 0
v 2.8 0 0
v 3.2 0 0
v 3.4 0 0
v -3.5 0 -0.1
v -3 0 -0.1
v -2.5 0 -0.1
v -2.3 0 -0.1
v -2 0 -0.1
v -1.5 0 -0.1
v -1.2 0 -0.1
v -0.8 0 -0.1
v -0.5 0 -0.1
v -0.2 0 -0.1
v 0.1 0 -0.1
v 0.5 0 -0.1
v 0.9 0 -0.1
v 1.2 0 -0.1
v 1.7 0 -0.1
v 1.9 0 -0.1
v 2.1 0 -0.1
v 2.4 0 -0.1
v 2.6 0 -0.1
v 2.8 0 -0.1
v 3.2 0 -0.1
v 3.4 0 -0.1
v -2.3 0.1 0
v -2.2 0.1 0
v -0.2 0.1 0
v -0.0999999 0.1 0
v 0.5 0.1 0
v 0.6 0.1 0
v 1.2 0.1 0
v 1.3 0.1 0
v -2.3 0.1 -0.1
v -2.2 0.1 -0.1
v -0.2 0.1 -0.1
v -0.0999999 0.1 -0.1
v 0.5 0.1 -0.1
v 0.6 0.1 -0.1
v 1.2 0.1 -0.1
v 1.3 0.1 -0.1
v -1.2 0.2 0
v -0.9 0.2 0
v 1.3 0.2 0
v 1.4 0.2 0
v 1.9 0.2 0
v 2 0.2 0
v 2.7 0.2 0
v 2.8 0.2 0
v 3.3 0.2 0
v 3.4 0.2 0
v -1.2 0.2 -0.1
v -0.9 0.2 -0.1
v 1.3 0.2 -0.1
v 1.4 0.2 -0.1
v 1.9 0.2 -0.1
v 2 0.2 -0.1
v 2.7 0.2 -0.1
v 2.8 0.2 -0.1
v 3.3 0.2 -0.1
v 3.4 0.2 -0.1
v -3.4 0.3 0
v -3.1 0.3 0
v -2.7 0.3 0
v -2.6 0.3 0
v -1.9 0.3 0
v -1.6 0.3 0
v -0.6 0.3 0
v -0.2 0.3 0
v 2.8 0.3 0
v 2.9 0.3 0
v 3.4 0.3 0
v 3.5 0.3 0
v -3.4 0.3 -0.1
v -3.1 0.3 -0.1
v -2.7 0.3 -0.1
v -2.6 0.3 -0.1
v -1.9 0.3 -0.1
v -1.6 0.3 -0.1
v -0.6 0.3 -0.1
v -0.2 0.3 -0.1
v 2.8 0.3 -0.1
v 2.9 0.3 -0.1
v 3.4 0.3 -0.1
v 3.5 0.3 -0.1
v -1.6 0.4 0
v -1.4 0.4 0
v -1.2 0.4 0
v -0.9 0.4 0
v 0.1 0.4 0
v 0.3 0.4 0
v 0.8 0.4 0
v 1.3 0.4 0
v 2.9 0.4 0
v 3 0.4 0
v 3.5 0.4 0
v 3.6 0.4 0
v -1.6 0.4 -0.1
v -1.4 0.4 -0.1
v -1.2 0.4 -0.1
v -0.9 0.4 -0.1
v 0.1 0.4 -0.1
v 0.3 0.4 -0.1
v 0.8 0.4 -0.1
v 1.3 0.4 -0.1
v 2.9 0.4 -0.1
v 3 0.4 -0.1
v 3.5 0.4 -0.1
v 3.6 0.4 -0.1
v -3.2 0.5 0
v -3.1 0.5 0
v -3 0.5 0
v -2.9 0.5 0
v -1.7 0.5 0
v -1.6 0.5 0
v -0.5 0.5 0
v -0.0999999 0.5 0
v 1.4 0.5 0
v 1.5 0.5 0
v -3.2 0.5 -0.1
v -3.1 0.5 -0.1
v -3 0.5 -0.1
v -2.9 0.5 -0.1
v -1.7 0.5 -0.1
v -1.6 0.5 -0.1
v -0.5 0.5 -0.1
v -0.0999999 0.5 -0.1
v 1.4 0.5 -0.1
v 1.5 0.5 -0.1
v -1.6 0.6 0
v -1.5 0.6 0
v -1.6 0.6 -0.1
v -1.5 0.6 -0.1
v -3.4 0.1 0
v -3 0.1 0
v -2.5 0.1 0
v -2.4 0.1 0
v -1.9 0.1 0
v -1.5 0.1 0
v -1.2 0.1 0
v -0.9 0.1 0
v -0.5 0.1 0
v -0.3 0.1 0
v 0.1 0.1 0
v 0.4 0.1 0
v 0.9 0.1 0
v 1.1 0.1 0
v 1.7 0.1 0
v 1.8 0.1 0
v 2.2 0.1 0
v 2.3 0.1 0
v 2.6 0.1 0
v 2.8 0.1 0
v 3.2 0.1 0
v 3.4 0.1 0
v -3.4 0.1 -0.1
v -3 0.1 -0.1
v -2.5 0.1 -0.1
v -2.4 0.1 -0.1
v -1.9 0.1 -0.1
v -1.5 0.1 -0.1
v -1.2 0.1 -0.1
v -0.9 0.1 -0.1
v -0.5 0.1 -0.1
v -0.3 0.1 -0.1
v 0.1 0.1 -0.1
v 0.4 0.1 -0.1
v 0.9 0.1 -0.1
v 1.1 0.1 -0.1
v 1.7 0.1 -0.1
v 1.8 0.1 -0.1
v 2.2 0.1 -0.1
v 2.3 0.1 -0.1
v 2.6 0.1 -0.1
v 2.8 0.1 -0.1
v 3.2 0.1 -0.1
v 3.4 0.1 -0.1
v -2.4 0.2 0
v -2.3 0.2 0
v -0.3 0.2 0
v -0.2 0.2 0
v 0.4 0.2 0
v 0.5 0.2 0
v 1.1 0.2 0
v 1.3 0.2 0
v 2.3 0.2 0
v 2.4 0.2 0
v -2.4 0.2 -0.1
v -2.3 0.2 -0.1
v -0.3 0.2 -0.1
v -0.2 0.2 -0.1
v 0.4 0.2 -0.1
v 0.5 0.2 -0.1
v 1.1 0.2 -0.1
v 1.3 0.2 -0.1
v 2.3 0.2 -0.1
v 2.4 0.2 -0.1
v -1.2 0.3 0
v -0.9 0.3 0
v 1.8 0.3 0
v 1.9 0.3 0
v -1.2 0.3 -0.1
v -0.9 0.3 -0.1
v 1.8 0.3 -0.1
v 1.9 0.3 -0.1
v -3.4 0.4 0
v -3.1 0.4 0
v -1.9 0.4 0
v -1.6 0.4 0
v -0.6 0.4 0
v -0.0999999 0.4 0
v -3.4 0.4 -0.1
v -3.1 0.4 -0.1
v -1.9 0.4 -0.1
v -1.6 0.4 -0.1
v -0.6 0.4 -0.1
v -0.0999999 0.4 -0.1
v -3.5 0.5 0
v -3.4 0.5 0
v -2 0.5 0
v -1.9 0.5 0
v -1.6 0.5 0
v -1.5 0.5 0
v -1.2 0.5 0
v -0.8 0.5 0
v 0.1 0.5 0
v 0.3 0.5 0
v 0.5 0.5 0
v 0.6 0.5 0
v 0.8 0.5 0
v 1.2 0.5 0
v 1.3 0.5 0
v 1.4 0.5 0
v 2.1 0.5 0
v 2.2 0.5 0
v 2.7 0.5 0
v 2.8 0.5 0
v 3.3 0.5 0
v 3.4 0.5 0
v -3.5 0.5 -0.1
v -3.4 0.5 -0.1
v -2 0.5 -0.1
v -1.9 0.5 -0.1
v -1.6 0.5 -0.1
v -1.5 0.5 -0.1
v -1.2 0.5 -0.1
v -0.8 0.5 -0.1
v 0.1 0.5 -0.1
v 0.3 0.5 -0.1
v 0.5 0.5 -0.1
v 0.6 0.5 -0.1
v 0.8 0.5 -0.1
v 1.2 0.5 -0.1
v 1.3 0.5 -0.1
v 1.4 0.5 -0.1
v 2.1 0.5 -0.1
v 2.2 0.5 -0.1
v 2.7 0.5 -0.1
v 2.8 0.5 -0.1
v 3.3 0.5 -0.1
v 3.4 0.5 -0.1
v -2.7 0.6 0
v -2.6 0.6 0
v -0.5 0.6 0
v -0.0999999 0.6 0
v 1.9 0.6 0
v 2 0.6 0
v 2.8 0.6 0
v 3 0.6 0
v 3.4 0.6 0
v 3.6 0.6 0
v -2.7 0.6 -0.1
v -2.6 0.6 -0.1
v -0.5 0.6 -0.1
v -0.0999999 0.6 -0.1
v 1.9 0.6 -0.1
v 2 0.6 -0.1
v 2.8 0.6 -0.1
v 3 0.6 -0.1
v 3.4 0.6 -0.1
v 3.6 0.6 -0.1
v -3.2 0.7 0
v -3.1 0.7 0
v -3 0.7 0
v -2.9 0.7 0
v -2.3 0.7 0
v -2.2 0.7 0
v -1.7 0.7 0
v -1.4 0.7 0
v 1.2 0.7 0
v 1.3 0.7 0
v 1.4 0.7 0
v 1.5 0.7 0
v -3.2 0.7 -0.1
v -3.1 0.7 -0.1
v -3 0.7 -0.1
v -2.9 0.7 -0.1
v -2.3 0.7 -0.1
v -2.2 0.7 -0.1
v -1.7 0.7 -0.1
v -1.4 0.7 -0.1
v 1.2 0.7 -0.1
v 1.3 0.7 -0.1
v 1.4 0.7 -0.1
v 1.5 0.7 -0.1

# faces
f 3/3/1 2/3/1 1/3/1
f 4/3/1 2/3/1 3/3/1
f 7/3/1 6/3/1 5/3/1
f 8/3/1 6/3/1 7/3/1
f 11/3/1 10/3/1 9/3/1
f 12/3/1 10/3/1 11/3/1
f 15/3/1 14/3/1 13/3/1
f 16/3/1 14/3/1 15/3/1
f 19/3/1 18/3/1 17/3/1
f 20/3/1 18/3/1 19/3/1
f 23/3/1 22/3/1 21/3/1
f 24/3/1 22/3/1 23/3/1
f 27/3/1 26/3/1 25/3/1
f 28/3/1 26/3/1 27/3/1
f 31/1/1 30/1/1 29/1/1
f 32/1/1 30/1/1 31/1/1
f 35/1/1 34/1/1 33/1/1
f 36/1/1 34/1/1 35/1/1
f 39/1/1 38/1/1 37/1/1
f 40/1/1 38/1/1 39/1/1
f 43/1/1 42/1/1 41/1/1
f 44/1/1 42/1/1 43/1/1
f 47/1/1 46/1/1 45/1/1
f 48/1/1 46/1/1 47/1/1
f 51/1/1 50/1/1 49/1/1
f 52/1/1 50/1/1 51/1/1
f 55/1/1 54/1/1 53/1/1
f 56/1/1 54/1/1 55/1/1
f 59/1/1 58/1/1 57/1/1
f 60/1/1 58/1/1 59/1/1
f 63/1/1 62/1/1 61/1/1
f 64/1/1 62/1/1 63/1/1
f 67/2/1 66/2/1 65/2/1
f 68/2/1 66/2/1 67/2/1
f 71/2/1 70/2/1 69/2/1
f 72/2/1 70/2/1 71/2/1
f 75/2/1 74/2/1 73/2/1
f 76/2/1 74/2/1 75/2/1
f 79/2/1 78/2/1 77/2/1
f 80/2/1 78/2/1 79/2/1
f 83/2/1 82/2/1 81/2/1
f 84/2/1 82/2/1 83/2/1
f 87/2/1 86/2/1 85/2/1
f 88/2/1 86/2/1 87/2/1
f 91/2/1 90/2/1 89/2/1
f 92/2/1 90/2/1 91/2/1
f 95/2/1 94/2/1 93/2/1
f 96/2/1 94/2/1 95/2/1
f 99/2/1 98/2/1 97/2/1
f 100/2/1 98/2/1 99/2/1
f 103/2/1 102/2/1 101/2/1
f 104/2/1 102/2/1 103/2/1
f 107/2/1 106/2/1 105/2/1
f 108/2/1 106/2/1 107/2/1
f 111/2/1 110/2/1 109/2/1
f 112/2/1 110/2/1 111/2/1
f 115/2/1 114/2/1 113/2/1
f 116/2/1 114/2/1 115/2/1
f 119/2/1 118/2/1 117/2/1
f 120/2/1 118/2/1 119/2/1
f 123/2/1 122/2/1 121/2/1
f 124/2/1 122/2/1 123/2/1
f 127/2/1 126/2/1 125/2/1
f 128/2/1 126/2/1 127/2/1
f 131/2/1 130/2/1 129/2/1
f 132/2/1 130/2/1 131/2/1
f 135/2/1 134/2/1 133/2/1
f 136/2/1 134/2/1 135/2/1
f 139/2/1 138/2/1 137/2/1
f 140/2/1 138/2/1 139/2/1
f 143/2/1 142/2/1 141/2/1
f 144/2/1 142/2/1 143/2/1
f 147/2/1 146/2/1 145/2/1
f 148/2/1 146/2/1 147/2/1
f 151/2/1 150/2/1 149/2/1
f 152/2/1 150/2/1 151/2/1
f 155/2/1 154/2/1 153/2/1
f 156/2/1 154/2/1 155/2/1
f 159/2/1 158/2/1 157/2/1
f 160/2/1 158/2/1 159/2/1
f 163/2/1 162/2/1 161/2/1
f 164/2/1 162/2/1 163/2/1
f 167/2/1 166/2/1 165/2/1
f 168/2/1 166/2/1 167/2/1
f 169/3/2 170/3/2 171/3/2
f 171/3/2 170/3/2 172/3/2
f 173/3/2 174/3/2 175/3/2
f 175/3/2 174/3/2 176/3/2
f 177/3/2 178/3/2 179/3/2
f 179/3/2 178/3/2 180/3/2
f 181/3/2 182/3/2 183/3/2
f 183/3/2 182/3/2 184/3/2
f 185/3/2 186/3/2 187/3/2
f 187/3/2 186/3/2 188/3/2
f 189/3/2 190/3/2 191/3/2
f 191/3/2 190/3/2 192/3/2
f 193/3/2 194/3/2 195/3/2
f 195/3/2 194/3/2 196/3/2
f 197/3/2 198/3/2 199/3/2
f 199/3/2 198/3/2 200/3/2
f 201/3/2 202/3/2 203/3/2
f 203/3/2 202/3/2 204/3/2
f 205/1/2 206/1/2 207/1/2
f 207/1/2 206/1/2 208/1/2
f 209/1/2 210/1/2 211/1/2
f 211/1/2 210/1/2 212/1/2
f 213/1/2 214/1/2 215/1/2
f 215/1/2 214/1/2 216/1/2
f 217/1/2 218/1/2 219/1/2
f 219/1/2 218/1/2 220/1/2
f 221/1/2 222/1/2 223/1/2
f 223/1/2 222/1/2 224/1/2
f 225/1/2 226/1/2 227/1/2
f 227/1/2 226/1/2 228/1/2
f 229/1/2 230/1/2 231/1/2
f 231/1/2 230/1/2 232/1/2
f 233/2/2 234/2/2 235/2/2
f 235/2/2 234/2/2 236/2/2
f 237/2/2 238/2/2 239/2/2
f 239/2/2 238/2/2 240/2/2
f 241/2/2 242/2/2 243/2/2
f 243/2/2 242/2/2 244/2/2
f 245/2/2 246/2/2 247/2/2
f 247/2/2 246/2/2 248/2/2
f 249/2/2 250/2/2 251/2/2
f 251/2/2 250/2/2 252/2/2
f 253/2/2 254/2/2 255/2/2
f 255/2/2 254/2/2 256/2/2
f 257/2/2 258/2/2 259/2/2
f 259/2/2 258/2/2 260/2/2
f 261/2/2 262/2/2 263/2/2
f 263/2/2 262/2/2 264/2/2
f 265/2/2 266/2/2 267/2/2
f 267/2/2 266/2/2 268/2/2
f 269/2/2 270/2/2 271/2/2
f 271/2/2 270/2/2 272/2/2
f 273/2/2 274/2/2 275/2/2
f 275/2/2 274/2/2 276/2/2
f 277/2/2 278/2/2 279/2/2
f 279/2/2 278/2/2 280/2/2
f 281/2/2 282/2/2 283/2/2
f 283/2/2 282/2/2 284/2/2
f 285/2/2 286/2/2 287/2/2
f 287/2/2 286/2/2 288/2/2
f 289/2/2 290/2/2 291/2/2
f 291/2/2 290/2/2 292/2/2
f 293/2/2 294/2/2 295/2/2
f 295/2/2 294/2/2 296/2/2
f 297/2/2 298/2/2 299/2/2
f 299/2/2 298/2/2 300/2/2
f 301/2/2 302/2/2 303/2/2
f 303/2/2 302/2/2 304/2/2
f 305/2/2 306/2/2 307/2/2
f 307/2/2 306/2/2 308/2/2
f 309/2/2 310/2/2 311/2/2
f 311/2/2 310/2/2 312/2/2
f 313/2/2 314/2/2 315/2/2
f 315/2/2 314/2/2 316/2/2
f 317/2/2 318/2/2 319/2/2
f 319/2/2 318/2/2 320/2/2
f 321/2/2 322/2/2 323/2/2
f 323/2/2 322/2/2 324/2/2
f 327/3/3 326/3/3 325/3/3
f 328/3/3 326/3/3 327/3/3
f 329/3/3 326/3/3 328/3/3
f 330/3/3 326/3/3 329/3/3
f 333/3/3 329/3/3 328/3/3
f 334/3/3 329/3/3 333/3/3
f 335/3/3 332/3/3 331/3/3
f 336/3/3 332/3/3 335/3/3
f 337/3/3 327/3/3 325/3/3
f 338/3/3 327/3/3 337/3/3
f 341/3/3 340/3/3 339/3/3
f 342/3/3 340/3/3 341/3/3
f 345/3/3 344/3/3 343/3/3
f 346/3/3 344/3/3 345/3/3
f 349/3/3 348/3/3 347/3/3
f 351/3/3 349/3/3 347/3/3
f 351/3/3 350/3/3 349/3/3
f 352/3/3 350/3/3 351/3/3
f 353/3/3 350/3/3 352/3/3
f 355/3/3 353/3/3 352/3/3
f 355/3/3 354/3/3 353/3/3
f 356/3/3 354/3/3 355/3/3
f 359/1/3 358/1/3 357/1/3
f 360/1/3 358/1/3 359/1/3
f 361/1/3 358/1/3 360/1/3
f 362/1/3 358/1/3 361/1/3
f 365/1/3 361/1/3 360/1/3
f 366/1/3 361/1/3 365/1/3
f 367/1/3 364/1/3 363/1/3
f 368/1/3 364/1/3 367/1/3
f 369/1/3 359/1/3 357/1/3
f 370/1/3 359/1/3 369/1/3
f 371/1/3 367/1/3 366/1/3
f 372/1/3 364/1/3 368/1/3
f 373/1/3 371/1/3 366/1/3
f 373/1/3 372/1/3 371/1/3
f 374/1/3 364/1/3 372/1/3
f 374/1/3 372/1/3 373/1/3
f 381/1/3 376/1/3 375/1/3
f 382/1/3 378/1/3 377/1/3
f 383/1/3 378/1/3 382/1/3
f 384/1/3 380/1/3 379/1/3
f 385/1/3 383/1/3 382/1/3
f 385/1/3 384/1/3 383/1/3
f 385/1/3 381/1/3 375/1/3
f 385/1/3 382/1/3 381/1/3
f 386/1/3 380/1/3 384/1/3
f 386/1/3 384/1/3 385/1/3
f 393/2/3 390/2/3 389/2/3
f 395/2/3 393/2/3 389/2/3
f 395/2/3 394/2/3 393/2/3
f 396/2/3 394/2/3 395/2/3
f 397/2/3 394/2/3 396/2/3
f 398/2/3 388/2/3 387/2/3
f 399/2/3 397/2/3 396/2/3
f 399/2/3 398/2/3 397/2/3
f 400/2/3 388/2/3 398/2/3
f 400/2/3 398/2/3 399/2/3
f 401/2/3 392/2/3 391/2/3
f 402/2/3 392/2/3 401/2/3
f 407/2/3 406/2/3 405/2/3
f 408/2/3 406/2/3 407/2/3
f 409/2/3 404/2/3 403/2/3
f 411/2/3 409/2/3 403/2/3
f 411/2/3 410/2/3 409/2/3
f 412/2/3 410/2/3 411/2/3
f 413/2/3 410/2/3 412/2/3
f 415/2/3 414/2/3 413/2/3
f 415/2/3 413/2/3 412/2/3
f 416/2/3 414/2/3 415/2/3
f 421/2/3 420/2/3 419/2/3
f 423/2/3 421/2/3 419/2/3
f 423/2/3 422/2/3 421/2/3
f 424/2/3 422/2/3 423/2/3
f 425/2/3 418/2/3 417/2/3
f 427/2/3 422/2/3 424/2/3
f 428/2/3 422/2/3 427/2/3
f 429/2/3 425/2/3 417/2/3
f 429/2/3 426/2/3 425/2/3
f 430/2/3 426/2/3 429/2/3
f 431/2/3 426/2/3 430/2/3
f 432/2/3 429/2/3 428/2/3
f 432/2/3 430/2/3 429/2/3
f 433/2/3 430/2/3 432/2/3
f 435/2/3 434/2/3 433/2/3
f 436/2/3 434/2/3 435/2/3
f 439/2/3 438/2/3 437/2/3
f 441/2/3 439/2/3 437/2/3
f 441/2/3 440/2/3 439/2/3
f 442/2/3 440/2/3 441/2/3
f 443/2/3 440/2/3 442/2/3
f 445/2/3 444/2/3 443/2/3
f 445/2/3 443/2/3 442/2/3
f 446/2/3 444/2/3 445/2/3
f 449/2/3 448/2/3 447/2/3
f 450/2/3 448/2/3 449/2/3
f 451/2/3 449/2/3 447/2/3
f 453/2/3 451/2/3 447/2/3
f 453/2/3 452/2/3 451/2/3
f 454/2/3 452/2/3 453/2/3
f 459/2/3 456/2/3 455/2/3
f 460/2/3 456/2/3 459/2/3
f 461/2/3 458/2/3 457/2/3
f 462/2/3 458/2/3 461/2/3
f 463/2/3 458/2/3 462/2/3
f 465/2/3 463/2/3 462/2/3
f 465/2/3 464/2/3 463/2/3
f 466/2/3 464/2/3 465/2/3
f 467/2/3 464/2/3 466/2/3
f 468/2/3 464/2/3 467/2/3
f 473/2/3 470/2/3 469/2/3
f 474/2/3 470/2/3 473/2/3
f 475/2/3 472/2/3 471/2/3
f 476/2/3 472/2/3 475/2/3
f 477/2/3 472/2/3 476/2/3
f 479/2/3 478/2/3 477/2/3
f 479/2/3 477/2/3 476/2/3
f 480/2/3 478/2/3 479/2/3
f 481/2/3 478/2/3 480/2/3
f 482/2/3 478/2/3 481/2/3
f 483/3/4 484/3/4 485/3/4
f 485/3/4 484/3/4 486/3/4
f 486/3/4 484/3/4 487/3/4
f 487/3/4 484/3/4 488/3/4
f 486/3/4 487/3/4 491/3/4
f 491/3/4 487/3/4 492/3/4
f 489/3/4 490/3/4 493/3/4
f 493/3/4 490/3/4 494/3/4
f 483/3/4 485/3/4 495/3/4
f 495/3/4 485/3/4 496/3/4
f 497/3/4 498/3/4 499/3/4
f 499/3/4 498/3/4 500/3/4
f 501/3/4 502/3/4 503/3/4
f 503/3/4 502/3/4 504/3/4
f 505/3/4 506/3/4 507/3/4
f 505/3/4 507/3/4 509/3/4
f 507/3/4 508/3/4 509/3/4
f 509/3/4 508/3/4 510/3/4
f 510/3/4 508/3/4 511/3/4
f 510/3/4 511/3/4 513/3/4
f 511/3/4 512/3/4 513/3/4
f 513/3/4 512/3/4 514/3/4
f 515/1/4 516/1/4 517/1/4
f 517/1/4 516/1/4 518/1/4
f 518/1/4 516/1/4 519/1/4
f 519/1/4 516/1/4 520/1/4
f 518/1/4 519/1/4 523/1/4
f 523/1/4 519/1/4 524/1/4
f 521/1/4 522/1/4 525/1/4
f 525/1/4 522/1/4 526/1/4
f 515/1/4 517/1/4 527/1/4
f 527/1/4 517/1/4 528/1/4
f 524/1/4 525/1/4 529/1/4
f 526/1/4 522/1/4 530/1/4
f 524/1/4 529/1/4 531/1/4
f 529/1/4 530/1/4 531/1/4
f 530/1/4 522/1/4 532/1/4
f 531/1/4 530/1/4 532/1/4
f 533/1/4 534/1/4 539/1/4
f 535/1/4 536/1/4 540/1/4
f 540/1/4 536/1/4 541/1/4
f 537/1/4 538/1/4 542/1/4
f 540/1/4 541/1/4 543/1/4
f 541/1/4 542/1/4 543/1/4
f 533/1/4 539/1/4 543/1/4
f 539/1/4 540/1/4 543/1/4
f 542/1/4 538/1/4 544/1/4
f 543/1/4 542/1/4 544/1/4
f 547/2/4 548/2/4 551/2/4
f 547/2/4 551/2/4 553/2/4
f 551/2/4 552/2/4 553/2/4
f 553/2/4 552/2/4 554/2/4
f 554/2/4 552/2/4 555/2/4
f 545/2/4 546/2/4 556/2/4
f 554/2/4 555/2/4 557/2/4
f 555/2/4 556/2/4 557/2/4
f 556/2/4 546/2/4 558/2/4
f 557/2/4 556/2/4 558/2/4
f 549/2/4 550/2/4 559/2/4
f 559/2/4 550/2/4 560/2/4
f 563/2/4 564/2/4 565/2/4
f 565/2/4 564/2/4 566/2/4
f 561/2/4 562/2/4 567/2/4
f 561/2/4 567/2/4 569/2/4
f 567/2/4 568/2/4 569/2/4
f 569/2/4 568/2/4 570/2/4
f 570/2/4 568/2/4 571/2/4
f 571/2/4 572/2/4 573/2/4
f 570/2/4 571/2/4 573/2/4
f 573/2/4 572/2/4 574/2/4
f 577/2/4 578/2/4 579/2/4
f 577/2/4 579/2/4 581/2/4
f 579/2/4 580/2/4 581/2/4
f 581/2/4 580/2/4 582/2/4
f 575/2/4 576/2/4 583/2/4
f 582/2/4 580/2/4 585/2/4
f 585/2/4 580/2/4 586/2/4
f 575/2/4 583/2/4 587/2/4
f 583/2/4 584/2/4 587/2/4
f 587/2/4 584/2/4 588/2/4
f 588/2/4 584/2/4 589/2/4
f 586/2/4 587/2/4 590/2/4
f 587/2/4 588/2/4 590/2/4
f 590/2/4 588/2/4 591/2/4
f 591/2/4 592/2/4 593/2/4
f 593/2/4 592/2/4 594/2/4
f 595/2/4 596/2/4 597/2/4
f 595/2/4 597/2/4 599/2/4
f 597/2/4 598/2/4 599/2/4
f 599/2/4 598/2/4 600/2/4
f 600/2/4 598/2/4 601/2/4
f 601/2/4 602/2/4 603/2/4
f 600/2/4 601/2/4 603/2/4
f 603/2/4 602/2/4 604/2/4
f 605/2/4 606/2/4 607/2/4
f 607/2/4 606/2/4 608/2/4
f 605/2/4 607/2/4 609/2/4
f 605/2/4 609/2/4 611/2/4
f 609/2/4 610/2/4 611/2/4
f 611/2/4 610/2/4 612/2/4
f 613/2/4 614/2/4 617/2/4
f 617/2/4 614/2/4 618/2/4
f 615/2/4 616/2/4 619/2/4
f 619/2/4 616/2/4 620/2/4
f 620/2/4 616/2/4 621/2/4
f 620/2/4 621/2/4 623/2/4
f 621/2/4 622/2/4 623/2/4
f 623/2/4 622/2/4 624/2/4
f 624/2/4 622/2/4 625/2/4
f 625/2/4 622/2/4 626/2/4
f 627/2/4 628/2/4 631/2/4
f 631/2/4 628/2/4 632/2/4
f 629/2/4 630/2/4 633/2/4
f 633/2/4 630/2/4 634/2/4
f 634/2/4 630/2/4 635/2/4
f 635/2/4 636/2/4 637/2/4
f 634/2/4 635/2/4 637/2/4
f 637/2/4 636/2/4 638/2/4
f 638/2/4 636/2/4 639/2/4
f 639/2/4 636/2/4 640/2/4
f 663/3/5 642/3/5 641/3/5
f 664/3/5 642/3/5 663/3/5
f 665/3/5 644/3/5 643/3/5
f 666/3/5 644/3/5 665/3/5
f 667/1/5 646/1/5 645/1/5
f 668/1/5 646/1/5 667/1/5
f 669/1/5 648/1/5 647/1/5
f 670/1/5 648/1/5 669/1/5
f 671/2/5 650/2/5 649/2/5
f 672/2/5 650/2/5 671/2/5
f 673/2/5 652/2/5 651/2/5
f 674/2/5 652/2/5 673/2/5
f 675/2/5 654/2/5 653/2/5
f 676/2/5 654/2/5 675/2/5
f 677/2/5 656/2/5 655/2/5
f 678/2/5 656/2/5 677/2/5
f 679/2/5 658/2/5 657/2/5
f 680/2/5 658/2/5 679/2/5
f 681/2/5 660/2/5 659/2/5
f 682/2/5 660/2/5 681/2/5
f 683/2/5 662/2/5 661/2/5
f 684/2/5 662/2/5 683/2/5
f 693/3/5 686/3/5 685/3/5
f 694/3/5 686/3/5 693/3/5
f 695/2/5 688/2/5 687/2/5
f 696/2/5 688/2/5 695/2/5
f 697/2/5 690/2/5 689/2/5
f 698/2/5 690/2/5 697/2/5
f 699/2/5 692/2/5 691/2/5
f 700/2/5 692/2/5 699/2/5
f 711/1/5 702/1/5 701/1/5
f 712/1/5 702/1/5 711/1/5
f 713/2/5 704/2/5 703/2/5
f 714/2/5 704/2/5 713/2/5
f 715/2/5 706/2/5 705/2/5
f 716/2/5 706/2/5 715/2/5
f 717/2/5 708/2/5 707/2/5
f 718/2/5 708/2/5 717/2/5
f 719/2/5 710/2/5 709/2/5
f 720/2/5 710/2/5 719/2/5
f 733/3/5 722/3/5 721/3/5
f 734/3/5 722/3/5 733/3/5
f 735/3/5 724/3/5 723/3/5
f 736/3/5 724/3/5 735/3/5
f 737/1/5 726/1/5 725/1/5
f 738/1/5 726/1/5 737/1/5
f 739/2/5 728/2/5 727/2/5
f 740/2/5 728/2/5 739/2/5
f 741/2/5 730/2/5 729/2/5
f 742/2/5 730/2/5 741/2/5
f 743/2/5 732/2/5 731/2/5
f 744/2/5 732/2/5 743/2/5
f 757/1/5 746/1/5 745/1/5
f 758/1/5 746/1/5 757/1/5
f 759/1/5 748/1/5 747/1/5
f 760/1/5 748/1/5 759/1/5
f 761/2/5 750/2/5 749/2/5
f 762/2/5 750/2/5 761/2/5
f 763/2/5 752/2/5 751/2/5
f 764/2/5 752/2/5 763/2/5
f 765/2/5 754/2/5 753/2/5
f 766/2/5 754/2/5 765/2/5
f 767/2/5 756/2/5 755/2/5
f 768/2/5 756/2/5 767/2/5
f 779/3/5 770/3/5 769/3/5
f 780/3/5 770/3/5 779/3/5
f 781/3/5 772/3/5 771/3/5
f 782/3/5 772/3/5 781/3/5
f 783/1/5 774/1/5 773/1/5
f 784/1/5 774/1/5 783/1/5
f 785/2/5 776/2/5 775/2/5
f 786/2/5 776/2/5 785/2/5
f 787/2/5 778/2/5 777/2/5
f 788/2/5 778/2/5 787/2/5
f 791/1/5 790/1/5 789/1/5
f 792/1/5 790/1/5 791/1/5
f 793/3/6 794/3/6 815/3/6
f 815/3/6 794/3/6 816/3/6
f 795/3/6 796/3/6 817/3/6
f 817/3/6 796/3/6 818/3/6
f 797/1/6 798/1/6 819/1/6
f 819/1/6 798/1/6 820/1/6
f 799/1/6 800/1/6 821/1/6
f 821/1/6 800/1/6 822/1/6
f 801/2/6 802/2/6 823/2/6
f 823/2/6 802/2/6 824/2/6
f 803/2/6 804/2/6 825/2/6
f 825/2/6 804/2/6 826/2/6
f 805/2/6 806/2/6 827/2/6
f 827/2/6 806/2/6 828/2/6
f 807/2/6 808/2/6 829/2/6
f 829/2/6 808/2/6 830/2/6
f 809/2/6 810/2/6 831/2/6
f 831/2/6 810/2/6 832/2/6
f 811/2/6 812/2/6 833/2/6
f 833/2/6 812/2/6 834/2/6
f 813/2/6 814/2/6 835/2/6
f 835/2/6 814/2/6 836/2/6
f 837/3/6 838/3/6 847/3/6
f 847/3/6 838/3/6 848/3/6
f 839/2/6 840/2/6 849/2/6
f 849/2/6 840/2/6 850/2/6
f 841/2/6 842/2/6 851/2/6
f 851/2/6 842/2/6 852/2/6
f 843/2/6 844/2/6 853/2/6
f 853/2/6 844/2/6 854/2/6
f 845/2/6 846/2/6 855/2/6
f 855/2/6 846/2/6 856/2/6
f 857/1/6 858/1/6 861/1/6
f 861/1/6 858/1/6 862/1/6
f 859/2/6 860/2/6 863/2/6
f 863/2/6 860/2/6 864/2/6
f 865/3/6 866/3/6 871/3/6
f 871/3/6 866/3/6 872/3/6
f 867/1/6 868/1/6 873/1/6
f 873/1/6 868/1/6 874/1/6
f 869/2/6 870/2/6 875/2/6
f 875/2/6 870/2/6 876/2/6
f 877/3/6 878/3/6 899/3/6
f 899/3/6 878/3/6 900/3/6
f 879/1/6 880/1/6 901/1/6
f 901/1/6 880/1/6 902/1/6
f 881/1/6 882/1/6 903/1/6
f 903/1/6 882/1/6 904/1/6
f 883/1/6 884/1/6 905/1/6
f 905/1/6 884/1/6 906/1/6
f 885/2/6 886/2/6 907/2/6
f 907/2/6 886/2/6 908/2/6
f 887/2/6 888/2/6 909/2/6
f 909/2/6 888/2/6 910/2/6
f 889/2/6 890/2/6 911/2/6
f 911/2/6 890/2/6 912/2/6
f 891/2/6 892/2/6 913/2/6
f 913/2/6 892/2/6 914/2/6
f 893/2/6 894/2/6 915/2/6
f 915/2/6 894/2/6 916/2/6
f 895/2/6 896/2/6 917/2/6
f 917/2/6 896/2/6 918/2/6
f 897/2/6 898/2/6 919/2/6
f 919/2/6 898/2/6 920/2/6
f 921/3/6 922/3/6 931/3/6
f 931/3/6 922/3/6 932/3/6
f 923/2/6 924/2/6 933/2/6
f 933/2/6 924/2/6 934/2/6
f 925/2/6 926/2/6 935/2/6
f 935/2/6 926/2/6 936/2/6
f 927/2/6 928/2/6 937/2/6
f 937/2/6 928/2/6 938/2/6
f 929/2/6 930/2/6 939/2/6
f 939/2/6 930/2/6 940/2/6
f 941/3/6 942/3/6 953/3/6
f 953/3/6 942/3/6 954/3/6
f 943/3/6 944/3/6 955/3/6
f 955/3/6 944/3/6 956/3/6
f 945/3/6 946/3/6 957/3/6
f 957/3/6 946/3/6 958/3/6
f 947/1/6 948/1/6 959/1/6
f 959/1/6 948/1/6 960/1/6
f 949/2/6 950/2/6 961/2/6
f 961/2/6 950/2/6 962/2/6
f 951/2/6 952/2/6 963/2/6
f 963/2/6 952/2/6 964/2/6
