# Blender 5.0.0
# www.blender.org
mtllib BossPropeller.mtl
o Untitled.001
v -0.771520 -0.631885 0.395068
v -0.771520 -0.631885 -0.704932
v -0.771520 0.068115 0.395068
v -0.771520 0.068115 -0.704932
v -0.771520 0.168115 0.395068
v -0.771520 0.168115 -0.704932
v -0.671520 -0.731885 0.395068
v -0.671520 -0.731885 -0.704932
v -0.671520 -0.631885 0.495068
v -0.671520 -0.631885 0.395068
v -0.671520 -0.631885 -0.704932
v -0.671520 -0.631885 -0.804932
v -0.671520 0.068115 0.495068
v -0.671520 0.068115 0.395068
v -0.671520 0.068115 -0.704932
v -0.671520 0.068115 -0.804932
v -0.671520 0.168115 0.495068
v -0.671520 0.168115 0.395068
v -0.671520 0.168115 0.295068
v -0.671520 0.168115 -0.604932
v -0.671520 0.168115 -0.704932
v -0.671520 0.168115 -0.804932
v -0.671520 0.268115 0.495068
v -0.671520 0.268115 0.395068
v -0.671520 0.368115 0.295068
v -0.671520 0.368115 -0.104932
v -0.671520 0.368115 -0.204932
v -0.671520 0.368115 -0.604932
v -0.671520 0.468115 0.395068
v -0.671520 0.468115 -0.104932
v -0.671520 0.468115 -0.204932
v -0.671520 0.568115 0.495068
v -0.671520 0.568115 -0.104932
v -0.571520 -0.631885 0.395068
v -0.571520 -0.631885 0.295068
v -0.571520 -0.631885 -0.604932
v -0.571520 -0.631885 -0.704932
v -0.571520 0.068115 0.395068
v -0.571520 0.068115 -0.704932
v -0.571520 0.168115 0.395068
v -0.571520 0.168115 -0.704932
v -0.571520 0.268115 0.395068
v -0.571520 0.368115 0.395068
v -0.571520 0.368115 0.295068
v -0.571520 0.368115 -0.104932
v -0.571520 0.368115 -0.204932
v -0.571520 0.368115 -0.604932
v -0.571520 0.368115 -0.704932
v -0.571520 0.468115 0.295068
v -0.571520 0.468115 -0.104932
v -0.571520 0.468115 -0.204932
v -0.571520 0.468115 -0.604932
v -0.471520 0.368115 0.395068
v -0.471520 0.368115 0.295068
v -0.471520 0.468115 0.395068
v -0.471520 0.468115 0.295068
v -0.471520 0.468115 -0.504932
v -0.471520 0.568115 0.295068
v -0.471520 0.568115 -0.504932
v -0.371520 -0.931885 0.195068
v -0.371520 -0.931885 0.095068
v -0.371520 -0.931885 -0.404932
v -0.371520 -0.931885 -0.504932
v -0.371520 -0.831885 0.195068
v -0.371520 -0.831885 0.095068
v -0.371520 -0.831885 -0.404932
v -0.371520 -0.831885 -0.504932
v -0.371520 0.468115 0.395068
v -0.371520 0.468115 0.295068
v -0.371520 0.568115 0.395068
v -0.371520 0.568115 0.295068
v -0.271520 -0.931885 0.095068
v -0.271520 -0.931885 -0.004932
v -0.271520 -0.931885 -0.304932
v -0.271520 -0.931885 -0.404932
v -0.271520 -0.831885 0.095068
v -0.271520 -0.831885 -0.004932
v -0.271520 -0.831885 -0.304932
v -0.271520 -0.831885 -0.404932
v -0.271520 -0.431885 0.595068
v -0.271520 -0.431885 0.495068
v -0.271520 -0.131885 0.595068
v -0.271520 -0.131885 0.495068
v -0.171520 -0.931885 -0.004932
v -0.171520 -0.931885 -0.104932
v -0.171520 -0.931885 -0.204932
v -0.171520 -0.931885 -0.304932
v -0.171520 -0.831885 -0.004932
v -0.171520 -0.831885 -0.104932
v -0.171520 -0.831885 -0.204932
v -0.171520 -0.831885 -0.304932
v -0.171520 -0.731885 -0.004932
v -0.171520 -0.731885 -0.304932
v -0.171520 -0.531885 0.595068
v -0.171520 -0.531885 0.495068
v -0.171520 -0.431885 0.595068
v -0.171520 -0.431885 0.495068
v -0.171520 -0.131885 0.595068
v -0.171520 -0.131885 0.495068
v -0.171520 -0.031885 0.595068
v -0.171520 -0.031885 0.495068
v -0.171520 0.268115 0.695068
v -0.171520 0.268115 0.495068
v -0.171520 0.368115 0.695068
v -0.171520 0.368115 0.495068
v -0.171520 0.468115 -0.504932
v -0.171520 0.468115 -0.604932
v -0.171520 0.568115 0.295068
v -0.171520 0.568115 -0.504932
v -0.171520 0.568115 -0.604932
v -0.171520 0.668115 -0.304932
v -0.171520 0.668115 -0.504932
v -0.171520 0.768115 0.295068
v -0.171520 0.768115 0.195068
v -0.171520 0.768115 -0.004932
v -0.171520 0.768115 -0.304932
v -0.171520 0.868115 0.195068
v -0.171520 0.868115 -0.004932
v -0.071520 -1.031885 -0.104932
v -0.071520 -1.031885 -0.204932
v -0.071520 -0.931885 -0.104932
v -0.071520 -0.931885 -0.204932
v -0.071520 -0.831885 -0.104932
v -0.071520 -0.831885 -0.204932
v -0.071520 0.568115 0.395068
v -0.071520 0.568115 0.295068
v -0.071520 0.668115 -0.304932
v -0.071520 0.668115 -0.404932
v -0.071520 0.768115 0.495068
v -0.071520 0.768115 0.395068
v -0.071520 0.768115 0.295068
v -0.071520 0.768115 0.195068
v -0.071520 0.768115 -0.004932
v -0.071520 0.768115 -0.304932
v -0.071520 0.768115 -0.404932
v -0.071520 0.868115 0.595068
v -0.071520 0.868115 0.495068
v -0.071520 0.868115 0.195068
v -0.071520 0.868115 -0.004932
v -0.071520 0.868115 -0.104932
v -0.071520 0.868115 -0.304932
v -0.071520 0.968115 0.595068
v -0.071520 0.968115 -0.104932
v 0.028480 -0.931885 -0.004932
v 0.028480 -0.931885 -0.104932
v 0.028480 -0.931885 -0.204932
v 0.028480 -0.931885 -0.304932
v 0.028480 -0.831885 -0.004932
v 0.028480 -0.831885 -0.104932
v 0.028480 -0.831885 -0.204932
v 0.028480 -0.831885 -0.304932
v 0.128480 -0.931885 0.095068
v 0.128480 -0.931885 -0.004932
v 0.128480 -0.931885 -0.304932
v 0.128480 -0.931885 -0.404932
v 0.128480 -0.831885 0.095068
v 0.128480 -0.831885 -0.004932
v 0.128480 -0.831885 -0.304932
v 0.128480 -0.831885 -0.404932
v 0.128480 0.468115 0.495068
v 0.128480 0.468115 0.395068
v 0.128480 0.568115 0.495068
v 0.128480 0.568115 0.395068
v 0.228480 -0.931885 0.195068
v 0.228480 -0.931885 0.095068
v 0.228480 -0.931885 -0.404932
v 0.228480 -0.931885 -0.504932
v 0.228480 -0.831885 0.195068
v 0.228480 -0.831885 0.095068
v 0.228480 -0.831885 -0.404932
v 0.228480 -0.831885 -0.504932
v 0.428480 0.368115 0.195068
v 0.428480 0.368115 -0.504932
v 0.428480 0.468115 0.195068
v 0.428480 0.468115 -0.504932
v 0.528480 -0.631885 0.295068
v 0.528480 -0.631885 0.195068
v 0.528480 -0.631885 -0.504932
v 0.528480 -0.631885 -0.604932
v 0.528480 0.168115 0.195068
v 0.528480 0.168115 -0.504932
v 0.528480 0.368115 0.295068
v 0.528480 0.368115 -0.604932
v 0.528480 0.468115 0.395068
v 0.528480 0.468115 0.295068
v 0.528480 0.468115 -0.104932
v 0.528480 0.568115 0.395068
v 0.528480 0.568115 -0.104932
v 0.628480 -0.631885 0.395068
v 0.628480 -0.631885 0.295068
v 0.628480 -0.631885 0.195068
v 0.628480 -0.631885 -0.504932
v 0.628480 -0.631885 -0.604932
v 0.628480 -0.631885 -0.704932
v 0.628480 0.068115 0.395068
v 0.628480 0.068115 0.295068
v 0.628480 0.068115 0.195068
v 0.628480 0.068115 -0.504932
v 0.628480 0.068115 -0.604932
v 0.628480 0.068115 -0.704932
v 0.628480 0.168115 0.395068
v 0.628480 0.168115 0.295068
v 0.628480 0.168115 0.195068
v 0.628480 0.168115 -0.504932
v 0.628480 0.168115 -0.604932
v 0.628480 0.168115 -0.704932
v -0.671520 -0.631885 0.395068
v -0.671520 -0.631885 0.295068
v -0.671520 -0.631885 -0.604932
v -0.671520 -0.631885 -0.704932
v -0.671520 0.068115 0.395068
v -0.671520 0.068115 0.295068
v -0.671520 0.068115 -0.604932
v -0.671520 0.068115 -0.704932
v -0.671520 0.168115 0.395068
v -0.671520 0.168115 0.295068
v -0.671520 0.168115 -0.604932
v -0.671520 0.168115 -0.704932
v -0.571520 -0.631885 0.295068
v -0.571520 -0.631885 -0.604932
v -0.571520 0.368115 0.295068
v -0.571520 0.368115 -0.604932
v -0.571520 0.468115 0.395068
v -0.571520 0.468115 0.295068
v -0.571520 0.468115 -0.104932
v -0.571520 0.568115 0.395068
v -0.571520 0.568115 -0.104932
v -0.471520 0.368115 0.195068
v -0.471520 0.368115 -0.504932
v -0.471520 0.468115 0.195068
v -0.471520 0.468115 -0.504932
v -0.271520 -0.931885 0.195068
v -0.271520 -0.931885 0.095068
v -0.271520 -0.931885 -0.404932
v -0.271520 -0.931885 -0.504932
v -0.271520 -0.831885 0.195068
v -0.271520 -0.831885 0.095068
v -0.271520 -0.831885 -0.404932
v -0.271520 -0.831885 -0.504932
v -0.171520 -0.931885 0.095068
v -0.171520 -0.931885 -0.004932
v -0.171520 -0.931885 -0.304932
v -0.171520 -0.931885 -0.404932
v -0.171520 -0.831885 0.095068
v -0.171520 -0.831885 -0.004932
v -0.171520 -0.831885 -0.304932
v -0.171520 -0.831885 -0.404932
v -0.171520 0.468115 0.495068
v -0.171520 0.468115 0.395068
v -0.171520 0.568115 0.495068
v -0.171520 0.568115 0.395068
v -0.071520 -0.931885 -0.004932
v -0.071520 -0.931885 -0.104932
v -0.071520 -0.931885 -0.204932
v -0.071520 -0.931885 -0.304932
v -0.071520 -0.831885 -0.004932
v -0.071520 -0.831885 -0.104932
v -0.071520 -0.831885 -0.204932
v -0.071520 -0.831885 -0.304932
v 0.028480 -1.031885 -0.104932
v 0.028480 -1.031885 -0.204932
v 0.028480 -0.931885 -0.104932
v 0.028480 -0.931885 -0.204932
v 0.028480 -0.831885 -0.104932
v 0.028480 -0.831885 -0.204932
v 0.028480 0.568115 0.395068
v 0.028480 0.568115 0.295068
v 0.028480 0.668115 -0.304932
v 0.028480 0.668115 -0.404932
v 0.028480 0.768115 0.495068
v 0.028480 0.768115 0.395068
v 0.028480 0.768115 0.295068
v 0.028480 0.768115 0.195068
v 0.028480 0.768115 -0.004932
v 0.028480 0.768115 -0.304932
v 0.028480 0.768115 -0.404932
v 0.028480 0.868115 0.595068
v 0.028480 0.868115 0.495068
v 0.028480 0.868115 0.195068
v 0.028480 0.868115 -0.004932
v 0.028480 0.868115 -0.104932
v 0.028480 0.868115 -0.304932
v 0.028480 0.968115 0.595068
v 0.028480 0.968115 -0.104932
v 0.128480 -0.931885 -0.004932
v 0.128480 -0.931885 -0.104932
v 0.128480 -0.931885 -0.204932
v 0.128480 -0.931885 -0.304932
v 0.128480 -0.831885 -0.004932
v 0.128480 -0.831885 -0.104932
v 0.128480 -0.831885 -0.204932
v 0.128480 -0.831885 -0.304932
v 0.128480 -0.731885 -0.004932
v 0.128480 -0.731885 -0.304932
v 0.128480 -0.531885 0.595068
v 0.128480 -0.531885 0.495068
v 0.128480 -0.431885 0.595068
v 0.128480 -0.431885 0.495068
v 0.128480 -0.131885 0.595068
v 0.128480 -0.131885 0.495068
v 0.128480 -0.031885 0.595068
v 0.128480 -0.031885 0.495068
v 0.128480 0.268115 0.695068
v 0.128480 0.268115 0.495068
v 0.128480 0.368115 0.695068
v 0.128480 0.368115 0.495068
v 0.128480 0.468115 -0.504932
v 0.128480 0.468115 -0.604932
v 0.128480 0.568115 0.295068
v 0.128480 0.568115 -0.504932
v 0.128480 0.568115 -0.604932
v 0.128480 0.668115 -0.304932
v 0.128480 0.668115 -0.504932
v 0.128480 0.768115 0.295068
v 0.128480 0.768115 0.195068
v 0.128480 0.768115 -0.004932
v 0.128480 0.768115 -0.304932
v 0.128480 0.868115 0.195068
v 0.128480 0.868115 -0.004932
v 0.228480 -0.931885 0.095068
v 0.228480 -0.931885 -0.004932
v 0.228480 -0.931885 -0.304932
v 0.228480 -0.931885 -0.404932
v 0.228480 -0.831885 0.095068
v 0.228480 -0.831885 -0.004932
v 0.228480 -0.831885 -0.304932
v 0.228480 -0.831885 -0.404932
v 0.228480 -0.431885 0.595068
v 0.228480 -0.431885 0.495068
v 0.228480 -0.331885 0.595068
v 0.228480 -0.331885 0.495068
v 0.228480 -0.131885 0.595068
v 0.228480 -0.131885 0.495068
v 0.328480 -0.931885 0.195068
v 0.328480 -0.931885 0.095068
v 0.328480 -0.931885 -0.404932
v 0.328480 -0.931885 -0.504932
v 0.328480 -0.831885 0.195068
v 0.328480 -0.831885 0.095068
v 0.328480 -0.831885 -0.404932
v 0.328480 -0.831885 -0.504932
v 0.328480 0.468115 0.395068
v 0.328480 0.468115 0.295068
v 0.328480 0.568115 0.395068
v 0.328480 0.568115 0.295068
v 0.428480 0.368115 0.395068
v 0.428480 0.368115 0.295068
v 0.428480 0.468115 0.395068
v 0.428480 0.468115 0.295068
v 0.428480 0.468115 -0.504932
v 0.428480 0.568115 0.295068
v 0.428480 0.568115 -0.504932
v 0.528480 -0.631885 0.395068
v 0.528480 -0.631885 0.295068
v 0.528480 -0.631885 -0.604932
v 0.528480 -0.631885 -0.704932
v 0.528480 0.068115 0.395068
v 0.528480 0.068115 -0.704932
v 0.528480 0.168115 0.395068
v 0.528480 0.168115 -0.704932
v 0.528480 0.268115 0.395068
v 0.528480 0.368115 0.395068
v 0.528480 0.368115 0.295068
v 0.528480 0.368115 -0.104932
v 0.528480 0.368115 -0.204932
v 0.528480 0.368115 -0.604932
v 0.528480 0.368115 -0.704932
v 0.528480 0.468115 0.295068
v 0.528480 0.468115 -0.104932
v 0.528480 0.468115 -0.204932
v 0.528480 0.468115 -0.604932
v 0.628480 -0.731885 0.395068
v 0.628480 -0.731885 -0.704932
v 0.628480 -0.631885 0.495068
v 0.628480 -0.631885 0.395068
v 0.628480 -0.631885 -0.704932
v 0.628480 -0.631885 -0.804932
v 0.628480 0.068115 0.495068
v 0.628480 0.068115 0.395068
v 0.628480 0.068115 -0.704932
v 0.628480 0.068115 -0.804932
v 0.628480 0.168115 0.495068
v 0.628480 0.168115 0.395068
v 0.628480 0.168115 0.295068
v 0.628480 0.168115 -0.604932
v 0.628480 0.168115 -0.704932
v 0.628480 0.168115 -0.804932
v 0.628480 0.268115 0.495068
v 0.628480 0.268115 0.395068
v 0.628480 0.368115 0.495068
v 0.628480 0.368115 0.395068
v 0.628480 0.368115 0.295068
v 0.628480 0.368115 -0.104932
v 0.628480 0.368115 -0.204932
v 0.628480 0.368115 -0.604932
v 0.628480 0.468115 0.495068
v 0.628480 0.468115 0.395068
v 0.628480 0.468115 -0.104932
v 0.628480 0.468115 -0.204932
v 0.628480 0.568115 0.495068
v 0.628480 0.568115 -0.104932
v 0.728480 -0.631885 0.395068
v 0.728480 -0.631885 -0.704932
v 0.728480 0.068115 0.395068
v 0.728480 0.068115 -0.704932
v 0.728480 0.168115 0.395068
v 0.728480 0.168115 -0.704932
v -0.171520 0.268115 0.695068
v -0.171520 0.368115 0.695068
v 0.128480 0.268115 0.695068
v 0.128480 0.368115 0.695068
v -0.271520 -0.431885 0.595068
v -0.271520 -0.131885 0.595068
v -0.171520 -0.531885 0.595068
v -0.171520 -0.431885 0.595068
v -0.171520 -0.131885 0.595068
v -0.171520 -0.031885 0.595068
v -0.071520 -0.131885 0.595068
v -0.071520 -0.031885 0.595068
v -0.071520 0.868115 0.595068
v -0.071520 0.968115 0.595068
v 0.028480 -0.231885 0.595068
v 0.028480 -0.131885 0.595068
v 0.028480 0.868115 0.595068
v 0.028480 0.968115 0.595068
v 0.128480 -0.531885 0.595068
v 0.128480 -0.431885 0.595068
v 0.128480 -0.331885 0.595068
v 0.128480 -0.231885 0.595068
v 0.128480 -0.131885 0.595068
v 0.128480 -0.031885 0.595068
v 0.228480 -0.431885 0.595068
v 0.228480 -0.331885 0.595068
v 0.228480 -0.131885 0.595068
v -0.671520 -0.631885 0.495068
v -0.671520 0.068115 0.495068
v -0.671520 0.168115 0.495068
v -0.671520 0.268115 0.495068
v -0.671520 0.568115 0.495068
v -0.371520 0.268115 0.495068
v -0.371520 0.368115 0.495068
v -0.271520 -0.431885 0.495068
v -0.271520 -0.131885 0.495068
v -0.271520 0.268115 0.495068
v -0.271520 0.368115 0.495068
v -0.271520 0.468115 0.495068
v -0.171520 -0.531885 0.495068
v -0.171520 -0.431885 0.495068
v -0.171520 -0.131885 0.495068
v -0.171520 -0.031885 0.495068
v -0.171520 0.268115 0.495068
v -0.171520 0.368115 0.495068
v -0.171520 0.468115 0.495068
v -0.171520 0.568115 0.495068
v -0.071520 -0.031885 0.495068
v -0.071520 0.768115 0.495068
v -0.071520 0.868115 0.495068
v 0.028480 0.768115 0.495068
v 0.028480 0.868115 0.495068
v 0.128480 -0.531885 0.495068
v 0.128480 -0.431885 0.495068
v 0.128480 -0.131885 0.495068
v 0.128480 -0.031885 0.495068
v 0.128480 0.268115 0.495068
v 0.128480 0.368115 0.495068
v 0.128480 0.468115 0.495068
v 0.128480 0.568115 0.495068
v 0.228480 -0.431885 0.495068
v 0.228480 -0.331885 0.495068
v 0.228480 -0.131885 0.495068
v 0.428480 0.268115 0.495068
v 0.428480 0.368115 0.495068
v 0.528480 0.268115 0.495068
v 0.528480 0.368115 0.495068
v 0.528480 0.468115 0.495068
v 0.628480 -0.631885 0.495068
v 0.628480 0.068115 0.495068
v 0.628480 0.168115 0.495068
v 0.628480 0.268115 0.495068
v 0.628480 0.368115 0.495068
v 0.628480 0.468115 0.495068
v 0.628480 0.568115 0.495068
v -0.771520 -0.631885 0.395068
v -0.771520 0.068115 0.395068
v -0.771520 0.168115 0.395068
v -0.671520 -0.731885 0.395068
v -0.671520 -0.631885 0.395068
v -0.671520 0.068115 0.395068
v -0.671520 0.168115 0.395068
v -0.571520 0.168115 0.395068
v -0.571520 0.268115 0.395068
v -0.371520 0.268115 0.395068
v -0.271520 0.268115 0.395068
v -0.171520 0.268115 0.395068
v -0.171520 0.468115 0.395068
v -0.171520 0.568115 0.395068
v -0.071520 0.568115 0.395068
v -0.071520 0.768115 0.395068
v 0.028480 0.568115 0.395068
v 0.028480 0.768115 0.395068
v 0.128480 0.268115 0.395068
v 0.128480 0.468115 0.395068
v 0.128480 0.568115 0.395068
v 0.428480 0.268115 0.395068
v 0.528480 0.168115 0.395068
v 0.528480 0.268115 0.395068
v 0.628480 -0.731885 0.395068
v 0.628480 -0.631885 0.395068
v 0.628480 0.068115 0.395068
v 0.628480 0.168115 0.395068
v 0.728480 -0.631885 0.395068
v 0.728480 0.068115 0.395068
v 0.728480 0.168115 0.395068
v -0.671520 -0.631885 0.295068
v -0.671520 0.068115 0.295068
v -0.671520 0.168115 0.295068
v -0.671520 0.368115 0.295068
v -0.571520 -0.631885 0.295068
v -0.571520 0.368115 0.295068
v -0.571520 0.468115 0.295068
v -0.471520 0.368115 0.295068
v -0.471520 0.468115 0.295068
v -0.471520 0.568115 0.295068
v -0.371520 0.468115 0.295068
v -0.371520 0.568115 0.295068
v -0.171520 0.568115 0.295068
v -0.171520 0.768115 0.295068
v -0.071520 0.568115 0.295068
v -0.071520 0.768115 0.295068
v 0.028480 0.568115 0.295068
v 0.028480 0.768115 0.295068
v 0.128480 0.568115 0.295068
v 0.128480 0.768115 0.295068
v 0.328480 0.468115 0.295068
v 0.328480 0.568115 0.295068
v 0.428480 0.368115 0.295068
v 0.428480 0.468115 0.295068
v 0.428480 0.568115 0.295068
v 0.528480 -0.631885 0.295068
v 0.528480 0.368115 0.295068
v 0.528480 0.468115 0.295068
v 0.628480 -0.631885 0.295068
v 0.628480 0.068115 0.295068
v 0.628480 0.168115 0.295068
v 0.628480 0.368115 0.295068
v -0.371520 -0.931885 0.195068
v -0.371520 -0.831885 0.195068
v -0.271520 -0.931885 0.195068
v -0.271520 -0.831885 0.195068
v -0.171520 0.768115 0.195068
v -0.171520 0.868115 0.195068
v -0.071520 0.768115 0.195068
v -0.071520 0.868115 0.195068
v 0.028480 0.768115 0.195068
v 0.028480 0.868115 0.195068
v 0.128480 0.768115 0.195068
v 0.128480 0.868115 0.195068
v 0.228480 -0.931885 0.195068
v 0.228480 -0.831885 0.195068
v 0.328480 -0.931885 0.195068
v 0.328480 -0.831885 0.195068
v -0.271520 -0.931885 0.095068
v -0.271520 -0.831885 0.095068
v -0.171520 -0.931885 0.095068
v -0.171520 -0.831885 0.095068
v 0.128480 -0.931885 0.095068
v 0.128480 -0.831885 0.095068
v 0.228480 -0.931885 0.095068
v 0.228480 -0.831885 0.095068
v -0.171520 -0.931885 -0.004932
v -0.171520 -0.831885 -0.004932
v -0.171520 -0.731885 -0.004932
v -0.071520 -0.931885 -0.004932
v -0.071520 -0.831885 -0.004932
v 0.028480 -0.931885 -0.004932
v 0.028480 -0.831885 -0.004932
v 0.128480 -0.931885 -0.004932
v 0.128480 -0.831885 -0.004932
v 0.128480 -0.731885 -0.004932
v -0.671520 0.368115 -0.104932
v -0.671520 0.468115 -0.104932
v -0.571520 0.368115 -0.104932
v -0.571520 0.468115 -0.104932
v -0.071520 -1.031885 -0.104932
v -0.071520 -0.931885 -0.104932
v -0.071520 -0.831885 -0.104932
v 0.028480 -1.031885 -0.104932
v 0.028480 -0.931885 -0.104932
v 0.028480 -0.831885 -0.104932
v 0.528480 0.368115 -0.104932
v 0.528480 0.468115 -0.104932
v 0.628480 0.368115 -0.104932
v 0.628480 0.468115 -0.104932
v -0.171520 -0.931885 -0.204932
v -0.171520 -0.831885 -0.204932
v -0.071520 -0.931885 -0.204932
v -0.071520 -0.831885 -0.204932
v 0.028480 -0.931885 -0.204932
v 0.028480 -0.831885 -0.204932
v 0.128480 -0.931885 -0.204932
v 0.128480 -0.831885 -0.204932
v -0.271520 -0.931885 -0.304932
v -0.271520 -0.831885 -0.304932
v -0.171520 -0.931885 -0.304932
v -0.171520 -0.831885 -0.304932
v 0.128480 -0.931885 -0.304932
v 0.128480 -0.831885 -0.304932
v 0.228480 -0.931885 -0.304932
v 0.228480 -0.831885 -0.304932
v -0.371520 -0.931885 -0.404932
v -0.371520 -0.831885 -0.404932
v -0.271520 -0.931885 -0.404932
v -0.271520 -0.831885 -0.404932
v 0.228480 -0.931885 -0.404932
v 0.228480 -0.831885 -0.404932
v 0.328480 -0.931885 -0.404932
v 0.328480 -0.831885 -0.404932
v -0.471520 0.368115 -0.504932
v -0.471520 0.468115 -0.504932
v 0.428480 0.368115 -0.504932
v 0.428480 0.468115 -0.504932
v 0.528480 -0.631885 -0.504932
v 0.528480 0.168115 -0.504932
v 0.628480 -0.631885 -0.504932
v 0.628480 0.068115 -0.504932
v 0.628480 0.168115 -0.504932
v -0.571520 -0.631885 -0.604932
v -0.571520 0.368115 -0.604932
v 0.528480 -0.631885 -0.604932
v 0.528480 0.368115 -0.604932
v -0.671520 -0.631885 -0.704932
v -0.671520 0.068115 -0.704932
v -0.671520 0.168115 -0.704932
v -0.571520 -0.631885 -0.704932
v -0.571520 0.068115 -0.704932
v -0.571520 0.168115 -0.704932
v 0.528480 -0.631885 -0.704932
v 0.528480 0.068115 -0.704932
v 0.528480 0.168115 -0.704932
v 0.628480 -0.631885 -0.704932
v 0.628480 0.068115 -0.704932
v 0.628480 0.168115 -0.704932
v -0.671520 -0.631885 0.395068
v -0.671520 0.068115 0.395068
v -0.671520 0.168115 0.395068
v -0.671520 0.268115 0.395068
v -0.671520 0.468115 0.395068
v -0.571520 -0.631885 0.395068
v -0.571520 0.068115 0.395068
v -0.571520 0.168115 0.395068
v -0.571520 0.268115 0.395068
v -0.571520 0.368115 0.395068
v -0.571520 0.468115 0.395068
v -0.571520 0.568115 0.395068
v -0.471520 0.368115 0.395068
v -0.471520 0.468115 0.395068
v -0.371520 0.468115 0.395068
v -0.371520 0.568115 0.395068
v 0.328480 0.468115 0.395068
v 0.328480 0.568115 0.395068
v 0.428480 0.368115 0.395068
v 0.428480 0.468115 0.395068
v 0.528480 -0.631885 0.395068
v 0.528480 0.068115 0.395068
v 0.528480 0.168115 0.395068
v 0.528480 0.268115 0.395068
v 0.528480 0.368115 0.395068
v 0.528480 0.468115 0.395068
v 0.528480 0.568115 0.395068
v 0.628480 -0.631885 0.395068
v 0.628480 0.068115 0.395068
v 0.628480 0.168115 0.395068
v 0.628480 0.268115 0.395068
v 0.628480 0.368115 0.395068
v 0.628480 0.468115 0.395068
v -0.571520 -0.631885 0.295068
v -0.571520 0.368115 0.295068
v 0.528480 -0.631885 0.295068
v 0.528480 0.368115 0.295068
v -0.471520 0.368115 0.195068
v -0.471520 0.468115 0.195068
v 0.428480 0.368115 0.195068
v 0.428480 0.468115 0.195068
v 0.528480 -0.631885 0.195068
v 0.528480 0.168115 0.195068
v 0.628480 -0.631885 0.195068
v 0.628480 0.068115 0.195068
v 0.628480 0.168115 0.195068
v -0.371520 -0.931885 0.095068
v -0.371520 -0.831885 0.095068
v -0.271520 -0.931885 0.095068
v -0.271520 -0.831885 0.095068
v 0.228480 -0.931885 0.095068
v 0.228480 -0.831885 0.095068
v 0.328480 -0.931885 0.095068
v 0.328480 -0.831885 0.095068
v -0.271520 -0.931885 -0.004932
v -0.271520 -0.831885 -0.004932
v -0.171520 -0.931885 -0.004932
v -0.171520 -0.831885 -0.004932
v -0.171520 0.768115 -0.004932
v -0.171520 0.868115 -0.004932
v -0.071520 0.768115 -0.004932
v -0.071520 0.868115 -0.004932
v 0.028480 0.768115 -0.004932
v 0.028480 0.868115 -0.004932
v 0.128480 -0.931885 -0.004932
v 0.128480 -0.831885 -0.004932
v 0.128480 0.768115 -0.004932
v 0.128480 0.868115 -0.004932
v 0.228480 -0.931885 -0.004932
v 0.228480 -0.831885 -0.004932
v -0.671520 0.468115 -0.104932
v -0.671520 0.568115 -0.104932
v -0.571520 0.468115 -0.104932
v -0.571520 0.568115 -0.104932
v -0.171520 -0.931885 -0.104932
v -0.171520 -0.831885 -0.104932
v -0.071520 -0.931885 -0.104932
v -0.071520 -0.831885 -0.104932
v -0.071520 0.868115 -0.104932
v -0.071520 0.968115 -0.104932
v 0.028480 -0.931885 -0.104932
v 0.028480 -0.831885 -0.104932
v 0.028480 0.868115 -0.104932
v 0.028480 0.968115 -0.104932
v 0.128480 -0.931885 -0.104932
v 0.128480 -0.831885 -0.104932
v 0.528480 0.468115 -0.104932
v 0.528480 0.568115 -0.104932
v 0.628480 0.468115 -0.104932
v 0.628480 0.568115 -0.104932
v -0.671520 0.368115 -0.204932
v -0.671520 0.468115 -0.204932
v -0.571520 0.368115 -0.204932
v -0.571520 0.468115 -0.204932
v -0.071520 -1.031885 -0.204932
v -0.071520 -0.931885 -0.204932
v -0.071520 -0.831885 -0.204932
v 0.028480 -1.031885 -0.204932
v 0.028480 -0.931885 -0.204932
v 0.028480 -0.831885 -0.204932
v 0.528480 0.368115 -0.204932
v 0.528480 0.468115 -0.204932
v 0.628480 0.368115 -0.204932
v 0.628480 0.468115 -0.204932
v -0.171520 -0.931885 -0.304932
v -0.171520 -0.831885 -0.304932
v -0.171520 -0.731885 -0.304932
v -0.171520 0.668115 -0.304932
v -0.171520 0.768115 -0.304932
v -0.071520 -0.931885 -0.304932
v -0.071520 -0.831885 -0.304932
v -0.071520 0.668115 -0.304932
v -0.071520 0.768115 -0.304932
v -0.071520 0.868115 -0.304932
v 0.028480 -0.931885 -0.304932
v 0.028480 -0.831885 -0.304932
v 0.028480 0.668115 -0.304932
v 0.028480 0.768115 -0.304932
v 0.028480 0.868115 -0.304932
v 0.128480 -0.931885 -0.304932
v 0.128480 -0.831885 -0.304932
v 0.128480 -0.731885 -0.304932
v 0.128480 0.668115 -0.304932
v 0.128480 0.768115 -0.304932
v -0.271520 -0.931885 -0.404932
v -0.271520 -0.831885 -0.404932
v -0.171520 -0.931885 -0.404932
v -0.171520 -0.831885 -0.404932
v -0.071520 0.668115 -0.404932
v -0.071520 0.768115 -0.404932
v 0.028480 0.668115 -0.404932
v 0.028480 0.768115 -0.404932
v 0.128480 -0.931885 -0.404932
v 0.128480 -0.831885 -0.404932
v 0.228480 -0.931885 -0.404932
v 0.228480 -0.831885 -0.404932
v -0.471520 0.468115 -0.504932
v -0.471520 0.568115 -0.504932
v -0.371520 -0.931885 -0.504932
v -0.371520 -0.831885 -0.504932
v -0.271520 -0.931885 -0.504932
v -0.271520 -0.831885 -0.504932
v -0.171520 0.468115 -0.504932
v -0.171520 0.568115 -0.504932
v -0.171520 0.668115 -0.504932
v 0.128480 0.468115 -0.504932
v 0.128480 0.568115 -0.504932
v 0.128480 0.668115 -0.504932
v 0.228480 -0.931885 -0.504932
v 0.228480 -0.831885 -0.504932
v 0.328480 -0.931885 -0.504932
v 0.328480 -0.831885 -0.504932
v 0.428480 0.468115 -0.504932
v 0.428480 0.568115 -0.504932
v -0.671520 -0.631885 -0.604932
v -0.671520 0.068115 -0.604932
v -0.671520 0.168115 -0.604932
v -0.671520 0.368115 -0.604932
v -0.571520 -0.631885 -0.604932
v -0.571520 0.368115 -0.604932
v -0.571520 0.468115 -0.604932
v -0.171520 0.468115 -0.604932
v -0.171520 0.568115 -0.604932
v 0.128480 0.468115 -0.604932
v 0.128480 0.568115 -0.604932
v 0.528480 -0.631885 -0.604932
v 0.528480 0.368115 -0.604932
v 0.528480 0.468115 -0.604932
v 0.628480 -0.631885 -0.604932
v 0.628480 0.068115 -0.604932
v 0.628480 0.168115 -0.604932
v 0.628480 0.368115 -0.604932
v -0.771520 -0.631885 -0.704932
v -0.771520 0.068115 -0.704932
v -0.771520 0.168115 -0.704932
v -0.671520 -0.731885 -0.704932
v -0.671520 -0.631885 -0.704932
v -0.671520 0.068115 -0.704932
v -0.671520 0.168115 -0.704932
v -0.571520 0.168115 -0.704932
v -0.571520 0.368115 -0.704932
v 0.528480 0.168115 -0.704932
v 0.528480 0.368115 -0.704932
v 0.628480 -0.731885 -0.704932
v 0.628480 -0.631885 -0.704932
v 0.628480 0.068115 -0.704932
v 0.628480 0.168115 -0.704932
v 0.728480 -0.631885 -0.704932
v 0.728480 0.068115 -0.704932
v 0.728480 0.168115 -0.704932
v -0.671520 -0.631885 -0.804932
v -0.671520 0.068115 -0.804932
v -0.671520 0.168115 -0.804932
v 0.628480 -0.631885 -0.804932
v 0.628480 0.068115 -0.804932
v 0.628480 0.168115 -0.804932
v -0.071520 -1.031885 -0.104932
v 0.028480 -1.031885 -0.104932
v -0.071520 -1.031885 -0.204932
v 0.028480 -1.031885 -0.204932
v -0.371520 -0.931885 0.195068
v -0.271520 -0.931885 0.195068
v 0.228480 -0.931885 0.195068
v 0.328480 -0.931885 0.195068
v -0.371520 -0.931885 0.095068
v -0.271520 -0.931885 0.095068
v -0.171520 -0.931885 0.095068
v 0.128480 -0.931885 0.095068
v 0.228480 -0.931885 0.095068
v 0.328480 -0.931885 0.095068
v -0.271520 -0.931885 -0.004932
v -0.171520 -0.931885 -0.004932
v -0.071520 -0.931885 -0.004932
v 0.028480 -0.931885 -0.004932
v 0.128480 -0.931885 -0.004932
v 0.228480 -0.931885 -0.004932
v -0.171520 -0.931885 -0.104932
v -0.071520 -0.931885 -0.104932
v 0.028480 -0.931885 -0.104932
v 0.128480 -0.931885 -0.104932
v -0.171520 -0.931885 -0.204932
v -0.071520 -0.931885 -0.204932
v 0.028480 -0.931885 -0.204932
v 0.128480 -0.931885 -0.204932
v -0.271520 -0.931885 -0.304932
v -0.171520 -0.931885 -0.304932
v -0.071520 -0.931885 -0.304932
v 0.028480 -0.931885 -0.304932
v 0.128480 -0.931885 -0.304932
v 0.228480 -0.931885 -0.304932
v -0.371520 -0.931885 -0.404932
v -0.271520 -0.931885 -0.404932
v -0.171520 -0.931885 -0.404932
v 0.128480 -0.931885 -0.404932
v 0.228480 -0.931885 -0.404932
v 0.328480 -0.931885 -0.404932
v -0.371520 -0.931885 -0.504932
v -0.271520 -0.931885 -0.504932
v 0.228480 -0.931885 -0.504932
v 0.328480 -0.931885 -0.504932
v -0.071520 -0.831885 -0.004932
v 0.028480 -0.831885 -0.004932
v -0.171520 -0.831885 -0.104932
v -0.071520 -0.831885 -0.104932
v 0.028480 -0.831885 -0.104932
v 0.128480 -0.831885 -0.104932
v -0.171520 -0.831885 -0.204932
v -0.071520 -0.831885 -0.204932
v 0.028480 -0.831885 -0.204932
v 0.128480 -0.831885 -0.204932
v -0.071520 -0.831885 -0.304932
v 0.028480 -0.831885 -0.304932
v -0.671520 -0.731885 0.395068
v 0.628480 -0.731885 0.395068
v -0.171520 -0.731885 -0.004932
v 0.128480 -0.731885 -0.004932
v -0.171520 -0.731885 -0.304932
v 0.128480 -0.731885 -0.304932
v -0.671520 -0.731885 -0.704932
v 0.628480 -0.731885 -0.704932
v -0.671520 -0.631885 0.495068
v 0.628480 -0.631885 0.495068
v -0.771520 -0.631885 0.395068
v -0.671520 -0.631885 0.395068
v 0.628480 -0.631885 0.395068
v 0.728480 -0.631885 0.395068
v -0.771520 -0.631885 -0.704932
v -0.671520 -0.631885 -0.704932
v 0.628480 -0.631885 -0.704932
v 0.728480 -0.631885 -0.704932
v -0.671520 -0.631885 -0.804932
v 0.628480 -0.631885 -0.804932
v -0.171520 -0.531885 0.595068
v 0.128480 -0.531885 0.595068
v -0.171520 -0.531885 0.495068
v 0.128480 -0.531885 0.495068
v -0.271520 -0.431885 0.595068
v -0.171520 -0.431885 0.595068
v 0.128480 -0.431885 0.595068
v 0.228480 -0.431885 0.595068
v -0.271520 -0.431885 0.495068
v -0.171520 -0.431885 0.495068
v 0.128480 -0.431885 0.495068
v 0.228480 -0.431885 0.495068
v 0.528480 0.168115 0.195068
v 0.628480 0.168115 0.195068
v 0.528480 0.168115 -0.504932
v 0.628480 0.168115 -0.504932
v -0.171520 0.268115 0.695068
v 0.128480 0.268115 0.695068
v -0.671520 0.268115 0.495068
v -0.371520 0.268115 0.495068
v -0.271520 0.268115 0.495068
v -0.171520 0.268115 0.495068
v 0.128480 0.268115 0.495068
v 0.428480 0.268115 0.495068
v 0.528480 0.268115 0.495068
v 0.628480 0.268115 0.495068
v -0.671520 0.268115 0.395068
v -0.571520 0.268115 0.395068
v -0.371520 0.268115 0.395068
v -0.271520 0.268115 0.395068
v -0.171520 0.268115 0.395068
v 0.128480 0.268115 0.395068
v 0.428480 0.268115 0.395068
v 0.528480 0.268115 0.395068
v 0.628480 0.268115 0.395068
v -0.571520 0.368115 0.295068
v 0.528480 0.368115 0.295068
v -0.471520 0.368115 0.195068
v 0.428480 0.368115 0.195068
v -0.471520 0.368115 -0.504932
v 0.428480 0.368115 -0.504932
v -0.571520 0.368115 -0.604932
v 0.528480 0.368115 -0.604932
v -0.671520 0.468115 0.395068
v -0.571520 0.468115 0.395068
v 0.528480 0.468115 0.395068
v 0.628480 0.468115 0.395068
v -0.571520 0.468115 0.295068
v 0.528480 0.468115 0.295068
v -0.471520 0.468115 0.195068
v 0.428480 0.468115 0.195068
v -0.671520 0.468115 -0.104932
v -0.571520 0.468115 -0.104932
v 0.528480 0.468115 -0.104932
v 0.628480 0.468115 -0.104932
v -0.471520 0.468115 -0.504932
v 0.428480 0.468115 -0.504932
v -0.071520 0.768115 0.495068
v 0.028480 0.768115 0.495068
v -0.071520 0.768115 0.395068
v 0.028480 0.768115 0.395068
v -0.071520 0.868115 0.595068
v 0.028480 0.868115 0.595068
v -0.071520 0.868115 0.495068
v 0.028480 0.868115 0.495068
v -0.371520 -0.831885 0.195068
v -0.271520 -0.831885 0.195068
v 0.228480 -0.831885 0.195068
v 0.328480 -0.831885 0.195068
v -0.371520 -0.831885 0.095068
v -0.271520 -0.831885 0.095068
v -0.171520 -0.831885 0.095068
v 0.128480 -0.831885 0.095068
v 0.228480 -0.831885 0.095068
v 0.328480 -0.831885 0.095068
v -0.271520 -0.831885 -0.004932
v -0.171520 -0.831885 -0.004932
v 0.128480 -0.831885 -0.004932
v 0.228480 -0.831885 -0.004932
v -0.271520 -0.831885 -0.304932
v -0.171520 -0.831885 -0.304932
v 0.128480 -0.831885 -0.304932
v 0.228480 -0.831885 -0.304932
v -0.371520 -0.831885 -0.404932
v -0.271520 -0.831885 -0.404932
v -0.171520 -0.831885 -0.404932
v 0.128480 -0.831885 -0.404932
v 0.228480 -0.831885 -0.404932
v 0.328480 -0.831885 -0.404932
v -0.371520 -0.831885 -0.504932
v -0.271520 -0.831885 -0.504932
v 0.228480 -0.831885 -0.504932
v 0.328480 -0.831885 -0.504932
v -0.671520 -0.631885 0.395068
v -0.571520 -0.631885 0.395068
v 0.528480 -0.631885 0.395068
v 0.628480 -0.631885 0.395068
v -0.671520 -0.631885 0.295068
v -0.571520 -0.631885 0.295068
v 0.528480 -0.631885 0.295068
v 0.628480 -0.631885 0.295068
v 0.528480 -0.631885 0.195068
v 0.628480 -0.631885 0.195068
v -0.071520 -0.631885 -0.004932
v 0.028480 -0.631885 -0.004932
v -0.171520 -0.631885 -0.104932
v -0.071520 -0.631885 -0.104932
v 0.028480 -0.631885 -0.104932
v 0.128480 -0.631885 -0.104932
v -0.171520 -0.631885 -0.204932
v -0.071520 -0.631885 -0.204932
v 0.028480 -0.631885 -0.204932
v 0.128480 -0.631885 -0.204932
v -0.071520 -0.631885 -0.304932
v 0.028480 -0.631885 -0.304932
v 0.528480 -0.631885 -0.504932
v 0.628480 -0.631885 -0.504932
v -0.671520 -0.631885 -0.604932
v -0.571520 -0.631885 -0.604932
v 0.528480 -0.631885 -0.604932
v 0.628480 -0.631885 -0.604932
v -0.671520 -0.631885 -0.704932
v -0.571520 -0.631885 -0.704932
v 0.528480 -0.631885 -0.704932
v 0.628480 -0.631885 -0.704932
v -0.271520 -0.131885 0.595068
v -0.171520 -0.131885 0.595068
v 0.128480 -0.131885 0.595068
v 0.228480 -0.131885 0.595068
v -0.271520 -0.131885 0.495068
v -0.171520 -0.131885 0.495068
v 0.128480 -0.131885 0.495068
v 0.228480 -0.131885 0.495068
v -0.171520 -0.031885 0.595068
v -0.071520 -0.031885 0.595068
v 0.128480 -0.031885 0.595068
v -0.171520 -0.031885 0.495068
v -0.071520 -0.031885 0.495068
v 0.128480 -0.031885 0.495068
v -0.671520 0.168115 0.495068
v 0.628480 0.168115 0.495068
v -0.771520 0.168115 0.395068
v -0.671520 0.168115 0.395068
v -0.571520 0.168115 0.395068
v 0.528480 0.168115 0.395068
v 0.628480 0.168115 0.395068
v 0.728480 0.168115 0.395068
v -0.671520 0.168115 0.295068
v 0.628480 0.168115 0.295068
v -0.671520 0.168115 -0.604932
v 0.628480 0.168115 -0.604932
v -0.771520 0.168115 -0.704932
v -0.671520 0.168115 -0.704932
v -0.571520 0.168115 -0.704932
v 0.528480 0.168115 -0.704932
v 0.628480 0.168115 -0.704932
v 0.728480 0.168115 -0.704932
v -0.671520 0.168115 -0.804932
v 0.628480 0.168115 -0.804932
v -0.171520 0.368115 0.695068
v 0.128480 0.368115 0.695068
v -0.171520 0.368115 0.495068
v 0.128480 0.368115 0.495068
v -0.571520 0.368115 0.395068
v -0.471520 0.368115 0.395068
v 0.428480 0.368115 0.395068
v 0.528480 0.368115 0.395068
v -0.671520 0.368115 0.295068
v -0.571520 0.368115 0.295068
v -0.471520 0.368115 0.295068
v 0.428480 0.368115 0.295068
v 0.528480 0.368115 0.295068
v 0.628480 0.368115 0.295068
v -0.671520 0.368115 -0.104932
v -0.571520 0.368115 -0.104932
v 0.528480 0.368115 -0.104932
v 0.628480 0.368115 -0.104932
v -0.671520 0.368115 -0.204932
v -0.571520 0.368115 -0.204932
v 0.528480 0.368115 -0.204932
v 0.628480 0.368115 -0.204932
v -0.671520 0.368115 -0.604932
v -0.571520 0.368115 -0.604932
v 0.528480 0.368115 -0.604932
v 0.628480 0.368115 -0.604932
v -0.571520 0.368115 -0.704932
v 0.528480 0.368115 -0.704932
v -0.171520 0.468115 0.495068
v 0.128480 0.468115 0.495068
v -0.471520 0.468115 0.395068
v -0.371520 0.468115 0.395068
v -0.171520 0.468115 0.395068
v 0.128480 0.468115 0.395068
v 0.328480 0.468115 0.395068
v 0.428480 0.468115 0.395068
v -0.571520 0.468115 0.295068
v -0.471520 0.468115 0.295068
v -0.371520 0.468115 0.295068
v 0.328480 0.468115 0.295068
v 0.428480 0.468115 0.295068
v 0.528480 0.468115 0.295068
v -0.671520 0.468115 -0.104932
v -0.571520 0.468115 -0.104932
v 0.528480 0.468115 -0.104932
v 0.628480 0.468115 -0.104932
v -0.671520 0.468115 -0.204932
v -0.571520 0.468115 -0.204932
v 0.528480 0.468115 -0.204932
v 0.628480 0.468115 -0.204932
v -0.471520 0.468115 -0.504932
v -0.171520 0.468115 -0.504932
v 0.128480 0.468115 -0.504932
v 0.428480 0.468115 -0.504932
v -0.571520 0.468115 -0.604932
v -0.171520 0.468115 -0.604932
v 0.128480 0.468115 -0.604932
v 0.528480 0.468115 -0.604932
v -0.671520 0.568115 0.495068
v -0.171520 0.568115 0.495068
v 0.128480 0.568115 0.495068
v 0.628480 0.568115 0.495068
v -0.571520 0.568115 0.395068
v -0.371520 0.568115 0.395068
v -0.171520 0.568115 0.395068
v -0.071520 0.568115 0.395068
v 0.028480 0.568115 0.395068
v 0.128480 0.568115 0.395068
v 0.328480 0.568115 0.395068
v 0.528480 0.568115 0.395068
v -0.471520 0.568115 0.295068
v -0.371520 0.568115 0.295068
v -0.171520 0.568115 0.295068
v -0.071520 0.568115 0.295068
v 0.028480 0.568115 0.295068
v 0.128480 0.568115 0.295068
v 0.328480 0.568115 0.295068
v 0.428480 0.568115 0.295068
v -0.671520 0.568115 -0.104932
v -0.571520 0.568115 -0.104932
v 0.528480 0.568115 -0.104932
v 0.628480 0.568115 -0.104932
v -0.471520 0.568115 -0.504932
v -0.171520 0.568115 -0.504932
v 0.128480 0.568115 -0.504932
v 0.428480 0.568115 -0.504932
v -0.171520 0.568115 -0.604932
v 0.128480 0.568115 -0.604932
v -0.171520 0.668115 -0.304932
v -0.071520 0.668115 -0.304932
v 0.028480 0.668115 -0.304932
v 0.128480 0.668115 -0.304932
v -0.071520 0.668115 -0.404932
v 0.028480 0.668115 -0.404932
v -0.171520 0.668115 -0.504932
v 0.128480 0.668115 -0.504932
v -0.171520 0.768115 0.295068
v -0.071520 0.768115 0.295068
v 0.028480 0.768115 0.295068
v 0.128480 0.768115 0.295068
v -0.171520 0.768115 0.195068
v -0.071520 0.768115 0.195068
v 0.028480 0.768115 0.195068
v 0.128480 0.768115 0.195068
v -0.171520 0.768115 -0.004932
v -0.071520 0.768115 -0.004932
v 0.028480 0.768115 -0.004932
v 0.128480 0.768115 -0.004932
v -0.171520 0.768115 -0.304932
v -0.071520 0.768115 -0.304932
v 0.028480 0.768115 -0.304932
v 0.128480 0.768115 -0.304932
v -0.071520 0.768115 -0.404932
v 0.028480 0.768115 -0.404932
v -0.171520 0.868115 0.195068
v -0.071520 0.868115 0.195068
v 0.028480 0.868115 0.195068
v 0.128480 0.868115 0.195068
v -0.171520 0.868115 -0.004932
v -0.071520 0.868115 -0.004932
v 0.028480 0.868115 -0.004932
v 0.128480 0.868115 -0.004932
v -0.071520 0.868115 -0.104932
v 0.028480 0.868115 -0.104932
v -0.071520 0.868115 -0.304932
v 0.028480 0.868115 -0.304932
v -0.071520 0.968115 0.595068
v 0.028480 0.968115 0.595068
v -0.071520 0.968115 -0.104932
v 0.028480 0.968115 -0.104932
vn -1.0000 -0.0000 -0.0000
vn 1.0000 -0.0000 -0.0000
vn -0.0000 -0.0000 1.0000
vn -0.0000 -0.0000 -1.0000
vn -0.0000 -1.0000 -0.0000
vn -0.0000 1.0000 -0.0000
vt 0.837891 0.500000
vt 0.552734 0.500000
vt 0.404297 0.500000
vt 0.994141 0.500000
vt 0.962891 0.500000
vt 0.068359 0.500000
vt 0.529297 0.500000
vt 0.958984 0.500000
vt 0.978516 0.500000
vt 0.037109 0.500000
s 1
usemtl palette.013
f 3/1/1 2/1/1 1/1/1
f 4/1/1 2/1/1 3/1/1
f 5/2/1 4/2/1 3/2/1
f 6/2/1 4/2/1 5/2/1
f 10/1/1 8/1/1 7/1/1
f 11/1/1 8/1/1 10/1/1
f 13/1/1 10/1/1 9/1/1
f 14/1/1 10/1/1 13/1/1
f 15/1/1 12/1/1 11/1/1
f 16/1/1 12/1/1 15/1/1
f 17/2/1 14/2/1 13/2/1
f 18/2/1 14/2/1 17/2/1
f 21/2/1 16/2/1 15/2/1
f 22/2/1 16/2/1 21/2/1
f 25/3/1 20/3/1 19/3/1
f 26/3/1 20/3/1 25/3/1
f 27/3/1 20/3/1 26/3/1
f 28/3/1 20/3/1 27/3/1
f 29/4/1 24/4/1 23/4/1
f 30/4/1 27/4/1 26/4/1
f 31/4/1 27/4/1 30/4/1
f 32/4/1 29/4/1 23/4/1
f 32/4/1 30/4/1 29/4/1
f 33/4/1 30/4/1 32/4/1
f 38/3/1 35/3/1 34/3/1
f 39/3/1 37/3/1 36/3/1
f 40/3/1 35/3/1 38/3/1
f 41/3/1 39/3/1 36/3/1
f 42/3/1 35/3/1 40/3/1
f 43/3/1 35/3/1 42/3/1
f 44/3/1 35/3/1 43/3/1
f 47/3/1 41/3/1 36/3/1
f 48/3/1 41/3/1 47/3/1
f 49/3/1 45/3/1 44/3/1
f 50/3/1 45/3/1 49/3/1
f 51/3/1 47/3/1 46/3/1
f 52/3/1 47/3/1 51/3/1
f 55/3/1 54/3/1 53/3/1
f 56/3/1 54/3/1 55/3/1
f 58/3/1 57/3/1 56/3/1
f 59/3/1 57/3/1 58/3/1
f 64/2/1 61/2/1 60/2/1
f 65/2/1 61/2/1 64/2/1
f 66/2/1 63/2/1 62/2/1
f 67/2/1 63/2/1 66/2/1
f 70/3/1 69/3/1 68/3/1
f 71/3/1 69/3/1 70/3/1
f 76/2/1 73/2/1 72/2/1
f 77/2/1 73/2/1 76/2/1
f 78/2/1 75/2/1 74/2/1
f 79/2/1 75/2/1 78/2/1
f 82/5/1 81/5/1 80/5/1
f 83/5/1 81/5/1 82/5/1
f 88/2/1 85/2/1 84/2/1
f 89/2/1 85/2/1 88/2/1
f 90/2/1 87/2/1 86/2/1
f 91/2/1 87/2/1 90/2/1
f 92/2/1 89/2/1 88/2/1
f 92/2/1 90/2/1 89/2/1
f 92/2/1 91/2/1 90/2/1
f 93/2/1 91/2/1 92/2/1
f 96/5/1 95/5/1 94/5/1
f 97/5/1 95/5/1 96/5/1
f 100/5/1 99/5/1 98/5/1
f 101/5/1 99/5/1 100/5/1
f 104/6/1 103/6/1 102/6/1
f 105/6/1 103/6/1 104/6/1
f 109/7/1 107/7/1 106/7/1
f 110/7/1 107/7/1 109/7/1
f 111/7/1 109/7/1 108/7/1
f 112/7/1 109/7/1 111/7/1
f 113/7/1 111/7/1 108/7/1
f 114/7/1 111/7/1 113/7/1
f 115/7/1 111/7/1 114/7/1
f 116/7/1 111/7/1 115/7/1
f 117/7/1 115/7/1 114/7/1
f 118/7/1 115/7/1 117/7/1
f 121/2/1 120/2/1 119/2/1
f 122/2/1 120/2/1 121/2/1
f 123/2/1 122/2/1 121/2/1
f 124/2/1 122/2/1 123/2/1
f 130/7/1 126/7/1 125/7/1
f 131/7/1 126/7/1 130/7/1
f 134/7/1 128/7/1 127/7/1
f 135/7/1 128/7/1 134/7/1
f 137/7/1 132/7/1 131/7/1
f 137/7/1 130/7/1 129/7/1
f 137/7/1 131/7/1 130/7/1
f 138/7/1 132/7/1 137/7/1
f 139/7/1 134/7/1 133/7/1
f 140/7/1 134/7/1 139/7/1
f 141/7/1 134/7/1 140/7/1
f 142/7/1 138/7/1 137/7/1
f 142/7/1 137/7/1 136/7/1
f 142/7/1 140/7/1 139/7/1
f 142/7/1 139/7/1 138/7/1
f 143/7/1 140/7/1 142/7/1
f 148/2/1 145/2/1 144/2/1
f 149/2/1 145/2/1 148/2/1
f 150/2/1 147/2/1 146/2/1
f 151/2/1 147/2/1 150/2/1
f 156/2/1 153/2/1 152/2/1
f 157/2/1 153/2/1 156/2/1
f 158/2/1 155/2/1 154/2/1
f 159/2/1 155/2/1 158/2/1
f 162/4/1 161/4/1 160/4/1
f 163/4/1 161/4/1 162/4/1
f 168/2/1 165/2/1 164/2/1
f 169/2/1 165/2/1 168/2/1
f 170/2/1 167/2/1 166/2/1
f 171/2/1 167/2/1 170/2/1
f 174/3/1 173/3/1 172/3/1
f 175/3/1 173/3/1 174/3/1
f 180/3/1 177/3/1 176/3/1
f 181/3/1 179/3/1 178/3/1
f 182/3/1 180/3/1 176/3/1
f 182/3/1 181/3/1 180/3/1
f 183/3/1 179/3/1 181/3/1
f 183/3/1 181/3/1 182/3/1
f 187/4/1 185/4/1 184/4/1
f 187/4/1 186/4/1 185/4/1
f 188/4/1 186/4/1 187/4/1
f 195/1/1 190/1/1 189/1/1
f 196/1/1 190/1/1 195/1/1
f 197/1/1 192/1/1 191/1/1
f 198/1/1 192/1/1 197/1/1
f 199/1/1 194/1/1 193/1/1
f 200/1/1 194/1/1 199/1/1
f 201/2/1 196/2/1 195/2/1
f 202/2/1 196/2/1 201/2/1
f 203/2/1 198/2/1 197/2/1
f 204/2/1 198/2/1 203/2/1
f 205/2/1 200/2/1 199/2/1
f 206/2/1 200/2/1 205/2/1
f 207/1/2 208/1/2 211/1/2
f 211/1/2 208/1/2 212/1/2
f 209/1/2 210/1/2 213/1/2
f 213/1/2 210/1/2 214/1/2
f 211/2/2 212/2/2 215/2/2
f 215/2/2 212/2/2 216/2/2
f 213/2/2 214/2/2 217/2/2
f 217/2/2 214/2/2 218/2/2
f 219/3/2 220/3/2 221/3/2
f 221/3/2 220/3/2 222/3/2
f 223/4/2 224/4/2 226/4/2
f 224/4/2 225/4/2 226/4/2
f 226/4/2 225/4/2 227/4/2
f 228/3/2 229/3/2 230/3/2
f 230/3/2 229/3/2 231/3/2
f 232/2/2 233/2/2 236/2/2
f 236/2/2 233/2/2 237/2/2
f 234/2/2 235/2/2 238/2/2
f 238/2/2 235/2/2 239/2/2
f 240/2/2 241/2/2 244/2/2
f 244/2/2 241/2/2 245/2/2
f 242/2/2 243/2/2 246/2/2
f 246/2/2 243/2/2 247/2/2
f 248/4/2 249/4/2 250/4/2
f 250/4/2 249/4/2 251/4/2
f 252/2/2 253/2/2 256/2/2
f 256/2/2 253/2/2 257/2/2
f 254/2/2 255/2/2 258/2/2
f 258/2/2 255/2/2 259/2/2
f 260/2/2 261/2/2 262/2/2
f 262/2/2 261/2/2 263/2/2
f 262/2/2 263/2/2 264/2/2
f 264/2/2 263/2/2 265/2/2
f 266/7/2 267/7/2 271/7/2
f 271/7/2 267/7/2 272/7/2
f 268/7/2 269/7/2 275/7/2
f 275/7/2 269/7/2 276/7/2
f 272/7/2 273/7/2 278/7/2
f 270/7/2 271/7/2 278/7/2
f 271/7/2 272/7/2 278/7/2
f 278/7/2 273/7/2 279/7/2
f 274/7/2 275/7/2 280/7/2
f 280/7/2 275/7/2 281/7/2
f 281/7/2 275/7/2 282/7/2
f 278/7/2 279/7/2 283/7/2
f 277/7/2 278/7/2 283/7/2
f 280/7/2 281/7/2 283/7/2
f 279/7/2 280/7/2 283/7/2
f 283/7/2 281/7/2 284/7/2
f 285/2/2 286/2/2 289/2/2
f 289/2/2 286/2/2 290/2/2
f 287/2/2 288/2/2 291/2/2
f 291/2/2 288/2/2 292/2/2
f 289/2/2 290/2/2 293/2/2
f 290/2/2 291/2/2 293/2/2
f 291/2/2 292/2/2 293/2/2
f 293/2/2 292/2/2 294/2/2
f 295/5/2 296/5/2 297/5/2
f 297/5/2 296/5/2 298/5/2
f 299/8/2 300/8/2 301/8/2
f 301/8/2 300/8/2 302/8/2
f 303/6/2 304/6/2 305/6/2
f 305/6/2 304/6/2 306/6/2
f 307/7/2 308/7/2 310/7/2
f 310/7/2 308/7/2 311/7/2
f 309/7/2 310/7/2 312/7/2
f 312/7/2 310/7/2 313/7/2
f 309/7/2 312/7/2 314/7/2
f 314/7/2 312/7/2 315/7/2
f 315/7/2 312/7/2 316/7/2
f 316/7/2 312/7/2 317/7/2
f 315/7/2 316/7/2 318/7/2
f 318/7/2 316/7/2 319/7/2
f 320/2/2 321/2/2 324/2/2
f 324/2/2 321/2/2 325/2/2
f 322/2/2 323/2/2 326/2/2
f 326/2/2 323/2/2 327/2/2
f 328/5/2 329/5/2 330/5/2
f 330/5/2 329/5/2 331/5/2
f 330/8/2 331/8/2 332/8/2
f 332/8/2 331/8/2 333/8/2
f 334/2/2 335/2/2 338/2/2
f 338/2/2 335/2/2 339/2/2
f 336/2/2 337/2/2 340/2/2
f 340/2/2 337/2/2 341/2/2
f 342/3/2 343/3/2 344/3/2
f 344/3/2 343/3/2 345/3/2
f 346/3/2 347/3/2 348/3/2
f 348/3/2 347/3/2 349/3/2
f 349/3/2 350/3/2 351/3/2
f 351/3/2 350/3/2 352/3/2
f 353/3/2 354/3/2 357/3/2
f 355/3/2 356/3/2 358/3/2
f 357/3/2 354/3/2 359/3/2
f 355/3/2 358/3/2 360/3/2
f 359/3/2 354/3/2 361/3/2
f 361/3/2 354/3/2 362/3/2
f 362/3/2 354/3/2 363/3/2
f 355/3/2 360/3/2 366/3/2
f 366/3/2 360/3/2 367/3/2
f 363/3/2 364/3/2 368/3/2
f 368/3/2 364/3/2 369/3/2
f 365/3/2 366/3/2 370/3/2
f 370/3/2 366/3/2 371/3/2
f 372/1/2 373/1/2 375/1/2
f 375/1/2 373/1/2 376/1/2
f 374/1/2 375/1/2 378/1/2
f 378/1/2 375/1/2 379/1/2
f 376/1/2 377/1/2 380/1/2
f 380/1/2 377/1/2 381/1/2
f 378/2/2 379/2/2 382/2/2
f 382/2/2 379/2/2 383/2/2
f 380/2/2 381/2/2 386/2/2
f 386/2/2 381/2/2 387/2/2
f 388/4/2 389/4/2 390/4/2
f 390/4/2 389/4/2 391/4/2
f 384/3/2 385/3/2 392/3/2
f 392/3/2 385/3/2 393/3/2
f 393/3/2 385/3/2 394/3/2
f 394/3/2 385/3/2 395/3/2
f 390/9/2 391/9/2 396/9/2
f 396/9/2 391/9/2 397/9/2
f 393/4/2 394/4/2 398/4/2
f 398/4/2 394/4/2 399/4/2
f 396/4/2 397/4/2 400/4/2
f 397/4/2 398/4/2 400/4/2
f 400/4/2 398/4/2 401/4/2
f 402/1/2 403/1/2 404/1/2
f 404/1/2 403/1/2 405/1/2
f 404/2/2 405/2/2 406/2/2
f 406/2/2 405/2/2 407/2/2
f 410/6/3 409/6/3 408/6/3
f 411/6/3 409/6/3 410/6/3
f 415/5/3 413/5/3 412/5/3
f 416/5/3 413/5/3 415/5/3
f 418/5/3 415/5/3 414/5/3
f 418/5/3 417/5/3 416/5/3
f 418/5/3 416/5/3 415/5/3
f 419/5/3 417/5/3 418/5/3
f 422/5/3 418/5/3 414/5/3
f 423/8/3 419/8/3 418/8/3
f 423/5/3 418/5/3 422/5/3
f 424/7/3 421/7/3 420/7/3
f 425/7/3 421/7/3 424/7/3
f 426/5/3 422/5/3 414/5/3
f 427/5/3 422/5/3 426/5/3
f 428/5/3 422/5/3 427/5/3
f 429/8/3 423/8/3 422/8/3
f 429/5/3 422/5/3 428/5/3
f 430/8/3 419/8/3 423/8/3
f 430/8/3 423/8/3 429/8/3
f 431/8/3 419/8/3 430/8/3
f 432/5/3 428/5/3 427/5/3
f 433/8/3 429/8/3 428/8/3
f 433/5/3 428/5/3 432/5/3
f 433/8/3 430/8/3 429/8/3
f 434/8/3 430/8/3 433/8/3
f 440/4/3 439/4/3 438/4/3
f 441/4/3 439/4/3 440/4/3
f 442/1/3 436/1/3 435/1/3
f 443/1/3 436/1/3 442/1/3
f 444/9/3 441/9/3 440/9/3
f 445/4/3 439/4/3 441/4/3
f 445/9/3 441/9/3 444/9/3
f 446/4/3 439/4/3 445/4/3
f 447/1/3 442/1/3 435/1/3
f 448/1/3 442/1/3 447/1/3
f 449/1/3 436/1/3 443/1/3
f 450/1/3 436/1/3 449/1/3
f 451/4/3 445/4/3 444/4/3
f 452/9/3 446/9/3 445/9/3
f 452/4/3 445/4/3 451/4/3
f 453/4/3 439/4/3 446/4/3
f 453/9/3 446/9/3 452/9/3
f 454/4/3 439/4/3 453/4/3
f 455/1/3 436/1/3 450/1/3
f 458/7/3 457/7/3 456/7/3
f 459/7/3 457/7/3 458/7/3
f 460/1/3 447/1/3 435/1/3
f 463/1/3 436/1/3 455/1/3
f 465/4/3 453/4/3 452/4/3
f 466/4/3 453/4/3 465/4/3
f 468/1/3 461/1/3 460/1/3
f 470/1/3 463/1/3 462/1/3
f 471/4/3 467/4/3 466/4/3
f 471/4/3 465/4/3 464/4/3
f 471/4/3 466/4/3 465/4/3
f 472/4/3 467/4/3 471/4/3
f 473/9/3 472/9/3 471/9/3
f 474/4/3 467/4/3 472/4/3
f 474/9/3 472/9/3 473/9/3
f 475/4/3 467/4/3 474/4/3
f 476/1/3 470/1/3 469/1/3
f 476/1/3 469/1/3 468/1/3
f 476/1/3 460/1/3 435/1/3
f 476/1/3 468/1/3 460/1/3
f 477/2/3 437/2/3 436/2/3
f 477/1/3 470/1/3 476/1/3
f 477/1/3 436/1/3 463/1/3
f 477/1/3 463/1/3 470/1/3
f 478/2/3 437/2/3 477/2/3
f 479/4/3 474/4/3 473/4/3
f 480/9/3 475/9/3 474/9/3
f 480/4/3 474/4/3 479/4/3
f 481/4/3 467/4/3 475/4/3
f 481/9/3 475/9/3 480/9/3
f 482/4/3 467/4/3 481/4/3
f 487/1/3 484/1/3 483/1/3
f 488/2/3 485/2/3 484/2/3
f 488/1/3 484/1/3 487/1/3
f 489/2/3 485/2/3 488/2/3
f 492/3/3 491/3/3 490/3/3
f 493/3/3 492/3/3 490/3/3
f 494/3/3 493/3/3 490/3/3
f 497/3/3 496/3/3 495/3/3
f 499/3/3 497/3/3 495/3/3
f 499/7/3 498/7/3 497/7/3
f 500/7/3 498/7/3 499/7/3
f 501/3/3 494/3/3 490/3/3
f 502/3/3 499/3/3 495/3/3
f 503/3/3 499/3/3 502/3/3
f 504/3/3 501/3/3 490/3/3
f 505/3/3 504/3/3 490/3/3
f 506/3/3 504/3/3 505/3/3
f 507/1/3 487/1/3 486/1/3
f 508/1/3 487/1/3 507/1/3
f 511/1/3 509/1/3 508/1/3
f 512/2/3 510/2/3 509/2/3
f 512/1/3 509/1/3 511/1/3
f 513/2/3 510/2/3 512/2/3
f 518/3/3 515/3/3 514/3/3
f 518/3/3 517/3/3 516/3/3
f 518/3/3 516/3/3 515/3/3
f 519/3/3 517/3/3 518/3/3
f 521/3/3 520/3/3 519/3/3
f 522/3/3 520/3/3 521/3/3
f 524/3/3 523/3/3 522/3/3
f 525/3/3 523/3/3 524/3/3
f 528/7/3 527/7/3 526/7/3
f 529/7/3 527/7/3 528/7/3
f 532/7/3 531/7/3 530/7/3
f 533/7/3 531/7/3 532/7/3
f 537/3/3 535/3/3 534/3/3
f 538/3/3 535/3/3 537/3/3
f 540/3/3 537/3/3 536/3/3
f 541/3/3 537/3/3 540/3/3
f 542/3/3 540/3/3 539/3/3
f 543/3/3 540/3/3 542/3/3
f 544/3/3 540/3/3 543/3/3
f 545/3/3 540/3/3 544/3/3
f 548/2/3 547/2/3 546/2/3
f 549/2/3 547/2/3 548/2/3
f 552/7/3 551/7/3 550/7/3
f 553/7/3 551/7/3 552/7/3
f 556/7/3 555/7/3 554/7/3
f 557/7/3 555/7/3 556/7/3
f 560/2/3 559/2/3 558/2/3
f 561/2/3 559/2/3 560/2/3
f 564/2/3 563/2/3 562/2/3
f 565/2/3 563/2/3 564/2/3
f 568/2/3 567/2/3 566/2/3
f 569/2/3 567/2/3 568/2/3
f 573/2/3 571/2/3 570/2/3
f 573/2/3 572/2/3 571/2/3
f 574/2/3 572/2/3 573/2/3
f 576/2/3 572/2/3 574/2/3
f 577/2/3 576/2/3 575/2/3
f 578/2/3 572/2/3 576/2/3
f 578/2/3 576/2/3 577/2/3
f 579/2/3 572/2/3 578/2/3
f 582/4/3 581/4/3 580/4/3
f 583/4/3 581/4/3 582/4/3
f 587/2/3 585/2/3 584/2/3
f 587/2/3 586/2/3 585/2/3
f 588/2/3 586/2/3 587/2/3
f 589/2/3 586/2/3 588/2/3
f 592/4/3 591/4/3 590/4/3
f 593/4/3 591/4/3 592/4/3
f 596/2/3 595/2/3 594/2/3
f 597/2/3 595/2/3 596/2/3
f 600/2/3 599/2/3 598/2/3
f 601/2/3 599/2/3 600/2/3
f 604/2/3 603/2/3 602/2/3
f 605/2/3 603/2/3 604/2/3
f 608/2/3 607/2/3 606/2/3
f 609/2/3 607/2/3 608/2/3
f 612/2/3 611/2/3 610/2/3
f 613/2/3 611/2/3 612/2/3
f 616/2/3 615/2/3 614/2/3
f 617/2/3 615/2/3 616/2/3
f 620/3/3 619/3/3 618/3/3
f 621/3/3 619/3/3 620/3/3
f 624/3/3 623/3/3 622/3/3
f 625/3/3 623/3/3 624/3/3
f 626/3/3 623/3/3 625/3/3
f 629/3/3 628/3/3 627/3/3
f 630/3/3 628/3/3 629/3/3
f 634/1/3 632/1/3 631/1/3
f 635/2/3 633/2/3 632/2/3
f 635/1/3 632/1/3 634/1/3
f 636/2/3 633/2/3 635/2/3
f 640/1/3 638/1/3 637/1/3
f 641/2/3 639/2/3 638/2/3
f 641/1/3 638/1/3 640/1/3
f 642/2/3 639/2/3 641/2/3
f 643/1/4 644/1/4 648/1/4
f 644/2/4 645/2/4 649/2/4
f 648/1/4 644/1/4 649/1/4
f 649/2/4 645/2/4 650/2/4
f 646/4/4 647/4/4 651/4/4
f 651/4/4 647/4/4 652/4/4
f 652/4/4 647/4/4 653/4/4
f 653/4/4 654/4/4 655/4/4
f 652/4/4 653/4/4 655/4/4
f 655/4/4 654/4/4 656/4/4
f 656/4/4 654/4/4 657/4/4
f 657/4/4 654/4/4 658/4/4
f 659/4/4 660/4/4 662/4/4
f 661/4/4 662/4/4 667/4/4
f 662/4/4 660/4/4 668/4/4
f 667/4/4 662/4/4 668/4/4
f 668/4/4 660/4/4 669/4/4
f 663/1/4 664/1/4 670/1/4
f 664/2/4 665/2/4 671/2/4
f 670/1/4 664/1/4 671/1/4
f 671/2/4 665/2/4 672/2/4
f 666/4/4 667/4/4 673/4/4
f 667/9/4 668/9/4 674/9/4
f 673/4/4 667/4/4 674/4/4
f 674/9/4 668/9/4 675/9/4
f 676/3/4 677/3/4 678/3/4
f 678/3/4 677/3/4 679/3/4
f 680/3/4 681/3/4 682/3/4
f 682/3/4 681/3/4 683/3/4
f 684/3/4 685/3/4 686/3/4
f 686/3/4 685/3/4 687/3/4
f 687/3/4 685/3/4 688/3/4
f 689/2/4 690/2/4 691/2/4
f 691/2/4 690/2/4 692/2/4
f 693/2/4 694/2/4 695/2/4
f 695/2/4 694/2/4 696/2/4
f 697/2/4 698/2/4 699/2/4
f 699/2/4 698/2/4 700/2/4
f 701/7/4 702/7/4 703/7/4
f 703/7/4 702/7/4 704/7/4
f 705/7/4 706/7/4 709/7/4
f 709/7/4 706/7/4 710/7/4
f 707/2/4 708/2/4 711/2/4
f 711/2/4 708/2/4 712/2/4
f 713/4/4 714/4/4 715/4/4
f 715/4/4 714/4/4 716/4/4
f 717/2/4 718/2/4 719/2/4
f 719/2/4 718/2/4 720/2/4
f 721/7/4 722/7/4 725/7/4
f 725/7/4 722/7/4 726/7/4
f 723/2/4 724/2/4 727/2/4
f 727/2/4 724/2/4 728/2/4
f 729/4/4 730/4/4 731/4/4
f 731/4/4 730/4/4 732/4/4
f 733/4/4 734/4/4 735/4/4
f 735/4/4 734/4/4 736/4/4
f 737/2/4 738/2/4 740/2/4
f 738/2/4 739/2/4 740/2/4
f 740/2/4 739/2/4 741/2/4
f 741/2/4 739/2/4 742/2/4
f 743/4/4 744/4/4 745/4/4
f 745/4/4 744/4/4 746/4/4
f 747/2/4 748/2/4 752/2/4
f 748/2/4 749/2/4 752/2/4
f 752/2/4 749/2/4 753/2/4
f 750/7/4 751/7/4 754/7/4
f 754/7/4 751/7/4 755/7/4
f 753/2/4 749/2/4 758/2/4
f 755/7/4 756/7/4 760/7/4
f 760/7/4 756/7/4 761/7/4
f 757/2/4 758/2/4 762/2/4
f 758/2/4 749/2/4 763/2/4
f 762/2/4 758/2/4 763/2/4
f 763/2/4 749/2/4 764/2/4
f 759/7/4 760/7/4 765/7/4
f 765/7/4 760/7/4 766/7/4
f 767/2/4 768/2/4 769/2/4
f 769/2/4 768/2/4 770/2/4
f 771/7/4 772/7/4 773/7/4
f 773/7/4 772/7/4 774/7/4
f 775/2/4 776/2/4 777/2/4
f 777/2/4 776/2/4 778/2/4
f 781/2/4 782/2/4 783/2/4
f 783/2/4 782/2/4 784/2/4
f 779/3/4 780/3/4 785/3/4
f 785/3/4 780/3/4 786/3/4
f 786/7/4 787/7/4 789/7/4
f 789/7/4 787/7/4 790/7/4
f 791/2/4 792/2/4 793/2/4
f 793/2/4 792/2/4 794/2/4
f 788/3/4 789/3/4 795/3/4
f 795/3/4 789/3/4 796/3/4
f 797/3/4 798/3/4 801/3/4
f 799/3/4 800/3/4 801/3/4
f 798/3/4 799/3/4 801/3/4
f 801/3/4 800/3/4 802/3/4
f 802/3/4 803/3/4 804/3/4
f 802/3/4 804/3/4 806/3/4
f 804/7/4 805/7/4 806/7/4
f 806/7/4 805/7/4 807/7/4
f 802/3/4 806/3/4 809/3/4
f 809/3/4 806/3/4 810/3/4
f 808/3/4 809/3/4 811/3/4
f 811/3/4 809/3/4 812/3/4
f 812/3/4 809/3/4 813/3/4
f 813/3/4 809/3/4 814/3/4
f 815/1/4 816/1/4 819/1/4
f 816/2/4 817/2/4 820/2/4
f 819/1/4 816/1/4 820/1/4
f 820/2/4 817/2/4 821/2/4
f 822/3/4 823/3/4 824/3/4
f 824/3/4 823/3/4 825/3/4
f 818/1/4 819/1/4 826/1/4
f 826/1/4 819/1/4 827/1/4
f 827/1/4 828/1/4 830/1/4
f 828/2/4 829/2/4 831/2/4
f 830/1/4 828/1/4 831/1/4
f 831/2/4 829/2/4 832/2/4
f 833/1/4 834/1/4 836/1/4
f 834/2/4 835/2/4 837/2/4
f 836/1/4 834/1/4 837/1/4
f 837/2/4 835/2/4 838/2/4
f 841/2/5 840/2/5 839/2/5
f 842/2/5 840/2/5 841/2/5
f 847/2/5 844/2/5 843/2/5
f 848/2/5 844/2/5 847/2/5
f 851/2/5 846/2/5 845/2/5
f 852/2/5 846/2/5 851/2/5
f 853/2/5 849/2/5 848/2/5
f 854/2/5 849/2/5 853/2/5
f 857/2/5 851/2/5 850/2/5
f 858/2/5 851/2/5 857/2/5
f 859/2/5 855/2/5 854/2/5
f 860/2/5 855/2/5 859/2/5
f 861/2/5 857/2/5 856/2/5
f 862/2/5 857/2/5 861/2/5
f 868/2/5 864/2/5 863/2/5
f 869/2/5 864/2/5 868/2/5
f 870/2/5 866/2/5 865/2/5
f 871/2/5 866/2/5 870/2/5
f 874/2/5 868/2/5 867/2/5
f 875/2/5 868/2/5 874/2/5
f 876/2/5 872/2/5 871/2/5
f 877/2/5 872/2/5 876/2/5
f 879/2/5 874/2/5 873/2/5
f 880/2/5 874/2/5 879/2/5
f 881/2/5 878/2/5 877/2/5
f 882/2/5 878/2/5 881/2/5
f 886/2/5 884/2/5 883/2/5
f 887/2/5 884/2/5 886/2/5
f 889/2/5 886/2/5 885/2/5
f 890/2/5 886/2/5 889/2/5
f 891/2/5 888/2/5 887/2/5
f 892/2/5 888/2/5 891/2/5
f 893/2/5 891/2/5 890/2/5
f 894/2/5 891/2/5 893/2/5
f 897/1/5 896/1/5 895/1/5
f 898/1/5 896/1/5 897/1/5
f 899/1/5 897/1/5 895/1/5
f 900/1/5 896/1/5 898/1/5
f 901/1/5 899/1/5 895/1/5
f 901/1/5 900/1/5 899/1/5
f 902/1/5 896/1/5 900/1/5
f 902/1/5 900/1/5 901/1/5
f 906/1/5 904/1/5 903/1/5
f 907/1/5 904/1/5 906/1/5
f 909/1/5 906/1/5 905/1/5
f 910/1/5 906/1/5 909/1/5
f 911/1/5 908/1/5 907/1/5
f 912/1/5 908/1/5 911/1/5
f 913/1/5 911/1/5 910/1/5
f 914/1/5 911/1/5 913/1/5
f 917/5/5 916/5/5 915/5/5
f 918/5/5 916/5/5 917/5/5
f 923/5/5 920/5/5 919/5/5
f 924/5/5 920/5/5 923/5/5
f 925/5/5 922/5/5 921/5/5
f 926/5/5 922/5/5 925/5/5
f 929/3/5 928/3/5 927/3/5
f 930/3/5 928/3/5 929/3/5
f 936/6/5 932/6/5 931/6/5
f 937/6/5 932/6/5 936/6/5
f 941/4/5 934/4/5 933/4/5
f 942/4/5 934/4/5 941/4/5
f 943/9/5 935/9/5 934/9/5
f 943/4/5 934/4/5 942/4/5
f 944/4/5 936/4/5 935/4/5
f 944/9/5 935/9/5 943/9/5
f 945/6/5 937/6/5 936/6/5
f 945/4/5 936/4/5 944/4/5
f 946/4/5 938/4/5 937/4/5
f 946/6/5 937/6/5 945/6/5
f 947/9/5 939/9/5 938/9/5
f 947/4/5 938/4/5 946/4/5
f 948/4/5 940/4/5 939/4/5
f 948/9/5 939/9/5 947/9/5
f 949/4/5 940/4/5 948/4/5
f 952/3/5 951/3/5 950/3/5
f 953/3/5 951/3/5 952/3/5
f 954/3/5 952/3/5 950/3/5
f 955/3/5 951/3/5 953/3/5
f 956/3/5 954/3/5 950/3/5
f 956/3/5 955/3/5 954/3/5
f 957/3/5 951/3/5 955/3/5
f 957/3/5 955/3/5 956/3/5
f 962/4/5 959/4/5 958/4/5
f 963/4/5 961/4/5 960/4/5
f 966/4/5 962/4/5 958/4/5
f 967/4/5 962/4/5 966/4/5
f 968/4/5 961/4/5 963/4/5
f 969/4/5 961/4/5 968/4/5
f 970/3/5 965/3/5 964/3/5
f 971/3/5 965/3/5 970/3/5
f 974/7/5 973/7/5 972/7/5
f 975/7/5 973/7/5 974/7/5
f 978/7/5 977/7/5 976/7/5
f 979/7/5 977/7/5 978/7/5
f 980/2/6 981/2/6 984/2/6
f 984/2/6 981/2/6 985/2/6
f 982/2/6 983/2/6 988/2/6
f 988/2/6 983/2/6 989/2/6
f 985/2/6 986/2/6 990/2/6
f 990/2/6 986/2/6 991/2/6
f 987/2/6 988/2/6 992/2/6
f 992/2/6 988/2/6 993/2/6
f 994/2/6 995/2/6 999/2/6
f 999/2/6 995/2/6 1000/2/6
f 996/2/6 997/2/6 1001/2/6
f 1001/2/6 997/2/6 1002/2/6
f 998/2/6 999/2/6 1004/2/6
f 1004/2/6 999/2/6 1005/2/6
f 1002/2/6 1003/2/6 1006/2/6
f 1006/2/6 1003/2/6 1007/2/6
f 1008/1/6 1009/1/6 1012/1/6
f 1012/1/6 1009/1/6 1013/1/6
f 1010/1/6 1011/1/6 1014/1/6
f 1014/1/6 1011/1/6 1015/1/6
f 1013/1/6 1014/1/6 1016/1/6
f 1013/1/6 1016/1/6 1018/1/6
f 1016/1/6 1017/1/6 1018/1/6
f 1018/1/6 1017/1/6 1019/1/6
f 1013/1/6 1018/1/6 1020/1/6
f 1018/10/6 1019/10/6 1021/10/6
f 1020/1/6 1018/1/6 1021/1/6
f 1019/1/6 1017/1/6 1022/1/6
f 1021/10/6 1019/10/6 1022/10/6
f 1022/1/6 1017/1/6 1023/1/6
f 1020/10/6 1021/10/6 1024/10/6
f 1013/1/6 1020/1/6 1024/1/6
f 1022/10/6 1023/10/6 1024/10/6
f 1021/10/6 1022/10/6 1024/10/6
f 1024/10/6 1023/10/6 1025/10/6
f 1025/10/6 1023/10/6 1026/10/6
f 1023/1/6 1017/1/6 1027/1/6
f 1026/10/6 1023/10/6 1027/10/6
f 1025/10/6 1026/10/6 1028/10/6
f 1024/1/6 1025/1/6 1028/1/6
f 1026/1/6 1027/1/6 1029/1/6
f 1028/10/6 1026/10/6 1029/10/6
f 1027/1/6 1017/1/6 1030/1/6
f 1029/1/6 1027/1/6 1030/1/6
f 1028/1/6 1029/1/6 1030/1/6
f 1030/1/6 1017/1/6 1031/1/6
f 1024/1/6 1028/1/6 1033/1/6
f 1013/1/6 1024/1/6 1033/1/6
f 1028/1/6 1030/1/6 1033/1/6
f 1033/1/6 1030/1/6 1034/1/6
f 1032/1/6 1033/1/6 1036/1/6
f 1036/1/6 1033/1/6 1037/1/6
f 1034/1/6 1035/1/6 1038/1/6
f 1038/1/6 1035/1/6 1039/1/6
f 1040/5/6 1041/5/6 1044/5/6
f 1044/5/6 1041/5/6 1045/5/6
f 1042/8/6 1043/8/6 1046/8/6
f 1046/8/6 1043/8/6 1047/8/6
f 1048/5/6 1049/5/6 1051/5/6
f 1049/8/6 1050/8/6 1052/8/6
f 1051/5/6 1049/5/6 1052/5/6
f 1052/8/6 1050/8/6 1053/8/6
f 1054/2/6 1055/2/6 1057/2/6
f 1057/2/6 1055/2/6 1058/2/6
f 1058/2/6 1055/2/6 1059/2/6
f 1059/2/6 1055/2/6 1060/2/6
f 1056/2/6 1057/2/6 1062/2/6
f 1060/2/6 1061/2/6 1063/2/6
f 1056/2/6 1062/2/6 1064/2/6
f 1063/2/6 1061/2/6 1065/2/6
f 1056/2/6 1064/2/6 1066/2/6
f 1066/2/6 1064/2/6 1067/2/6
f 1065/2/6 1061/2/6 1070/2/6
f 1070/2/6 1061/2/6 1071/2/6
f 1068/2/6 1069/2/6 1072/2/6
f 1069/2/6 1070/2/6 1072/2/6
f 1067/2/6 1068/2/6 1072/2/6
f 1072/2/6 1070/2/6 1073/2/6
f 1074/6/6 1075/6/6 1076/6/6
f 1076/6/6 1075/6/6 1077/6/6
f 1078/3/6 1079/3/6 1083/3/6
f 1083/3/6 1079/3/6 1084/3/6
f 1080/3/6 1081/3/6 1085/3/6
f 1085/3/6 1081/3/6 1086/3/6
f 1082/3/6 1083/3/6 1088/3/6
f 1088/3/6 1083/3/6 1089/3/6
f 1086/3/6 1087/3/6 1090/3/6
f 1090/3/6 1087/3/6 1091/3/6
f 1092/3/6 1093/3/6 1096/3/6
f 1096/3/6 1093/3/6 1097/3/6
f 1094/3/6 1095/3/6 1098/3/6
f 1098/3/6 1095/3/6 1099/3/6
f 1097/3/6 1098/3/6 1100/3/6
f 1100/3/6 1098/3/6 1101/3/6
f 1102/4/6 1103/4/6 1106/4/6
f 1106/4/6 1103/4/6 1107/4/6
f 1104/3/6 1105/3/6 1111/3/6
f 1111/3/6 1105/3/6 1112/3/6
f 1108/3/6 1109/3/6 1113/3/6
f 1113/3/6 1109/3/6 1114/3/6
f 1110/3/6 1111/3/6 1117/3/6
f 1114/3/6 1115/3/6 1118/3/6
f 1116/4/6 1117/4/6 1120/4/6
f 1117/3/6 1111/3/6 1121/3/6
f 1120/4/6 1117/4/6 1121/4/6
f 1118/4/6 1119/4/6 1122/4/6
f 1114/3/6 1118/3/6 1122/3/6
f 1122/4/6 1119/4/6 1123/4/6
f 1121/3/6 1111/3/6 1124/3/6
f 1114/3/6 1122/3/6 1127/3/6
f 1124/3/6 1125/3/6 1128/3/6
f 1121/3/6 1124/3/6 1128/3/6
f 1128/3/6 1125/3/6 1129/3/6
f 1126/3/6 1127/3/6 1130/3/6
f 1127/3/6 1122/3/6 1131/3/6
f 1130/3/6 1127/3/6 1131/3/6
f 1132/4/6 1133/4/6 1136/4/6
f 1136/4/6 1133/4/6 1137/4/6
f 1137/4/6 1133/4/6 1138/4/6
f 1134/4/6 1135/4/6 1141/4/6
f 1141/4/6 1135/4/6 1142/4/6
f 1142/4/6 1135/4/6 1143/4/6
f 1138/3/6 1139/3/6 1145/3/6
f 1137/3/6 1138/3/6 1145/3/6
f 1145/3/6 1139/3/6 1146/3/6
f 1146/3/6 1139/3/6 1147/3/6
f 1141/3/6 1142/3/6 1148/3/6
f 1140/3/6 1141/3/6 1148/3/6
f 1148/3/6 1142/3/6 1149/3/6
f 1149/3/6 1142/3/6 1150/3/6
f 1132/4/6 1136/4/6 1152/4/6
f 1152/4/6 1136/4/6 1153/4/6
f 1143/4/6 1135/4/6 1154/4/6
f 1154/4/6 1135/4/6 1155/4/6
f 1145/3/6 1146/3/6 1156/3/6
f 1144/3/6 1145/3/6 1156/3/6
f 1156/3/6 1146/3/6 1157/3/6
f 1150/3/6 1151/3/6 1158/3/6
f 1149/3/6 1150/3/6 1158/3/6
f 1158/3/6 1151/3/6 1159/3/6
f 1157/7/6 1158/7/6 1160/7/6
f 1160/7/6 1158/7/6 1161/7/6
f 1162/7/6 1163/7/6 1166/7/6
f 1164/7/6 1165/7/6 1167/7/6
f 1162/7/6 1166/7/6 1168/7/6
f 1166/7/6 1167/7/6 1168/7/6
f 1167/7/6 1165/7/6 1169/7/6
f 1168/7/6 1167/7/6 1169/7/6
f 1170/7/6 1171/7/6 1174/7/6
f 1174/7/6 1171/7/6 1175/7/6
f 1172/7/6 1173/7/6 1176/7/6
f 1176/7/6 1173/7/6 1177/7/6
f 1178/7/6 1179/7/6 1182/7/6
f 1182/7/6 1179/7/6 1183/7/6
f 1180/7/6 1181/7/6 1184/7/6
f 1184/7/6 1181/7/6 1185/7/6
f 1183/7/6 1184/7/6 1186/7/6
f 1186/7/6 1184/7/6 1187/7/6
f 1188/7/6 1189/7/6 1192/7/6
f 1192/7/6 1189/7/6 1193/7/6
f 1190/7/6 1191/7/6 1194/7/6
f 1194/7/6 1191/7/6 1195/7/6
f 1196/7/6 1197/7/6 1198/7/6
f 1198/7/6 1197/7/6 1199/7/6
f 1200/7/6 1201/7/6 1202/7/6
f 1202/7/6 1201/7/6 1203/7/6
