# Blender 5.0.0
# www.blender.org
mtllib BossDamage.mtl
o Untitled
v -0.773772 -0.792059 0.310122
v -0.773772 -0.792059 -0.789878
v -0.773772 -0.092059 0.310122
v -0.773772 -0.092059 -0.789878
v -0.773772 0.007941 0.310122
v -0.773772 0.007941 -0.789878
v -0.673772 -0.892059 0.310122
v -0.673772 -0.892059 -0.789878
v -0.673772 -0.792059 0.410122
v -0.673772 -0.792059 0.310122
v -0.673772 -0.792059 -0.789878
v -0.673772 -0.792059 -0.889878
v -0.673772 -0.092059 0.410122
v -0.673772 -0.092059 0.310122
v -0.673772 -0.092059 -0.789878
v -0.673772 -0.092059 -0.889878
v -0.673772 0.007941 0.410122
v -0.673772 0.007941 0.310122
v -0.673772 0.007941 0.210122
v -0.673772 0.007941 -0.689878
v -0.673772 0.007941 -0.789878
v -0.673772 0.007941 -0.889878
v -0.673772 0.207941 0.210122
v -0.673772 0.207941 -0.689878
v -0.673772 0.407941 0.510122
v -0.673772 0.407941 0.410122
v -0.673772 0.507941 -0.189878
v -0.673772 0.507941 -0.289878
v -0.673772 0.607941 0.410122
v -0.673772 0.607941 -0.189878
v -0.673772 0.607941 -0.289878
v -0.673772 0.707941 0.510122
v -0.673772 0.707941 -0.189878
v -0.573772 -0.792059 0.310122
v -0.573772 -0.792059 0.210122
v -0.573772 -0.792059 -0.689878
v -0.573772 -0.792059 -0.789878
v -0.573772 -0.092059 0.310122
v -0.573772 -0.092059 -0.789878
v -0.573772 0.007941 0.310122
v -0.573772 0.007941 -0.789878
v -0.573772 0.107941 0.410122
v -0.573772 0.107941 0.310122
v -0.573772 0.207941 0.310122
v -0.573772 0.207941 0.210122
v -0.573772 0.207941 -0.689878
v -0.573772 0.207941 -0.789878
v -0.573772 0.307941 0.210122
v -0.573772 0.307941 -0.689878
v -0.573772 0.407941 0.410122
v -0.573772 0.507941 0.410122
v -0.573772 0.507941 0.310122
v -0.473772 0.207941 0.310122
v -0.473772 0.207941 0.210122
v -0.473772 0.307941 0.310122
v -0.473772 0.307941 0.210122
v -0.473772 0.307941 -0.589878
v -0.473772 0.407941 0.210122
v -0.473772 0.407941 -0.589878
v -0.373772 -1.092059 -0.189878
v -0.373772 -1.092059 -0.289878
v -0.373772 -0.992059 -0.189878
v -0.373772 -0.992059 -0.289878
v -0.373772 0.307941 0.310122
v -0.373772 0.307941 0.210122
v -0.373772 0.407941 0.310122
v -0.373772 0.407941 0.210122
v -0.273772 -0.592059 0.510122
v -0.273772 -0.592059 0.410122
v -0.273772 -0.292059 0.510122
v -0.273772 -0.292059 0.410122
v -0.173772 -0.992059 -0.089878
v -0.173772 -0.992059 -0.189878
v -0.173772 -0.992059 -0.289878
v -0.173772 -0.992059 -0.389878
v -0.173772 -0.892059 -0.089878
v -0.173772 -0.892059 -0.389878
v -0.173772 -0.692059 0.510122
v -0.173772 -0.692059 0.410122
v -0.173772 -0.592059 0.510122
v -0.173772 -0.592059 0.410122
v -0.173772 -0.292059 0.510122
v -0.173772 -0.292059 0.410122
v -0.173772 -0.192059 0.510122
v -0.173772 -0.192059 0.410122
v -0.173772 0.007941 0.610122
v -0.173772 0.007941 0.410122
v -0.173772 0.007941 0.310122
v -0.173772 0.107941 0.610122
v -0.173772 0.107941 0.410122
v -0.173772 0.107941 0.310122
v -0.173772 0.207941 0.610122
v -0.173772 0.207941 0.410122
v -0.173772 0.307941 0.610122
v -0.173772 0.307941 0.410122
v -0.173772 0.307941 -0.589878
v -0.173772 0.307941 -0.689878
v -0.173772 0.407941 0.210122
v -0.173772 0.407941 -0.589878
v -0.173772 0.407941 -0.689878
v -0.173772 0.507941 -0.389878
v -0.173772 0.507941 -0.589878
v -0.173772 0.607941 0.210122
v -0.173772 0.607941 0.110122
v -0.173772 0.607941 -0.089878
v -0.173772 0.607941 -0.389878
v -0.173772 0.707941 0.110122
v -0.173772 0.707941 -0.089878
v -0.073772 -1.192059 -0.189878
v -0.073772 -1.192059 -0.289878
v -0.073772 -1.092059 0.110122
v -0.073772 -1.092059 -0.189878
v -0.073772 -1.092059 -0.289878
v -0.073772 -1.092059 -0.589878
v -0.073772 -0.992059 0.110122
v -0.073772 -0.992059 -0.089878
v -0.073772 -0.992059 -0.189878
v -0.073772 -0.992059 -0.289878
v -0.073772 -0.992059 -0.389878
v -0.073772 -0.992059 -0.589878
v -0.073772 0.407941 0.310122
v -0.073772 0.407941 0.210122
v -0.073772 0.507941 -0.389878
v -0.073772 0.507941 -0.489878
v -0.073772 0.607941 0.410122
v -0.073772 0.607941 0.310122
v -0.073772 0.607941 0.210122
v -0.073772 0.607941 0.110122
v -0.073772 0.607941 -0.089878
v -0.073772 0.607941 -0.389878
v -0.073772 0.607941 -0.489878
v -0.073772 0.707941 0.510122
v -0.073772 0.707941 0.410122
v -0.073772 0.707941 0.110122
v -0.073772 0.707941 -0.089878
v -0.073772 0.707941 -0.189878
v -0.073772 0.707941 -0.389878
v -0.073772 0.807941 0.510122
v -0.073772 0.807941 -0.189878
v 0.126228 0.307941 0.410122
v 0.126228 0.307941 0.310122
v 0.126228 0.407941 0.510122
v 0.126228 0.407941 0.410122
v 0.126228 0.407941 0.310122
v 0.126228 0.507941 0.510122
v 0.126228 0.507941 0.410122
v 0.126228 0.607941 0.510122
v 0.126228 0.607941 0.410122
v 0.126228 0.707941 0.510122
v 0.126228 0.707941 0.410122
v 0.426228 0.207941 0.110122
v 0.426228 0.207941 -0.589878
v 0.426228 0.307941 0.110122
v 0.426228 0.307941 -0.589878
v 0.526228 -0.792059 0.210122
v 0.526228 -0.792059 0.110122
v 0.526228 -0.792059 -0.589878
v 0.526228 -0.792059 -0.689878
v 0.526228 0.007941 0.110122
v 0.526228 0.007941 -0.589878
v 0.526228 0.207941 0.210122
v 0.526228 0.207941 -0.689878
v 0.526228 0.507941 -0.189878
v 0.526228 0.507941 -0.289878
v 0.526228 0.607941 0.410122
v 0.526228 0.607941 -0.189878
v 0.526228 0.607941 -0.289878
v 0.526228 0.707941 0.410122
v 0.526228 0.707941 -0.189878
v 0.626229 -0.792059 0.310122
v 0.626229 -0.792059 0.210122
v 0.626229 -0.792059 0.110122
v 0.626229 -0.792059 -0.589878
v 0.626229 -0.792059 -0.689878
v 0.626229 -0.792059 -0.789878
v 0.626229 -0.092059 0.310122
v 0.626229 -0.092059 0.210122
v 0.626229 -0.092059 0.110122
v 0.626229 -0.092059 -0.589878
v 0.626229 -0.092059 -0.689878
v 0.626229 -0.092059 -0.789878
v 0.626229 0.007941 0.310122
v 0.626229 0.007941 0.210122
v 0.626229 0.007941 0.110122
v 0.626229 0.007941 -0.589878
v 0.626229 0.007941 -0.689878
v 0.626229 0.007941 -0.789878
v -0.673772 -0.792059 0.310122
v -0.673772 -0.792059 0.210122
v -0.673772 -0.792059 -0.689878
v -0.673772 -0.792059 -0.789878
v -0.673772 -0.092059 0.310122
v -0.673772 -0.092059 0.210122
v -0.673772 -0.092059 -0.689878
v -0.673772 -0.092059 -0.789878
v -0.673772 0.007941 0.310122
v -0.673772 0.007941 0.210122
v -0.673772 0.007941 -0.689878
v -0.673772 0.007941 -0.789878
v -0.573772 -0.792059 0.210122
v -0.573772 -0.792059 -0.689878
v -0.573772 0.207941 0.210122
v -0.573772 0.207941 -0.689878
v -0.573772 0.507941 -0.189878
v -0.573772 0.507941 -0.289878
v -0.573772 0.607941 0.410122
v -0.573772 0.607941 -0.189878
v -0.573772 0.607941 -0.289878
v -0.573772 0.707941 0.410122
v -0.573772 0.707941 -0.189878
v -0.473772 0.207941 0.110122
v -0.473772 0.207941 -0.589878
v -0.473772 0.307941 0.110122
v -0.473772 0.307941 -0.589878
v -0.173772 0.307941 0.410122
v -0.173772 0.307941 0.310122
v -0.173772 0.407941 0.510122
v -0.173772 0.407941 0.410122
v -0.173772 0.407941 0.310122
v -0.173772 0.507941 0.510122
v -0.173772 0.507941 0.410122
v -0.173772 0.507941 0.310122
v -0.173772 0.607941 0.510122
v -0.173772 0.607941 0.410122
v -0.173772 0.707941 0.510122
v -0.173772 0.707941 0.410122
v 0.026228 -1.192059 -0.189878
v 0.026228 -1.192059 -0.289878
v 0.026228 -1.092059 0.110122
v 0.026228 -1.092059 -0.189878
v 0.026228 -1.092059 -0.289878
v 0.026228 -1.092059 -0.589878
v 0.026228 -0.992059 0.110122
v 0.026228 -0.992059 -0.089878
v 0.026228 -0.992059 -0.189878
v 0.026228 -0.992059 -0.289878
v 0.026228 -0.992059 -0.389878
v 0.026228 -0.992059 -0.589878
v 0.026228 0.407941 0.310122
v 0.026228 0.407941 0.210122
v 0.026228 0.507941 -0.389878
v 0.026228 0.507941 -0.489878
v 0.026228 0.607941 0.410122
v 0.026228 0.607941 0.310122
v 0.026228 0.607941 0.210122
v 0.026228 0.607941 0.110122
v 0.026228 0.607941 -0.089878
v 0.026228 0.607941 -0.389878
v 0.026228 0.607941 -0.489878
v 0.026228 0.707941 0.510122
v 0.026228 0.707941 0.410122
v 0.026228 0.707941 0.110122
v 0.026228 0.707941 -0.089878
v 0.026228 0.707941 -0.189878
v 0.026228 0.707941 -0.389878
v 0.026228 0.807941 0.510122
v 0.026228 0.807941 -0.189878
v 0.126228 -0.992059 -0.089878
v 0.126228 -0.992059 -0.189878
v 0.126228 -0.992059 -0.289878
v 0.126228 -0.992059 -0.389878
v 0.126228 -0.892059 -0.089878
v 0.126228 -0.892059 -0.389878
v 0.126228 -0.692059 0.510122
v 0.126228 -0.692059 0.410122
v 0.126228 -0.592059 0.510122
v 0.126228 -0.592059 0.410122
v 0.126228 -0.292059 0.510122
v 0.126228 -0.292059 0.410122
v 0.126228 -0.192059 0.510122
v 0.126228 -0.192059 0.410122
v 0.126228 0.007941 0.610122
v 0.126228 0.007941 0.410122
v 0.126228 0.007941 0.310122
v 0.126228 0.107941 0.610122
v 0.126228 0.107941 0.410122
v 0.126228 0.107941 0.310122
v 0.126228 0.207941 0.610122
v 0.126228 0.207941 0.410122
v 0.126228 0.307941 0.610122
v 0.126228 0.307941 0.410122
v 0.126228 0.307941 -0.589878
v 0.126228 0.307941 -0.689878
v 0.126228 0.407941 0.210122
v 0.126228 0.407941 -0.589878
v 0.126228 0.407941 -0.689878
v 0.126228 0.507941 -0.389878
v 0.126228 0.507941 -0.589878
v 0.126228 0.607941 0.210122
v 0.126228 0.607941 0.110122
v 0.126228 0.607941 -0.089878
v 0.126228 0.607941 -0.389878
v 0.126228 0.707941 0.110122
v 0.126228 0.707941 -0.089878
v 0.226228 -0.592059 0.510122
v 0.226228 -0.592059 0.410122
v 0.226228 -0.492059 0.510122
v 0.226228 -0.492059 0.410122
v 0.226228 -0.292059 0.510122
v 0.226228 -0.292059 0.410122
v 0.326228 -1.092059 -0.189878
v 0.326228 -1.092059 -0.289878
v 0.326228 -0.992059 -0.189878
v 0.326228 -0.992059 -0.289878
v 0.326228 0.307941 0.310122
v 0.326228 0.307941 0.210122
v 0.326228 0.407941 0.310122
v 0.326228 0.407941 0.210122
v 0.426228 0.107941 0.410122
v 0.426228 0.107941 0.310122
v 0.426228 0.207941 0.310122
v 0.426228 0.207941 0.210122
v 0.426228 0.307941 0.310122
v 0.426228 0.307941 0.210122
v 0.426228 0.307941 -0.589878
v 0.426228 0.407941 0.410122
v 0.426228 0.407941 0.310122
v 0.426228 0.407941 0.210122
v 0.426228 0.407941 -0.589878
v 0.526228 -0.792059 0.310122
v 0.526228 -0.792059 0.210122
v 0.526228 -0.792059 -0.689878
v 0.526228 -0.792059 -0.789878
v 0.526228 -0.092059 0.310122
v 0.526228 -0.092059 -0.789878
v 0.526228 0.007941 0.310122
v 0.526228 0.007941 -0.789878
v 0.526228 0.207941 0.310122
v 0.526228 0.207941 0.210122
v 0.526228 0.207941 -0.689878
v 0.526228 0.207941 -0.789878
v 0.526228 0.307941 0.210122
v 0.526228 0.307941 -0.689878
v 0.626229 -0.892059 0.310122
v 0.626229 -0.892059 -0.789878
v 0.626229 -0.792059 0.410122
v 0.626229 -0.792059 0.310122
v 0.626229 -0.792059 -0.789878
v 0.626229 -0.792059 -0.889878
v 0.626229 -0.092059 0.410122
v 0.626229 -0.092059 0.310122
v 0.626229 -0.092059 -0.789878
v 0.626229 -0.092059 -0.889878
v 0.626229 0.007941 0.410122
v 0.626229 0.007941 0.310122
v 0.626229 0.007941 0.210122
v 0.626229 0.007941 -0.689878
v 0.626229 0.007941 -0.789878
v 0.626229 0.007941 -0.889878
v 0.626229 0.207941 0.210122
v 0.626229 0.207941 -0.689878
v 0.626229 0.407941 0.510122
v 0.626229 0.407941 0.410122
v 0.626229 0.507941 0.510122
v 0.626229 0.507941 0.410122
v 0.626229 0.507941 -0.189878
v 0.626229 0.507941 -0.289878
v 0.626229 0.607941 0.510122
v 0.626229 0.607941 0.410122
v 0.626229 0.607941 -0.189878
v 0.626229 0.607941 -0.289878
v 0.626229 0.707941 0.510122
v 0.626229 0.707941 -0.189878
v 0.726228 -0.792059 0.310122
v 0.726228 -0.792059 -0.789878
v 0.726228 -0.092059 0.310122
v 0.726228 -0.092059 -0.789878
v 0.726228 0.007941 0.310122
v 0.726228 0.007941 -0.789878
v -0.173772 0.007941 0.610122
v -0.173772 0.107941 0.610122
v -0.173772 0.207941 0.610122
v -0.173772 0.307941 0.610122
v 0.126228 0.007941 0.610122
v 0.126228 0.107941 0.610122
v 0.126228 0.207941 0.610122
v 0.126228 0.307941 0.610122
v -0.673772 0.407941 0.510122
v -0.673772 0.707941 0.510122
v -0.373772 0.407941 0.510122
v -0.373772 0.507941 0.510122
v -0.273772 -0.592059 0.510122
v -0.273772 -0.292059 0.510122
v -0.273772 0.407941 0.510122
v -0.273772 0.507941 0.510122
v -0.273772 0.607941 0.510122
v -0.173772 -0.692059 0.510122
v -0.173772 -0.592059 0.510122
v -0.173772 -0.292059 0.510122
v -0.173772 -0.192059 0.510122
v -0.173772 0.407941 0.510122
v -0.173772 0.507941 0.510122
v -0.173772 0.607941 0.510122
v -0.173772 0.707941 0.510122
v -0.073772 -0.292059 0.510122
v -0.073772 -0.192059 0.510122
v -0.073772 0.707941 0.510122
v -0.073772 0.807941 0.510122
v 0.026228 -0.392059 0.510122
v 0.026228 -0.292059 0.510122
v 0.026228 0.707941 0.510122
v 0.026228 0.807941 0.510122
v 0.126228 -0.692059 0.510122
v 0.126228 -0.592059 0.510122
v 0.126228 -0.492059 0.510122
v 0.126228 -0.392059 0.510122
v 0.126228 -0.292059 0.510122
v 0.126228 -0.192059 0.510122
v 0.126228 0.407941 0.510122
v 0.126228 0.507941 0.510122
v 0.126228 0.607941 0.510122
v 0.126228 0.707941 0.510122
v 0.226228 -0.592059 0.510122
v 0.226228 -0.492059 0.510122
v 0.226228 -0.292059 0.510122
v 0.426228 0.407941 0.510122
v 0.426228 0.507941 0.510122
v 0.526228 0.407941 0.510122
v 0.526228 0.507941 0.510122
v 0.526228 0.607941 0.510122
v 0.626229 0.407941 0.510122
v 0.626229 0.507941 0.510122
v 0.626229 0.607941 0.510122
v 0.626229 0.707941 0.510122
v -0.673772 -0.792059 0.410122
v -0.673772 -0.092059 0.410122
v -0.673772 0.007941 0.410122
v -0.573772 0.107941 0.410122
v -0.573772 0.407941 0.410122
v -0.473772 0.207941 0.410122
v -0.473772 0.407941 0.410122
v -0.373772 0.407941 0.410122
v -0.273772 -0.592059 0.410122
v -0.273772 -0.292059 0.410122
v -0.273772 0.207941 0.410122
v -0.273772 0.407941 0.410122
v -0.173772 -0.692059 0.410122
v -0.173772 -0.592059 0.410122
v -0.173772 -0.292059 0.410122
v -0.173772 -0.192059 0.410122
v -0.173772 0.007941 0.410122
v -0.173772 0.107941 0.410122
v -0.173772 0.207941 0.410122
v -0.173772 0.307941 0.410122
v -0.173772 0.407941 0.410122
v -0.073772 -0.192059 0.410122
v -0.073772 0.607941 0.410122
v -0.073772 0.707941 0.410122
v 0.026228 0.607941 0.410122
v 0.026228 0.707941 0.410122
v 0.126228 -0.692059 0.410122
v 0.126228 -0.592059 0.410122
v 0.126228 -0.292059 0.410122
v 0.126228 -0.192059 0.410122
v 0.126228 0.007941 0.410122
v 0.126228 0.107941 0.410122
v 0.126228 0.207941 0.410122
v 0.126228 0.307941 0.410122
v 0.126228 0.407941 0.410122
v 0.226228 -0.592059 0.410122
v 0.226228 -0.492059 0.410122
v 0.226228 -0.292059 0.410122
v 0.226228 0.207941 0.410122
v 0.226228 0.307941 0.410122
v 0.326228 0.207941 0.410122
v 0.326228 0.307941 0.410122
v 0.426228 0.107941 0.410122
v 0.426228 0.407941 0.410122
v 0.626229 -0.792059 0.410122
v 0.626229 -0.092059 0.410122
v 0.626229 0.007941 0.410122
v -0.773772 -0.792059 0.310122
v -0.773772 -0.092059 0.310122
v -0.773772 0.007941 0.310122
v -0.673772 -0.892059 0.310122
v -0.673772 -0.792059 0.310122
v -0.673772 -0.092059 0.310122
v -0.673772 0.007941 0.310122
v -0.573772 0.007941 0.310122
v -0.573772 0.107941 0.310122
v -0.173772 0.007941 0.310122
v -0.173772 0.107941 0.310122
v -0.173772 0.307941 0.310122
v -0.173772 0.407941 0.310122
v -0.073772 0.407941 0.310122
v -0.073772 0.607941 0.310122
v 0.026228 0.407941 0.310122
v 0.026228 0.607941 0.310122
v 0.126228 0.007941 0.310122
v 0.126228 0.107941 0.310122
v 0.126228 0.307941 0.310122
v 0.126228 0.407941 0.310122
v 0.426228 0.107941 0.310122
v 0.426228 0.207941 0.310122
v 0.526228 0.007941 0.310122
v 0.526228 0.207941 0.310122
v 0.626229 -0.892059 0.310122
v 0.626229 -0.792059 0.310122
v 0.626229 -0.092059 0.310122
v 0.626229 0.007941 0.310122
v 0.726228 -0.792059 0.310122
v 0.726228 -0.092059 0.310122
v 0.726228 0.007941 0.310122
v -0.673772 -0.792059 0.210122
v -0.673772 -0.092059 0.210122
v -0.673772 0.007941 0.210122
v -0.673772 0.207941 0.210122
v -0.573772 -0.792059 0.210122
v -0.573772 0.207941 0.210122
v -0.573772 0.307941 0.210122
v -0.473772 0.207941 0.210122
v -0.473772 0.307941 0.210122
v -0.473772 0.407941 0.210122
v -0.373772 0.307941 0.210122
v -0.373772 0.407941 0.210122
v -0.173772 0.407941 0.210122
v -0.173772 0.607941 0.210122
v -0.073772 0.407941 0.210122
v -0.073772 0.607941 0.210122
v 0.026228 0.407941 0.210122
v 0.026228 0.607941 0.210122
v 0.126228 0.407941 0.210122
v 0.126228 0.607941 0.210122
v 0.326228 0.307941 0.210122
v 0.326228 0.407941 0.210122
v 0.426228 0.207941 0.210122
v 0.426228 0.307941 0.210122
v 0.426228 0.407941 0.210122
v 0.526228 -0.792059 0.210122
v 0.526228 0.207941 0.210122
v 0.526228 0.307941 0.210122
v 0.626229 -0.792059 0.210122
v 0.626229 -0.092059 0.210122
v 0.626229 0.007941 0.210122
v 0.626229 0.207941 0.210122
v -0.173772 0.607941 0.110122
v -0.173772 0.707941 0.110122
v -0.073772 -1.092059 0.110122
v -0.073772 -0.992059 0.110122
v -0.073772 0.607941 0.110122
v -0.073772 0.707941 0.110122
v 0.026228 -1.092059 0.110122
v 0.026228 -0.992059 0.110122
v 0.026228 0.607941 0.110122
v 0.026228 0.707941 0.110122
v 0.126228 0.607941 0.110122
v 0.126228 0.707941 0.110122
v -0.173772 -0.992059 -0.089878
v -0.173772 -0.892059 -0.089878
v -0.073772 -0.992059 -0.089878
v 0.026228 -0.992059 -0.089878
v 0.126228 -0.992059 -0.089878
v 0.126228 -0.892059 -0.089878
v -0.673772 0.507941 -0.189878
v -0.673772 0.607941 -0.189878
v -0.573772 0.507941 -0.189878
v -0.573772 0.607941 -0.189878
v -0.373772 -1.092059 -0.189878
v -0.373772 -0.992059 -0.189878
v -0.173772 -0.992059 -0.189878
v -0.073772 -1.192059 -0.189878
v -0.073772 -1.092059 -0.189878
v -0.073772 -0.992059 -0.189878
v 0.026228 -1.192059 -0.189878
v 0.026228 -1.092059 -0.189878
v 0.026228 -0.992059 -0.189878
v 0.126228 -0.992059 -0.189878
v 0.326228 -1.092059 -0.189878
v 0.326228 -0.992059 -0.189878
v 0.526228 0.507941 -0.189878
v 0.526228 0.607941 -0.189878
v 0.626229 0.507941 -0.189878
v 0.626229 0.607941 -0.189878
v -0.473772 0.207941 -0.589878
v -0.473772 0.307941 -0.589878
v 0.426228 0.207941 -0.589878
v 0.426228 0.307941 -0.589878
v 0.526228 -0.792059 -0.589878
v 0.526228 0.007941 -0.589878
v 0.626229 -0.792059 -0.589878
v 0.626229 -0.092059 -0.589878
v 0.626229 0.007941 -0.589878
v -0.573772 -0.792059 -0.689878
v -0.573772 0.207941 -0.689878
v 0.526228 -0.792059 -0.689878
v 0.526228 0.207941 -0.689878
v -0.673772 -0.792059 -0.789878
v -0.673772 -0.092059 -0.789878
v -0.673772 0.007941 -0.789878
v -0.573772 -0.792059 -0.789878
v -0.573772 -0.092059 -0.789878
v -0.573772 0.007941 -0.789878
v 0.526228 -0.792059 -0.789878
v 0.526228 -0.092059 -0.789878
v 0.526228 0.007941 -0.789878
v 0.626229 -0.792059 -0.789878
v 0.626229 -0.092059 -0.789878
v 0.626229 0.007941 -0.789878
v -0.673772 0.407941 0.410122
v -0.673772 0.607941 0.410122
v -0.573772 0.407941 0.410122
v -0.573772 0.507941 0.410122
v -0.573772 0.607941 0.410122
v -0.573772 0.707941 0.410122
v -0.273772 0.507941 0.410122
v -0.273772 0.607941 0.410122
v -0.173772 0.507941 0.410122
v -0.173772 0.607941 0.410122
v -0.173772 0.707941 0.410122
v -0.073772 0.607941 0.410122
v 0.026228 0.607941 0.410122
v 0.126228 0.407941 0.410122
v 0.126228 0.507941 0.410122
v 0.126228 0.607941 0.410122
v 0.126228 0.707941 0.410122
v 0.426228 0.407941 0.410122
v 0.426228 0.507941 0.410122
v 0.526228 0.407941 0.410122
v 0.526228 0.507941 0.410122
v 0.526228 0.607941 0.410122
v 0.526228 0.707941 0.410122
v 0.626229 0.407941 0.410122
v 0.626229 0.507941 0.410122
v 0.626229 0.607941 0.410122
v -0.673772 -0.792059 0.310122
v -0.673772 -0.092059 0.310122
v -0.673772 0.007941 0.310122
v -0.573772 -0.792059 0.310122
v -0.573772 -0.092059 0.310122
v -0.573772 0.007941 0.310122
v -0.573772 0.207941 0.310122
v -0.573772 0.507941 0.310122
v -0.473772 0.207941 0.310122
v -0.473772 0.307941 0.310122
v -0.473772 0.407941 0.310122
v -0.373772 0.307941 0.310122
v -0.373772 0.407941 0.310122
v -0.173772 0.407941 0.310122
v -0.173772 0.507941 0.310122
v 0.326228 0.307941 0.310122
v 0.326228 0.407941 0.310122
v 0.426228 0.307941 0.310122
v 0.426228 0.407941 0.310122
v 0.526228 -0.792059 0.310122
v 0.526228 -0.092059 0.310122
v 0.526228 0.007941 0.310122
v 0.626229 -0.792059 0.310122
v 0.626229 -0.092059 0.310122
v 0.626229 0.007941 0.310122
v -0.573772 -0.792059 0.210122
v -0.573772 0.207941 0.210122
v 0.526228 -0.792059 0.210122
v 0.526228 0.207941 0.210122
v -0.473772 0.207941 0.110122
v -0.473772 0.307941 0.110122
v 0.426228 0.207941 0.110122
v 0.426228 0.307941 0.110122
v 0.526228 -0.792059 0.110122
v 0.526228 0.007941 0.110122
v 0.626229 -0.792059 0.110122
v 0.626229 -0.092059 0.110122
v 0.626229 0.007941 0.110122
v -0.173772 0.607941 -0.089878
v -0.173772 0.707941 -0.089878
v -0.073772 0.607941 -0.089878
v -0.073772 0.707941 -0.089878
v 0.026228 0.607941 -0.089878
v 0.026228 0.707941 -0.089878
v 0.126228 0.607941 -0.089878
v 0.126228 0.707941 -0.089878
v -0.673772 0.607941 -0.189878
v -0.673772 0.707941 -0.189878
v -0.573772 0.607941 -0.189878
v -0.573772 0.707941 -0.189878
v -0.073772 0.707941 -0.189878
v -0.073772 0.807941 -0.189878
v 0.026228 0.707941 -0.189878
v 0.026228 0.807941 -0.189878
v 0.526228 0.607941 -0.189878
v 0.526228 0.707941 -0.189878
v 0.626229 0.607941 -0.189878
v 0.626229 0.707941 -0.189878
v -0.673772 0.507941 -0.289878
v -0.673772 0.607941 -0.289878
v -0.573772 0.507941 -0.289878
v -0.573772 0.607941 -0.289878
v -0.373772 -1.092059 -0.289878
v -0.373772 -0.992059 -0.289878
v -0.173772 -0.992059 -0.289878
v -0.073772 -1.192059 -0.289878
v -0.073772 -1.092059 -0.289878
v -0.073772 -0.992059 -0.289878
v 0.026228 -1.192059 -0.289878
v 0.026228 -1.092059 -0.289878
v 0.026228 -0.992059 -0.289878
v 0.126228 -0.992059 -0.289878
v 0.326228 -1.092059 -0.289878
v 0.326228 -0.992059 -0.289878
v 0.526228 0.507941 -0.289878
v 0.526228 0.607941 -0.289878
v 0.626229 0.507941 -0.289878
v 0.626229 0.607941 -0.289878
v -0.173772 -0.992059 -0.389878
v -0.173772 -0.892059 -0.389878
v -0.173772 0.507941 -0.389878
v -0.173772 0.607941 -0.389878
v -0.073772 -0.992059 -0.389878
v -0.073772 0.507941 -0.389878
v -0.073772 0.607941 -0.389878
v -0.073772 0.707941 -0.389878
v 0.026228 -0.992059 -0.389878
v 0.026228 0.507941 -0.389878
v 0.026228 0.607941 -0.389878
v 0.026228 0.707941 -0.389878
v 0.126228 -0.992059 -0.389878
v 0.126228 -0.892059 -0.389878
v 0.126228 0.507941 -0.389878
v 0.126228 0.607941 -0.389878
v -0.073772 0.507941 -0.489878
v -0.073772 0.607941 -0.489878
v 0.026228 0.507941 -0.489878
v 0.026228 0.607941 -0.489878
v -0.473772 0.307941 -0.589878
v -0.473772 0.407941 -0.589878
v -0.173772 0.307941 -0.589878
v -0.173772 0.407941 -0.589878
v -0.173772 0.507941 -0.589878
v -0.073772 -1.092059 -0.589878
v -0.073772 -0.992059 -0.589878
v 0.026228 -1.092059 -0.589878
v 0.026228 -0.992059 -0.589878
v 0.126228 0.307941 -0.589878
v 0.126228 0.407941 -0.589878
v 0.126228 0.507941 -0.589878
v 0.426228 0.307941 -0.589878
v 0.426228 0.407941 -0.589878
v -0.673772 -0.792059 -0.689878
v -0.673772 -0.092059 -0.689878
v -0.673772 0.007941 -0.689878
v -0.673772 0.207941 -0.689878
v -0.573772 -0.792059 -0.689878
v -0.573772 0.207941 -0.689878
v -0.573772 0.307941 -0.689878
v -0.173772 0.307941 -0.689878
v -0.173772 0.407941 -0.689878
v 0.126228 0.307941 -0.689878
v 0.126228 0.407941 -0.689878
v 0.526228 -0.792059 -0.689878
v 0.526228 0.207941 -0.689878
v 0.526228 0.307941 -0.689878
v 0.626229 -0.792059 -0.689878
v 0.626229 -0.092059 -0.689878
v 0.626229 0.007941 -0.689878
v 0.626229 0.207941 -0.689878
v -0.773772 -0.792059 -0.789878
v -0.773772 -0.092059 -0.789878
v -0.773772 0.007941 -0.789878
v -0.673772 -0.892059 -0.789878
v -0.673772 -0.792059 -0.789878
v -0.673772 -0.092059 -0.789878
v -0.673772 0.007941 -0.789878
v -0.573772 0.007941 -0.789878
v -0.573772 0.207941 -0.789878
v 0.526228 0.007941 -0.789878
v 0.526228 0.207941 -0.789878
v 0.626229 -0.892059 -0.789878
v 0.626229 -0.792059 -0.789878
v 0.626229 -0.092059 -0.789878
v 0.626229 0.007941 -0.789878
v 0.726228 -0.792059 -0.789878
v 0.726228 -0.092059 -0.789878
v 0.726228 0.007941 -0.789878
v -0.673772 -0.792059 -0.889878
v -0.673772 -0.092059 -0.889878
v -0.673772 0.007941 -0.889878
v 0.626229 -0.792059 -0.889878
v 0.626229 -0.092059 -0.889878
v 0.626229 0.007941 -0.889878
v -0.073772 -1.192059 -0.189878
v 0.026228 -1.192059 -0.189878
v -0.073772 -1.192059 -0.289878
v 0.026228 -1.192059 -0.289878
v -0.073772 -1.092059 0.110122
v 0.026228 -1.092059 0.110122
v -0.373772 -1.092059 -0.189878
v -0.073772 -1.092059 -0.189878
v 0.026228 -1.092059 -0.189878
v 0.326228 -1.092059 -0.189878
v -0.373772 -1.092059 -0.289878
v -0.073772 -1.092059 -0.289878
v 0.026228 -1.092059 -0.289878
v 0.326228 -1.092059 -0.289878
v -0.073772 -1.092059 -0.589878
v 0.026228 -1.092059 -0.589878
v -0.173772 -0.992059 -0.089878
v -0.073772 -0.992059 -0.089878
v 0.026228 -0.992059 -0.089878
v 0.126228 -0.992059 -0.089878
v -0.173772 -0.992059 -0.189878
v -0.073772 -0.992059 -0.189878
v 0.026228 -0.992059 -0.189878
v 0.126228 -0.992059 -0.189878
v -0.173772 -0.992059 -0.289878
v -0.073772 -0.992059 -0.289878
v 0.026228 -0.992059 -0.289878
v 0.126228 -0.992059 -0.289878
v -0.173772 -0.992059 -0.389878
v -0.073772 -0.992059 -0.389878
v 0.026228 -0.992059 -0.389878
v 0.126228 -0.992059 -0.389878
v -0.673772 -0.892059 0.310122
v 0.626229 -0.892059 0.310122
v -0.173772 -0.892059 -0.089878
v 0.126228 -0.892059 -0.089878
v -0.173772 -0.892059 -0.389878
v 0.126228 -0.892059 -0.389878
v -0.673772 -0.892059 -0.789878
v 0.626229 -0.892059 -0.789878
v -0.673772 -0.792059 0.410122
v 0.626229 -0.792059 0.410122
v -0.773772 -0.792059 0.310122
v -0.673772 -0.792059 0.310122
v 0.626229 -0.792059 0.310122
v 0.726228 -0.792059 0.310122
v -0.773772 -0.792059 -0.789878
v -0.673772 -0.792059 -0.789878
v 0.626229 -0.792059 -0.789878
v 0.726228 -0.792059 -0.789878
v -0.673772 -0.792059 -0.889878
v 0.626229 -0.792059 -0.889878
v -0.173772 -0.692059 0.510122
v 0.126228 -0.692059 0.510122
v -0.173772 -0.692059 0.410122
v 0.126228 -0.692059 0.410122
v -0.273772 -0.592059 0.510122
v -0.173772 -0.592059 0.510122
v 0.126228 -0.592059 0.510122
v 0.226228 -0.592059 0.510122
v -0.273772 -0.592059 0.410122
v -0.173772 -0.592059 0.410122
v 0.126228 -0.592059 0.410122
v 0.226228 -0.592059 0.410122
v -0.173772 0.007941 0.610122
v 0.126228 0.007941 0.610122
v -0.173772 0.007941 0.410122
v 0.126228 0.007941 0.410122
v 0.526228 0.007941 0.110122
v 0.626229 0.007941 0.110122
v 0.526228 0.007941 -0.589878
v 0.626229 0.007941 -0.589878
v -0.573772 0.107941 0.410122
v -0.173772 0.107941 0.410122
v 0.126228 0.107941 0.410122
v 0.426228 0.107941 0.410122
v -0.573772 0.107941 0.310122
v -0.173772 0.107941 0.310122
v 0.126228 0.107941 0.310122
v 0.426228 0.107941 0.310122
v -0.173772 0.207941 0.610122
v 0.126228 0.207941 0.610122
v -0.173772 0.207941 0.410122
v 0.126228 0.207941 0.410122
v -0.573772 0.207941 0.210122
v 0.526228 0.207941 0.210122
v -0.473772 0.207941 0.110122
v 0.426228 0.207941 0.110122
v -0.473772 0.207941 -0.589878
v 0.426228 0.207941 -0.589878
v -0.573772 0.207941 -0.689878
v 0.526228 0.207941 -0.689878
v -0.473772 0.307941 0.110122
v 0.426228 0.307941 0.110122
v -0.473772 0.307941 -0.589878
v 0.426228 0.307941 -0.589878
v -0.673772 0.407941 0.510122
v -0.373772 0.407941 0.510122
v -0.273772 0.407941 0.510122
v -0.173772 0.407941 0.510122
v 0.126228 0.407941 0.510122
v 0.426228 0.407941 0.510122
v 0.526228 0.407941 0.510122
v 0.626229 0.407941 0.510122
v -0.673772 0.407941 0.410122
v -0.573772 0.407941 0.410122
v -0.473772 0.407941 0.410122
v -0.373772 0.407941 0.410122
v -0.273772 0.407941 0.410122
v -0.173772 0.407941 0.410122
v 0.126228 0.407941 0.410122
v 0.426228 0.407941 0.410122
v 0.526228 0.407941 0.410122
v 0.626229 0.407941 0.410122
v -0.173772 0.507941 0.510122
v 0.126228 0.507941 0.510122
v -0.173772 0.507941 0.410122
v 0.126228 0.507941 0.410122
v -0.673772 0.507941 -0.189878
v -0.573772 0.507941 -0.189878
v 0.526228 0.507941 -0.189878
v 0.626229 0.507941 -0.189878
v -0.673772 0.507941 -0.289878
v -0.573772 0.507941 -0.289878
v 0.526228 0.507941 -0.289878
v 0.626229 0.507941 -0.289878
v -0.673772 0.607941 0.410122
v -0.573772 0.607941 0.410122
v -0.073772 0.607941 0.410122
v 0.026228 0.607941 0.410122
v 0.526228 0.607941 0.410122
v 0.626229 0.607941 0.410122
v -0.073772 0.607941 0.310122
v 0.026228 0.607941 0.310122
v -0.673772 0.607941 -0.189878
v -0.573772 0.607941 -0.189878
v 0.526228 0.607941 -0.189878
v 0.626229 0.607941 -0.189878
v -0.073772 0.707941 0.510122
v 0.026228 0.707941 0.510122
v -0.073772 0.707941 0.410122
v 0.026228 0.707941 0.410122
v -0.073772 -0.992059 0.110122
v 0.026228 -0.992059 0.110122
v -0.073772 -0.992059 -0.089878
v 0.026228 -0.992059 -0.089878
v -0.373772 -0.992059 -0.189878
v -0.173772 -0.992059 -0.189878
v 0.126228 -0.992059 -0.189878
v 0.326228 -0.992059 -0.189878
v -0.373772 -0.992059 -0.289878
v -0.173772 -0.992059 -0.289878
v 0.126228 -0.992059 -0.289878
v 0.326228 -0.992059 -0.289878
v -0.073772 -0.992059 -0.389878
v 0.026228 -0.992059 -0.389878
v -0.073772 -0.992059 -0.589878
v 0.026228 -0.992059 -0.589878
v -0.673772 -0.792059 0.310122
v -0.573772 -0.792059 0.310122
v 0.526228 -0.792059 0.310122
v 0.626229 -0.792059 0.310122
v -0.673772 -0.792059 0.210122
v -0.573772 -0.792059 0.210122
v 0.526228 -0.792059 0.210122
v 0.626229 -0.792059 0.210122
v 0.526228 -0.792059 0.110122
v 0.626229 -0.792059 0.110122
v -0.073772 -0.792059 -0.089878
v 0.026228 -0.792059 -0.089878
v -0.173772 -0.792059 -0.189878
v -0.073772 -0.792059 -0.189878
v 0.026228 -0.792059 -0.189878
v 0.126228 -0.792059 -0.189878
v -0.173772 -0.792059 -0.289878
v -0.073772 -0.792059 -0.289878
v 0.026228 -0.792059 -0.289878
v 0.126228 -0.792059 -0.289878
v -0.073772 -0.792059 -0.389878
v 0.026228 -0.792059 -0.389878
v 0.526228 -0.792059 -0.589878
v 0.626229 -0.792059 -0.589878
v -0.673772 -0.792059 -0.689878
v -0.573772 -0.792059 -0.689878
v 0.526228 -0.792059 -0.689878
v 0.626229 -0.792059 -0.689878
v -0.673772 -0.792059 -0.789878
v -0.573772 -0.792059 -0.789878
v 0.526228 -0.792059 -0.789878
v 0.626229 -0.792059 -0.789878
v -0.273772 -0.292059 0.510122
v -0.173772 -0.292059 0.510122
v 0.126228 -0.292059 0.510122
v 0.226228 -0.292059 0.510122
v -0.273772 -0.292059 0.410122
v -0.173772 -0.292059 0.410122
v 0.126228 -0.292059 0.410122
v 0.226228 -0.292059 0.410122
v -0.173772 -0.192059 0.510122
v -0.073772 -0.192059 0.510122
v 0.126228 -0.192059 0.510122
v -0.173772 -0.192059 0.410122
v -0.073772 -0.192059 0.410122
v 0.126228 -0.192059 0.410122
v -0.673772 0.007941 0.410122
v -0.173772 0.007941 0.410122
v 0.126228 0.007941 0.410122
v 0.626229 0.007941 0.410122
v -0.773772 0.007941 0.310122
v -0.673772 0.007941 0.310122
v -0.573772 0.007941 0.310122
v -0.173772 0.007941 0.310122
v 0.126228 0.007941 0.310122
v 0.526228 0.007941 0.310122
v 0.626229 0.007941 0.310122
v 0.726228 0.007941 0.310122
v -0.673772 0.007941 0.210122
v 0.626229 0.007941 0.210122
v -0.673772 0.007941 -0.689878
v 0.626229 0.007941 -0.689878
v -0.773772 0.007941 -0.789878
v -0.673772 0.007941 -0.789878
v -0.573772 0.007941 -0.789878
v 0.526228 0.007941 -0.789878
v 0.626229 0.007941 -0.789878
v 0.726228 0.007941 -0.789878
v -0.673772 0.007941 -0.889878
v 0.626229 0.007941 -0.889878
v -0.173772 0.107941 0.610122
v 0.126228 0.107941 0.610122
v -0.173772 0.107941 0.410122
v 0.126228 0.107941 0.410122
v -0.573772 0.207941 0.310122
v -0.473772 0.207941 0.310122
v 0.426228 0.207941 0.310122
v 0.526228 0.207941 0.310122
v -0.673772 0.207941 0.210122
v -0.573772 0.207941 0.210122
v -0.473772 0.207941 0.210122
v 0.426228 0.207941 0.210122
v 0.526228 0.207941 0.210122
v 0.626229 0.207941 0.210122
v -0.673772 0.207941 -0.689878
v -0.573772 0.207941 -0.689878
v 0.526228 0.207941 -0.689878
v 0.626229 0.207941 -0.689878
v -0.573772 0.207941 -0.789878
v 0.526228 0.207941 -0.789878
v -0.173772 0.307941 0.610122
v 0.126228 0.307941 0.610122
v -0.173772 0.307941 0.410122
v 0.126228 0.307941 0.410122
v -0.473772 0.307941 0.310122
v -0.373772 0.307941 0.310122
v -0.173772 0.307941 0.310122
v 0.126228 0.307941 0.310122
v 0.326228 0.307941 0.310122
v 0.426228 0.307941 0.310122
v -0.573772 0.307941 0.210122
v -0.473772 0.307941 0.210122
v -0.373772 0.307941 0.210122
v 0.326228 0.307941 0.210122
v 0.426228 0.307941 0.210122
v 0.526228 0.307941 0.210122
v -0.473772 0.307941 -0.589878
v -0.173772 0.307941 -0.589878
v 0.126228 0.307941 -0.589878
v 0.426228 0.307941 -0.589878
v -0.573772 0.307941 -0.689878
v -0.173772 0.307941 -0.689878
v 0.126228 0.307941 -0.689878
v 0.526228 0.307941 -0.689878
v 0.126228 0.407941 0.410122
v 0.426228 0.407941 0.410122
v -0.373772 0.407941 0.310122
v -0.173772 0.407941 0.310122
v -0.073772 0.407941 0.310122
v 0.026228 0.407941 0.310122
v 0.126228 0.407941 0.310122
v 0.326228 0.407941 0.310122
v 0.426228 0.407941 0.310122
v -0.473772 0.407941 0.210122
v -0.373772 0.407941 0.210122
v -0.173772 0.407941 0.210122
v -0.073772 0.407941 0.210122
v 0.026228 0.407941 0.210122
v 0.126228 0.407941 0.210122
v 0.326228 0.407941 0.210122
v 0.426228 0.407941 0.210122
v -0.473772 0.407941 -0.589878
v -0.173772 0.407941 -0.589878
v 0.126228 0.407941 -0.589878
v 0.426228 0.407941 -0.589878
v -0.173772 0.407941 -0.689878
v 0.126228 0.407941 -0.689878
v -0.573772 0.507941 0.410122
v -0.273772 0.507941 0.410122
v -0.173772 0.507941 0.410122
v -0.573772 0.507941 0.310122
v -0.173772 0.507941 0.310122
v -0.173772 0.507941 -0.389878
v -0.073772 0.507941 -0.389878
v 0.026228 0.507941 -0.389878
v 0.126228 0.507941 -0.389878
v -0.073772 0.507941 -0.489878
v 0.026228 0.507941 -0.489878
v -0.173772 0.507941 -0.589878
v 0.126228 0.507941 -0.589878
v -0.173772 0.607941 0.510122
v 0.126228 0.607941 0.510122
v -0.173772 0.607941 0.410122
v -0.073772 0.607941 0.410122
v 0.026228 0.607941 0.410122
v 0.126228 0.607941 0.410122
v -0.173772 0.607941 0.210122
v -0.073772 0.607941 0.210122
v 0.026228 0.607941 0.210122
v 0.126228 0.607941 0.210122
v -0.173772 0.607941 0.110122
v -0.073772 0.607941 0.110122
v 0.026228 0.607941 0.110122
v 0.126228 0.607941 0.110122
v -0.173772 0.607941 -0.089878
v -0.073772 0.607941 -0.089878
v 0.026228 0.607941 -0.089878
v 0.126228 0.607941 -0.089878
v -0.673772 0.607941 -0.189878
v -0.573772 0.607941 -0.189878
v 0.526228 0.607941 -0.189878
v 0.626229 0.607941 -0.189878
v -0.673772 0.607941 -0.289878
v -0.573772 0.607941 -0.289878
v 0.526228 0.607941 -0.289878
v 0.626229 0.607941 -0.289878
v -0.173772 0.607941 -0.389878
v -0.073772 0.607941 -0.389878
v 0.026228 0.607941 -0.389878
v 0.126228 0.607941 -0.389878
v -0.073772 0.607941 -0.489878
v 0.026228 0.607941 -0.489878
v -0.673772 0.707941 0.510122
v -0.173772 0.707941 0.510122
v 0.126228 0.707941 0.510122
v 0.626229 0.707941 0.510122
v -0.573772 0.707941 0.410122
v -0.173772 0.707941 0.410122
v 0.126228 0.707941 0.410122
v 0.526228 0.707941 0.410122
v -0.173772 0.707941 0.110122
v -0.073772 0.707941 0.110122
v 0.026228 0.707941 0.110122
v 0.126228 0.707941 0.110122
v -0.173772 0.707941 -0.089878
v -0.073772 0.707941 -0.089878
v 0.026228 0.707941 -0.089878
v 0.126228 0.707941 -0.089878
v -0.673772 0.707941 -0.189878
v -0.573772 0.707941 -0.189878
v -0.073772 0.707941 -0.189878
v 0.026228 0.707941 -0.189878
v 0.526228 0.707941 -0.189878
v 0.626229 0.707941 -0.189878
v -0.073772 0.707941 -0.389878
v 0.026228 0.707941 -0.389878
v -0.073772 0.807941 0.510122
v 0.026228 0.807941 0.510122
v -0.073772 0.807941 -0.189878
v 0.026228 0.807941 -0.189878
vn -1.0000 -0.0000 -0.0000
vn 1.0000 -0.0000 -0.0000
vn -0.0000 -0.0000 1.0000
vn -0.0000 -0.0000 -1.0000
vn -0.0000 -1.0000 -0.0000
vn -0.0000 1.0000 -0.0000
vt 0.529297 0.500000
vt 0.552734 0.500000
vt 0.404297 0.500000
vt 0.994141 0.500000
vt 0.958984 0.500000
vt 0.962891 0.500000
vt 0.068359 0.500000
vt 0.978516 0.500000
vt 0.853516 0.500000
vt 0.037109 0.500000
s 1
usemtl palette
f 3/1/1 2/1/1 1/1/1
f 4/1/1 2/1/1 3/1/1
f 5/2/1 4/2/1 3/2/1
f 6/2/1 4/2/1 5/2/1
f 10/1/1 8/1/1 7/1/1
f 11/1/1 8/1/1 10/1/1
f 13/1/1 10/1/1 9/1/1
f 14/1/1 10/1/1 13/1/1
f 15/1/1 12/1/1 11/1/1
f 16/1/1 12/1/1 15/1/1
f 17/2/1 14/2/1 13/2/1
f 18/2/1 14/2/1 17/2/1
f 21/2/1 16/2/1 15/2/1
f 22/2/1 16/2/1 21/2/1
f 23/3/1 20/3/1 19/3/1
f 24/3/1 20/3/1 23/3/1
f 29/4/1 26/4/1 25/4/1
f 30/4/1 28/4/1 27/4/1
f 31/4/1 28/4/1 30/4/1
f 32/4/1 29/4/1 25/4/1
f 32/4/1 30/4/1 29/4/1
f 33/4/1 30/4/1 32/4/1
f 38/3/1 35/3/1 34/3/1
f 39/3/1 37/3/1 36/3/1
f 40/3/1 35/3/1 38/3/1
f 41/3/1 39/3/1 36/3/1
f 43/3/1 35/3/1 40/3/1
f 44/3/1 35/3/1 43/3/1
f 44/5/1 43/5/1 42/5/1
f 45/3/1 35/3/1 44/3/1
f 46/3/1 41/3/1 36/3/1
f 47/3/1 41/3/1 46/3/1
f 48/3/1 46/3/1 45/3/1
f 49/3/1 46/3/1 48/3/1
f 50/5/1 44/5/1 42/5/1
f 51/5/1 44/5/1 50/5/1
f 52/5/1 44/5/1 51/5/1
f 55/3/1 54/3/1 53/3/1
f 56/3/1 54/3/1 55/3/1
f 58/3/1 57/3/1 56/3/1
f 59/3/1 57/3/1 58/3/1
f 62/2/1 61/2/1 60/2/1
f 63/2/1 61/2/1 62/2/1
f 66/3/1 65/3/1 64/3/1
f 67/3/1 65/3/1 66/3/1
f 70/6/1 69/6/1 68/6/1
f 71/6/1 69/6/1 70/6/1
f 76/2/1 73/2/1 72/2/1
f 76/2/1 75/2/1 74/2/1
f 76/2/1 74/2/1 73/2/1
f 77/2/1 75/2/1 76/2/1
f 80/6/1 79/6/1 78/6/1
f 81/6/1 79/6/1 80/6/1
f 84/6/1 83/6/1 82/6/1
f 85/6/1 83/6/1 84/6/1
f 89/7/1 87/7/1 86/7/1
f 89/7/1 88/7/1 87/7/1
f 90/7/1 88/7/1 89/7/1
f 91/7/1 88/7/1 90/7/1
f 94/7/1 93/7/1 92/7/1
f 95/7/1 93/7/1 94/7/1
f 99/1/1 97/1/1 96/1/1
f 100/1/1 97/1/1 99/1/1
f 101/1/1 99/1/1 98/1/1
f 102/1/1 99/1/1 101/1/1
f 103/1/1 101/1/1 98/1/1
f 104/1/1 101/1/1 103/1/1
f 105/1/1 101/1/1 104/1/1
f 106/1/1 101/1/1 105/1/1
f 107/1/1 105/1/1 104/1/1
f 108/1/1 105/1/1 107/1/1
f 112/2/1 110/2/1 109/2/1
f 113/2/1 110/2/1 112/2/1
f 115/2/1 112/2/1 111/2/1
f 116/2/1 112/2/1 115/2/1
f 117/2/1 112/2/1 116/2/1
f 118/2/1 114/2/1 113/2/1
f 119/2/1 114/2/1 118/2/1
f 120/2/1 114/2/1 119/2/1
f 126/1/1 122/1/1 121/1/1
f 127/1/1 122/1/1 126/1/1
f 130/1/1 124/1/1 123/1/1
f 131/1/1 124/1/1 130/1/1
f 133/1/1 128/1/1 127/1/1
f 133/1/1 126/1/1 125/1/1
f 133/1/1 127/1/1 126/1/1
f 134/1/1 128/1/1 133/1/1
f 135/1/1 130/1/1 129/1/1
f 136/1/1 130/1/1 135/1/1
f 137/1/1 130/1/1 136/1/1
f 138/1/1 134/1/1 133/1/1
f 138/1/1 133/1/1 132/1/1
f 138/1/1 136/1/1 135/1/1
f 138/1/1 135/1/1 134/1/1
f 139/1/1 136/1/1 138/1/1
f 143/5/1 141/5/1 140/5/1
f 144/5/1 141/5/1 143/5/1
f 145/4/1 143/4/1 142/4/1
f 146/4/1 143/4/1 145/4/1
f 149/4/1 148/4/1 147/4/1
f 150/4/1 148/4/1 149/4/1
f 153/3/1 152/3/1 151/3/1
f 154/3/1 152/3/1 153/3/1
f 159/3/1 156/3/1 155/3/1
f 160/3/1 158/3/1 157/3/1
f 161/3/1 159/3/1 155/3/1
f 161/3/1 160/3/1 159/3/1
f 162/3/1 158/3/1 160/3/1
f 162/3/1 160/3/1 161/3/1
f 166/4/1 164/4/1 163/4/1
f 167/4/1 164/4/1 166/4/1
f 168/4/1 166/4/1 165/4/1
f 169/4/1 166/4/1 168/4/1
f 176/1/1 171/1/1 170/1/1
f 177/1/1 171/1/1 176/1/1
f 178/1/1 173/1/1 172/1/1
f 179/1/1 173/1/1 178/1/1
f 180/1/1 175/1/1 174/1/1
f 181/1/1 175/1/1 180/1/1
f 182/2/1 177/2/1 176/2/1
f 183/2/1 177/2/1 182/2/1
f 184/2/1 179/2/1 178/2/1
f 185/2/1 179/2/1 184/2/1
f 186/2/1 181/2/1 180/2/1
f 187/2/1 181/2/1 186/2/1
f 188/1/2 189/1/2 192/1/2
f 192/1/2 189/1/2 193/1/2
f 190/1/2 191/1/2 194/1/2
f 194/1/2 191/1/2 195/1/2
f 192/2/2 193/2/2 196/2/2
f 196/2/2 193/2/2 197/2/2
f 194/2/2 195/2/2 198/2/2
f 198/2/2 195/2/2 199/2/2
f 200/3/2 201/3/2 202/3/2
f 202/3/2 201/3/2 203/3/2
f 204/4/2 205/4/2 207/4/2
f 207/4/2 205/4/2 208/4/2
f 206/4/2 207/4/2 209/4/2
f 209/4/2 207/4/2 210/4/2
f 211/3/2 212/3/2 213/3/2
f 213/3/2 212/3/2 214/3/2
f 215/5/2 216/5/2 218/5/2
f 218/5/2 216/5/2 219/5/2
f 217/4/2 218/4/2 220/4/2
f 218/5/2 219/5/2 221/5/2
f 220/4/2 218/4/2 221/4/2
f 221/5/2 219/5/2 222/5/2
f 223/4/2 224/4/2 225/4/2
f 225/4/2 224/4/2 226/4/2
f 227/2/2 228/2/2 230/2/2
f 230/2/2 228/2/2 231/2/2
f 229/2/2 230/2/2 233/2/2
f 233/2/2 230/2/2 234/2/2
f 234/2/2 230/2/2 235/2/2
f 231/2/2 232/2/2 236/2/2
f 236/2/2 232/2/2 237/2/2
f 237/2/2 232/2/2 238/2/2
f 239/1/2 240/1/2 244/1/2
f 244/1/2 240/1/2 245/1/2
f 241/1/2 242/1/2 248/1/2
f 248/1/2 242/1/2 249/1/2
f 245/1/2 246/1/2 251/1/2
f 243/1/2 244/1/2 251/1/2
f 244/1/2 245/1/2 251/1/2
f 251/1/2 246/1/2 252/1/2
f 247/1/2 248/1/2 253/1/2
f 253/1/2 248/1/2 254/1/2
f 254/1/2 248/1/2 255/1/2
f 251/1/2 252/1/2 256/1/2
f 250/1/2 251/1/2 256/1/2
f 253/1/2 254/1/2 256/1/2
f 252/1/2 253/1/2 256/1/2
f 256/1/2 254/1/2 257/1/2
f 258/2/2 259/2/2 262/2/2
f 260/2/2 261/2/2 262/2/2
f 259/2/2 260/2/2 262/2/2
f 262/2/2 261/2/2 263/2/2
f 264/6/2 265/6/2 266/6/2
f 266/6/2 265/6/2 267/6/2
f 268/5/2 269/5/2 270/5/2
f 270/5/2 269/5/2 271/5/2
f 272/7/2 273/7/2 275/7/2
f 273/7/2 274/7/2 275/7/2
f 275/7/2 274/7/2 276/7/2
f 276/7/2 274/7/2 277/7/2
f 278/7/2 279/7/2 280/7/2
f 280/7/2 279/7/2 281/7/2
f 282/1/2 283/1/2 285/1/2
f 285/1/2 283/1/2 286/1/2
f 284/1/2 285/1/2 287/1/2
f 287/1/2 285/1/2 288/1/2
f 284/1/2 287/1/2 289/1/2
f 289/1/2 287/1/2 290/1/2
f 290/1/2 287/1/2 291/1/2
f 291/1/2 287/1/2 292/1/2
f 290/1/2 291/1/2 293/1/2
f 293/1/2 291/1/2 294/1/2
f 295/6/2 296/6/2 297/6/2
f 297/6/2 296/6/2 298/6/2
f 297/5/2 298/5/2 299/5/2
f 299/5/2 298/5/2 300/5/2
f 301/2/2 302/2/2 303/2/2
f 303/2/2 302/2/2 304/2/2
f 305/3/2 306/3/2 307/3/2
f 307/3/2 306/3/2 308/3/2
f 309/5/2 310/5/2 311/5/2
f 309/5/2 311/5/2 313/5/2
f 311/3/2 312/3/2 313/3/2
f 313/3/2 312/3/2 314/3/2
f 309/5/2 313/5/2 316/5/2
f 316/5/2 313/5/2 317/5/2
f 314/3/2 315/3/2 318/3/2
f 318/3/2 315/3/2 319/3/2
f 320/3/2 321/3/2 324/3/2
f 322/3/2 323/3/2 325/3/2
f 324/3/2 321/3/2 326/3/2
f 322/3/2 325/3/2 327/3/2
f 326/3/2 321/3/2 328/3/2
f 328/3/2 321/3/2 329/3/2
f 322/3/2 327/3/2 330/3/2
f 330/3/2 327/3/2 331/3/2
f 329/3/2 330/3/2 332/3/2
f 332/3/2 330/3/2 333/3/2
f 334/1/2 335/1/2 337/1/2
f 337/1/2 335/1/2 338/1/2
f 336/1/2 337/1/2 340/1/2
f 340/1/2 337/1/2 341/1/2
f 338/1/2 339/1/2 342/1/2
f 342/1/2 339/1/2 343/1/2
f 340/2/2 341/2/2 344/2/2
f 344/2/2 341/2/2 345/2/2
f 342/2/2 343/2/2 348/2/2
f 348/2/2 343/2/2 349/2/2
f 346/3/2 347/3/2 350/3/2
f 350/3/2 347/3/2 351/3/2
f 352/4/2 353/4/2 354/4/2
f 354/4/2 353/4/2 355/4/2
f 354/8/2 355/8/2 358/8/2
f 358/8/2 355/8/2 359/8/2
f 356/4/2 357/4/2 360/4/2
f 360/4/2 357/4/2 361/4/2
f 358/4/2 359/4/2 362/4/2
f 359/4/2 360/4/2 362/4/2
f 362/4/2 360/4/2 363/4/2
f 364/1/2 365/1/2 366/1/2
f 366/1/2 365/1/2 367/1/2
f 366/2/2 367/2/2 368/2/2
f 368/2/2 367/2/2 369/2/2
f 374/7/3 371/7/3 370/7/3
f 375/7/3 371/7/3 374/7/3
f 376/7/3 373/7/3 372/7/3
f 377/7/3 373/7/3 376/7/3
f 380/4/3 379/4/3 378/4/3
f 381/4/3 379/4/3 380/4/3
f 384/8/3 381/8/3 380/8/3
f 385/4/3 379/4/3 381/4/3
f 385/8/3 381/8/3 384/8/3
f 386/4/3 379/4/3 385/4/3
f 388/6/3 383/6/3 382/6/3
f 389/6/3 383/6/3 388/6/3
f 391/4/3 385/4/3 384/4/3
f 392/8/3 386/8/3 385/8/3
f 392/4/3 385/4/3 391/4/3
f 393/4/3 379/4/3 386/4/3
f 393/8/3 386/8/3 392/8/3
f 394/4/3 379/4/3 393/4/3
f 395/6/3 390/6/3 389/6/3
f 395/6/3 388/6/3 387/6/3
f 395/6/3 389/6/3 388/6/3
f 396/6/3 390/6/3 395/6/3
f 399/6/3 395/6/3 387/6/3
f 400/5/3 396/5/3 395/5/3
f 400/6/3 395/6/3 399/6/3
f 401/1/3 398/1/3 397/1/3
f 402/1/3 398/1/3 401/1/3
f 403/6/3 399/6/3 387/6/3
f 404/6/3 399/6/3 403/6/3
f 405/6/3 399/6/3 404/6/3
f 406/5/3 400/5/3 399/5/3
f 406/6/3 399/6/3 405/6/3
f 407/5/3 396/5/3 400/5/3
f 407/5/3 400/5/3 406/5/3
f 408/5/3 396/5/3 407/5/3
f 410/4/3 393/4/3 392/4/3
f 411/4/3 393/4/3 410/4/3
f 413/6/3 405/6/3 404/6/3
f 414/5/3 406/5/3 405/5/3
f 414/6/3 405/6/3 413/6/3
f 414/5/3 407/5/3 406/5/3
f 415/5/3 407/5/3 414/5/3
f 416/4/3 412/4/3 411/4/3
f 416/4/3 411/4/3 410/4/3
f 416/4/3 410/4/3 409/4/3
f 417/4/3 412/4/3 416/4/3
f 418/8/3 417/8/3 416/8/3
f 419/4/3 412/4/3 417/4/3
f 419/8/3 417/8/3 418/8/3
f 420/4/3 412/4/3 419/4/3
f 421/4/3 419/4/3 418/4/3
f 422/8/3 420/8/3 419/8/3
f 422/4/3 419/4/3 421/4/3
f 423/4/3 412/4/3 420/4/3
f 423/8/3 420/8/3 422/8/3
f 424/4/3 412/4/3 423/4/3
f 430/5/3 429/5/3 428/5/3
f 431/5/3 429/5/3 430/5/3
f 432/4/3 431/4/3 430/4/3
f 433/1/3 426/1/3 425/1/3
f 434/1/3 426/1/3 433/1/3
f 435/5/3 430/5/3 428/5/3
f 435/4/3 432/4/3 430/4/3
f 436/4/3 432/4/3 435/4/3
f 437/1/3 433/1/3 425/1/3
f 438/1/3 433/1/3 437/1/3
f 439/1/3 426/1/3 434/1/3
f 440/1/3 426/1/3 439/1/3
f 441/2/3 427/2/3 426/2/3
f 442/5/3 436/5/3 435/5/3
f 442/5/3 435/5/3 428/5/3
f 443/5/3 436/5/3 442/5/3
f 444/5/3 436/5/3 443/5/3
f 445/5/3 436/5/3 444/5/3
f 446/1/3 426/1/3 440/1/3
f 449/1/3 448/1/3 447/1/3
f 450/1/3 448/1/3 449/1/3
f 451/1/3 437/1/3 425/1/3
f 454/1/3 426/1/3 446/1/3
f 455/2/3 441/2/3 426/2/3
f 456/9/3 443/9/3 442/9/3
f 457/9/3 443/9/3 456/9/3
f 460/1/3 452/1/3 451/1/3
f 462/1/3 454/1/3 453/1/3
f 463/5/3 459/5/3 458/5/3
f 463/5/3 457/5/3 456/5/3
f 463/5/3 458/5/3 457/5/3
f 464/5/3 459/5/3 463/5/3
f 465/5/3 463/5/3 456/5/3
f 465/4/3 464/4/3 463/4/3
f 466/5/3 459/5/3 464/5/3
f 466/4/3 464/4/3 465/4/3
f 467/5/3 465/5/3 456/5/3
f 467/5/3 466/5/3 465/5/3
f 468/5/3 459/5/3 466/5/3
f 468/5/3 466/5/3 467/5/3
f 469/1/3 462/1/3 461/1/3
f 469/1/3 461/1/3 460/1/3
f 469/1/3 451/1/3 425/1/3
f 469/1/3 460/1/3 451/1/3
f 470/2/3 455/2/3 426/2/3
f 470/1/3 462/1/3 469/1/3
f 470/1/3 426/1/3 454/1/3
f 470/1/3 454/1/3 462/1/3
f 471/2/3 455/2/3 470/2/3
f 476/1/3 473/1/3 472/1/3
f 477/2/3 474/2/3 473/2/3
f 477/1/3 473/1/3 476/1/3
f 478/2/3 474/2/3 477/2/3
f 481/3/3 480/3/3 479/3/3
f 482/3/3 480/3/3 481/3/3
f 485/3/3 484/3/3 483/3/3
f 487/3/3 485/3/3 483/3/3
f 487/1/3 486/1/3 485/1/3
f 488/1/3 486/1/3 487/1/3
f 491/3/3 487/3/3 483/3/3
f 492/3/3 487/3/3 491/3/3
f 493/3/3 490/3/3 489/3/3
f 495/3/3 493/3/3 489/3/3
f 495/3/3 494/3/3 493/3/3
f 496/3/3 494/3/3 495/3/3
f 497/1/3 476/1/3 475/1/3
f 498/1/3 476/1/3 497/1/3
f 501/1/3 499/1/3 498/1/3
f 502/2/3 500/2/3 499/2/3
f 502/1/3 499/1/3 501/1/3
f 503/2/3 500/2/3 502/2/3
f 508/3/3 505/3/3 504/3/3
f 508/3/3 507/3/3 506/3/3
f 508/3/3 506/3/3 505/3/3
f 509/3/3 507/3/3 508/3/3
f 511/3/3 510/3/3 509/3/3
f 512/3/3 510/3/3 511/3/3
f 514/3/3 513/3/3 512/3/3
f 515/3/3 513/3/3 514/3/3
f 518/1/3 517/1/3 516/1/3
f 519/1/3 517/1/3 518/1/3
f 522/1/3 521/1/3 520/1/3
f 523/1/3 521/1/3 522/1/3
f 527/3/3 525/3/3 524/3/3
f 528/3/3 525/3/3 527/3/3
f 530/3/3 527/3/3 526/3/3
f 531/3/3 527/3/3 530/3/3
f 532/3/3 530/3/3 529/3/3
f 533/3/3 530/3/3 532/3/3
f 534/3/3 530/3/3 533/3/3
f 535/3/3 530/3/3 534/3/3
f 540/1/3 537/1/3 536/1/3
f 541/1/3 537/1/3 540/1/3
f 542/2/3 539/2/3 538/2/3
f 543/2/3 539/2/3 542/2/3
f 546/1/3 545/1/3 544/1/3
f 547/1/3 545/1/3 546/1/3
f 550/2/3 549/2/3 548/2/3
f 551/2/3 549/2/3 550/2/3
f 552/2/3 549/2/3 551/2/3
f 553/2/3 549/2/3 552/2/3
f 556/4/3 555/4/3 554/4/3
f 557/4/3 555/4/3 556/4/3
f 560/2/3 559/2/3 558/2/3
f 562/2/3 560/2/3 558/2/3
f 563/2/3 560/2/3 562/2/3
f 564/2/3 562/2/3 561/2/3
f 565/2/3 562/2/3 564/2/3
f 567/2/3 566/2/3 565/2/3
f 568/2/3 567/2/3 565/2/3
f 569/2/3 567/2/3 568/2/3
f 572/4/3 571/4/3 570/4/3
f 573/4/3 571/4/3 572/4/3
f 576/3/3 575/3/3 574/3/3
f 577/3/3 575/3/3 576/3/3
f 580/3/3 579/3/3 578/3/3
f 581/3/3 579/3/3 580/3/3
f 582/3/3 579/3/3 581/3/3
f 585/3/3 584/3/3 583/3/3
f 586/3/3 584/3/3 585/3/3
f 590/1/3 588/1/3 587/1/3
f 591/2/3 589/2/3 588/2/3
f 591/1/3 588/1/3 590/1/3
f 592/2/3 589/2/3 591/2/3
f 596/1/3 594/1/3 593/1/3
f 597/2/3 595/2/3 594/2/3
f 597/1/3 594/1/3 596/1/3
f 598/2/3 595/2/3 597/2/3
f 599/4/4 600/4/4 601/4/4
f 601/4/4 600/4/4 602/4/4
f 602/4/4 600/4/4 603/4/4
f 603/4/4 604/4/4 605/4/4
f 602/4/4 603/4/4 605/4/4
f 605/4/4 604/4/4 606/4/4
f 605/8/4 606/8/4 607/8/4
f 606/4/4 604/4/4 608/4/4
f 607/8/4 606/8/4 608/8/4
f 608/4/4 604/4/4 609/4/4
f 607/4/4 608/4/4 610/4/4
f 607/4/4 610/4/4 611/4/4
f 607/4/4 611/4/4 613/4/4
f 613/4/4 611/4/4 614/4/4
f 613/4/4 614/4/4 616/4/4
f 614/4/4 615/4/4 616/4/4
f 612/4/4 613/4/4 616/4/4
f 616/4/4 615/4/4 617/4/4
f 616/8/4 617/8/4 618/8/4
f 617/4/4 615/4/4 619/4/4
f 618/8/4 617/8/4 619/8/4
f 619/4/4 615/4/4 620/4/4
f 620/4/4 615/4/4 621/4/4
f 618/4/4 619/4/4 622/4/4
f 619/8/4 620/8/4 623/8/4
f 622/4/4 619/4/4 623/4/4
f 623/8/4 620/8/4 624/8/4
f 625/1/4 626/1/4 628/1/4
f 626/2/4 627/2/4 629/2/4
f 628/1/4 626/1/4 629/1/4
f 629/2/4 627/2/4 630/2/4
f 631/5/4 632/5/4 633/5/4
f 633/5/4 632/5/4 634/5/4
f 634/5/4 632/5/4 635/5/4
f 634/4/4 635/4/4 636/4/4
f 635/5/4 632/5/4 637/5/4
f 636/4/4 635/4/4 637/4/4
f 637/5/4 632/5/4 638/5/4
f 638/5/4 632/5/4 639/5/4
f 640/5/4 641/5/4 642/5/4
f 642/5/4 641/5/4 643/5/4
f 644/1/4 645/1/4 647/1/4
f 645/2/4 646/2/4 648/2/4
f 647/1/4 645/1/4 648/1/4
f 648/2/4 646/2/4 649/2/4
f 650/3/4 651/3/4 652/3/4
f 652/3/4 651/3/4 653/3/4
f 654/3/4 655/3/4 656/3/4
f 656/3/4 655/3/4 657/3/4
f 658/3/4 659/3/4 660/3/4
f 660/3/4 659/3/4 661/3/4
f 661/3/4 659/3/4 662/3/4
f 663/1/4 664/1/4 665/1/4
f 665/1/4 664/1/4 666/1/4
f 667/1/4 668/1/4 669/1/4
f 669/1/4 668/1/4 670/1/4
f 671/4/4 672/4/4 673/4/4
f 673/4/4 672/4/4 674/4/4
f 675/1/4 676/1/4 677/1/4
f 677/1/4 676/1/4 678/1/4
f 679/4/4 680/4/4 681/4/4
f 681/4/4 680/4/4 682/4/4
f 683/4/4 684/4/4 685/4/4
f 685/4/4 684/4/4 686/4/4
f 687/2/4 688/2/4 689/2/4
f 687/2/4 689/2/4 691/2/4
f 691/2/4 689/2/4 692/2/4
f 690/2/4 691/2/4 693/2/4
f 693/2/4 691/2/4 694/2/4
f 694/2/4 695/2/4 696/2/4
f 694/2/4 696/2/4 697/2/4
f 697/2/4 696/2/4 698/2/4
f 699/4/4 700/4/4 701/4/4
f 701/4/4 700/4/4 702/4/4
f 703/2/4 704/2/4 707/2/4
f 705/1/4 706/1/4 708/1/4
f 708/1/4 706/1/4 709/1/4
f 707/2/4 704/2/4 711/2/4
f 709/1/4 710/1/4 713/1/4
f 713/1/4 710/1/4 714/1/4
f 711/2/4 704/2/4 715/2/4
f 715/2/4 704/2/4 716/2/4
f 712/1/4 713/1/4 717/1/4
f 717/1/4 713/1/4 718/1/4
f 719/1/4 720/1/4 721/1/4
f 721/1/4 720/1/4 722/1/4
f 723/3/4 724/3/4 725/3/4
f 725/3/4 724/3/4 726/3/4
f 728/2/4 729/2/4 730/2/4
f 730/2/4 729/2/4 731/2/4
f 726/1/4 727/1/4 733/1/4
f 733/1/4 727/1/4 734/1/4
f 732/3/4 733/3/4 735/3/4
f 735/3/4 733/3/4 736/3/4
f 737/3/4 738/3/4 741/3/4
f 739/3/4 740/3/4 741/3/4
f 738/3/4 739/3/4 741/3/4
f 741/3/4 740/3/4 742/3/4
f 742/3/4 743/3/4 744/3/4
f 742/3/4 744/3/4 746/3/4
f 744/1/4 745/1/4 746/1/4
f 746/1/4 745/1/4 747/1/4
f 742/3/4 746/3/4 749/3/4
f 749/3/4 746/3/4 750/3/4
f 748/3/4 749/3/4 751/3/4
f 751/3/4 749/3/4 752/3/4
f 752/3/4 749/3/4 753/3/4
f 753/3/4 749/3/4 754/3/4
f 755/1/4 756/1/4 759/1/4
f 756/2/4 757/2/4 760/2/4
f 759/1/4 756/1/4 760/1/4
f 760/2/4 757/2/4 761/2/4
f 762/3/4 763/3/4 764/3/4
f 764/3/4 763/3/4 765/3/4
f 758/1/4 759/1/4 766/1/4
f 766/1/4 759/1/4 767/1/4
f 767/1/4 768/1/4 770/1/4
f 768/2/4 769/2/4 771/2/4
f 770/1/4 768/1/4 771/1/4
f 771/2/4 769/2/4 772/2/4
f 773/1/4 774/1/4 776/1/4
f 774/2/4 775/2/4 777/2/4
f 776/1/4 774/1/4 777/1/4
f 777/2/4 775/2/4 778/2/4
f 781/2/5 780/2/5 779/2/5
f 782/2/5 780/2/5 781/2/5
f 786/2/5 784/2/5 783/2/5
f 787/2/5 784/2/5 786/2/5
f 789/2/5 786/2/5 785/2/5
f 790/2/5 786/2/5 789/2/5
f 791/2/5 788/2/5 787/2/5
f 792/2/5 788/2/5 791/2/5
f 793/2/5 791/2/5 790/2/5
f 794/2/5 791/2/5 793/2/5
f 799/2/5 796/2/5 795/2/5
f 800/2/5 796/2/5 799/2/5
f 801/2/5 798/2/5 797/2/5
f 802/2/5 798/2/5 801/2/5
f 807/2/5 804/2/5 803/2/5
f 808/2/5 804/2/5 807/2/5
f 809/2/5 806/2/5 805/2/5
f 810/2/5 806/2/5 809/2/5
f 813/1/5 812/1/5 811/1/5
f 814/1/5 812/1/5 813/1/5
f 815/1/5 813/1/5 811/1/5
f 816/1/5 812/1/5 814/1/5
f 817/1/5 815/1/5 811/1/5
f 817/1/5 816/1/5 815/1/5
f 818/1/5 812/1/5 816/1/5
f 818/1/5 816/1/5 817/1/5
f 822/1/5 820/1/5 819/1/5
f 823/1/5 820/1/5 822/1/5
f 825/1/5 822/1/5 821/1/5
f 826/1/5 822/1/5 825/1/5
f 827/1/5 824/1/5 823/1/5
f 828/1/5 824/1/5 827/1/5
f 829/1/5 827/1/5 826/1/5
f 830/1/5 827/1/5 829/1/5
f 833/6/5 832/6/5 831/6/5
f 834/6/5 832/6/5 833/6/5
f 839/6/5 836/6/5 835/6/5
f 840/6/5 836/6/5 839/6/5
f 841/6/5 838/6/5 837/6/5
f 842/6/5 838/6/5 841/6/5
f 845/7/5 844/7/5 843/7/5
f 846/7/5 844/7/5 845/7/5
f 849/3/5 848/3/5 847/3/5
f 850/3/5 848/3/5 849/3/5
f 855/5/5 852/5/5 851/5/5
f 856/5/5 852/5/5 855/5/5
f 857/5/5 854/5/5 853/5/5
f 858/5/5 854/5/5 857/5/5
f 861/7/5 860/7/5 859/7/5
f 862/7/5 860/7/5 861/7/5
f 865/3/5 864/3/5 863/3/5
f 866/3/5 864/3/5 865/3/5
f 867/3/5 865/3/5 863/3/5
f 868/3/5 864/3/5 866/3/5
f 869/3/5 867/3/5 863/3/5
f 869/3/5 868/3/5 867/3/5
f 870/3/5 864/3/5 868/3/5
f 870/3/5 868/3/5 869/3/5
f 873/3/5 872/3/5 871/3/5
f 874/3/5 872/3/5 873/3/5
f 883/4/5 876/4/5 875/4/5
f 884/4/5 876/4/5 883/4/5
f 885/4/5 876/4/5 884/4/5
f 886/8/5 877/8/5 876/8/5
f 886/4/5 876/4/5 885/4/5
f 887/4/5 878/4/5 877/4/5
f 887/8/5 877/8/5 886/8/5
f 888/4/5 878/4/5 887/4/5
f 889/4/5 880/4/5 879/4/5
f 890/8/5 881/8/5 880/8/5
f 890/4/5 880/4/5 889/4/5
f 891/4/5 882/4/5 881/4/5
f 891/8/5 881/8/5 890/8/5
f 892/4/5 882/4/5 891/4/5
f 895/4/5 894/4/5 893/4/5
f 896/4/5 894/4/5 895/4/5
f 901/4/5 898/4/5 897/4/5
f 902/4/5 898/4/5 901/4/5
f 903/4/5 900/4/5 899/4/5
f 904/4/5 900/4/5 903/4/5
f 911/1/5 908/1/5 907/1/5
f 912/1/5 908/1/5 911/1/5
f 913/4/5 906/4/5 905/4/5
f 914/4/5 906/4/5 913/4/5
f 915/4/5 910/4/5 909/4/5
f 916/4/5 910/4/5 915/4/5
f 919/1/5 918/1/5 917/1/5
f 920/1/5 918/1/5 919/1/5
f 921/2/6 922/2/6 923/2/6
f 923/2/6 922/2/6 924/2/6
f 925/2/6 926/2/6 929/2/6
f 929/2/6 926/2/6 930/2/6
f 927/2/6 928/2/6 931/2/6
f 931/2/6 928/2/6 932/2/6
f 933/2/6 934/2/6 935/2/6
f 935/2/6 934/2/6 936/2/6
f 937/1/6 938/1/6 941/1/6
f 941/1/6 938/1/6 942/1/6
f 939/1/6 940/1/6 943/1/6
f 943/1/6 940/1/6 944/1/6
f 942/1/6 943/1/6 945/1/6
f 942/1/6 945/1/6 947/1/6
f 945/1/6 946/1/6 947/1/6
f 947/1/6 946/1/6 948/1/6
f 942/1/6 947/1/6 949/1/6
f 947/10/6 948/10/6 950/10/6
f 949/1/6 947/1/6 950/1/6
f 948/1/6 946/1/6 951/1/6
f 950/10/6 948/10/6 951/10/6
f 951/1/6 946/1/6 952/1/6
f 949/10/6 950/10/6 953/10/6
f 942/1/6 949/1/6 953/1/6
f 951/10/6 952/10/6 953/10/6
f 950/10/6 951/10/6 953/10/6
f 953/10/6 952/10/6 954/10/6
f 954/10/6 952/10/6 955/10/6
f 952/1/6 946/1/6 956/1/6
f 955/10/6 952/10/6 956/10/6
f 954/10/6 955/10/6 957/10/6
f 953/1/6 954/1/6 957/1/6
f 955/1/6 956/1/6 958/1/6
f 957/10/6 955/10/6 958/10/6
f 956/1/6 946/1/6 959/1/6
f 958/1/6 956/1/6 959/1/6
f 957/1/6 958/1/6 959/1/6
f 959/1/6 946/1/6 960/1/6
f 953/1/6 957/1/6 962/1/6
f 942/1/6 953/1/6 962/1/6
f 957/1/6 959/1/6 962/1/6
f 962/1/6 959/1/6 963/1/6
f 961/1/6 962/1/6 965/1/6
f 965/1/6 962/1/6 966/1/6
f 963/1/6 964/1/6 967/1/6
f 967/1/6 964/1/6 968/1/6
f 969/6/6 970/6/6 973/6/6
f 973/6/6 970/6/6 974/6/6
f 971/5/6 972/5/6 975/5/6
f 975/5/6 972/5/6 976/5/6
f 977/6/6 978/6/6 980/6/6
f 978/5/6 979/5/6 981/5/6
f 980/6/6 978/6/6 981/6/6
f 981/5/6 979/5/6 982/5/6
f 983/2/6 984/2/6 988/2/6
f 988/2/6 984/2/6 989/2/6
f 989/2/6 984/2/6 990/2/6
f 985/2/6 986/2/6 991/2/6
f 991/2/6 986/2/6 992/2/6
f 992/2/6 986/2/6 993/2/6
f 987/2/6 988/2/6 995/2/6
f 993/2/6 994/2/6 996/2/6
f 987/2/6 995/2/6 997/2/6
f 996/2/6 994/2/6 998/2/6
f 987/2/6 997/2/6 999/2/6
f 999/2/6 997/2/6 1000/2/6
f 998/2/6 994/2/6 1003/2/6
f 1003/2/6 994/2/6 1004/2/6
f 1001/2/6 1002/2/6 1005/2/6
f 1002/2/6 1003/2/6 1005/2/6
f 1000/2/6 1001/2/6 1005/2/6
f 1005/2/6 1003/2/6 1006/2/6
f 1007/7/6 1008/7/6 1009/7/6
f 1009/7/6 1008/7/6 1010/7/6
f 1011/3/6 1012/3/6 1016/3/6
f 1016/3/6 1012/3/6 1017/3/6
f 1013/3/6 1014/3/6 1018/3/6
f 1018/3/6 1014/3/6 1019/3/6
f 1015/3/6 1016/3/6 1021/3/6
f 1021/3/6 1016/3/6 1022/3/6
f 1019/3/6 1020/3/6 1023/3/6
f 1023/3/6 1020/3/6 1024/3/6
f 1022/3/6 1023/3/6 1025/3/6
f 1025/3/6 1023/3/6 1026/3/6
f 1027/7/6 1028/7/6 1029/7/6
f 1029/7/6 1028/7/6 1030/7/6
f 1029/7/6 1030/7/6 1033/7/6
f 1033/7/6 1030/7/6 1034/7/6
f 1031/3/6 1032/3/6 1038/3/6
f 1038/3/6 1032/3/6 1039/3/6
f 1035/3/6 1036/3/6 1040/3/6
f 1040/3/6 1036/3/6 1041/3/6
f 1037/3/6 1038/3/6 1043/3/6
f 1041/3/6 1042/3/6 1046/3/6
f 1043/3/6 1044/3/6 1047/3/6
f 1037/3/6 1043/3/6 1047/3/6
f 1047/3/6 1044/3/6 1048/3/6
f 1045/3/6 1046/3/6 1049/3/6
f 1046/3/6 1042/3/6 1050/3/6
f 1049/3/6 1046/3/6 1050/3/6
f 1051/5/6 1052/5/6 1057/5/6
f 1057/5/6 1052/5/6 1058/5/6
f 1058/5/6 1052/5/6 1059/5/6
f 1054/3/6 1055/3/6 1061/3/6
f 1053/3/6 1054/3/6 1061/3/6
f 1061/3/6 1055/3/6 1062/3/6
f 1062/3/6 1055/3/6 1063/3/6
f 1057/3/6 1058/3/6 1064/3/6
f 1056/3/6 1057/3/6 1064/3/6
f 1064/3/6 1058/3/6 1065/3/6
f 1065/3/6 1058/3/6 1066/3/6
f 1061/3/6 1062/3/6 1068/3/6
f 1060/3/6 1061/3/6 1068/3/6
f 1068/3/6 1062/3/6 1069/3/6
f 1066/3/6 1067/3/6 1070/3/6
f 1065/3/6 1066/3/6 1070/3/6
f 1070/3/6 1067/3/6 1071/3/6
f 1069/1/6 1070/1/6 1072/1/6
f 1072/1/6 1070/1/6 1073/1/6
f 1074/5/6 1075/5/6 1077/5/6
f 1075/5/6 1076/5/6 1077/5/6
f 1077/5/6 1076/5/6 1078/5/6
f 1079/1/6 1080/1/6 1083/1/6
f 1081/1/6 1082/1/6 1084/1/6
f 1079/1/6 1083/1/6 1085/1/6
f 1083/1/6 1084/1/6 1085/1/6
f 1084/1/6 1082/1/6 1086/1/6
f 1085/1/6 1084/1/6 1086/1/6
f 1087/4/6 1088/4/6 1089/4/6
f 1089/4/6 1088/4/6 1090/4/6
f 1090/4/6 1088/4/6 1091/4/6
f 1091/4/6 1088/4/6 1092/4/6
f 1093/1/6 1094/1/6 1097/1/6
f 1097/1/6 1094/1/6 1098/1/6
f 1095/1/6 1096/1/6 1099/1/6
f 1099/1/6 1096/1/6 1100/1/6
f 1105/4/6 1106/4/6 1109/4/6
f 1109/4/6 1106/4/6 1110/4/6
f 1107/4/6 1108/4/6 1111/4/6
f 1111/4/6 1108/4/6 1112/4/6
f 1101/1/6 1102/1/6 1113/1/6
f 1113/1/6 1102/1/6 1114/1/6
f 1103/1/6 1104/1/6 1115/1/6
f 1115/1/6 1104/1/6 1116/1/6
f 1114/1/6 1115/1/6 1117/1/6
f 1117/1/6 1115/1/6 1118/1/6
f 1119/4/6 1120/4/6 1123/4/6
f 1123/4/6 1120/4/6 1124/4/6
f 1121/4/6 1122/4/6 1125/4/6
f 1125/4/6 1122/4/6 1126/4/6
f 1127/1/6 1128/1/6 1131/1/6
f 1131/1/6 1128/1/6 1132/1/6
f 1129/1/6 1130/1/6 1133/1/6
f 1133/1/6 1130/1/6 1134/1/6
f 1119/4/6 1123/4/6 1135/4/6
f 1135/4/6 1123/4/6 1136/4/6
f 1126/4/6 1122/4/6 1139/4/6
f 1139/4/6 1122/4/6 1140/4/6
f 1137/1/6 1138/1/6 1141/1/6
f 1141/1/6 1138/1/6 1142/1/6
f 1143/1/6 1144/1/6 1145/1/6
f 1145/1/6 1144/1/6 1146/1/6
