# Blender 5.0.0
# www.blender.org
mtllib HiyokoStudentPropeller.mtl
o Untitled
v -0.738309 -0.639451 0.424219
v -0.738309 -0.639451 -0.675781
v -0.738309 0.060549 0.424219
v -0.738309 0.060549 -0.675781
v -0.738309 0.160549 0.424219
v -0.738309 0.160549 -0.675781
v -0.638309 -0.739451 0.424219
v -0.638309 -0.739451 -0.675781
v -0.638309 -0.639451 0.524219
v -0.638309 -0.639451 0.424219
v -0.638309 -0.639451 -0.675781
v -0.638309 -0.639451 -0.775781
v -0.638309 0.060549 0.524219
v -0.638309 0.060549 0.424219
v -0.638309 0.060549 -0.675781
v -0.638309 0.060549 -0.775781
v -0.638309 0.160549 0.524219
v -0.638309 0.160549 0.424219
v -0.638309 0.160549 0.324219
v -0.638309 0.160549 -0.575781
v -0.638309 0.160549 -0.675781
v -0.638309 0.160549 -0.775781
v -0.638309 0.360549 0.324219
v -0.638309 0.360549 -0.575781
v -0.638309 0.760549 0.324219
v -0.638309 0.760549 -0.475781
v -0.638309 0.860549 0.324219
v -0.638309 0.860549 -0.475781
v -0.538309 -0.639451 0.424219
v -0.538309 -0.639451 0.324219
v -0.538309 -0.639451 -0.575781
v -0.538309 -0.639451 -0.675781
v -0.538309 0.060549 0.424219
v -0.538309 0.060549 -0.675781
v -0.538309 0.160549 0.424219
v -0.538309 0.160549 -0.675781
v -0.538309 0.260549 0.424219
v -0.538309 0.260549 0.324219
v -0.538309 0.360549 0.424219
v -0.538309 0.360549 0.324219
v -0.538309 0.360549 -0.575781
v -0.538309 0.360549 -0.675781
v -0.538309 0.460549 0.324219
v -0.538309 0.460549 -0.575781
v -0.538309 0.560549 0.524219
v -0.538309 0.560549 0.424219
v -0.538309 0.560549 0.224219
v -0.538309 0.560549 -0.375781
v -0.538309 0.760549 0.424219
v -0.538309 0.760549 0.324219
v -0.538309 0.760549 0.224219
v -0.538309 0.760549 -0.375781
v -0.538309 0.760549 -0.475781
v -0.538309 0.760549 -0.575781
v -0.538309 0.860549 0.424219
v -0.538309 0.860549 0.324219
v -0.538309 0.860549 -0.475781
v -0.538309 0.860549 -0.575781
v -0.538309 0.960549 0.524219
v -0.538309 0.960549 0.424219
v -0.438309 0.360549 0.424219
v -0.438309 0.360549 0.324219
v -0.438309 0.460549 0.424219
v -0.438309 0.460549 0.324219
v -0.438309 0.460549 -0.475781
v -0.438309 0.560549 0.324219
v -0.438309 0.560549 0.224219
v -0.438309 0.560549 -0.375781
v -0.438309 0.560549 -0.475781
v -0.438309 0.760549 0.324219
v -0.438309 0.760549 0.224219
v -0.438309 0.760549 -0.375781
v -0.438309 0.760549 -0.475781
v -0.438309 0.760549 -0.575781
v -0.438309 0.760549 -0.675781
v -0.438309 0.860549 0.424219
v -0.438309 0.860549 0.324219
v -0.438309 0.860549 -0.575781
v -0.438309 0.860549 -0.675781
v -0.438309 0.960549 0.424219
v -0.438309 0.960549 0.324219
v -0.338309 -0.939451 0.224219
v -0.338309 -0.939451 0.124219
v -0.338309 -0.939451 -0.375781
v -0.338309 -0.939451 -0.475781
v -0.338309 -0.839451 0.224219
v -0.338309 -0.839451 0.124219
v -0.338309 -0.839451 -0.375781
v -0.338309 -0.839451 -0.475781
v -0.338309 0.460549 0.424219
v -0.338309 0.460549 0.324219
v -0.338309 0.560549 0.424219
v -0.338309 0.560549 0.324219
v -0.338309 0.560549 -0.475781
v -0.338309 0.560549 -0.575781
v -0.338309 0.760549 0.424219
v -0.338309 0.760549 0.324219
v -0.338309 0.760549 -0.475781
v -0.338309 0.760549 -0.575781
v -0.338309 0.860549 0.324219
v -0.338309 0.860549 0.224219
v -0.338309 0.960549 0.324219
v -0.338309 0.960549 0.224219
v -0.238309 -0.939451 0.124219
v -0.238309 -0.939451 0.024219
v -0.238309 -0.939451 -0.275781
v -0.238309 -0.939451 -0.375781
v -0.238309 -0.839451 0.124219
v -0.238309 -0.839451 0.024219
v -0.238309 -0.839451 -0.275781
v -0.238309 -0.839451 -0.375781
v -0.238309 -0.439451 0.624219
v -0.238309 -0.439451 0.524219
v -0.238309 -0.139451 0.624219
v -0.238309 -0.139451 0.524219
v -0.238309 0.860549 0.224219
v -0.238309 0.860549 0.124219
v -0.238309 0.960549 0.224219
v -0.238309 0.960549 0.124219
v -0.138309 -0.939451 0.024219
v -0.138309 -0.939451 -0.075781
v -0.138309 -0.939451 -0.175781
v -0.138309 -0.939451 -0.275781
v -0.138309 -0.839451 0.024219
v -0.138309 -0.839451 -0.075781
v -0.138309 -0.839451 -0.175781
v -0.138309 -0.839451 -0.275781
v -0.138309 -0.739451 -0.075781
v -0.138309 -0.739451 -0.175781
v -0.138309 -0.539451 0.624219
v -0.138309 -0.539451 0.524219
v -0.138309 -0.439451 0.624219
v -0.138309 -0.439451 0.524219
v -0.138309 -0.139451 0.624219
v -0.138309 -0.139451 0.524219
v -0.138309 -0.039451 0.624219
v -0.138309 -0.039451 0.524219
v -0.138309 0.260549 0.724219
v -0.138309 0.260549 0.424219
v -0.138309 0.360549 0.724219
v -0.138309 0.360549 0.424219
v -0.138309 0.860549 0.124219
v -0.138309 0.860549 0.024219
v -0.138309 0.960549 0.124219
v -0.138309 0.960549 0.024219
v -0.038309 -1.039451 -0.075781
v -0.038309 -1.039451 -0.175781
v -0.038309 -0.939451 -0.075781
v -0.038309 -0.939451 -0.175781
v -0.038309 -0.839451 0.024219
v -0.038309 -0.839451 -0.075781
v -0.038309 -0.839451 -0.175781
v -0.038309 -0.839451 -0.275781
v -0.038309 -0.739451 0.024219
v -0.038309 -0.739451 -0.075781
v -0.038309 -0.739451 -0.175781
v -0.038309 -0.739451 -0.275781
v -0.038309 0.860549 0.024219
v -0.038309 0.860549 -0.175781
v -0.038309 0.960549 0.024219
v -0.038309 0.960549 -0.175781
v 0.061691 -0.939451 0.024219
v 0.061691 -0.939451 -0.075781
v 0.061691 -0.939451 -0.175781
v 0.061691 -0.939451 -0.275781
v 0.061691 -0.839451 0.024219
v 0.061691 -0.839451 -0.075781
v 0.061691 -0.839451 -0.175781
v 0.061691 -0.839451 -0.275781
v 0.161691 -0.939451 0.124219
v 0.161691 -0.939451 0.024219
v 0.161691 -0.939451 -0.275781
v 0.161691 -0.939451 -0.375781
v 0.161691 -0.839451 0.124219
v 0.161691 -0.839451 0.024219
v 0.161691 -0.839451 -0.275781
v 0.161691 -0.839451 -0.375781
v 0.261691 -0.939451 0.224219
v 0.261691 -0.939451 0.124219
v 0.261691 -0.939451 -0.375781
v 0.261691 -0.939451 -0.475781
v 0.261691 -0.839451 0.224219
v 0.261691 -0.839451 0.124219
v 0.261691 -0.839451 -0.375781
v 0.261691 -0.839451 -0.475781
v 0.361691 0.560549 0.324219
v 0.361691 0.560549 0.224219
v 0.361691 0.560549 -0.375781
v 0.361691 0.560549 -0.475781
v 0.361691 0.760549 0.324219
v 0.361691 0.760549 0.224219
v 0.361691 0.760549 -0.375781
v 0.361691 0.760549 -0.475781
v 0.461691 0.360549 0.224219
v 0.461691 0.360549 -0.475781
v 0.461691 0.460549 0.224219
v 0.461691 0.460549 -0.475781
v 0.461691 0.560549 0.224219
v 0.461691 0.560549 -0.375781
v 0.461691 0.760549 0.224219
v 0.461691 0.760549 -0.375781
v 0.561691 -0.639451 0.324219
v 0.561691 -0.639451 0.224219
v 0.561691 -0.639451 -0.475781
v 0.561691 -0.639451 -0.575781
v 0.561691 0.160549 0.224219
v 0.561691 0.160549 -0.475781
v 0.561691 0.260549 0.324219
v 0.561691 0.360549 0.324219
v 0.561691 0.360549 -0.575781
v 0.661691 -0.639451 0.424219
v 0.661691 -0.639451 0.324219
v 0.661691 -0.639451 0.224219
v 0.661691 -0.639451 -0.475781
v 0.661691 -0.639451 -0.575781
v 0.661691 -0.639451 -0.675781
v 0.661691 0.060549 0.424219
v 0.661691 0.060549 0.324219
v 0.661691 0.060549 0.224219
v 0.661691 0.060549 -0.475781
v 0.661691 0.060549 -0.575781
v 0.661691 0.060549 -0.675781
v 0.661691 0.160549 0.424219
v 0.661691 0.160549 0.324219
v 0.661691 0.160549 0.224219
v 0.661691 0.160549 -0.475781
v 0.661691 0.160549 -0.575781
v 0.661691 0.160549 -0.675781
v -0.638309 -0.639451 0.424219
v -0.638309 -0.639451 0.324219
v -0.638309 -0.639451 -0.575781
v -0.638309 -0.639451 -0.675781
v -0.638309 0.060549 0.424219
v -0.638309 0.060549 0.324219
v -0.638309 0.060549 -0.575781
v -0.638309 0.060549 -0.675781
v -0.638309 0.160549 0.424219
v -0.638309 0.160549 0.324219
v -0.638309 0.160549 -0.575781
v -0.638309 0.160549 -0.675781
v -0.538309 -0.639451 0.324219
v -0.538309 -0.639451 -0.575781
v -0.538309 0.260549 0.324219
v -0.538309 0.360549 0.324219
v -0.538309 0.360549 -0.575781
v -0.438309 0.360549 0.224219
v -0.438309 0.360549 -0.475781
v -0.438309 0.460549 0.224219
v -0.438309 0.460549 -0.475781
v -0.438309 0.560549 0.524219
v -0.438309 0.560549 0.424219
v -0.438309 0.560549 0.224219
v -0.438309 0.560549 -0.375781
v -0.438309 0.760549 0.524219
v -0.438309 0.760549 0.424219
v -0.438309 0.760549 0.224219
v -0.438309 0.760549 -0.375781
v -0.438309 0.860549 0.524219
v -0.438309 0.860549 0.424219
v -0.438309 0.960549 0.524219
v -0.438309 0.960549 0.424219
v -0.338309 0.560549 0.324219
v -0.338309 0.560549 0.224219
v -0.338309 0.560549 -0.375781
v -0.338309 0.560549 -0.475781
v -0.338309 0.760549 0.324219
v -0.338309 0.760549 0.224219
v -0.338309 0.760549 -0.375781
v -0.338309 0.760549 -0.475781
v -0.338309 0.860549 0.424219
v -0.338309 0.860549 0.324219
v -0.338309 0.960549 0.424219
v -0.338309 0.960549 0.324219
v -0.238309 -0.939451 0.224219
v -0.238309 -0.939451 0.124219
v -0.238309 -0.939451 -0.375781
v -0.238309 -0.939451 -0.475781
v -0.238309 -0.839451 0.224219
v -0.238309 -0.839451 0.124219
v -0.238309 -0.839451 -0.375781
v -0.238309 -0.839451 -0.475781
v -0.238309 0.860549 0.324219
v -0.238309 0.860549 0.224219
v -0.238309 0.960549 0.324219
v -0.238309 0.960549 0.224219
v -0.138309 -0.939451 0.124219
v -0.138309 -0.939451 0.024219
v -0.138309 -0.939451 -0.275781
v -0.138309 -0.939451 -0.375781
v -0.138309 -0.839451 0.124219
v -0.138309 -0.839451 0.024219
v -0.138309 -0.839451 -0.275781
v -0.138309 -0.839451 -0.375781
v -0.138309 0.860549 0.224219
v -0.138309 0.860549 0.124219
v -0.138309 0.960549 0.224219
v -0.138309 0.960549 0.124219
v -0.038309 -0.939451 0.024219
v -0.038309 -0.939451 -0.075781
v -0.038309 -0.939451 -0.175781
v -0.038309 -0.939451 -0.275781
v -0.038309 -0.839451 0.024219
v -0.038309 -0.839451 -0.075781
v -0.038309 -0.839451 -0.175781
v -0.038309 -0.839451 -0.275781
v -0.038309 0.860549 0.124219
v -0.038309 0.860549 0.024219
v -0.038309 0.960549 0.124219
v -0.038309 0.960549 0.024219
v 0.061691 -1.039451 -0.075781
v 0.061691 -1.039451 -0.175781
v 0.061691 -0.939451 -0.075781
v 0.061691 -0.939451 -0.175781
v 0.061691 -0.839451 0.024219
v 0.061691 -0.839451 -0.075781
v 0.061691 -0.839451 -0.175781
v 0.061691 -0.839451 -0.275781
v 0.061691 -0.739451 0.024219
v 0.061691 -0.739451 -0.075781
v 0.061691 -0.739451 -0.175781
v 0.061691 -0.739451 -0.275781
v 0.061691 0.860549 0.024219
v 0.061691 0.860549 -0.175781
v 0.061691 0.960549 0.024219
v 0.061691 0.960549 -0.175781
v 0.161691 -0.939451 0.024219
v 0.161691 -0.939451 -0.075781
v 0.161691 -0.939451 -0.175781
v 0.161691 -0.939451 -0.275781
v 0.161691 -0.839451 0.024219
v 0.161691 -0.839451 -0.075781
v 0.161691 -0.839451 -0.175781
v 0.161691 -0.839451 -0.275781
v 0.161691 -0.739451 -0.075781
v 0.161691 -0.739451 -0.175781
v 0.161691 -0.539451 0.624219
v 0.161691 -0.539451 0.524219
v 0.161691 -0.439451 0.624219
v 0.161691 -0.439451 0.524219
v 0.161691 -0.139451 0.624219
v 0.161691 -0.139451 0.524219
v 0.161691 -0.039451 0.624219
v 0.161691 -0.039451 0.524219
v 0.161691 0.260549 0.724219
v 0.161691 0.260549 0.424219
v 0.161691 0.360549 0.724219
v 0.161691 0.360549 0.424219
v 0.261691 -0.939451 0.124219
v 0.261691 -0.939451 0.024219
v 0.261691 -0.939451 -0.275781
v 0.261691 -0.939451 -0.375781
v 0.261691 -0.839451 0.124219
v 0.261691 -0.839451 0.024219
v 0.261691 -0.839451 -0.275781
v 0.261691 -0.839451 -0.375781
v 0.261691 -0.439451 0.624219
v 0.261691 -0.439451 0.524219
v 0.261691 -0.339451 0.624219
v 0.261691 -0.339451 0.524219
v 0.261691 -0.139451 0.624219
v 0.261691 -0.139451 0.524219
v 0.361691 -0.939451 0.224219
v 0.361691 -0.939451 0.124219
v 0.361691 -0.939451 -0.375781
v 0.361691 -0.939451 -0.475781
v 0.361691 -0.839451 0.224219
v 0.361691 -0.839451 0.124219
v 0.361691 -0.839451 -0.375781
v 0.361691 -0.839451 -0.475781
v 0.361691 0.460549 0.424219
v 0.361691 0.460549 0.324219
v 0.361691 0.560549 0.424219
v 0.361691 0.560549 0.324219
v 0.361691 0.560549 -0.475781
v 0.361691 0.560549 -0.575781
v 0.361691 0.760549 0.424219
v 0.361691 0.760549 0.324219
v 0.361691 0.760549 -0.475781
v 0.361691 0.760549 -0.575781
v 0.461691 0.360549 0.424219
v 0.461691 0.360549 0.324219
v 0.461691 0.460549 0.424219
v 0.461691 0.460549 0.324219
v 0.461691 0.460549 -0.475781
v 0.461691 0.560549 0.324219
v 0.461691 0.560549 0.224219
v 0.461691 0.560549 -0.375781
v 0.461691 0.560549 -0.475781
v 0.461691 0.760549 0.524219
v 0.461691 0.760549 0.424219
v 0.461691 0.760549 0.324219
v 0.461691 0.760549 0.224219
v 0.461691 0.760549 -0.375781
v 0.461691 0.760549 -0.475781
v 0.461691 0.760549 -0.575781
v 0.461691 0.760549 -0.675781
v 0.461691 0.860549 0.524219
v 0.461691 0.860549 0.424219
v 0.461691 0.860549 -0.575781
v 0.461691 0.860549 -0.675781
v 0.561691 -0.639451 0.424219
v 0.561691 -0.639451 0.324219
v 0.561691 -0.639451 -0.575781
v 0.561691 -0.639451 -0.675781
v 0.561691 0.060549 0.424219
v 0.561691 0.060549 -0.675781
v 0.561691 0.160549 0.424219
v 0.561691 0.160549 -0.675781
v 0.561691 0.260549 0.424219
v 0.561691 0.260549 0.324219
v 0.561691 0.360549 0.424219
v 0.561691 0.360549 0.324219
v 0.561691 0.360549 -0.575781
v 0.561691 0.360549 -0.675781
v 0.561691 0.460549 0.324219
v 0.561691 0.460549 -0.575781
v 0.561691 0.560549 0.224219
v 0.561691 0.560549 -0.375781
v 0.561691 0.760549 0.424219
v 0.561691 0.760549 0.324219
v 0.561691 0.760549 0.224219
v 0.561691 0.760549 -0.375781
v 0.561691 0.760549 -0.475781
v 0.561691 0.760549 -0.575781
v 0.561691 0.860549 0.424219
v 0.561691 0.860549 0.324219
v 0.561691 0.860549 -0.475781
v 0.561691 0.860549 -0.575781
v 0.661691 -0.739451 0.424219
v 0.661691 -0.739451 -0.675781
v 0.661691 -0.639451 0.524219
v 0.661691 -0.639451 0.424219
v 0.661691 -0.639451 -0.675781
v 0.661691 -0.639451 -0.775781
v 0.661691 0.060549 0.524219
v 0.661691 0.060549 0.424219
v 0.661691 0.060549 -0.675781
v 0.661691 0.060549 -0.775781
v 0.661691 0.160549 0.524219
v 0.661691 0.160549 0.424219
v 0.661691 0.160549 0.324219
v 0.661691 0.160549 -0.575781
v 0.661691 0.160549 -0.675781
v 0.661691 0.160549 -0.775781
v 0.661691 0.360549 0.324219
v 0.661691 0.360549 -0.575781
v 0.661691 0.760549 0.324219
v 0.661691 0.760549 -0.475781
v 0.661691 0.860549 0.324219
v 0.661691 0.860549 -0.475781
v 0.761691 -0.639451 0.424219
v 0.761691 -0.639451 -0.675781
v 0.761691 0.060549 0.424219
v 0.761691 0.060549 -0.675781
v 0.761691 0.160549 0.424219
v 0.761691 0.160549 -0.675781
v -0.138309 0.260549 0.724219
v -0.138309 0.360549 0.724219
v 0.161691 0.260549 0.724219
v 0.161691 0.360549 0.724219
v -0.238309 -0.439451 0.624219
v -0.238309 -0.139451 0.624219
v -0.138309 -0.539451 0.624219
v -0.138309 -0.439451 0.624219
v -0.138309 -0.139451 0.624219
v -0.138309 -0.039451 0.624219
v -0.038309 -0.139451 0.624219
v -0.038309 -0.039451 0.624219
v 0.061691 -0.239451 0.624219
v 0.061691 -0.139451 0.624219
v 0.161691 -0.539451 0.624219
v 0.161691 -0.439451 0.624219
v 0.161691 -0.339451 0.624219
v 0.161691 -0.239451 0.624219
v 0.161691 -0.139451 0.624219
v 0.161691 -0.039451 0.624219
v 0.261691 -0.439451 0.624219
v 0.261691 -0.339451 0.624219
v 0.261691 -0.139451 0.624219
v -0.638309 -0.639451 0.524219
v -0.638309 0.060549 0.524219
v -0.638309 0.160549 0.524219
v -0.538309 0.560549 0.524219
v -0.538309 0.960549 0.524219
v -0.438309 0.560549 0.524219
v -0.438309 0.760549 0.524219
v -0.438309 0.860549 0.524219
v -0.438309 0.960549 0.524219
v -0.238309 -0.439451 0.524219
v -0.238309 -0.139451 0.524219
v -0.138309 -0.539451 0.524219
v -0.138309 -0.439451 0.524219
v -0.138309 -0.139451 0.524219
v -0.138309 -0.039451 0.524219
v -0.038309 -0.039451 0.524219
v 0.161691 -0.539451 0.524219
v 0.161691 -0.439451 0.524219
v 0.161691 -0.139451 0.524219
v 0.161691 -0.039451 0.524219
v 0.261691 -0.439451 0.524219
v 0.261691 -0.339451 0.524219
v 0.261691 -0.139451 0.524219
v 0.461691 0.760549 0.524219
v 0.461691 0.860549 0.524219
v 0.661691 -0.639451 0.524219
v 0.661691 0.060549 0.524219
v 0.661691 0.160549 0.524219
v -0.738309 -0.639451 0.424219
v -0.738309 0.060549 0.424219
v -0.738309 0.160549 0.424219
v -0.638309 -0.739451 0.424219
v -0.638309 -0.639451 0.424219
v -0.638309 0.060549 0.424219
v -0.638309 0.160549 0.424219
v -0.538309 0.160549 0.424219
v -0.538309 0.260549 0.424219
v -0.538309 0.360549 0.424219
v -0.438309 0.360549 0.424219
v -0.438309 0.460549 0.424219
v -0.438309 0.860549 0.424219
v -0.438309 0.960549 0.424219
v -0.338309 0.260549 0.424219
v -0.338309 0.360549 0.424219
v -0.338309 0.460549 0.424219
v -0.338309 0.560549 0.424219
v -0.338309 0.760549 0.424219
v -0.338309 0.860549 0.424219
v -0.338309 0.960549 0.424219
v -0.238309 0.360549 0.424219
v -0.238309 0.460549 0.424219
v -0.138309 0.260549 0.424219
v -0.138309 0.360549 0.424219
v -0.138309 0.460549 0.424219
v 0.161691 0.260549 0.424219
v 0.161691 0.360549 0.424219
v 0.161691 0.460549 0.424219
v 0.261691 0.360549 0.424219
v 0.261691 0.460549 0.424219
v 0.361691 0.260549 0.424219
v 0.361691 0.360549 0.424219
v 0.361691 0.460549 0.424219
v 0.361691 0.560549 0.424219
v 0.361691 0.760549 0.424219
v 0.461691 0.360549 0.424219
v 0.461691 0.460549 0.424219
v 0.461691 0.760549 0.424219
v 0.461691 0.860549 0.424219
v 0.561691 0.160549 0.424219
v 0.561691 0.260549 0.424219
v 0.561691 0.360549 0.424219
v 0.561691 0.760549 0.424219
v 0.561691 0.860549 0.424219
v 0.661691 -0.739451 0.424219
v 0.661691 -0.639451 0.424219
v 0.661691 0.060549 0.424219
v 0.661691 0.160549 0.424219
v 0.761691 -0.639451 0.424219
v 0.761691 0.060549 0.424219
v 0.761691 0.160549 0.424219
v -0.638309 -0.639451 0.324219
v -0.638309 0.060549 0.324219
v -0.638309 0.160549 0.324219
v -0.638309 0.360549 0.324219
v -0.638309 0.760549 0.324219
v -0.638309 0.860549 0.324219
v -0.538309 -0.639451 0.324219
v -0.538309 0.260549 0.324219
v -0.538309 0.360549 0.324219
v -0.538309 0.460549 0.324219
v -0.538309 0.760549 0.324219
v -0.538309 0.860549 0.324219
v -0.438309 0.360549 0.324219
v -0.438309 0.460549 0.324219
v -0.438309 0.560549 0.324219
v -0.438309 0.760549 0.324219
v -0.338309 0.460549 0.324219
v -0.338309 0.560549 0.324219
v -0.338309 0.760549 0.324219
v -0.338309 0.860549 0.324219
v -0.338309 0.960549 0.324219
v -0.238309 0.860549 0.324219
v -0.238309 0.960549 0.324219
v 0.361691 0.460549 0.324219
v 0.361691 0.560549 0.324219
v 0.361691 0.760549 0.324219
v 0.461691 0.360549 0.324219
v 0.461691 0.460549 0.324219
v 0.461691 0.560549 0.324219
v 0.461691 0.760549 0.324219
v 0.561691 -0.639451 0.324219
v 0.561691 0.260549 0.324219
v 0.561691 0.360549 0.324219
v 0.561691 0.460549 0.324219
v 0.561691 0.760549 0.324219
v 0.561691 0.860549 0.324219
v 0.661691 -0.639451 0.324219
v 0.661691 0.060549 0.324219
v 0.661691 0.160549 0.324219
v 0.661691 0.360549 0.324219
v 0.661691 0.760549 0.324219
v 0.661691 0.860549 0.324219
v -0.538309 0.560549 0.224219
v -0.538309 0.760549 0.224219
v -0.438309 0.560549 0.224219
v -0.438309 0.760549 0.224219
v -0.338309 -0.939451 0.224219
v -0.338309 -0.839451 0.224219
v -0.238309 -0.939451 0.224219
v -0.238309 -0.839451 0.224219
v -0.238309 0.860549 0.224219
v -0.238309 0.960549 0.224219
v -0.138309 0.860549 0.224219
v -0.138309 0.960549 0.224219
v 0.261691 -0.939451 0.224219
v 0.261691 -0.839451 0.224219
v 0.361691 -0.939451 0.224219
v 0.361691 -0.839451 0.224219
v 0.461691 0.560549 0.224219
v 0.461691 0.760549 0.224219
v 0.561691 0.560549 0.224219
v 0.561691 0.760549 0.224219
v -0.238309 -0.939451 0.124219
v -0.238309 -0.839451 0.124219
v -0.138309 -0.939451 0.124219
v -0.138309 -0.839451 0.124219
v -0.138309 0.860549 0.124219
v -0.138309 0.960549 0.124219
v -0.038309 0.860549 0.124219
v -0.038309 0.960549 0.124219
v 0.161691 -0.939451 0.124219
v 0.161691 -0.839451 0.124219
v 0.261691 -0.939451 0.124219
v 0.261691 -0.839451 0.124219
v -0.138309 -0.939451 0.024219
v -0.138309 -0.839451 0.024219
v -0.038309 -0.939451 0.024219
v -0.038309 -0.839451 0.024219
v -0.038309 -0.739451 0.024219
v -0.038309 0.860549 0.024219
v -0.038309 0.960549 0.024219
v 0.061691 -0.939451 0.024219
v 0.061691 -0.839451 0.024219
v 0.061691 -0.739451 0.024219
v 0.061691 0.860549 0.024219
v 0.061691 0.960549 0.024219
v 0.161691 -0.939451 0.024219
v 0.161691 -0.839451 0.024219
v -0.138309 -0.839451 -0.075781
v -0.138309 -0.739451 -0.075781
v -0.038309 -1.039451 -0.075781
v -0.038309 -0.939451 -0.075781
v -0.038309 -0.839451 -0.075781
v -0.038309 -0.739451 -0.075781
v 0.061691 -1.039451 -0.075781
v 0.061691 -0.939451 -0.075781
v 0.061691 -0.839451 -0.075781
v 0.061691 -0.739451 -0.075781
v 0.161691 -0.839451 -0.075781
v 0.161691 -0.739451 -0.075781
v -0.138309 -0.939451 -0.175781
v -0.138309 -0.839451 -0.175781
v -0.038309 -0.939451 -0.175781
v -0.038309 -0.839451 -0.175781
v 0.061691 -0.939451 -0.175781
v 0.061691 -0.839451 -0.175781
v 0.161691 -0.939451 -0.175781
v 0.161691 -0.839451 -0.175781
v -0.238309 -0.939451 -0.275781
v -0.238309 -0.839451 -0.275781
v -0.138309 -0.939451 -0.275781
v -0.138309 -0.839451 -0.275781
v 0.161691 -0.939451 -0.275781
v 0.161691 -0.839451 -0.275781
v 0.261691 -0.939451 -0.275781
v 0.261691 -0.839451 -0.275781
v -0.438309 0.560549 -0.375781
v -0.438309 0.760549 -0.375781
v -0.338309 -0.939451 -0.375781
v -0.338309 -0.839451 -0.375781
v -0.338309 0.560549 -0.375781
v -0.338309 0.760549 -0.375781
v -0.238309 -0.939451 -0.375781
v -0.238309 -0.839451 -0.375781
v 0.261691 -0.939451 -0.375781
v 0.261691 -0.839451 -0.375781
v 0.361691 -0.939451 -0.375781
v 0.361691 -0.839451 -0.375781
v 0.361691 0.560549 -0.375781
v 0.361691 0.760549 -0.375781
v 0.461691 0.560549 -0.375781
v 0.461691 0.760549 -0.375781
v -0.438309 0.360549 -0.475781
v -0.438309 0.460549 -0.475781
v -0.338309 0.560549 -0.475781
v -0.338309 0.760549 -0.475781
v 0.361691 0.560549 -0.475781
v 0.361691 0.760549 -0.475781
v 0.461691 0.360549 -0.475781
v 0.461691 0.460549 -0.475781
v 0.561691 -0.639451 -0.475781
v 0.561691 0.160549 -0.475781
v 0.661691 -0.639451 -0.475781
v 0.661691 0.060549 -0.475781
v 0.661691 0.160549 -0.475781
v -0.538309 -0.639451 -0.575781
v -0.538309 0.360549 -0.575781
v 0.561691 -0.639451 -0.575781
v 0.561691 0.360549 -0.575781
v -0.638309 -0.639451 -0.675781
v -0.638309 0.060549 -0.675781
v -0.638309 0.160549 -0.675781
v -0.538309 -0.639451 -0.675781
v -0.538309 0.060549 -0.675781
v -0.538309 0.160549 -0.675781
v 0.561691 -0.639451 -0.675781
v 0.561691 0.060549 -0.675781
v 0.561691 0.160549 -0.675781
v 0.661691 -0.639451 -0.675781
v 0.661691 0.060549 -0.675781
v 0.661691 0.160549 -0.675781
v -0.638309 -0.639451 0.424219
v -0.638309 0.060549 0.424219
v -0.638309 0.160549 0.424219
v -0.538309 -0.639451 0.424219
v -0.538309 0.060549 0.424219
v -0.538309 0.160549 0.424219
v -0.538309 0.560549 0.424219
v -0.538309 0.760549 0.424219
v -0.538309 0.860549 0.424219
v -0.538309 0.960549 0.424219
v -0.438309 0.560549 0.424219
v -0.438309 0.760549 0.424219
v -0.438309 0.860549 0.424219
v -0.438309 0.960549 0.424219
v 0.561691 -0.639451 0.424219
v 0.561691 0.060549 0.424219
v 0.561691 0.160549 0.424219
v 0.661691 -0.639451 0.424219
v 0.661691 0.060549 0.424219
v 0.661691 0.160549 0.424219
v -0.538309 -0.639451 0.324219
v -0.538309 0.260549 0.324219
v -0.538309 0.360549 0.324219
v -0.438309 0.860549 0.324219
v -0.438309 0.960549 0.324219
v -0.338309 0.260549 0.324219
v -0.338309 0.360549 0.324219
v -0.338309 0.560549 0.324219
v -0.338309 0.760549 0.324219
v -0.338309 0.860549 0.324219
v -0.338309 0.960549 0.324219
v 0.361691 0.260549 0.324219
v 0.361691 0.360549 0.324219
v 0.361691 0.560549 0.324219
v 0.361691 0.760549 0.324219
v 0.561691 -0.639451 0.324219
v 0.561691 0.260549 0.324219
v 0.561691 0.360549 0.324219
v -0.438309 0.360549 0.224219
v -0.438309 0.460549 0.224219
v -0.438309 0.560549 0.224219
v -0.438309 0.760549 0.224219
v -0.338309 0.560549 0.224219
v -0.338309 0.760549 0.224219
v -0.338309 0.860549 0.224219
v -0.338309 0.960549 0.224219
v -0.238309 0.860549 0.224219
v -0.238309 0.960549 0.224219
v 0.361691 0.560549 0.224219
v 0.361691 0.760549 0.224219
v 0.461691 0.360549 0.224219
v 0.461691 0.460549 0.224219
v 0.461691 0.560549 0.224219
v 0.461691 0.760549 0.224219
v 0.561691 -0.639451 0.224219
v 0.561691 0.160549 0.224219
v 0.661691 -0.639451 0.224219
v 0.661691 0.060549 0.224219
v 0.661691 0.160549 0.224219
v -0.338309 -0.939451 0.124219
v -0.338309 -0.839451 0.124219
v -0.238309 -0.939451 0.124219
v -0.238309 -0.839451 0.124219
v -0.238309 0.860549 0.124219
v -0.238309 0.960549 0.124219
v -0.138309 0.860549 0.124219
v -0.138309 0.960549 0.124219
v 0.261691 -0.939451 0.124219
v 0.261691 -0.839451 0.124219
v 0.361691 -0.939451 0.124219
v 0.361691 -0.839451 0.124219
v -0.238309 -0.939451 0.024219
v -0.238309 -0.839451 0.024219
v -0.138309 -0.939451 0.024219
v -0.138309 -0.839451 0.024219
v -0.138309 0.860549 0.024219
v -0.138309 0.960549 0.024219
v -0.038309 0.860549 0.024219
v -0.038309 0.960549 0.024219
v 0.161691 -0.939451 0.024219
v 0.161691 -0.839451 0.024219
v 0.261691 -0.939451 0.024219
v 0.261691 -0.839451 0.024219
v -0.138309 -0.939451 -0.075781
v -0.138309 -0.839451 -0.075781
v -0.038309 -0.939451 -0.075781
v -0.038309 -0.839451 -0.075781
v 0.061691 -0.939451 -0.075781
v 0.061691 -0.839451 -0.075781
v 0.161691 -0.939451 -0.075781
v 0.161691 -0.839451 -0.075781
v -0.138309 -0.839451 -0.175781
v -0.138309 -0.739451 -0.175781
v -0.038309 -1.039451 -0.175781
v -0.038309 -0.939451 -0.175781
v -0.038309 -0.839451 -0.175781
v -0.038309 -0.739451 -0.175781
v -0.038309 0.860549 -0.175781
v -0.038309 0.960549 -0.175781
v 0.061691 -1.039451 -0.175781
v 0.061691 -0.939451 -0.175781
v 0.061691 -0.839451 -0.175781
v 0.061691 -0.739451 -0.175781
v 0.061691 0.860549 -0.175781
v 0.061691 0.960549 -0.175781
v 0.161691 -0.839451 -0.175781
v 0.161691 -0.739451 -0.175781
v -0.138309 -0.939451 -0.275781
v -0.138309 -0.839451 -0.275781
v -0.038309 -0.939451 -0.275781
v -0.038309 -0.839451 -0.275781
v -0.038309 -0.739451 -0.275781
v 0.061691 -0.939451 -0.275781
v 0.061691 -0.839451 -0.275781
v 0.061691 -0.739451 -0.275781
v 0.161691 -0.939451 -0.275781
v 0.161691 -0.839451 -0.275781
v -0.538309 0.560549 -0.375781
v -0.538309 0.760549 -0.375781
v -0.438309 0.560549 -0.375781
v -0.438309 0.760549 -0.375781
v -0.238309 -0.939451 -0.375781
v -0.238309 -0.839451 -0.375781
v -0.138309 -0.939451 -0.375781
v -0.138309 -0.839451 -0.375781
v 0.161691 -0.939451 -0.375781
v 0.161691 -0.839451 -0.375781
v 0.261691 -0.939451 -0.375781
v 0.261691 -0.839451 -0.375781
v 0.461691 0.560549 -0.375781
v 0.461691 0.760549 -0.375781
v 0.561691 0.560549 -0.375781
v 0.561691 0.760549 -0.375781
v -0.638309 0.760549 -0.475781
v -0.638309 0.860549 -0.475781
v -0.538309 0.760549 -0.475781
v -0.538309 0.860549 -0.475781
v -0.438309 0.460549 -0.475781
v -0.438309 0.560549 -0.475781
v -0.438309 0.760549 -0.475781
v -0.338309 -0.939451 -0.475781
v -0.338309 -0.839451 -0.475781
v -0.338309 0.560549 -0.475781
v -0.338309 0.760549 -0.475781
v -0.238309 -0.939451 -0.475781
v -0.238309 -0.839451 -0.475781
v 0.261691 -0.939451 -0.475781
v 0.261691 -0.839451 -0.475781
v 0.361691 -0.939451 -0.475781
v 0.361691 -0.839451 -0.475781
v 0.361691 0.560549 -0.475781
v 0.361691 0.760549 -0.475781
v 0.461691 0.460549 -0.475781
v 0.461691 0.560549 -0.475781
v 0.461691 0.760549 -0.475781
v 0.561691 0.760549 -0.475781
v 0.561691 0.860549 -0.475781
v 0.661691 0.760549 -0.475781
v 0.661691 0.860549 -0.475781
v -0.638309 -0.639451 -0.575781
v -0.638309 0.060549 -0.575781
v -0.638309 0.160549 -0.575781
v -0.638309 0.360549 -0.575781
v -0.538309 -0.639451 -0.575781
v -0.538309 0.360549 -0.575781
v -0.538309 0.460549 -0.575781
v -0.538309 0.760549 -0.575781
v -0.538309 0.860549 -0.575781
v -0.438309 0.760549 -0.575781
v -0.438309 0.860549 -0.575781
v -0.338309 0.560549 -0.575781
v -0.338309 0.760549 -0.575781
v 0.361691 0.560549 -0.575781
v 0.361691 0.760549 -0.575781
v 0.461691 0.760549 -0.575781
v 0.461691 0.860549 -0.575781
v 0.561691 -0.639451 -0.575781
v 0.561691 0.360549 -0.575781
v 0.561691 0.460549 -0.575781
v 0.561691 0.760549 -0.575781
v 0.561691 0.860549 -0.575781
v 0.661691 -0.639451 -0.575781
v 0.661691 0.060549 -0.575781
v 0.661691 0.160549 -0.575781
v 0.661691 0.360549 -0.575781
v -0.738309 -0.639451 -0.675781
v -0.738309 0.060549 -0.675781
v -0.738309 0.160549 -0.675781
v -0.638309 -0.739451 -0.675781
v -0.638309 -0.639451 -0.675781
v -0.638309 0.060549 -0.675781
v -0.638309 0.160549 -0.675781
v -0.538309 0.160549 -0.675781
v -0.538309 0.360549 -0.675781
v -0.438309 0.760549 -0.675781
v -0.438309 0.860549 -0.675781
v 0.461691 0.760549 -0.675781
v 0.461691 0.860549 -0.675781
v 0.561691 0.160549 -0.675781
v 0.561691 0.360549 -0.675781
v 0.661691 -0.739451 -0.675781
v 0.661691 -0.639451 -0.675781
v 0.661691 0.060549 -0.675781
v 0.661691 0.160549 -0.675781
v 0.761691 -0.639451 -0.675781
v 0.761691 0.060549 -0.675781
v 0.761691 0.160549 -0.675781
v -0.638309 -0.639451 -0.775781
v -0.638309 0.060549 -0.775781
v -0.638309 0.160549 -0.775781
v 0.661691 -0.639451 -0.775781
v 0.661691 0.060549 -0.775781
v 0.661691 0.160549 -0.775781
v -0.038309 -1.039451 -0.075781
v 0.061691 -1.039451 -0.075781
v -0.038309 -1.039451 -0.175781
v 0.061691 -1.039451 -0.175781
v -0.338309 -0.939451 0.224219
v -0.238309 -0.939451 0.224219
v 0.261691 -0.939451 0.224219
v 0.361691 -0.939451 0.224219
v -0.338309 -0.939451 0.124219
v -0.238309 -0.939451 0.124219
v -0.138309 -0.939451 0.124219
v 0.161691 -0.939451 0.124219
v 0.261691 -0.939451 0.124219
v 0.361691 -0.939451 0.124219
v -0.238309 -0.939451 0.024219
v -0.138309 -0.939451 0.024219
v -0.038309 -0.939451 0.024219
v 0.061691 -0.939451 0.024219
v 0.161691 -0.939451 0.024219
v 0.261691 -0.939451 0.024219
v -0.138309 -0.939451 -0.075781
v -0.038309 -0.939451 -0.075781
v 0.061691 -0.939451 -0.075781
v 0.161691 -0.939451 -0.075781
v -0.138309 -0.939451 -0.175781
v -0.038309 -0.939451 -0.175781
v 0.061691 -0.939451 -0.175781
v 0.161691 -0.939451 -0.175781
v -0.238309 -0.939451 -0.275781
v -0.138309 -0.939451 -0.275781
v -0.038309 -0.939451 -0.275781
v 0.061691 -0.939451 -0.275781
v 0.161691 -0.939451 -0.275781
v 0.261691 -0.939451 -0.275781
v -0.338309 -0.939451 -0.375781
v -0.238309 -0.939451 -0.375781
v -0.138309 -0.939451 -0.375781
v 0.161691 -0.939451 -0.375781
v 0.261691 -0.939451 -0.375781
v 0.361691 -0.939451 -0.375781
v -0.338309 -0.939451 -0.475781
v -0.238309 -0.939451 -0.475781
v 0.261691 -0.939451 -0.475781
v 0.361691 -0.939451 -0.475781
v -0.038309 -0.839451 0.024219
v 0.061691 -0.839451 0.024219
v -0.138309 -0.839451 -0.075781
v -0.038309 -0.839451 -0.075781
v 0.061691 -0.839451 -0.075781
v 0.161691 -0.839451 -0.075781
v -0.138309 -0.839451 -0.175781
v -0.038309 -0.839451 -0.175781
v 0.061691 -0.839451 -0.175781
v 0.161691 -0.839451 -0.175781
v -0.038309 -0.839451 -0.275781
v 0.061691 -0.839451 -0.275781
v -0.638309 -0.739451 0.424219
v 0.661691 -0.739451 0.424219
v -0.138309 -0.739451 0.024219
v -0.038309 -0.739451 0.024219
v 0.061691 -0.739451 0.024219
v 0.161691 -0.739451 0.024219
v -0.138309 -0.739451 -0.075781
v -0.038309 -0.739451 -0.075781
v 0.061691 -0.739451 -0.075781
v 0.161691 -0.739451 -0.075781
v -0.138309 -0.739451 -0.175781
v -0.038309 -0.739451 -0.175781
v 0.061691 -0.739451 -0.175781
v 0.161691 -0.739451 -0.175781
v -0.138309 -0.739451 -0.275781
v -0.038309 -0.739451 -0.275781
v 0.061691 -0.739451 -0.275781
v 0.161691 -0.739451 -0.275781
v -0.638309 -0.739451 -0.675781
v 0.661691 -0.739451 -0.675781
v -0.638309 -0.639451 0.524219
v 0.661691 -0.639451 0.524219
v -0.738309 -0.639451 0.424219
v -0.638309 -0.639451 0.424219
v 0.661691 -0.639451 0.424219
v 0.761691 -0.639451 0.424219
v -0.738309 -0.639451 -0.675781
v -0.638309 -0.639451 -0.675781
v 0.661691 -0.639451 -0.675781
v 0.761691 -0.639451 -0.675781
v -0.638309 -0.639451 -0.775781
v 0.661691 -0.639451 -0.775781
v -0.138309 -0.539451 0.624219
v 0.161691 -0.539451 0.624219
v -0.138309 -0.539451 0.524219
v 0.161691 -0.539451 0.524219
v -0.238309 -0.439451 0.624219
v -0.138309 -0.439451 0.624219
v 0.161691 -0.439451 0.624219
v 0.261691 -0.439451 0.624219
v -0.238309 -0.439451 0.524219
v -0.138309 -0.439451 0.524219
v 0.161691 -0.439451 0.524219
v 0.261691 -0.439451 0.524219
v 0.561691 0.160549 0.224219
v 0.661691 0.160549 0.224219
v 0.561691 0.160549 -0.475781
v 0.661691 0.160549 -0.475781
v -0.138309 0.260549 0.724219
v 0.161691 0.260549 0.724219
v -0.138309 0.260549 0.424219
v 0.161691 0.260549 0.424219
v -0.538309 0.360549 0.324219
v -0.338309 0.360549 0.324219
v 0.361691 0.360549 0.324219
v 0.561691 0.360549 0.324219
v -0.438309 0.360549 0.224219
v 0.461691 0.360549 0.224219
v -0.438309 0.360549 -0.475781
v 0.461691 0.360549 -0.475781
v -0.538309 0.360549 -0.575781
v 0.561691 0.360549 -0.575781
v -0.438309 0.460549 0.224219
v 0.461691 0.460549 0.224219
v -0.438309 0.460549 -0.475781
v 0.461691 0.460549 -0.475781
v -0.538309 0.560549 0.524219
v -0.438309 0.560549 0.524219
v -0.538309 0.560549 0.424219
v -0.438309 0.560549 0.424219
v -0.538309 0.560549 0.224219
v -0.438309 0.560549 0.224219
v 0.461691 0.560549 0.224219
v 0.561691 0.560549 0.224219
v -0.538309 0.560549 -0.375781
v -0.438309 0.560549 -0.375781
v 0.461691 0.560549 -0.375781
v 0.561691 0.560549 -0.375781
v -0.338309 0.560549 -0.475781
v 0.361691 0.560549 -0.475781
v -0.338309 0.560549 -0.575781
v 0.361691 0.560549 -0.575781
v -0.438309 0.760549 0.524219
v 0.461691 0.760549 0.524219
v -0.538309 0.760549 0.424219
v -0.438309 0.760549 0.424219
v -0.338309 0.760549 0.424219
v 0.361691 0.760549 0.424219
v 0.461691 0.760549 0.424219
v 0.561691 0.760549 0.424219
v -0.638309 0.760549 0.324219
v -0.538309 0.760549 0.324219
v -0.438309 0.760549 0.324219
v -0.338309 0.760549 0.324219
v 0.361691 0.760549 0.324219
v 0.461691 0.760549 0.324219
v 0.561691 0.760549 0.324219
v 0.661691 0.760549 0.324219
v -0.538309 0.760549 0.224219
v -0.438309 0.760549 0.224219
v -0.338309 0.760549 0.224219
v 0.361691 0.760549 0.224219
v 0.461691 0.760549 0.224219
v 0.561691 0.760549 0.224219
v -0.538309 0.760549 -0.375781
v -0.438309 0.760549 -0.375781
v -0.338309 0.760549 -0.375781
v 0.361691 0.760549 -0.375781
v 0.461691 0.760549 -0.375781
v 0.561691 0.760549 -0.375781
v -0.638309 0.760549 -0.475781
v -0.538309 0.760549 -0.475781
v -0.438309 0.760549 -0.475781
v -0.338309 0.760549 -0.475781
v 0.361691 0.760549 -0.475781
v 0.461691 0.760549 -0.475781
v 0.561691 0.760549 -0.475781
v 0.661691 0.760549 -0.475781
v -0.538309 0.760549 -0.575781
v -0.438309 0.760549 -0.575781
v -0.338309 0.760549 -0.575781
v 0.361691 0.760549 -0.575781
v 0.461691 0.760549 -0.575781
v 0.561691 0.760549 -0.575781
v -0.438309 0.760549 -0.675781
v 0.461691 0.760549 -0.675781
v -0.338309 -0.839451 0.224219
v -0.238309 -0.839451 0.224219
v 0.261691 -0.839451 0.224219
v 0.361691 -0.839451 0.224219
v -0.338309 -0.839451 0.124219
v -0.238309 -0.839451 0.124219
v -0.138309 -0.839451 0.124219
v 0.161691 -0.839451 0.124219
v 0.261691 -0.839451 0.124219
v 0.361691 -0.839451 0.124219
v -0.238309 -0.839451 0.024219
v -0.138309 -0.839451 0.024219
v -0.038309 -0.839451 0.024219
v 0.061691 -0.839451 0.024219
v 0.161691 -0.839451 0.024219
v 0.261691 -0.839451 0.024219
v -0.138309 -0.839451 -0.075781
v -0.038309 -0.839451 -0.075781
v 0.061691 -0.839451 -0.075781
v 0.161691 -0.839451 -0.075781
v -0.138309 -0.839451 -0.175781
v -0.038309 -0.839451 -0.175781
v 0.061691 -0.839451 -0.175781
v 0.161691 -0.839451 -0.175781
v -0.238309 -0.839451 -0.275781
v -0.138309 -0.839451 -0.275781
v -0.038309 -0.839451 -0.275781
v 0.061691 -0.839451 -0.275781
v 0.161691 -0.839451 -0.275781
v 0.261691 -0.839451 -0.275781
v -0.338309 -0.839451 -0.375781
v -0.238309 -0.839451 -0.375781
v -0.138309 -0.839451 -0.375781
v 0.161691 -0.839451 -0.375781
v 0.261691 -0.839451 -0.375781
v 0.361691 -0.839451 -0.375781
v -0.338309 -0.839451 -0.475781
v -0.238309 -0.839451 -0.475781
v 0.261691 -0.839451 -0.475781
v 0.361691 -0.839451 -0.475781
v -0.638309 -0.639451 0.424219
v -0.538309 -0.639451 0.424219
v 0.561691 -0.639451 0.424219
v 0.661691 -0.639451 0.424219
v -0.638309 -0.639451 0.324219
v -0.538309 -0.639451 0.324219
v 0.561691 -0.639451 0.324219
v 0.661691 -0.639451 0.324219
v 0.561691 -0.639451 0.224219
v 0.661691 -0.639451 0.224219
v -0.138309 -0.639451 0.024219
v 0.161691 -0.639451 0.024219
v -0.138309 -0.639451 -0.275781
v 0.161691 -0.639451 -0.275781
v 0.561691 -0.639451 -0.475781
v 0.661691 -0.639451 -0.475781
v -0.638309 -0.639451 -0.575781
v -0.538309 -0.639451 -0.575781
v 0.561691 -0.639451 -0.575781
v 0.661691 -0.639451 -0.575781
v -0.638309 -0.639451 -0.675781
v -0.538309 -0.639451 -0.675781
v 0.561691 -0.639451 -0.675781
v 0.661691 -0.639451 -0.675781
v -0.238309 -0.139451 0.624219
v -0.138309 -0.139451 0.624219
v 0.161691 -0.139451 0.624219
v 0.261691 -0.139451 0.624219
v -0.238309 -0.139451 0.524219
v -0.138309 -0.139451 0.524219
v 0.161691 -0.139451 0.524219
v 0.261691 -0.139451 0.524219
v -0.138309 -0.039451 0.624219
v -0.038309 -0.039451 0.624219
v 0.161691 -0.039451 0.624219
v -0.138309 -0.039451 0.524219
v -0.038309 -0.039451 0.524219
v 0.161691 -0.039451 0.524219
v -0.638309 0.160549 0.524219
v 0.661691 0.160549 0.524219
v -0.738309 0.160549 0.424219
v -0.638309 0.160549 0.424219
v -0.538309 0.160549 0.424219
v 0.561691 0.160549 0.424219
v 0.661691 0.160549 0.424219
v 0.761691 0.160549 0.424219
v -0.638309 0.160549 0.324219
v 0.661691 0.160549 0.324219
v -0.638309 0.160549 -0.575781
v 0.661691 0.160549 -0.575781
v -0.738309 0.160549 -0.675781
v -0.638309 0.160549 -0.675781
v -0.538309 0.160549 -0.675781
v 0.561691 0.160549 -0.675781
v 0.661691 0.160549 -0.675781
v 0.761691 0.160549 -0.675781
v -0.638309 0.160549 -0.775781
v 0.661691 0.160549 -0.775781
v -0.138309 0.360549 0.724219
v 0.161691 0.360549 0.724219
v -0.538309 0.360549 0.424219
v -0.438309 0.360549 0.424219
v -0.138309 0.360549 0.424219
v 0.161691 0.360549 0.424219
v 0.461691 0.360549 0.424219
v 0.561691 0.360549 0.424219
v -0.638309 0.360549 0.324219
v -0.538309 0.360549 0.324219
v -0.438309 0.360549 0.324219
v 0.461691 0.360549 0.324219
v 0.561691 0.360549 0.324219
v 0.661691 0.360549 0.324219
v -0.638309 0.360549 -0.575781
v -0.538309 0.360549 -0.575781
v 0.561691 0.360549 -0.575781
v 0.661691 0.360549 -0.575781
v -0.538309 0.360549 -0.675781
v 0.561691 0.360549 -0.675781
v -0.438309 0.460549 0.424219
v -0.338309 0.460549 0.424219
v 0.361691 0.460549 0.424219
v 0.461691 0.460549 0.424219
v -0.538309 0.460549 0.324219
v -0.438309 0.460549 0.324219
v -0.338309 0.460549 0.324219
v 0.361691 0.460549 0.324219
v 0.461691 0.460549 0.324219
v 0.561691 0.460549 0.324219
v -0.438309 0.460549 -0.475781
v 0.461691 0.460549 -0.475781
v -0.538309 0.460549 -0.575781
v 0.561691 0.460549 -0.575781
v -0.338309 0.560549 0.324219
v 0.361691 0.560549 0.324219
v -0.438309 0.560549 0.224219
v -0.338309 0.560549 0.224219
v 0.361691 0.560549 0.224219
v 0.461691 0.560549 0.224219
v -0.438309 0.560549 -0.375781
v -0.338309 0.560549 -0.375781
v 0.361691 0.560549 -0.375781
v 0.461691 0.560549 -0.375781
v -0.338309 0.560549 -0.475781
v 0.361691 0.560549 -0.475781
v -0.438309 0.860549 0.524219
v 0.461691 0.860549 0.524219
v -0.538309 0.860549 0.424219
v -0.438309 0.860549 0.424219
v -0.338309 0.860549 0.424219
v 0.461691 0.860549 0.424219
v 0.561691 0.860549 0.424219
v -0.638309 0.860549 0.324219
v -0.538309 0.860549 0.324219
v -0.438309 0.860549 0.324219
v -0.338309 0.860549 0.324219
v -0.238309 0.860549 0.324219
v 0.561691 0.860549 0.324219
v 0.661691 0.860549 0.324219
v -0.338309 0.860549 0.224219
v -0.238309 0.860549 0.224219
v -0.138309 0.860549 0.224219
v -0.238309 0.860549 0.124219
v -0.138309 0.860549 0.124219
v -0.038309 0.860549 0.124219
v -0.138309 0.860549 0.024219
v -0.038309 0.860549 0.024219
v 0.061691 0.860549 0.024219
v -0.038309 0.860549 -0.175781
v 0.061691 0.860549 -0.175781
v -0.638309 0.860549 -0.475781
v -0.538309 0.860549 -0.475781
v 0.561691 0.860549 -0.475781
v 0.661691 0.860549 -0.475781
v -0.538309 0.860549 -0.575781
v -0.438309 0.860549 -0.575781
v 0.461691 0.860549 -0.575781
v 0.561691 0.860549 -0.575781
v -0.438309 0.860549 -0.675781
v 0.461691 0.860549 -0.675781
v -0.538309 0.960549 0.524219
v -0.438309 0.960549 0.524219
v -0.538309 0.960549 0.424219
v -0.438309 0.960549 0.424219
v -0.338309 0.960549 0.424219
v -0.438309 0.960549 0.324219
v -0.338309 0.960549 0.324219
v -0.238309 0.960549 0.324219
v -0.338309 0.960549 0.224219
v -0.238309 0.960549 0.224219
v -0.138309 0.960549 0.224219
v -0.238309 0.960549 0.124219
v -0.138309 0.960549 0.124219
v -0.038309 0.960549 0.124219
v -0.138309 0.960549 0.024219
v -0.038309 0.960549 0.024219
v 0.061691 0.960549 0.024219
v -0.038309 0.960549 -0.175781
v 0.061691 0.960549 -0.175781
vn -1.0000 -0.0000 -0.0000
vn 1.0000 -0.0000 -0.0000
vn -0.0000 -0.0000 1.0000
vn -0.0000 -0.0000 -1.0000
vn -0.0000 -1.0000 -0.0000
vn -0.0000 1.0000 -0.0000
vt 0.041016 0.500000
vt 0.208984 0.500000
vt 0.021484 0.500000
vt 0.994141 0.500000
vt 0.111328 0.500000
vt 0.044922 0.500000
vt 0.962891 0.500000
vt 0.068359 0.500000
vt 0.205078 0.500000
vt 0.958984 0.500000
vt 0.037109 0.500000
s 1
usemtl palette
f 3/1/1 2/1/1 1/1/1
f 4/1/1 2/1/1 3/1/1
f 5/2/1 4/2/1 3/2/1
f 6/2/1 4/2/1 5/2/1
f 10/1/1 8/1/1 7/1/1
f 11/1/1 8/1/1 10/1/1
f 13/1/1 10/1/1 9/1/1
f 14/1/1 10/1/1 13/1/1
f 15/1/1 12/1/1 11/1/1
f 16/1/1 12/1/1 15/1/1
f 17/2/1 14/2/1 13/2/1
f 18/2/1 14/2/1 17/2/1
f 21/2/1 16/2/1 15/2/1
f 22/2/1 16/2/1 21/2/1
f 23/3/1 20/3/1 19/3/1
f 24/3/1 20/3/1 23/3/1
f 27/4/1 26/4/1 25/4/1
f 28/4/1 26/4/1 27/4/1
f 33/3/1 30/3/1 29/3/1
f 34/3/1 32/3/1 31/3/1
f 35/3/1 30/3/1 33/3/1
f 36/3/1 34/3/1 31/3/1
f 37/3/1 30/3/1 35/3/1
f 38/3/1 30/3/1 37/3/1
f 39/5/1 38/5/1 37/5/1
f 40/5/1 38/5/1 39/5/1
f 41/3/1 36/3/1 31/3/1
f 42/3/1 36/3/1 41/3/1
f 43/3/1 41/3/1 40/3/1
f 44/3/1 41/3/1 43/3/1
f 49/6/1 46/6/1 45/6/1
f 51/4/1 48/4/1 47/4/1
f 52/4/1 48/4/1 51/4/1
f 55/4/1 50/4/1 49/4/1
f 55/6/1 49/6/1 45/6/1
f 56/4/1 50/4/1 55/4/1
f 57/4/1 54/4/1 53/4/1
f 58/4/1 54/4/1 57/4/1
f 59/6/1 55/6/1 45/6/1
f 60/6/1 55/6/1 59/6/1
f 63/3/1 62/3/1 61/3/1
f 64/3/1 62/3/1 63/3/1
f 66/3/1 65/3/1 64/3/1
f 67/3/1 65/3/1 66/3/1
f 68/3/1 65/3/1 67/3/1
f 69/3/1 65/3/1 68/3/1
f 70/4/1 67/4/1 66/4/1
f 71/4/1 67/4/1 70/4/1
f 72/4/1 69/4/1 68/4/1
f 73/4/1 69/4/1 72/4/1
f 78/4/1 75/4/1 74/4/1
f 79/4/1 75/4/1 78/4/1
f 80/6/1 77/6/1 76/6/1
f 81/6/1 77/6/1 80/6/1
f 86/2/1 83/2/1 82/2/1
f 87/2/1 83/2/1 86/2/1
f 88/2/1 85/2/1 84/2/1
f 89/2/1 85/2/1 88/2/1
f 92/3/1 91/3/1 90/3/1
f 93/3/1 91/3/1 92/3/1
f 96/4/1 93/4/1 92/4/1
f 97/4/1 93/4/1 96/4/1
f 98/4/1 95/4/1 94/4/1
f 99/4/1 95/4/1 98/4/1
f 102/6/1 101/6/1 100/6/1
f 103/6/1 101/6/1 102/6/1
f 108/2/1 105/2/1 104/2/1
f 109/2/1 105/2/1 108/2/1
f 110/2/1 107/2/1 106/2/1
f 111/2/1 107/2/1 110/2/1
f 114/7/1 113/7/1 112/7/1
f 115/7/1 113/7/1 114/7/1
f 118/6/1 117/6/1 116/6/1
f 119/6/1 117/6/1 118/6/1
f 124/2/1 121/2/1 120/2/1
f 125/2/1 121/2/1 124/2/1
f 126/2/1 123/2/1 122/2/1
f 127/2/1 123/2/1 126/2/1
f 128/2/1 126/2/1 125/2/1
f 129/2/1 126/2/1 128/2/1
f 132/7/1 131/7/1 130/7/1
f 133/7/1 131/7/1 132/7/1
f 136/7/1 135/7/1 134/7/1
f 137/7/1 135/7/1 136/7/1
f 140/8/1 139/8/1 138/8/1
f 141/8/1 139/8/1 140/8/1
f 144/6/1 143/6/1 142/6/1
f 145/6/1 143/6/1 144/6/1
f 148/2/1 147/2/1 146/2/1
f 149/2/1 147/2/1 148/2/1
f 151/9/1 149/9/1 148/9/1
f 152/9/1 149/9/1 151/9/1
f 154/2/1 151/2/1 150/2/1
f 155/2/1 151/2/1 154/2/1
f 156/2/1 153/2/1 152/2/1
f 157/2/1 153/2/1 156/2/1
f 160/6/1 159/6/1 158/6/1
f 161/6/1 159/6/1 160/6/1
f 166/2/1 163/2/1 162/2/1
f 167/2/1 163/2/1 166/2/1
f 168/2/1 165/2/1 164/2/1
f 169/2/1 165/2/1 168/2/1
f 174/2/1 171/2/1 170/2/1
f 175/2/1 171/2/1 174/2/1
f 176/2/1 173/2/1 172/2/1
f 177/2/1 173/2/1 176/2/1
f 182/2/1 179/2/1 178/2/1
f 183/2/1 179/2/1 182/2/1
f 184/2/1 181/2/1 180/2/1
f 185/2/1 181/2/1 184/2/1
f 190/4/1 187/4/1 186/4/1
f 191/4/1 187/4/1 190/4/1
f 192/4/1 189/4/1 188/4/1
f 193/4/1 189/4/1 192/4/1
f 196/3/1 195/3/1 194/3/1
f 197/3/1 195/3/1 196/3/1
f 200/4/1 199/4/1 198/4/1
f 201/4/1 199/4/1 200/4/1
f 206/3/1 203/3/1 202/3/1
f 207/3/1 205/3/1 204/3/1
f 208/3/1 206/3/1 202/3/1
f 208/3/1 207/3/1 206/3/1
f 209/3/1 207/3/1 208/3/1
f 210/3/1 205/3/1 207/3/1
f 210/3/1 207/3/1 209/3/1
f 217/1/1 212/1/1 211/1/1
f 218/1/1 212/1/1 217/1/1
f 219/1/1 214/1/1 213/1/1
f 220/1/1 214/1/1 219/1/1
f 221/1/1 216/1/1 215/1/1
f 222/1/1 216/1/1 221/1/1
f 223/2/1 218/2/1 217/2/1
f 224/2/1 218/2/1 223/2/1
f 225/2/1 220/2/1 219/2/1
f 226/2/1 220/2/1 225/2/1
f 227/2/1 222/2/1 221/2/1
f 228/2/1 222/2/1 227/2/1
f 229/1/2 230/1/2 233/1/2
f 233/1/2 230/1/2 234/1/2
f 231/1/2 232/1/2 235/1/2
f 235/1/2 232/1/2 236/1/2
f 233/2/2 234/2/2 237/2/2
f 237/2/2 234/2/2 238/2/2
f 235/2/2 236/2/2 239/2/2
f 239/2/2 236/2/2 240/2/2
f 241/3/2 242/3/2 243/3/2
f 243/3/2 242/3/2 244/3/2
f 244/3/2 242/3/2 245/3/2
f 246/3/2 247/3/2 248/3/2
f 248/3/2 247/3/2 249/3/2
f 250/6/2 251/6/2 254/6/2
f 254/6/2 251/6/2 255/6/2
f 252/4/2 253/4/2 256/4/2
f 256/4/2 253/4/2 257/4/2
f 258/6/2 259/6/2 260/6/2
f 260/6/2 259/6/2 261/6/2
f 262/4/2 263/4/2 266/4/2
f 266/4/2 263/4/2 267/4/2
f 264/4/2 265/4/2 268/4/2
f 268/4/2 265/4/2 269/4/2
f 270/6/2 271/6/2 272/6/2
f 272/6/2 271/6/2 273/6/2
f 274/2/2 275/2/2 278/2/2
f 278/2/2 275/2/2 279/2/2
f 276/2/2 277/2/2 280/2/2
f 280/2/2 277/2/2 281/2/2
f 282/6/2 283/6/2 284/6/2
f 284/6/2 283/6/2 285/6/2
f 286/2/2 287/2/2 290/2/2
f 290/2/2 287/2/2 291/2/2
f 288/2/2 289/2/2 292/2/2
f 292/2/2 289/2/2 293/2/2
f 294/6/2 295/6/2 296/6/2
f 296/6/2 295/6/2 297/6/2
f 298/2/2 299/2/2 302/2/2
f 302/2/2 299/2/2 303/2/2
f 300/2/2 301/2/2 304/2/2
f 304/2/2 301/2/2 305/2/2
f 306/6/2 307/6/2 308/6/2
f 308/6/2 307/6/2 309/6/2
f 310/2/2 311/2/2 312/2/2
f 312/2/2 311/2/2 313/2/2
f 312/9/2 313/9/2 315/9/2
f 315/9/2 313/9/2 316/9/2
f 314/2/2 315/2/2 318/2/2
f 318/2/2 315/2/2 319/2/2
f 316/2/2 317/2/2 320/2/2
f 320/2/2 317/2/2 321/2/2
f 322/6/2 323/6/2 324/6/2
f 324/6/2 323/6/2 325/6/2
f 326/2/2 327/2/2 330/2/2
f 330/2/2 327/2/2 331/2/2
f 328/2/2 329/2/2 332/2/2
f 332/2/2 329/2/2 333/2/2
f 331/2/2 332/2/2 334/2/2
f 334/2/2 332/2/2 335/2/2
f 336/7/2 337/7/2 338/7/2
f 338/7/2 337/7/2 339/7/2
f 340/10/2 341/10/2 342/10/2
f 342/10/2 341/10/2 343/10/2
f 344/8/2 345/8/2 346/8/2
f 346/8/2 345/8/2 347/8/2
f 348/2/2 349/2/2 352/2/2
f 352/2/2 349/2/2 353/2/2
f 350/2/2 351/2/2 354/2/2
f 354/2/2 351/2/2 355/2/2
f 356/7/2 357/7/2 358/7/2
f 358/7/2 357/7/2 359/7/2
f 358/10/2 359/10/2 360/10/2
f 360/10/2 359/10/2 361/10/2
f 362/2/2 363/2/2 366/2/2
f 366/2/2 363/2/2 367/2/2
f 364/2/2 365/2/2 368/2/2
f 368/2/2 365/2/2 369/2/2
f 370/3/2 371/3/2 372/3/2
f 372/3/2 371/3/2 373/3/2
f 372/4/2 373/4/2 376/4/2
f 376/4/2 373/4/2 377/4/2
f 374/4/2 375/4/2 378/4/2
f 378/4/2 375/4/2 379/4/2
f 380/3/2 381/3/2 382/3/2
f 382/3/2 381/3/2 383/3/2
f 383/3/2 384/3/2 385/3/2
f 385/3/2 384/3/2 386/3/2
f 386/3/2 384/3/2 387/3/2
f 387/3/2 384/3/2 388/3/2
f 385/4/2 386/4/2 391/4/2
f 391/4/2 386/4/2 392/4/2
f 387/4/2 388/4/2 393/4/2
f 393/4/2 388/4/2 394/4/2
f 389/4/2 390/4/2 397/4/2
f 397/4/2 390/4/2 398/4/2
f 395/4/2 396/4/2 399/4/2
f 399/4/2 396/4/2 400/4/2
f 401/3/2 402/3/2 405/3/2
f 403/3/2 404/3/2 406/3/2
f 405/3/2 402/3/2 407/3/2
f 403/3/2 406/3/2 408/3/2
f 407/3/2 402/3/2 409/3/2
f 409/3/2 402/3/2 410/3/2
f 409/5/2 410/5/2 411/5/2
f 411/5/2 410/5/2 412/5/2
f 403/3/2 408/3/2 413/3/2
f 413/3/2 408/3/2 414/3/2
f 412/3/2 413/3/2 415/3/2
f 415/3/2 413/3/2 416/3/2
f 417/4/2 418/4/2 421/4/2
f 421/4/2 418/4/2 422/4/2
f 419/4/2 420/4/2 425/4/2
f 425/4/2 420/4/2 426/4/2
f 423/4/2 424/4/2 427/4/2
f 427/4/2 424/4/2 428/4/2
f 429/1/2 430/1/2 432/1/2
f 432/1/2 430/1/2 433/1/2
f 431/1/2 432/1/2 435/1/2
f 435/1/2 432/1/2 436/1/2
f 433/1/2 434/1/2 437/1/2
f 437/1/2 434/1/2 438/1/2
f 435/2/2 436/2/2 439/2/2
f 439/2/2 436/2/2 440/2/2
f 437/2/2 438/2/2 443/2/2
f 443/2/2 438/2/2 444/2/2
f 441/3/2 442/3/2 445/3/2
f 445/3/2 442/3/2 446/3/2
f 447/4/2 448/4/2 449/4/2
f 449/4/2 448/4/2 450/4/2
f 451/1/2 452/1/2 453/1/2
f 453/1/2 452/1/2 454/1/2
f 453/2/2 454/2/2 455/2/2
f 455/2/2 454/2/2 456/2/2
f 459/8/3 458/8/3 457/8/3
f 460/8/3 458/8/3 459/8/3
f 464/7/3 462/7/3 461/7/3
f 465/7/3 462/7/3 464/7/3
f 467/7/3 464/7/3 463/7/3
f 467/7/3 466/7/3 465/7/3
f 467/7/3 465/7/3 464/7/3
f 468/7/3 466/7/3 467/7/3
f 469/7/3 467/7/3 463/7/3
f 470/10/3 468/10/3 467/10/3
f 470/7/3 467/7/3 469/7/3
f 471/7/3 469/7/3 463/7/3
f 472/7/3 469/7/3 471/7/3
f 473/7/3 469/7/3 472/7/3
f 474/10/3 470/10/3 469/10/3
f 474/7/3 469/7/3 473/7/3
f 475/10/3 468/10/3 470/10/3
f 475/10/3 470/10/3 474/10/3
f 476/10/3 468/10/3 475/10/3
f 477/7/3 473/7/3 472/7/3
f 478/10/3 474/10/3 473/10/3
f 478/7/3 473/7/3 477/7/3
f 478/10/3 475/10/3 474/10/3
f 479/10/3 475/10/3 478/10/3
f 485/6/3 484/6/3 483/6/3
f 486/6/3 484/6/3 485/6/3
f 487/6/3 484/6/3 486/6/3
f 488/6/3 484/6/3 487/6/3
f 489/1/3 481/1/3 480/1/3
f 490/1/3 481/1/3 489/1/3
f 491/1/3 489/1/3 480/1/3
f 492/1/3 489/1/3 491/1/3
f 493/1/3 481/1/3 490/1/3
f 494/1/3 481/1/3 493/1/3
f 495/1/3 481/1/3 494/1/3
f 496/1/3 491/1/3 480/1/3
f 499/1/3 481/1/3 495/1/3
f 500/1/3 497/1/3 496/1/3
f 502/1/3 499/1/3 498/1/3
f 503/4/3 487/4/3 486/4/3
f 504/4/3 487/4/3 503/4/3
f 505/1/3 502/1/3 501/1/3
f 505/1/3 501/1/3 500/1/3
f 505/1/3 496/1/3 480/1/3
f 505/1/3 500/1/3 496/1/3
f 506/2/3 482/2/3 481/2/3
f 506/1/3 502/1/3 505/1/3
f 506/1/3 499/1/3 502/1/3
f 506/1/3 481/1/3 499/1/3
f 507/2/3 482/2/3 506/2/3
f 512/1/3 509/1/3 508/1/3
f 513/2/3 510/2/3 509/2/3
f 513/1/3 509/1/3 512/1/3
f 514/2/3 510/2/3 513/2/3
f 518/5/3 517/5/3 516/5/3
f 522/3/3 516/3/3 515/3/3
f 522/5/3 518/5/3 516/5/3
f 523/3/3 519/3/3 518/3/3
f 523/5/3 518/5/3 522/5/3
f 524/3/3 519/3/3 523/3/3
f 527/6/3 521/6/3 520/6/3
f 528/6/3 521/6/3 527/6/3
f 529/3/3 523/3/3 522/3/3
f 529/10/3 524/10/3 523/10/3
f 530/3/3 525/3/3 524/3/3
f 530/10/3 524/10/3 529/10/3
f 531/3/3 522/3/3 515/3/3
f 531/3/3 529/3/3 522/3/3
f 532/4/3 530/4/3 529/4/3
f 532/3/3 529/3/3 531/3/3
f 533/3/3 525/3/3 530/3/3
f 533/4/3 530/4/3 532/4/3
f 534/3/3 531/3/3 515/3/3
f 535/3/3 533/3/3 532/3/3
f 536/3/3 525/3/3 533/3/3
f 536/3/3 533/3/3 535/3/3
f 537/3/3 535/3/3 534/3/3
f 537/4/3 536/4/3 535/4/3
f 538/3/3 525/3/3 536/3/3
f 538/4/3 536/4/3 537/4/3
f 539/3/3 537/3/3 534/3/3
f 539/3/3 534/3/3 515/3/3
f 540/10/3 538/10/3 537/10/3
f 540/3/3 537/3/3 539/3/3
f 541/3/3 525/3/3 538/3/3
f 541/10/3 538/10/3 540/10/3
f 542/4/3 526/4/3 525/4/3
f 542/3/3 525/3/3 541/3/3
f 543/4/3 526/4/3 542/4/3
f 544/3/3 541/3/3 540/3/3
f 544/5/3 540/5/3 539/5/3
f 545/3/3 541/3/3 544/3/3
f 548/3/3 539/3/3 515/3/3
f 549/5/3 544/5/3 539/5/3
f 549/3/3 539/3/3 548/3/3
f 550/5/3 544/5/3 549/5/3
f 551/4/3 547/4/3 546/4/3
f 552/4/3 547/4/3 551/4/3
f 553/1/3 512/1/3 511/1/3
f 554/1/3 512/1/3 553/1/3
f 557/1/3 555/1/3 554/1/3
f 558/2/3 556/2/3 555/2/3
f 558/1/3 555/1/3 557/1/3
f 559/2/3 556/2/3 558/2/3
f 566/3/3 561/3/3 560/3/3
f 566/3/3 562/3/3 561/3/3
f 566/3/3 563/3/3 562/3/3
f 567/3/3 563/3/3 566/3/3
f 568/3/3 563/3/3 567/3/3
f 570/4/3 565/4/3 564/4/3
f 571/4/3 565/4/3 570/4/3
f 572/3/3 569/3/3 568/3/3
f 573/3/3 569/3/3 572/3/3
f 576/3/3 574/3/3 573/3/3
f 577/4/3 575/4/3 574/4/3
f 577/3/3 574/3/3 576/3/3
f 578/4/3 575/4/3 577/4/3
f 581/6/3 580/6/3 579/6/3
f 582/6/3 580/6/3 581/6/3
f 587/3/3 584/3/3 583/3/3
f 588/4/3 585/4/3 584/4/3
f 588/3/3 584/3/3 587/3/3
f 589/4/3 585/4/3 588/4/3
f 592/3/3 587/3/3 586/3/3
f 593/3/3 587/3/3 592/3/3
f 596/3/3 591/3/3 590/3/3
f 596/3/3 592/3/3 591/3/3
f 597/3/3 592/3/3 596/3/3
f 598/3/3 592/3/3 597/3/3
f 599/3/3 592/3/3 598/3/3
f 600/4/3 595/4/3 594/4/3
f 601/4/3 595/4/3 600/4/3
f 604/4/3 603/4/3 602/4/3
f 605/4/3 603/4/3 604/4/3
f 608/2/3 607/2/3 606/2/3
f 609/2/3 607/2/3 608/2/3
f 612/6/3 611/6/3 610/6/3
f 613/6/3 611/6/3 612/6/3
f 616/2/3 615/2/3 614/2/3
f 617/2/3 615/2/3 616/2/3
f 620/4/3 619/4/3 618/4/3
f 621/4/3 619/4/3 620/4/3
f 624/2/3 623/2/3 622/2/3
f 625/2/3 623/2/3 624/2/3
f 628/6/3 627/6/3 626/6/3
f 629/6/3 627/6/3 628/6/3
f 632/2/3 631/2/3 630/2/3
f 633/2/3 631/2/3 632/2/3
f 636/2/3 635/2/3 634/2/3
f 637/2/3 635/2/3 636/2/3
f 642/2/3 638/2/3 637/2/3
f 643/2/3 638/2/3 642/2/3
f 644/6/3 640/6/3 639/6/3
f 645/6/3 640/6/3 644/6/3
f 646/2/3 642/2/3 641/2/3
f 647/2/3 642/2/3 646/2/3
f 652/2/3 649/2/3 648/2/3
f 653/2/3 649/2/3 652/2/3
f 654/2/3 651/2/3 650/2/3
f 655/9/3 652/9/3 651/9/3
f 655/2/3 651/2/3 654/2/3
f 656/9/3 652/9/3 655/9/3
f 658/2/3 657/2/3 656/2/3
f 659/2/3 657/2/3 658/2/3
f 662/2/3 661/2/3 660/2/3
f 663/2/3 661/2/3 662/2/3
f 666/2/3 665/2/3 664/2/3
f 667/2/3 665/2/3 666/2/3
f 670/2/3 669/2/3 668/2/3
f 671/2/3 669/2/3 670/2/3
f 674/2/3 673/2/3 672/2/3
f 675/2/3 673/2/3 674/2/3
f 680/4/3 677/4/3 676/4/3
f 681/4/3 677/4/3 680/4/3
f 682/2/3 679/2/3 678/2/3
f 683/2/3 679/2/3 682/2/3
f 686/2/3 685/2/3 684/2/3
f 687/2/3 685/2/3 686/2/3
f 690/4/3 689/4/3 688/4/3
f 691/4/3 689/4/3 690/4/3
f 696/4/3 695/4/3 694/4/3
f 697/4/3 695/4/3 696/4/3
f 698/3/3 693/3/3 692/3/3
f 699/3/3 693/3/3 698/3/3
f 702/3/3 701/3/3 700/3/3
f 703/3/3 701/3/3 702/3/3
f 704/3/3 701/3/3 703/3/3
f 707/3/3 706/3/3 705/3/3
f 708/3/3 706/3/3 707/3/3
f 712/1/3 710/1/3 709/1/3
f 713/2/3 711/2/3 710/2/3
f 713/1/3 710/1/3 712/1/3
f 714/2/3 711/2/3 713/2/3
f 718/1/3 716/1/3 715/1/3
f 719/2/3 717/2/3 716/2/3
f 719/1/3 716/1/3 718/1/3
f 720/2/3 717/2/3 719/2/3
f 721/1/4 722/1/4 724/1/4
f 722/2/4 723/2/4 725/2/4
f 724/1/4 722/1/4 725/1/4
f 725/2/4 723/2/4 726/2/4
f 727/6/4 728/6/4 731/6/4
f 731/6/4 728/6/4 732/6/4
f 729/6/4 730/6/4 733/6/4
f 733/6/4 730/6/4 734/6/4
f 735/1/4 736/1/4 738/1/4
f 736/2/4 737/2/4 739/2/4
f 738/1/4 736/1/4 739/1/4
f 739/2/4 737/2/4 740/2/4
f 741/3/4 742/3/4 746/3/4
f 742/5/4 743/5/4 746/5/4
f 746/5/4 743/5/4 747/5/4
f 744/6/4 745/6/4 750/6/4
f 750/6/4 745/6/4 751/6/4
f 741/3/4 746/3/4 752/3/4
f 746/3/4 747/3/4 752/3/4
f 752/3/4 747/3/4 753/3/4
f 748/4/4 749/4/4 754/4/4
f 754/4/4 749/4/4 755/4/4
f 741/3/4 752/3/4 756/3/4
f 752/5/4 753/5/4 757/5/4
f 756/3/4 752/3/4 757/3/4
f 757/5/4 753/5/4 758/5/4
f 761/4/4 762/4/4 763/4/4
f 763/4/4 762/4/4 764/4/4
f 765/6/4 766/6/4 767/6/4
f 767/6/4 766/6/4 768/6/4
f 759/3/4 760/3/4 771/3/4
f 771/3/4 760/3/4 772/3/4
f 769/4/4 770/4/4 773/4/4
f 773/4/4 770/4/4 774/4/4
f 775/3/4 776/3/4 777/3/4
f 777/3/4 776/3/4 778/3/4
f 778/3/4 776/3/4 779/3/4
f 780/2/4 781/2/4 782/2/4
f 782/2/4 781/2/4 783/2/4
f 784/6/4 785/6/4 786/6/4
f 786/6/4 785/6/4 787/6/4
f 788/2/4 789/2/4 790/2/4
f 790/2/4 789/2/4 791/2/4
f 792/2/4 793/2/4 794/2/4
f 794/2/4 793/2/4 795/2/4
f 796/6/4 797/6/4 798/6/4
f 798/6/4 797/6/4 799/6/4
f 800/2/4 801/2/4 802/2/4
f 802/2/4 801/2/4 803/2/4
f 804/2/4 805/2/4 806/2/4
f 806/2/4 805/2/4 807/2/4
f 808/2/4 809/2/4 810/2/4
f 810/2/4 809/2/4 811/2/4
f 812/2/4 813/2/4 816/2/4
f 816/2/4 813/2/4 817/2/4
f 814/2/4 815/2/4 820/2/4
f 815/9/4 816/9/4 821/9/4
f 820/2/4 815/2/4 821/2/4
f 821/9/4 816/9/4 822/9/4
f 818/6/4 819/6/4 824/6/4
f 824/6/4 819/6/4 825/6/4
f 822/2/4 823/2/4 826/2/4
f 826/2/4 823/2/4 827/2/4
f 828/2/4 829/2/4 830/2/4
f 830/2/4 829/2/4 831/2/4
f 831/2/4 832/2/4 834/2/4
f 834/2/4 832/2/4 835/2/4
f 833/2/4 834/2/4 836/2/4
f 836/2/4 834/2/4 837/2/4
f 838/4/4 839/4/4 840/4/4
f 840/4/4 839/4/4 841/4/4
f 842/2/4 843/2/4 844/2/4
f 844/2/4 843/2/4 845/2/4
f 846/2/4 847/2/4 848/2/4
f 848/2/4 847/2/4 849/2/4
f 850/4/4 851/4/4 852/4/4
f 852/4/4 851/4/4 853/4/4
f 854/4/4 855/4/4 856/4/4
f 856/4/4 855/4/4 857/4/4
f 858/3/4 859/3/4 863/3/4
f 859/4/4 860/4/4 863/4/4
f 863/4/4 860/4/4 864/4/4
f 861/2/4 862/2/4 865/2/4
f 865/2/4 862/2/4 866/2/4
f 867/2/4 868/2/4 869/2/4
f 869/2/4 868/2/4 870/2/4
f 858/3/4 863/3/4 871/3/4
f 858/3/4 871/3/4 873/3/4
f 871/4/4 872/4/4 874/4/4
f 873/3/4 871/3/4 874/3/4
f 874/4/4 872/4/4 875/4/4
f 876/4/4 877/4/4 878/4/4
f 878/4/4 877/4/4 879/4/4
f 880/3/4 881/3/4 884/3/4
f 882/3/4 883/3/4 884/3/4
f 881/3/4 882/3/4 884/3/4
f 884/3/4 883/3/4 885/3/4
f 887/4/4 888/4/4 889/4/4
f 889/4/4 888/4/4 890/4/4
f 891/4/4 892/4/4 893/4/4
f 893/4/4 892/4/4 894/4/4
f 885/3/4 886/3/4 898/3/4
f 898/3/4 886/3/4 899/3/4
f 895/4/4 896/4/4 900/4/4
f 900/4/4 896/4/4 901/4/4
f 897/3/4 898/3/4 902/3/4
f 902/3/4 898/3/4 903/3/4
f 903/3/4 898/3/4 904/3/4
f 904/3/4 898/3/4 905/3/4
f 906/1/4 907/1/4 910/1/4
f 907/2/4 908/2/4 911/2/4
f 910/1/4 907/1/4 911/1/4
f 911/2/4 908/2/4 912/2/4
f 915/4/4 916/4/4 917/4/4
f 917/4/4 916/4/4 918/4/4
f 913/3/4 914/3/4 919/3/4
f 919/3/4 914/3/4 920/3/4
f 909/1/4 910/1/4 921/1/4
f 921/1/4 910/1/4 922/1/4
f 922/1/4 923/1/4 925/1/4
f 923/2/4 924/2/4 926/2/4
f 925/1/4 923/1/4 926/1/4
f 926/2/4 924/2/4 927/2/4
f 928/1/4 929/1/4 931/1/4
f 929/2/4 930/2/4 932/2/4
f 931/1/4 929/1/4 932/1/4
f 932/2/4 930/2/4 933/2/4
f 936/2/5 935/2/5 934/2/5
f 937/2/5 935/2/5 936/2/5
f 942/2/5 939/2/5 938/2/5
f 943/2/5 939/2/5 942/2/5
f 946/2/5 941/2/5 940/2/5
f 947/2/5 941/2/5 946/2/5
f 948/2/5 944/2/5 943/2/5
f 949/2/5 944/2/5 948/2/5
f 952/2/5 946/2/5 945/2/5
f 953/2/5 946/2/5 952/2/5
f 954/2/5 950/2/5 949/2/5
f 955/2/5 950/2/5 954/2/5
f 956/2/5 952/2/5 951/2/5
f 957/2/5 952/2/5 956/2/5
f 963/2/5 959/2/5 958/2/5
f 964/2/5 959/2/5 963/2/5
f 965/2/5 961/2/5 960/2/5
f 966/2/5 961/2/5 965/2/5
f 969/2/5 963/2/5 962/2/5
f 970/2/5 963/2/5 969/2/5
f 971/2/5 967/2/5 966/2/5
f 972/2/5 967/2/5 971/2/5
f 974/2/5 969/2/5 968/2/5
f 975/2/5 969/2/5 974/2/5
f 976/2/5 973/2/5 972/2/5
f 977/2/5 973/2/5 976/2/5
f 981/2/5 979/2/5 978/2/5
f 982/2/5 979/2/5 981/2/5
f 984/2/5 981/2/5 980/2/5
f 985/2/5 981/2/5 984/2/5
f 986/2/5 983/2/5 982/2/5
f 987/2/5 983/2/5 986/2/5
f 988/2/5 986/2/5 985/2/5
f 989/2/5 986/2/5 988/2/5
f 992/1/5 991/1/5 990/1/5
f 993/1/5 991/1/5 992/1/5
f 994/1/5 991/1/5 993/1/5
f 995/1/5 991/1/5 994/1/5
f 996/1/5 992/1/5 990/1/5
f 996/11/5 993/11/5 992/11/5
f 997/11/5 993/11/5 996/11/5
f 998/11/5 995/11/5 994/11/5
f 999/1/5 991/1/5 995/1/5
f 999/11/5 995/11/5 998/11/5
f 1000/1/5 996/1/5 990/1/5
f 1003/1/5 991/1/5 999/1/5
f 1004/11/5 1001/11/5 1000/11/5
f 1004/1/5 1000/1/5 990/1/5
f 1005/11/5 1001/11/5 1004/11/5
f 1006/11/5 1003/11/5 1002/11/5
f 1007/1/5 991/1/5 1003/1/5
f 1007/11/5 1003/11/5 1006/11/5
f 1008/1/5 1005/1/5 1004/1/5
f 1008/1/5 1006/1/5 1005/1/5
f 1008/1/5 1007/1/5 1006/1/5
f 1008/1/5 1004/1/5 990/1/5
f 1009/1/5 991/1/5 1007/1/5
f 1009/1/5 1007/1/5 1008/1/5
f 1013/1/5 1011/1/5 1010/1/5
f 1014/1/5 1011/1/5 1013/1/5
f 1016/1/5 1013/1/5 1012/1/5
f 1017/1/5 1013/1/5 1016/1/5
f 1018/1/5 1015/1/5 1014/1/5
f 1019/1/5 1015/1/5 1018/1/5
f 1020/1/5 1018/1/5 1017/1/5
f 1021/1/5 1018/1/5 1020/1/5
f 1024/7/5 1023/7/5 1022/7/5
f 1025/7/5 1023/7/5 1024/7/5
f 1030/7/5 1027/7/5 1026/7/5
f 1031/7/5 1027/7/5 1030/7/5
f 1032/7/5 1029/7/5 1028/7/5
f 1033/7/5 1029/7/5 1032/7/5
f 1036/3/5 1035/3/5 1034/3/5
f 1037/3/5 1035/3/5 1036/3/5
f 1040/8/5 1039/8/5 1038/8/5
f 1041/8/5 1039/8/5 1040/8/5
f 1046/3/5 1043/3/5 1042/3/5
f 1046/3/5 1045/3/5 1044/3/5
f 1046/3/5 1044/3/5 1043/3/5
f 1047/3/5 1045/3/5 1046/3/5
f 1048/3/5 1046/3/5 1042/3/5
f 1049/3/5 1045/3/5 1047/3/5
f 1050/3/5 1048/3/5 1042/3/5
f 1050/3/5 1049/3/5 1048/3/5
f 1051/3/5 1045/3/5 1049/3/5
f 1051/3/5 1049/3/5 1050/3/5
f 1054/3/5 1053/3/5 1052/3/5
f 1055/3/5 1053/3/5 1054/3/5
f 1058/6/5 1057/6/5 1056/6/5
f 1059/6/5 1057/6/5 1058/6/5
f 1064/4/5 1061/4/5 1060/4/5
f 1065/4/5 1061/4/5 1064/4/5
f 1066/4/5 1063/4/5 1062/4/5
f 1067/4/5 1063/4/5 1066/4/5
f 1070/4/5 1069/4/5 1068/4/5
f 1071/4/5 1069/4/5 1070/4/5
f 1075/4/5 1073/4/5 1072/4/5
f 1076/4/5 1073/4/5 1075/4/5
f 1077/4/5 1073/4/5 1076/4/5
f 1078/4/5 1073/4/5 1077/4/5
f 1081/4/5 1075/4/5 1074/4/5
f 1081/4/5 1076/4/5 1075/4/5
f 1082/4/5 1076/4/5 1081/4/5
f 1083/4/5 1076/4/5 1082/4/5
f 1084/4/5 1078/4/5 1077/4/5
f 1084/4/5 1079/4/5 1078/4/5
f 1085/4/5 1079/4/5 1084/4/5
f 1086/4/5 1079/4/5 1085/4/5
f 1088/4/5 1082/4/5 1081/4/5
f 1088/4/5 1081/4/5 1080/4/5
f 1089/4/5 1082/4/5 1088/4/5
f 1090/4/5 1084/4/5 1083/4/5
f 1091/4/5 1084/4/5 1090/4/5
f 1092/4/5 1087/4/5 1086/4/5
f 1092/4/5 1086/4/5 1085/4/5
f 1093/4/5 1087/4/5 1092/4/5
f 1094/4/5 1088/4/5 1080/4/5
f 1095/4/5 1091/4/5 1090/4/5
f 1095/4/5 1090/4/5 1089/4/5
f 1095/4/5 1092/4/5 1091/4/5
f 1096/4/5 1092/4/5 1095/4/5
f 1097/4/5 1092/4/5 1096/4/5
f 1098/4/5 1092/4/5 1097/4/5
f 1099/4/5 1087/4/5 1093/4/5
f 1100/4/5 1094/4/5 1080/4/5
f 1100/4/5 1095/4/5 1094/4/5
f 1101/4/5 1095/4/5 1100/4/5
f 1102/4/5 1095/4/5 1101/4/5
f 1103/4/5 1097/4/5 1096/4/5
f 1104/4/5 1097/4/5 1103/4/5
f 1105/4/5 1099/4/5 1098/4/5
f 1106/4/5 1087/4/5 1099/4/5
f 1106/4/5 1099/4/5 1105/4/5
f 1107/4/5 1087/4/5 1106/4/5
f 1108/4/5 1102/4/5 1101/4/5
f 1108/4/5 1103/4/5 1102/4/5
f 1109/4/5 1103/4/5 1108/4/5
f 1110/4/5 1103/4/5 1109/4/5
f 1111/4/5 1105/4/5 1104/4/5
f 1111/4/5 1106/4/5 1105/4/5
f 1112/4/5 1106/4/5 1111/4/5
f 1113/4/5 1106/4/5 1112/4/5
f 1114/4/5 1110/4/5 1109/4/5
f 1114/4/5 1112/4/5 1111/4/5
f 1114/4/5 1111/4/5 1110/4/5
f 1115/4/5 1112/4/5 1114/4/5
f 1116/2/6 1117/2/6 1120/2/6
f 1120/2/6 1117/2/6 1121/2/6
f 1118/2/6 1119/2/6 1124/2/6
f 1124/2/6 1119/2/6 1125/2/6
f 1121/2/6 1122/2/6 1126/2/6
f 1126/2/6 1122/2/6 1127/2/6
f 1123/2/6 1124/2/6 1130/2/6
f 1130/2/6 1124/2/6 1131/2/6
f 1127/2/6 1128/2/6 1132/2/6
f 1132/2/6 1128/2/6 1133/2/6
f 1129/2/6 1130/2/6 1134/2/6
f 1134/2/6 1130/2/6 1135/2/6
f 1136/2/6 1137/2/6 1141/2/6
f 1141/2/6 1137/2/6 1142/2/6
f 1138/2/6 1139/2/6 1143/2/6
f 1143/2/6 1139/2/6 1144/2/6
f 1140/2/6 1141/2/6 1147/2/6
f 1147/2/6 1141/2/6 1148/2/6
f 1144/2/6 1145/2/6 1149/2/6
f 1149/2/6 1145/2/6 1150/2/6
f 1146/2/6 1147/2/6 1152/2/6
f 1152/2/6 1147/2/6 1153/2/6
f 1150/2/6 1151/2/6 1154/2/6
f 1154/2/6 1151/2/6 1155/2/6
f 1156/1/6 1157/1/6 1160/1/6
f 1160/1/6 1157/1/6 1161/1/6
f 1158/1/6 1159/1/6 1162/1/6
f 1162/1/6 1159/1/6 1163/1/6
f 1161/1/6 1162/1/6 1164/1/6
f 1161/1/6 1164/1/6 1166/1/6
f 1164/1/6 1165/1/6 1166/1/6
f 1166/1/6 1165/1/6 1167/1/6
f 1161/1/6 1166/1/6 1168/1/6
f 1166/11/6 1167/11/6 1168/11/6
f 1167/1/6 1165/1/6 1169/1/6
f 1168/11/6 1167/11/6 1169/11/6
f 1168/1/6 1169/1/6 1170/1/6
f 1169/1/6 1165/1/6 1170/1/6
f 1170/1/6 1165/1/6 1171/1/6
f 1161/1/6 1168/1/6 1173/1/6
f 1168/1/6 1170/1/6 1173/1/6
f 1173/1/6 1170/1/6 1174/1/6
f 1172/1/6 1173/1/6 1176/1/6
f 1176/1/6 1173/1/6 1177/1/6
f 1174/1/6 1175/1/6 1178/1/6
f 1178/1/6 1175/1/6 1179/1/6
f 1180/7/6 1181/7/6 1184/7/6
f 1184/7/6 1181/7/6 1185/7/6
f 1182/10/6 1183/10/6 1186/10/6
f 1186/10/6 1183/10/6 1187/10/6
f 1188/7/6 1189/7/6 1191/7/6
f 1189/10/6 1190/10/6 1192/10/6
f 1191/7/6 1189/7/6 1192/7/6
f 1192/10/6 1190/10/6 1193/10/6
f 1194/2/6 1195/2/6 1197/2/6
f 1197/2/6 1195/2/6 1198/2/6
f 1198/2/6 1195/2/6 1199/2/6
f 1199/2/6 1195/2/6 1200/2/6
f 1196/2/6 1197/2/6 1202/2/6
f 1200/2/6 1201/2/6 1203/2/6
f 1196/2/6 1202/2/6 1204/2/6
f 1203/2/6 1201/2/6 1205/2/6
f 1196/2/6 1204/2/6 1206/2/6
f 1206/2/6 1204/2/6 1207/2/6
f 1205/2/6 1201/2/6 1210/2/6
f 1210/2/6 1201/2/6 1211/2/6
f 1208/2/6 1209/2/6 1212/2/6
f 1209/2/6 1210/2/6 1212/2/6
f 1207/2/6 1208/2/6 1212/2/6
f 1212/2/6 1210/2/6 1213/2/6
f 1214/8/6 1215/8/6 1218/8/6
f 1218/8/6 1215/8/6 1219/8/6
f 1216/5/6 1217/5/6 1223/5/6
f 1223/5/6 1217/5/6 1224/5/6
f 1220/5/6 1221/5/6 1225/5/6
f 1225/5/6 1221/5/6 1226/5/6
f 1222/3/6 1223/3/6 1228/3/6
f 1228/3/6 1223/3/6 1229/3/6
f 1226/3/6 1227/3/6 1230/3/6
f 1230/3/6 1227/3/6 1231/3/6
f 1229/3/6 1230/3/6 1232/3/6
f 1232/3/6 1230/3/6 1233/3/6
f 1234/3/6 1235/3/6 1239/3/6
f 1239/3/6 1235/3/6 1240/3/6
f 1236/3/6 1237/3/6 1241/3/6
f 1241/3/6 1237/3/6 1242/3/6
f 1238/3/6 1239/3/6 1244/3/6
f 1242/3/6 1243/3/6 1245/3/6
f 1238/3/6 1244/3/6 1246/3/6
f 1244/3/6 1245/3/6 1246/3/6
f 1245/3/6 1243/3/6 1247/3/6
f 1246/3/6 1245/3/6 1247/3/6
f 1248/3/6 1249/3/6 1251/3/6
f 1251/3/6 1249/3/6 1252/3/6
f 1250/3/6 1251/3/6 1254/3/6
f 1252/3/6 1253/3/6 1254/3/6
f 1251/3/6 1252/3/6 1254/3/6
f 1254/3/6 1253/3/6 1255/3/6
f 1255/3/6 1253/3/6 1256/3/6
f 1256/3/6 1253/3/6 1257/3/6
f 1255/3/6 1256/3/6 1258/3/6
f 1258/3/6 1256/3/6 1259/3/6
f 1260/4/6 1261/4/6 1263/4/6
f 1263/4/6 1261/4/6 1264/4/6
f 1264/4/6 1261/4/6 1265/4/6
f 1262/4/6 1263/4/6 1268/4/6
f 1268/4/6 1263/4/6 1269/4/6
f 1264/4/6 1265/4/6 1270/4/6
f 1265/4/6 1266/4/6 1270/4/6
f 1270/4/6 1266/4/6 1271/4/6
f 1271/4/6 1266/4/6 1272/4/6
f 1268/4/6 1269/4/6 1274/4/6
f 1267/4/6 1268/4/6 1274/4/6
f 1269/4/6 1270/4/6 1274/4/6
f 1272/4/6 1273/4/6 1275/4/6
f 1271/4/6 1272/4/6 1275/4/6
f 1275/4/6 1273/4/6 1276/4/6
f 1274/4/6 1275/4/6 1277/4/6
f 1276/4/6 1273/4/6 1278/4/6
f 1278/4/6 1273/4/6 1279/4/6
f 1277/4/6 1278/4/6 1280/4/6
f 1279/4/6 1273/4/6 1281/4/6
f 1281/4/6 1273/4/6 1282/4/6
f 1280/4/6 1281/4/6 1283/4/6
f 1282/4/6 1273/4/6 1284/4/6
f 1267/4/6 1274/4/6 1285/4/6
f 1283/4/6 1284/4/6 1285/4/6
f 1274/4/6 1277/4/6 1285/4/6
f 1277/4/6 1280/4/6 1285/4/6
f 1280/4/6 1283/4/6 1285/4/6
f 1285/4/6 1284/4/6 1286/4/6
f 1284/4/6 1273/4/6 1287/4/6
f 1286/4/6 1284/4/6 1287/4/6
f 1287/4/6 1273/4/6 1288/4/6
f 1286/4/6 1287/4/6 1289/4/6
f 1289/4/6 1287/4/6 1290/4/6
f 1290/4/6 1287/4/6 1291/4/6
f 1291/4/6 1287/4/6 1292/4/6
f 1290/4/6 1291/4/6 1293/4/6
f 1293/4/6 1291/4/6 1294/4/6
f 1295/6/6 1296/6/6 1297/6/6
f 1297/6/6 1296/6/6 1298/6/6
f 1298/6/6 1299/6/6 1300/6/6
f 1300/6/6 1299/6/6 1301/6/6
f 1301/6/6 1302/6/6 1303/6/6
f 1303/6/6 1302/6/6 1304/6/6
f 1304/6/6 1305/6/6 1306/6/6
f 1306/6/6 1305/6/6 1307/6/6
f 1307/6/6 1308/6/6 1309/6/6
f 1309/6/6 1308/6/6 1310/6/6
f 1310/6/6 1311/6/6 1312/6/6
f 1312/6/6 1311/6/6 1313/6/6
