# Blender 5.0.0
# www.blender.org
mtllib Frame.mtl
o Untitled
v -1.000000 -1.000000 1.000000
v -1.000000 -1.000000 -1.000000
v -1.000000 -0.600000 1.000000
v -1.000000 -0.600000 0.800000
v -1.000000 -0.600000 -0.800000
v -1.000000 -0.600000 -1.000000
v -1.000000 -0.400000 0.800000
v -1.000000 -0.400000 0.600000
v -1.000000 -0.400000 -0.600000
v -1.000000 -0.400000 -0.800000
v -1.000000 -0.200000 0.600000
v -1.000000 -0.200000 0.500000
v -1.000000 -0.200000 -0.500000
v -1.000000 -0.200000 -0.600000
v -1.000000 0.200000 0.600000
v -1.000000 0.200000 0.500000
v -1.000000 0.200000 -0.500000
v -1.000000 0.200000 -0.600000
v -1.000000 0.400000 0.800000
v -1.000000 0.400000 0.600000
v -1.000000 0.400000 -0.600000
v -1.000000 0.400000 -0.800000
v -1.000000 0.600000 1.000000
v -1.000000 0.600000 0.800000
v -1.000000 0.600000 -0.800000
v -1.000000 0.600000 -1.000000
v -1.000000 1.000000 1.000000
v -1.000000 1.000000 -1.000000
v 1.000000 -1.000000 1.000000
v 1.000000 -1.000000 -1.000000
v 1.000000 -0.600000 1.000000
v 1.000000 -0.600000 0.800000
v 1.000000 -0.600000 -0.800000
v 1.000000 -0.600000 -1.000000
v 1.000000 -0.400000 0.800000
v 1.000000 -0.400000 0.600000
v 1.000000 -0.400000 -0.600000
v 1.000000 -0.400000 -0.800000
v 1.000000 -0.200000 0.600000
v 1.000000 -0.200000 0.500000
v 1.000000 -0.200000 -0.500000
v 1.000000 -0.200000 -0.600000
v 1.000000 0.200000 0.600000
v 1.000000 0.200000 0.500000
v 1.000000 0.200000 -0.500000
v 1.000000 0.200000 -0.600000
v 1.000000 0.400000 0.800000
v 1.000000 0.400000 0.600000
v 1.000000 0.400000 -0.600000
v 1.000000 0.400000 -0.800000
v 1.000000 0.600000 1.000000
v 1.000000 0.600000 0.800000
v 1.000000 0.600000 -0.800000
v 1.000000 0.600000 -1.000000
v 1.000000 1.000000 1.000000
v 1.000000 1.000000 -1.000000
v -1.000000 -1.000000 1.000000
v -1.000000 -0.600000 1.000000
v -1.000000 0.600000 1.000000
v -1.000000 1.000000 1.000000
v 1.000000 -1.000000 1.000000
v 1.000000 -0.600000 1.000000
v 1.000000 0.600000 1.000000
v 1.000000 1.000000 1.000000
v -1.000000 -0.600000 0.800000
v -1.000000 -0.400000 0.800000
v -1.000000 0.400000 0.800000
v -1.000000 0.600000 0.800000
v 1.000000 -0.600000 0.800000
v 1.000000 -0.400000 0.800000
v 1.000000 0.400000 0.800000
v 1.000000 0.600000 0.800000
v -1.000000 -0.400000 0.600000
v -1.000000 -0.200000 0.600000
v -1.000000 0.200000 0.600000
v -1.000000 0.400000 0.600000
v 1.000000 -0.400000 0.600000
v 1.000000 -0.200000 0.600000
v 1.000000 0.200000 0.600000
v 1.000000 0.400000 0.600000
v -1.000000 -0.200000 0.500000
v -1.000000 0.200000 0.500000
v 1.000000 -0.200000 0.500000
v 1.000000 0.200000 0.500000
v -1.000000 -0.200000 -0.500000
v -1.000000 0.200000 -0.500000
v 1.000000 -0.200000 -0.500000
v 1.000000 0.200000 -0.500000
v -1.000000 -0.400000 -0.600000
v -1.000000 -0.200000 -0.600000
v -1.000000 0.200000 -0.600000
v -1.000000 0.400000 -0.600000
v 1.000000 -0.400000 -0.600000
v 1.000000 -0.200000 -0.600000
v 1.000000 0.200000 -0.600000
v 1.000000 0.400000 -0.600000
v -1.000000 -0.600000 -0.800000
v -1.000000 -0.400000 -0.800000
v -1.000000 0.400000 -0.800000
v -1.000000 0.600000 -0.800000
v 1.000000 -0.600000 -0.800000
v 1.000000 -0.400000 -0.800000
v 1.000000 0.400000 -0.800000
v 1.000000 0.600000 -0.800000
v -1.000000 -1.000000 -1.000000
v -1.000000 -0.600000 -1.000000
v -1.000000 0.600000 -1.000000
v -1.000000 1.000000 -1.000000
v 1.000000 -1.000000 -1.000000
v 1.000000 -0.600000 -1.000000
v 1.000000 0.600000 -1.000000
v 1.000000 1.000000 -1.000000
v -1.000000 -1.000000 1.000000
v 1.000000 -1.000000 1.000000
v -1.000000 -1.000000 -1.000000
v 1.000000 -1.000000 -1.000000
v -1.000000 0.200000 0.600000
v 1.000000 0.200000 0.600000
v -1.000000 0.200000 0.500000
v 1.000000 0.200000 0.500000
v -1.000000 0.200000 -0.500000
v 1.000000 0.200000 -0.500000
v -1.000000 0.200000 -0.600000
v 1.000000 0.200000 -0.600000
v -1.000000 0.400000 0.800000
v 1.000000 0.400000 0.800000
v -1.000000 0.400000 0.600000
v 1.000000 0.400000 0.600000
v -1.000000 0.400000 -0.600000
v 1.000000 0.400000 -0.600000
v -1.000000 0.400000 -0.800000
v 1.000000 0.400000 -0.800000
v -1.000000 0.600000 1.000000
v 1.000000 0.600000 1.000000
v -1.000000 0.600000 0.800000
v 1.000000 0.600000 0.800000
v -1.000000 0.600000 -0.800000
v 1.000000 0.600000 -0.800000
v -1.000000 0.600000 -1.000000
v 1.000000 0.600000 -1.000000
v -1.000000 -0.600000 1.000000
v 1.000000 -0.600000 1.000000
v -1.000000 -0.600000 0.800000
v 1.000000 -0.600000 0.800000
v -1.000000 -0.600000 -0.800000
v 1.000000 -0.600000 -0.800000
v -1.000000 -0.600000 -1.000000
v 1.000000 -0.600000 -1.000000
v -1.000000 -0.400000 0.800000
v 1.000000 -0.400000 0.800000
v -1.000000 -0.400000 0.600000
v 1.000000 -0.400000 0.600000
v -1.000000 -0.400000 -0.600000
v 1.000000 -0.400000 -0.600000
v -1.000000 -0.400000 -0.800000
v 1.000000 -0.400000 -0.800000
v -1.000000 -0.200000 0.600000
v 1.000000 -0.200000 0.600000
v -1.000000 -0.200000 0.500000
v 1.000000 -0.200000 0.500000
v -1.000000 -0.200000 -0.500000
v 1.000000 -0.200000 -0.500000
v -1.000000 -0.200000 -0.600000
v 1.000000 -0.200000 -0.600000
v -1.000000 1.000000 1.000000
v 1.000000 1.000000 1.000000
v -1.000000 1.000000 -1.000000
v 1.000000 1.000000 -1.000000
vn -1.0000 -0.0000 -0.0000
vn 1.0000 -0.0000 -0.0000
vn -0.0000 -0.0000 1.0000
vn -0.0000 -0.0000 -1.0000
vn -0.0000 -1.0000 -0.0000
vn -0.0000 1.0000 -0.0000
vt 0.990234 0.500000
vt 0.986328 0.500000
vt 0.982422 0.500000
vt 0.978516 0.500000
s 1
usemtl palette.001
f 3/1/1 2/1/1 1/1/1
f 4/1/1 2/1/1 3/1/1
f 5/1/1 2/1/1 4/1/1
f 6/1/1 2/1/1 5/1/1
f 7/2/1 5/2/1 4/2/1
f 8/2/1 5/2/1 7/2/1
f 9/2/1 5/2/1 8/2/1
f 10/2/1 5/2/1 9/2/1
f 11/3/1 9/3/1 8/3/1
f 12/3/1 9/3/1 11/3/1
f 13/3/1 9/3/1 12/3/1
f 14/3/1 9/3/1 13/3/1
f 16/4/1 13/4/1 12/4/1
f 17/4/1 13/4/1 16/4/1
f 20/3/1 16/3/1 15/3/1
f 20/3/1 18/3/1 17/3/1
f 20/3/1 17/3/1 16/3/1
f 21/3/1 18/3/1 20/3/1
f 24/2/1 21/2/1 20/2/1
f 24/2/1 22/2/1 21/2/1
f 24/2/1 20/2/1 19/2/1
f 25/2/1 22/2/1 24/2/1
f 27/1/1 25/1/1 24/1/1
f 27/1/1 26/1/1 25/1/1
f 27/1/1 24/1/1 23/1/1
f 28/1/1 26/1/1 27/1/1
f 29/1/2 30/1/2 31/1/2
f 31/1/2 30/1/2 32/1/2
f 32/1/2 30/1/2 33/1/2
f 33/1/2 30/1/2 34/1/2
f 32/2/2 33/2/2 35/2/2
f 35/2/2 33/2/2 36/2/2
f 36/2/2 33/2/2 37/2/2
f 37/2/2 33/2/2 38/2/2
f 36/3/2 37/3/2 39/3/2
f 39/3/2 37/3/2 40/3/2
f 40/3/2 37/3/2 41/3/2
f 41/3/2 37/3/2 42/3/2
f 40/4/2 41/4/2 44/4/2
f 44/4/2 41/4/2 45/4/2
f 43/3/2 44/3/2 48/3/2
f 45/3/2 46/3/2 48/3/2
f 44/3/2 45/3/2 48/3/2
f 48/3/2 46/3/2 49/3/2
f 48/2/2 49/2/2 52/2/2
f 49/2/2 50/2/2 52/2/2
f 47/2/2 48/2/2 52/2/2
f 52/2/2 50/2/2 53/2/2
f 52/1/2 53/1/2 55/1/2
f 53/1/2 54/1/2 55/1/2
f 51/1/2 52/1/2 55/1/2
f 55/1/2 54/1/2 56/1/2
f 61/1/3 58/1/3 57/1/3
f 62/1/3 58/1/3 61/1/3
f 63/1/3 60/1/3 59/1/3
f 64/1/3 60/1/3 63/1/3
f 69/2/3 66/2/3 65/2/3
f 70/2/3 66/2/3 69/2/3
f 71/2/3 68/2/3 67/2/3
f 72/2/3 68/2/3 71/2/3
f 77/3/3 74/3/3 73/3/3
f 78/3/3 74/3/3 77/3/3
f 79/3/3 76/3/3 75/3/3
f 80/3/3 76/3/3 79/3/3
f 83/4/3 82/4/3 81/4/3
f 84/4/3 82/4/3 83/4/3
f 85/4/4 86/4/4 87/4/4
f 87/4/4 86/4/4 88/4/4
f 89/3/4 90/3/4 93/3/4
f 93/3/4 90/3/4 94/3/4
f 91/3/4 92/3/4 95/3/4
f 95/3/4 92/3/4 96/3/4
f 97/2/4 98/2/4 101/2/4
f 101/2/4 98/2/4 102/2/4
f 99/2/4 100/2/4 103/2/4
f 103/2/4 100/2/4 104/2/4
f 105/1/4 106/1/4 109/1/4
f 109/1/4 106/1/4 110/1/4
f 107/1/4 108/1/4 111/1/4
f 111/1/4 108/1/4 112/1/4
f 115/1/5 114/1/5 113/1/5
f 116/1/5 114/1/5 115/1/5
f 119/3/5 118/3/5 117/3/5
f 120/3/5 118/3/5 119/3/5
f 123/3/5 122/3/5 121/3/5
f 124/3/5 122/3/5 123/3/5
f 127/2/5 126/2/5 125/2/5
f 128/2/5 126/2/5 127/2/5
f 131/2/5 130/2/5 129/2/5
f 132/2/5 130/2/5 131/2/5
f 135/1/5 134/1/5 133/1/5
f 136/1/5 134/1/5 135/1/5
f 139/1/5 138/1/5 137/1/5
f 140/1/5 138/1/5 139/1/5
f 141/1/6 142/1/6 143/1/6
f 143/1/6 142/1/6 144/1/6
f 145/1/6 146/1/6 147/1/6
f 147/1/6 146/1/6 148/1/6
f 149/2/6 150/2/6 151/2/6
f 151/2/6 150/2/6 152/2/6
f 153/2/6 154/2/6 155/2/6
f 155/2/6 154/2/6 156/2/6
f 157/3/6 158/3/6 159/3/6
f 159/3/6 158/3/6 160/3/6
f 161/3/6 162/3/6 163/3/6
f 163/3/6 162/3/6 164/3/6
f 165/1/6 166/1/6 167/1/6
f 167/1/6 166/1/6 168/1/6
