# Blender 5.0.0
# www.blender.org
mtllib Frame.mtl
o Untitled
v -1.000000 -1.020690 0.971264
v -1.000000 -1.020690 -1.028736
v -1.000000 -0.620690 0.971264
v -1.000000 -0.620690 0.771264
v -1.000000 -0.620690 -0.828736
v -1.000000 -0.620690 -1.028736
v -1.000000 -0.420690 0.771264
v -1.000000 -0.420690 0.571264
v -1.000000 -0.420690 -0.628736
v -1.000000 -0.420690 -0.828736
v -1.000000 -0.220690 0.571264
v -1.000000 -0.220690 0.471264
v -1.000000 -0.220690 -0.528736
v -1.000000 -0.220690 -0.628736
v -1.000000 0.179310 0.571264
v -1.000000 0.179310 0.471264
v -1.000000 0.179310 -0.528736
v -1.000000 0.179310 -0.628736
v -1.000000 0.379310 0.771264
v -1.000000 0.379310 0.571264
v -1.000000 0.379310 -0.628736
v -1.000000 0.379310 -0.828736
v -1.000000 0.579310 0.971264
v -1.000000 0.579310 0.771264
v -1.000000 0.579310 -0.828736
v -1.000000 0.579310 -1.028736
v -1.000000 0.979310 0.971264
v -1.000000 0.979310 -1.028736
v 1.000000 -1.020690 0.971264
v 1.000000 -1.020690 -1.028736
v 1.000000 -0.620690 0.971264
v 1.000000 -0.620690 0.771264
v 1.000000 -0.620690 -0.828736
v 1.000000 -0.620690 -1.028736
v 1.000000 -0.420690 0.771264
v 1.000000 -0.420690 0.571264
v 1.000000 -0.420690 -0.628736
v 1.000000 -0.420690 -0.828736
v 1.000000 -0.220690 0.571264
v 1.000000 -0.220690 0.471264
v 1.000000 -0.220690 -0.528736
v 1.000000 -0.220690 -0.628736
v 1.000000 0.179310 0.571264
v 1.000000 0.179310 0.471264
v 1.000000 0.179310 -0.528736
v 1.000000 0.179310 -0.628736
v 1.000000 0.379310 0.771264
v 1.000000 0.379310 0.571264
v 1.000000 0.379310 -0.628736
v 1.000000 0.379310 -0.828736
v 1.000000 0.579310 0.971264
v 1.000000 0.579310 0.771264
v 1.000000 0.579310 -0.828736
v 1.000000 0.579310 -1.028736
v 1.000000 0.979310 0.971264
v 1.000000 0.979310 -1.028736
v -1.000000 -1.020690 0.971264
v -1.000000 -0.620690 0.971264
v -1.000000 0.579310 0.971264
v -1.000000 0.979310 0.971264
v 1.000000 -1.020690 0.971264
v 1.000000 -0.620690 0.971264
v 1.000000 0.579310 0.971264
v 1.000000 0.979310 0.971264
v -1.000000 -0.620690 0.771264
v -1.000000 -0.420690 0.771264
v -1.000000 0.379310 0.771264
v -1.000000 0.579310 0.771264
v -0.900000 0.579310 0.771264
v 0.900000 0.579310 0.771264
v 1.000000 -0.620690 0.771264
v 1.000000 -0.420690 0.771264
v 1.000000 0.379310 0.771264
v 1.000000 0.579310 0.771264
v -1.000000 -0.420690 0.571264
v -1.000000 -0.220690 0.571264
v -1.000000 0.179310 0.571264
v -1.000000 0.379310 0.571264
v 1.000000 -0.420690 0.571264
v 1.000000 -0.220690 0.571264
v 1.000000 0.179310 0.571264
v 1.000000 0.379310 0.571264
v -1.000000 -0.220690 0.471264
v -1.000000 0.179310 0.471264
v 1.000000 -0.220690 0.471264
v 1.000000 0.179310 0.471264
v -1.000000 -0.220690 -0.528736
v -1.000000 0.179310 -0.528736
v 1.000000 -0.220690 -0.528736
v 1.000000 0.179310 -0.528736
v -1.000000 -0.420690 -0.628736
v -1.000000 -0.220690 -0.628736
v -1.000000 0.179310 -0.628736
v -1.000000 0.379310 -0.628736
v 1.000000 -0.420690 -0.628736
v 1.000000 -0.220690 -0.628736
v 1.000000 0.179310 -0.628736
v 1.000000 0.379310 -0.628736
v -1.000000 -0.620690 -0.828736
v -1.000000 -0.420690 -0.828736
v -1.000000 0.379310 -0.828736
v -1.000000 0.579310 -0.828736
v 1.000000 -0.620690 -0.828736
v 1.000000 -0.420690 -0.828736
v 1.000000 0.379310 -0.828736
v 1.000000 0.579310 -0.828736
v -1.000000 -1.020690 -1.028736
v -1.000000 -0.620690 -1.028736
v -1.000000 0.579310 -1.028736
v -1.000000 0.979310 -1.028736
v 1.000000 -1.020690 -1.028736
v 1.000000 -0.620690 -1.028736
v 1.000000 0.579310 -1.028736
v 1.000000 0.979310 -1.028736
v -1.000000 -1.020690 0.971264
v 1.000000 -1.020690 0.971264
v -1.000000 -1.020690 -1.028736
v 1.000000 -1.020690 -1.028736
v -1.000000 0.179310 0.571264
v 1.000000 0.179310 0.571264
v -1.000000 0.179310 0.471264
v 1.000000 0.179310 0.471264
v -1.000000 0.179310 -0.528736
v 1.000000 0.179310 -0.528736
v -1.000000 0.179310 -0.628736
v 1.000000 0.179310 -0.628736
v -1.000000 0.379310 0.771264
v 1.000000 0.379310 0.771264
v -1.000000 0.379310 0.571264
v 1.000000 0.379310 0.571264
v -1.000000 0.379310 -0.628736
v 1.000000 0.379310 -0.628736
v -1.000000 0.379310 -0.828736
v 1.000000 0.379310 -0.828736
v -1.000000 0.579310 0.971264
v 1.000000 0.579310 0.971264
v -0.900000 0.579310 0.871264
v 0.900000 0.579310 0.871264
v -1.000000 0.579310 0.771264
v -0.900000 0.579310 0.771264
v 0.900000 0.579310 0.771264
v 1.000000 0.579310 0.771264
v -1.000000 0.579310 -0.828736
v 1.000000 0.579310 -0.828736
v -1.000000 0.579310 -1.028736
v 1.000000 0.579310 -1.028736
v -1.000000 -0.620690 0.971264
v 1.000000 -0.620690 0.971264
v -1.000000 -0.620690 0.771264
v 1.000000 -0.620690 0.771264
v -1.000000 -0.620690 -0.828736
v 1.000000 -0.620690 -0.828736
v -1.000000 -0.620690 -1.028736
v 1.000000 -0.620690 -1.028736
v -1.000000 -0.420690 0.771264
v 1.000000 -0.420690 0.771264
v -1.000000 -0.420690 0.571264
v 1.000000 -0.420690 0.571264
v -1.000000 -0.420690 -0.628736
v 1.000000 -0.420690 -0.628736
v -1.000000 -0.420690 -0.828736
v 1.000000 -0.420690 -0.828736
v -1.000000 -0.220690 0.571264
v 1.000000 -0.220690 0.571264
v -1.000000 -0.220690 0.471264
v 1.000000 -0.220690 0.471264
v -1.000000 -0.220690 -0.528736
v 1.000000 -0.220690 -0.528736
v -1.000000 -0.220690 -0.628736
v 1.000000 -0.220690 -0.628736
v -1.000000 0.979310 0.971264
v 1.000000 0.979310 0.971264
v -1.000000 0.979310 -1.028736
v 1.000000 0.979310 -1.028736
vn -1.0000 -0.0000 -0.0000
vn 1.0000 -0.0000 -0.0000
vn -0.0000 -0.0000 1.0000
vn -0.0000 -0.0000 -1.0000
vn -0.0000 -1.0000 -0.0000
vn -0.0000 1.0000 -0.0000
vt 0.302734 0.500000
vt 0.255859 0.500000
vt 0.294922 0.500000
vt 0.314453 0.500000
vt 0.310547 0.500000
s 1
usemtl palette
f 3/1/1 2/1/1 1/1/1
f 4/1/1 2/1/1 3/1/1
f 5/1/1 2/1/1 4/1/1
f 6/1/1 2/1/1 5/1/1
f 7/2/1 5/2/1 4/2/1
f 8/2/1 5/2/1 7/2/1
f 9/2/1 5/2/1 8/2/1
f 10/2/1 5/2/1 9/2/1
f 11/3/1 9/3/1 8/3/1
f 12/3/1 9/3/1 11/3/1
f 13/3/1 9/3/1 12/3/1
f 14/3/1 9/3/1 13/3/1
f 16/4/1 13/4/1 12/4/1
f 17/4/1 13/4/1 16/4/1
f 20/3/1 16/3/1 15/3/1
f 20/3/1 18/3/1 17/3/1
f 20/3/1 17/3/1 16/3/1
f 21/3/1 18/3/1 20/3/1
f 24/2/1 21/2/1 20/2/1
f 24/2/1 22/2/1 21/2/1
f 24/2/1 20/2/1 19/2/1
f 25/2/1 22/2/1 24/2/1
f 27/1/1 25/1/1 24/1/1
f 27/1/1 26/1/1 25/1/1
f 27/1/1 24/1/1 23/1/1
f 28/1/1 26/1/1 27/1/1
f 29/1/2 30/1/2 31/1/2
f 31/1/2 30/1/2 32/1/2
f 32/1/2 30/1/2 33/1/2
f 33/1/2 30/1/2 34/1/2
f 32/2/2 33/2/2 35/2/2
f 35/2/2 33/2/2 36/2/2
f 36/2/2 33/2/2 37/2/2
f 37/2/2 33/2/2 38/2/2
f 36/3/2 37/3/2 39/3/2
f 39/3/2 37/3/2 40/3/2
f 40/3/2 37/3/2 41/3/2
f 41/3/2 37/3/2 42/3/2
f 40/4/2 41/4/2 44/4/2
f 44/4/2 41/4/2 45/4/2
f 43/3/2 44/3/2 48/3/2
f 45/3/2 46/3/2 48/3/2
f 44/3/2 45/3/2 48/3/2
f 48/3/2 46/3/2 49/3/2
f 48/2/2 49/2/2 52/2/2
f 49/2/2 50/2/2 52/2/2
f 47/2/2 48/2/2 52/2/2
f 52/2/2 50/2/2 53/2/2
f 52/1/2 53/1/2 55/1/2
f 53/1/2 54/1/2 55/1/2
f 51/1/2 52/1/2 55/1/2
f 55/1/2 54/1/2 56/1/2
f 61/1/3 58/1/3 57/1/3
f 62/1/3 58/1/3 61/1/3
f 63/1/3 60/1/3 59/1/3
f 64/1/3 60/1/3 63/1/3
f 69/2/3 68/2/3 67/2/3
f 70/2/3 69/2/3 67/2/3
f 71/2/3 66/2/3 65/2/3
f 72/2/3 66/2/3 71/2/3
f 73/2/3 70/2/3 67/2/3
f 74/2/3 70/2/3 73/2/3
f 79/3/3 76/3/3 75/3/3
f 80/3/3 76/3/3 79/3/3
f 81/3/3 78/3/3 77/3/3
f 82/3/3 78/3/3 81/3/3
f 85/4/3 84/4/3 83/4/3
f 86/4/3 84/4/3 85/4/3
f 87/4/4 88/4/4 89/4/4
f 89/4/4 88/4/4 90/4/4
f 91/3/4 92/3/4 95/3/4
f 95/3/4 92/3/4 96/3/4
f 93/3/4 94/3/4 97/3/4
f 97/3/4 94/3/4 98/3/4
f 99/2/4 100/2/4 103/2/4
f 103/2/4 100/2/4 104/2/4
f 101/2/4 102/2/4 105/2/4
f 105/2/4 102/2/4 106/2/4
f 107/1/4 108/1/4 111/1/4
f 111/1/4 108/1/4 112/1/4
f 109/1/4 110/1/4 113/1/4
f 113/1/4 110/1/4 114/1/4
f 117/1/5 116/1/5 115/1/5
f 118/1/5 116/1/5 117/1/5
f 121/3/5 120/3/5 119/3/5
f 122/3/5 120/3/5 121/3/5
f 125/3/5 124/3/5 123/3/5
f 126/3/5 124/3/5 125/3/5
f 129/2/5 128/2/5 127/2/5
f 130/2/5 128/2/5 129/2/5
f 133/2/5 132/2/5 131/2/5
f 134/2/5 132/2/5 133/2/5
f 137/1/5 136/1/5 135/1/5
f 138/1/5 136/1/5 137/1/5
f 139/1/5 137/1/5 135/1/5
f 140/5/5 138/5/5 137/5/5
f 140/1/5 137/1/5 139/1/5
f 141/1/5 136/1/5 138/1/5
f 141/5/5 138/5/5 140/5/5
f 142/1/5 136/1/5 141/1/5
f 145/1/5 144/1/5 143/1/5
f 146/1/5 144/1/5 145/1/5
f 147/1/6 148/1/6 149/1/6
f 149/1/6 148/1/6 150/1/6
f 151/1/6 152/1/6 153/1/6
f 153/1/6 152/1/6 154/1/6
f 155/2/6 156/2/6 157/2/6
f 157/2/6 156/2/6 158/2/6
f 159/2/6 160/2/6 161/2/6
f 161/2/6 160/2/6 162/2/6
f 163/3/6 164/3/6 165/3/6
f 165/3/6 164/3/6 166/3/6
f 167/3/6 168/3/6 169/3/6
f 169/3/6 168/3/6 170/3/6
f 171/1/6 172/1/6 173/1/6
f 173/1/6 172/1/6 174/1/6
