# Blender 5.0.0
# www.blender.org
mtllib Boss.mtl
o Untitled
v -0.772551 -0.710672 0.366828
v -0.772551 -0.710672 -0.733172
v -0.772551 -0.010672 0.366828
v -0.772551 -0.010672 -0.733172
v -0.772551 0.089328 0.366828
v -0.772551 0.089328 -0.733172
v -0.672551 -0.810672 0.366828
v -0.672551 -0.810672 -0.733172
v -0.672551 -0.710672 0.466828
v -0.672551 -0.710672 0.366828
v -0.672551 -0.710672 -0.733172
v -0.672551 -0.710672 -0.833172
v -0.672551 -0.010672 0.466828
v -0.672551 -0.010672 0.366828
v -0.672551 -0.010672 -0.733172
v -0.672551 -0.010672 -0.833172
v -0.672551 0.089328 0.466828
v -0.672551 0.089328 0.366828
v -0.672551 0.089328 0.266828
v -0.672551 0.089328 -0.633172
v -0.672551 0.089328 -0.733172
v -0.672551 0.089328 -0.833172
v -0.672551 0.189328 0.466828
v -0.672551 0.189328 0.366828
v -0.672551 0.289328 0.266828
v -0.672551 0.289328 -0.133172
v -0.672551 0.289328 -0.233172
v -0.672551 0.289328 -0.633172
v -0.672551 0.389328 0.366828
v -0.672551 0.389328 -0.133172
v -0.672551 0.389328 -0.233172
v -0.672551 0.489328 0.466828
v -0.672551 0.489328 -0.133172
v -0.572551 -0.710672 0.366828
v -0.572551 -0.710672 0.266828
v -0.572551 -0.710672 -0.633172
v -0.572551 -0.710672 -0.733172
v -0.572551 -0.010672 0.366828
v -0.572551 -0.010672 -0.733172
v -0.572551 0.089328 0.366828
v -0.572551 0.089328 -0.733172
v -0.572551 0.189328 0.366828
v -0.572551 0.289328 0.366828
v -0.572551 0.289328 0.266828
v -0.572551 0.289328 -0.133172
v -0.572551 0.289328 -0.233172
v -0.572551 0.289328 -0.633172
v -0.572551 0.289328 -0.733172
v -0.572551 0.389328 0.266828
v -0.572551 0.389328 -0.133172
v -0.572551 0.389328 -0.233172
v -0.572551 0.389328 -0.633172
v -0.472551 0.289328 0.366828
v -0.472551 0.289328 0.266828
v -0.472551 0.389328 0.366828
v -0.472551 0.389328 0.266828
v -0.472551 0.389328 -0.533172
v -0.472551 0.489328 0.266828
v -0.472551 0.489328 -0.533172
v -0.372551 -1.010672 -0.133172
v -0.372551 -1.010672 -0.233172
v -0.372551 -0.910672 -0.133172
v -0.372551 -0.910672 -0.233172
v -0.372551 0.389328 0.366828
v -0.372551 0.389328 0.266828
v -0.372551 0.489328 0.366828
v -0.372551 0.489328 0.266828
v -0.272551 -0.510672 0.566828
v -0.272551 -0.510672 0.466828
v -0.272551 -0.210672 0.566828
v -0.272551 -0.210672 0.466828
v -0.172551 -0.910672 -0.033172
v -0.172551 -0.910672 -0.133172
v -0.172551 -0.910672 -0.233172
v -0.172551 -0.910672 -0.333172
v -0.172551 -0.810672 -0.033172
v -0.172551 -0.810672 -0.333172
v -0.172551 -0.610672 0.566828
v -0.172551 -0.610672 0.466828
v -0.172551 -0.510672 0.566828
v -0.172551 -0.510672 0.466828
v -0.172551 -0.210672 0.566828
v -0.172551 -0.210672 0.466828
v -0.172551 -0.110672 0.566828
v -0.172551 -0.110672 0.466828
v -0.172551 0.189328 0.666828
v -0.172551 0.189328 0.466828
v -0.172551 0.289328 0.666828
v -0.172551 0.289328 0.466828
v -0.172551 0.389328 -0.533172
v -0.172551 0.389328 -0.633172
v -0.172551 0.489328 0.266828
v -0.172551 0.489328 -0.533172
v -0.172551 0.489328 -0.633172
v -0.172551 0.589328 -0.333172
v -0.172551 0.589328 -0.533172
v -0.172551 0.689328 0.266828
v -0.172551 0.689328 0.166828
v -0.172551 0.689328 -0.033172
v -0.172551 0.689328 -0.333172
v -0.172551 0.789328 0.166828
v -0.172551 0.789328 -0.033172
v -0.072551 -1.110672 -0.133172
v -0.072551 -1.110672 -0.233172
v -0.072551 -1.010672 0.166828
v -0.072551 -1.010672 -0.133172
v -0.072551 -1.010672 -0.233172
v -0.072551 -1.010672 -0.533172
v -0.072551 -0.910672 0.166828
v -0.072551 -0.910672 -0.033172
v -0.072551 -0.910672 -0.133172
v -0.072551 -0.910672 -0.233172
v -0.072551 -0.910672 -0.333172
v -0.072551 -0.910672 -0.533172
v -0.072551 0.489328 0.366828
v -0.072551 0.489328 0.266828
v -0.072551 0.589328 -0.333172
v -0.072551 0.589328 -0.433172
v -0.072551 0.689328 0.466828
v -0.072551 0.689328 0.366828
v -0.072551 0.689328 0.266828
v -0.072551 0.689328 0.166828
v -0.072551 0.689328 -0.033172
v -0.072551 0.689328 -0.333172
v -0.072551 0.689328 -0.433172
v -0.072551 0.789328 0.566828
v -0.072551 0.789328 0.466828
v -0.072551 0.789328 0.166828
v -0.072551 0.789328 -0.033172
v -0.072551 0.789328 -0.133172
v -0.072551 0.789328 -0.333172
v -0.072551 0.889328 0.566828
v -0.072551 0.889328 -0.133172
v 0.127449 0.389328 0.466828
v 0.127449 0.389328 0.366828
v 0.127449 0.489328 0.466828
v 0.127449 0.489328 0.366828
v 0.427449 0.289328 0.166828
v 0.427449 0.289328 -0.533172
v 0.427449 0.389328 0.166828
v 0.427449 0.389328 -0.533172
v 0.527449 -0.710672 0.266828
v 0.527449 -0.710672 0.166828
v 0.527449 -0.710672 -0.533172
v 0.527449 -0.710672 -0.633172
v 0.527449 0.089328 0.166828
v 0.527449 0.089328 -0.533172
v 0.527449 0.289328 0.266828
v 0.527449 0.289328 -0.633172
v 0.527449 0.389328 0.366828
v 0.527449 0.389328 0.266828
v 0.527449 0.389328 -0.133172
v 0.527449 0.489328 0.366828
v 0.527449 0.489328 -0.133172
v 0.627449 -0.710672 0.366828
v 0.627449 -0.710672 0.266828
v 0.627449 -0.710672 0.166828
v 0.627449 -0.710672 -0.533172
v 0.627449 -0.710672 -0.633172
v 0.627449 -0.710672 -0.733172
v 0.627449 -0.010672 0.366828
v 0.627449 -0.010672 0.266828
v 0.627449 -0.010672 0.166828
v 0.627449 -0.010672 -0.533172
v 0.627449 -0.010672 -0.633172
v 0.627449 -0.010672 -0.733172
v 0.627449 0.089328 0.366828
v 0.627449 0.089328 0.266828
v 0.627449 0.089328 0.166828
v 0.627449 0.089328 -0.533172
v 0.627449 0.089328 -0.633172
v 0.627449 0.089328 -0.733172
v -0.672551 -0.710672 0.366828
v -0.672551 -0.710672 0.266828
v -0.672551 -0.710672 -0.633172
v -0.672551 -0.710672 -0.733172
v -0.672551 -0.010672 0.366828
v -0.672551 -0.010672 0.266828
v -0.672551 -0.010672 -0.633172
v -0.672551 -0.010672 -0.733172
v -0.672551 0.089328 0.366828
v -0.672551 0.089328 0.266828
v -0.672551 0.089328 -0.633172
v -0.672551 0.089328 -0.733172
v -0.572551 -0.710672 0.266828
v -0.572551 -0.710672 -0.633172
v -0.572551 0.289328 0.266828
v -0.572551 0.289328 -0.633172
v -0.572551 0.389328 0.366828
v -0.572551 0.389328 0.266828
v -0.572551 0.389328 -0.133172
v -0.572551 0.489328 0.366828
v -0.572551 0.489328 -0.133172
v -0.472551 0.289328 0.166828
v -0.472551 0.289328 -0.533172
v -0.472551 0.389328 0.166828
v -0.472551 0.389328 -0.533172
v -0.172551 0.389328 0.466828
v -0.172551 0.389328 0.366828
v -0.172551 0.489328 0.466828
v -0.172551 0.489328 0.366828
v 0.027449 -1.110672 -0.133172
v 0.027449 -1.110672 -0.233172
v 0.027449 -1.010672 0.166828
v 0.027449 -1.010672 -0.133172
v 0.027449 -1.010672 -0.233172
v 0.027449 -1.010672 -0.533172
v 0.027449 -0.910672 0.166828
v 0.027449 -0.910672 -0.033172
v 0.027449 -0.910672 -0.133172
v 0.027449 -0.910672 -0.233172
v 0.027449 -0.910672 -0.333172
v 0.027449 -0.910672 -0.533172
v 0.027449 0.489328 0.366828
v 0.027449 0.489328 0.266828
v 0.027449 0.589328 -0.333172
v 0.027449 0.589328 -0.433172
v 0.027449 0.689328 0.466828
v 0.027449 0.689328 0.366828
v 0.027449 0.689328 0.266828
v 0.027449 0.689328 0.166828
v 0.027449 0.689328 -0.033172
v 0.027449 0.689328 -0.333172
v 0.027449 0.689328 -0.433172
v 0.027449 0.789328 0.566828
v 0.027449 0.789328 0.466828
v 0.027449 0.789328 0.166828
v 0.027449 0.789328 -0.033172
v 0.027449 0.789328 -0.133172
v 0.027449 0.789328 -0.333172
v 0.027449 0.889328 0.566828
v 0.027449 0.889328 -0.133172
v 0.127449 -0.910672 -0.033172
v 0.127449 -0.910672 -0.133172
v 0.127449 -0.910672 -0.233172
v 0.127449 -0.910672 -0.333172
v 0.127449 -0.810672 -0.033172
v 0.127449 -0.810672 -0.333172
v 0.127449 -0.610672 0.566828
v 0.127449 -0.610672 0.466828
v 0.127449 -0.510672 0.566828
v 0.127449 -0.510672 0.466828
v 0.127449 -0.210672 0.566828
v 0.127449 -0.210672 0.466828
v 0.127449 -0.110672 0.566828
v 0.127449 -0.110672 0.466828
v 0.127449 0.189328 0.666828
v 0.127449 0.189328 0.466828
v 0.127449 0.289328 0.666828
v 0.127449 0.289328 0.466828
v 0.127449 0.389328 -0.533172
v 0.127449 0.389328 -0.633172
v 0.127449 0.489328 0.266828
v 0.127449 0.489328 -0.533172
v 0.127449 0.489328 -0.633172
v 0.127449 0.589328 -0.333172
v 0.127449 0.589328 -0.533172
v 0.127449 0.689328 0.266828
v 0.127449 0.689328 0.166828
v 0.127449 0.689328 -0.033172
v 0.127449 0.689328 -0.333172
v 0.127449 0.789328 0.166828
v 0.127449 0.789328 -0.033172
v 0.227449 -0.510672 0.566828
v 0.227449 -0.510672 0.466828
v 0.227449 -0.410672 0.566828
v 0.227449 -0.410672 0.466828
v 0.227449 -0.210672 0.566828
v 0.227449 -0.210672 0.466828
v 0.327449 -1.010672 -0.133172
v 0.327449 -1.010672 -0.233172
v 0.327449 -0.910672 -0.133172
v 0.327449 -0.910672 -0.233172
v 0.327449 0.389328 0.366828
v 0.327449 0.389328 0.266828
v 0.327449 0.489328 0.366828
v 0.327449 0.489328 0.266828
v 0.427449 0.289328 0.366828
v 0.427449 0.289328 0.266828
v 0.427449 0.389328 0.366828
v 0.427449 0.389328 0.266828
v 0.427449 0.389328 -0.533172
v 0.427449 0.489328 0.266828
v 0.427449 0.489328 -0.533172
v 0.527449 -0.710672 0.366828
v 0.527449 -0.710672 0.266828
v 0.527449 -0.710672 -0.633172
v 0.527449 -0.710672 -0.733172
v 0.527449 -0.010672 0.366828
v 0.527449 -0.010672 -0.733172
v 0.527449 0.089328 0.366828
v 0.527449 0.089328 -0.733172
v 0.527449 0.189328 0.366828
v 0.527449 0.289328 0.366828
v 0.527449 0.289328 0.266828
v 0.527449 0.289328 -0.133172
v 0.527449 0.289328 -0.233172
v 0.527449 0.289328 -0.633172
v 0.527449 0.289328 -0.733172
v 0.527449 0.389328 0.266828
v 0.527449 0.389328 -0.133172
v 0.527449 0.389328 -0.233172
v 0.527449 0.389328 -0.633172
v 0.627449 -0.810672 0.366828
v 0.627449 -0.810672 -0.733172
v 0.627449 -0.710672 0.466828
v 0.627449 -0.710672 0.366828
v 0.627449 -0.710672 -0.733172
v 0.627449 -0.710672 -0.833172
v 0.627449 -0.010672 0.466828
v 0.627449 -0.010672 0.366828
v 0.627449 -0.010672 -0.733172
v 0.627449 -0.010672 -0.833172
v 0.627449 0.089328 0.466828
v 0.627449 0.089328 0.366828
v 0.627449 0.089328 0.266828
v 0.627449 0.089328 -0.633172
v 0.627449 0.089328 -0.733172
v 0.627449 0.089328 -0.833172
v 0.627449 0.189328 0.466828
v 0.627449 0.189328 0.366828
v 0.627449 0.289328 0.466828
v 0.627449 0.289328 0.366828
v 0.627449 0.289328 0.266828
v 0.627449 0.289328 -0.133172
v 0.627449 0.289328 -0.233172
v 0.627449 0.289328 -0.633172
v 0.627449 0.389328 0.466828
v 0.627449 0.389328 0.366828
v 0.627449 0.389328 -0.133172
v 0.627449 0.389328 -0.233172
v 0.627449 0.489328 0.466828
v 0.627449 0.489328 -0.133172
v 0.727449 -0.710672 0.366828
v 0.727449 -0.710672 -0.733172
v 0.727449 -0.010672 0.366828
v 0.727449 -0.010672 -0.733172
v 0.727449 0.089328 0.366828
v 0.727449 0.089328 -0.733172
v -0.172551 0.189328 0.666828
v -0.172551 0.289328 0.666828
v 0.127449 0.189328 0.666828
v 0.127449 0.289328 0.666828
v -0.272551 -0.510672 0.566828
v -0.272551 -0.210672 0.566828
v -0.172551 -0.610672 0.566828
v -0.172551 -0.510672 0.566828
v -0.172551 -0.210672 0.566828
v -0.172551 -0.110672 0.566828
v -0.072551 -0.210672 0.566828
v -0.072551 -0.110672 0.566828
v -0.072551 0.789328 0.566828
v -0.072551 0.889328 0.566828
v 0.027449 -0.310672 0.566828
v 0.027449 -0.210672 0.566828
v 0.027449 0.789328 0.566828
v 0.027449 0.889328 0.566828
v 0.127449 -0.610672 0.566828
v 0.127449 -0.510672 0.566828
v 0.127449 -0.410672 0.566828
v 0.127449 -0.310672 0.566828
v 0.127449 -0.210672 0.566828
v 0.127449 -0.110672 0.566828
v 0.227449 -0.510672 0.566828
v 0.227449 -0.410672 0.566828
v 0.227449 -0.210672 0.566828
v -0.672551 -0.710672 0.466828
v -0.672551 -0.010672 0.466828
v -0.672551 0.089328 0.466828
v -0.672551 0.189328 0.466828
v -0.672551 0.489328 0.466828
v -0.372551 0.189328 0.466828
v -0.372551 0.289328 0.466828
v -0.272551 -0.510672 0.466828
v -0.272551 -0.210672 0.466828
v -0.272551 0.189328 0.466828
v -0.272551 0.289328 0.466828
v -0.272551 0.389328 0.466828
v -0.172551 -0.610672 0.466828
v -0.172551 -0.510672 0.466828
v -0.172551 -0.210672 0.466828
v -0.172551 -0.110672 0.466828
v -0.172551 0.189328 0.466828
v -0.172551 0.289328 0.466828
v -0.172551 0.389328 0.466828
v -0.172551 0.489328 0.466828
v -0.072551 -0.110672 0.466828
v -0.072551 0.689328 0.466828
v -0.072551 0.789328 0.466828
v 0.027449 0.689328 0.466828
v 0.027449 0.789328 0.466828
v 0.127449 -0.610672 0.466828
v 0.127449 -0.510672 0.466828
v 0.127449 -0.210672 0.466828
v 0.127449 -0.110672 0.466828
v 0.127449 0.189328 0.466828
v 0.127449 0.289328 0.466828
v 0.127449 0.389328 0.466828
v 0.127449 0.489328 0.466828
v 0.227449 -0.510672 0.466828
v 0.227449 -0.410672 0.466828
v 0.227449 -0.210672 0.466828
v 0.427449 0.189328 0.466828
v 0.427449 0.289328 0.466828
v 0.527449 0.189328 0.466828
v 0.527449 0.289328 0.466828
v 0.527449 0.389328 0.466828
v 0.627449 -0.710672 0.466828
v 0.627449 -0.010672 0.466828
v 0.627449 0.089328 0.466828
v 0.627449 0.189328 0.466828
v 0.627449 0.289328 0.466828
v 0.627449 0.389328 0.466828
v 0.627449 0.489328 0.466828
v -0.772551 -0.710672 0.366828
v -0.772551 -0.010672 0.366828
v -0.772551 0.089328 0.366828
v -0.672551 -0.810672 0.366828
v -0.672551 -0.710672 0.366828
v -0.672551 -0.010672 0.366828
v -0.672551 0.089328 0.366828
v -0.572551 0.089328 0.366828
v -0.572551 0.189328 0.366828
v -0.372551 0.189328 0.366828
v -0.272551 0.189328 0.366828
v -0.172551 0.189328 0.366828
v -0.172551 0.389328 0.366828
v -0.172551 0.489328 0.366828
v -0.072551 0.489328 0.366828
v -0.072551 0.689328 0.366828
v 0.027449 0.489328 0.366828
v 0.027449 0.689328 0.366828
v 0.127449 0.189328 0.366828
v 0.127449 0.389328 0.366828
v 0.127449 0.489328 0.366828
v 0.427449 0.189328 0.366828
v 0.527449 0.089328 0.366828
v 0.527449 0.189328 0.366828
v 0.627449 -0.810672 0.366828
v 0.627449 -0.710672 0.366828
v 0.627449 -0.010672 0.366828
v 0.627449 0.089328 0.366828
v 0.727449 -0.710672 0.366828
v 0.727449 -0.010672 0.366828
v 0.727449 0.089328 0.366828
v -0.672551 -0.710672 0.266828
v -0.672551 -0.010672 0.266828
v -0.672551 0.089328 0.266828
v -0.672551 0.289328 0.266828
v -0.572551 -0.710672 0.266828
v -0.572551 0.289328 0.266828
v -0.572551 0.389328 0.266828
v -0.472551 0.289328 0.266828
v -0.472551 0.389328 0.266828
v -0.472551 0.489328 0.266828
v -0.372551 0.389328 0.266828
v -0.372551 0.489328 0.266828
v -0.172551 0.489328 0.266828
v -0.172551 0.689328 0.266828
v -0.072551 0.489328 0.266828
v -0.072551 0.689328 0.266828
v 0.027449 0.489328 0.266828
v 0.027449 0.689328 0.266828
v 0.127449 0.489328 0.266828
v 0.127449 0.689328 0.266828
v 0.327449 0.389328 0.266828
v 0.327449 0.489328 0.266828
v 0.427449 0.289328 0.266828
v 0.427449 0.389328 0.266828
v 0.427449 0.489328 0.266828
v 0.527449 -0.710672 0.266828
v 0.527449 0.289328 0.266828
v 0.527449 0.389328 0.266828
v 0.627449 -0.710672 0.266828
v 0.627449 -0.010672 0.266828
v 0.627449 0.089328 0.266828
v 0.627449 0.289328 0.266828
v -0.172551 0.689328 0.166828
v -0.172551 0.789328 0.166828
v -0.072551 -1.010672 0.166828
v -0.072551 -0.910672 0.166828
v -0.072551 0.689328 0.166828
v -0.072551 0.789328 0.166828
v 0.027449 -1.010672 0.166828
v 0.027449 -0.910672 0.166828
v 0.027449 0.689328 0.166828
v 0.027449 0.789328 0.166828
v 0.127449 0.689328 0.166828
v 0.127449 0.789328 0.166828
v -0.172551 -0.910672 -0.033172
v -0.172551 -0.810672 -0.033172
v -0.072551 -0.910672 -0.033172
v 0.027449 -0.910672 -0.033172
v 0.127449 -0.910672 -0.033172
v 0.127449 -0.810672 -0.033172
v -0.672551 0.289328 -0.133172
v -0.672551 0.389328 -0.133172
v -0.572551 0.289328 -0.133172
v -0.572551 0.389328 -0.133172
v -0.372551 -1.010672 -0.133172
v -0.372551 -0.910672 -0.133172
v -0.172551 -0.910672 -0.133172
v -0.072551 -1.110672 -0.133172
v -0.072551 -1.010672 -0.133172
v -0.072551 -0.910672 -0.133172
v 0.027449 -1.110672 -0.133172
v 0.027449 -1.010672 -0.133172
v 0.027449 -0.910672 -0.133172
v 0.127449 -0.910672 -0.133172
v 0.327449 -1.010672 -0.133172
v 0.327449 -0.910672 -0.133172
v 0.527449 0.289328 -0.133172
v 0.527449 0.389328 -0.133172
v 0.627449 0.289328 -0.133172
v 0.627449 0.389328 -0.133172
v -0.472551 0.289328 -0.533172
v -0.472551 0.389328 -0.533172
v 0.427449 0.289328 -0.533172
v 0.427449 0.389328 -0.533172
v 0.527449 -0.710672 -0.533172
v 0.527449 0.089328 -0.533172
v 0.627449 -0.710672 -0.533172
v 0.627449 -0.010672 -0.533172
v 0.627449 0.089328 -0.533172
v -0.572551 -0.710672 -0.633172
v -0.572551 0.289328 -0.633172
v 0.527449 -0.710672 -0.633172
v 0.527449 0.289328 -0.633172
v -0.672551 -0.710672 -0.733172
v -0.672551 -0.010672 -0.733172
v -0.672551 0.089328 -0.733172
v -0.572551 -0.710672 -0.733172
v -0.572551 -0.010672 -0.733172
v -0.572551 0.089328 -0.733172
v 0.527449 -0.710672 -0.733172
v 0.527449 -0.010672 -0.733172
v 0.527449 0.089328 -0.733172
v 0.627449 -0.710672 -0.733172
v 0.627449 -0.010672 -0.733172
v 0.627449 0.089328 -0.733172
v -0.672551 -0.710672 0.366828
v -0.672551 -0.010672 0.366828
v -0.672551 0.089328 0.366828
v -0.672551 0.189328 0.366828
v -0.672551 0.389328 0.366828
v -0.572551 -0.710672 0.366828
v -0.572551 -0.010672 0.366828
v -0.572551 0.089328 0.366828
v -0.572551 0.189328 0.366828
v -0.572551 0.289328 0.366828
v -0.572551 0.389328 0.366828
v -0.572551 0.489328 0.366828
v -0.472551 0.289328 0.366828
v -0.472551 0.389328 0.366828
v -0.372551 0.389328 0.366828
v -0.372551 0.489328 0.366828
v 0.327449 0.389328 0.366828
v 0.327449 0.489328 0.366828
v 0.427449 0.289328 0.366828
v 0.427449 0.389328 0.366828
v 0.527449 -0.710672 0.366828
v 0.527449 -0.010672 0.366828
v 0.527449 0.089328 0.366828
v 0.527449 0.189328 0.366828
v 0.527449 0.289328 0.366828
v 0.527449 0.389328 0.366828
v 0.527449 0.489328 0.366828
v 0.627449 -0.710672 0.366828
v 0.627449 -0.010672 0.366828
v 0.627449 0.089328 0.366828
v 0.627449 0.189328 0.366828
v 0.627449 0.289328 0.366828
v 0.627449 0.389328 0.366828
v -0.572551 -0.710672 0.266828
v -0.572551 0.289328 0.266828
v 0.527449 -0.710672 0.266828
v 0.527449 0.289328 0.266828
v -0.472551 0.289328 0.166828
v -0.472551 0.389328 0.166828
v 0.427449 0.289328 0.166828
v 0.427449 0.389328 0.166828
v 0.527449 -0.710672 0.166828
v 0.527449 0.089328 0.166828
v 0.627449 -0.710672 0.166828
v 0.627449 -0.010672 0.166828
v 0.627449 0.089328 0.166828
v -0.172551 0.689328 -0.033172
v -0.172551 0.789328 -0.033172
v -0.072551 0.689328 -0.033172
v -0.072551 0.789328 -0.033172
v 0.027449 0.689328 -0.033172
v 0.027449 0.789328 -0.033172
v 0.127449 0.689328 -0.033172
v 0.127449 0.789328 -0.033172
v -0.672551 0.389328 -0.133172
v -0.672551 0.489328 -0.133172
v -0.572551 0.389328 -0.133172
v -0.572551 0.489328 -0.133172
v -0.072551 0.789328 -0.133172
v -0.072551 0.889328 -0.133172
v 0.027449 0.789328 -0.133172
v 0.027449 0.889328 -0.133172
v 0.527449 0.389328 -0.133172
v 0.527449 0.489328 -0.133172
v 0.627449 0.389328 -0.133172
v 0.627449 0.489328 -0.133172
v -0.672551 0.289328 -0.233172
v -0.672551 0.389328 -0.233172
v -0.572551 0.289328 -0.233172
v -0.572551 0.389328 -0.233172
v -0.372551 -1.010672 -0.233172
v -0.372551 -0.910672 -0.233172
v -0.172551 -0.910672 -0.233172
v -0.072551 -1.110672 -0.233172
v -0.072551 -1.010672 -0.233172
v -0.072551 -0.910672 -0.233172
v 0.027449 -1.110672 -0.233172
v 0.027449 -1.010672 -0.233172
v 0.027449 -0.910672 -0.233172
v 0.127449 -0.910672 -0.233172
v 0.327449 -1.010672 -0.233172
v 0.327449 -0.910672 -0.233172
v 0.527449 0.289328 -0.233172
v 0.527449 0.389328 -0.233172
v 0.627449 0.289328 -0.233172
v 0.627449 0.389328 -0.233172
v -0.172551 -0.910672 -0.333172
v -0.172551 -0.810672 -0.333172
v -0.172551 0.589328 -0.333172
v -0.172551 0.689328 -0.333172
v -0.072551 -0.910672 -0.333172
v -0.072551 0.589328 -0.333172
v -0.072551 0.689328 -0.333172
v -0.072551 0.789328 -0.333172
v 0.027449 -0.910672 -0.333172
v 0.027449 0.589328 -0.333172
v 0.027449 0.689328 -0.333172
v 0.027449 0.789328 -0.333172
v 0.127449 -0.910672 -0.333172
v 0.127449 -0.810672 -0.333172
v 0.127449 0.589328 -0.333172
v 0.127449 0.689328 -0.333172
v -0.072551 0.589328 -0.433172
v -0.072551 0.689328 -0.433172
v 0.027449 0.589328 -0.433172
v 0.027449 0.689328 -0.433172
v -0.472551 0.389328 -0.533172
v -0.472551 0.489328 -0.533172
v -0.172551 0.389328 -0.533172
v -0.172551 0.489328 -0.533172
v -0.172551 0.589328 -0.533172
v -0.072551 -1.010672 -0.533172
v -0.072551 -0.910672 -0.533172
v 0.027449 -1.010672 -0.533172
v 0.027449 -0.910672 -0.533172
v 0.127449 0.389328 -0.533172
v 0.127449 0.489328 -0.533172
v 0.127449 0.589328 -0.533172
v 0.427449 0.389328 -0.533172
v 0.427449 0.489328 -0.533172
v -0.672551 -0.710672 -0.633172
v -0.672551 -0.010672 -0.633172
v -0.672551 0.089328 -0.633172
v -0.672551 0.289328 -0.633172
v -0.572551 -0.710672 -0.633172
v -0.572551 0.289328 -0.633172
v -0.572551 0.389328 -0.633172
v -0.172551 0.389328 -0.633172
v -0.172551 0.489328 -0.633172
v 0.127449 0.389328 -0.633172
v 0.127449 0.489328 -0.633172
v 0.527449 -0.710672 -0.633172
v 0.527449 0.289328 -0.633172
v 0.527449 0.389328 -0.633172
v 0.627449 -0.710672 -0.633172
v 0.627449 -0.010672 -0.633172
v 0.627449 0.089328 -0.633172
v 0.627449 0.289328 -0.633172
v -0.772551 -0.710672 -0.733172
v -0.772551 -0.010672 -0.733172
v -0.772551 0.089328 -0.733172
v -0.672551 -0.810672 -0.733172
v -0.672551 -0.710672 -0.733172
v -0.672551 -0.010672 -0.733172
v -0.672551 0.089328 -0.733172
v -0.572551 0.089328 -0.733172
v -0.572551 0.289328 -0.733172
v 0.527449 0.089328 -0.733172
v 0.527449 0.289328 -0.733172
v 0.627449 -0.810672 -0.733172
v 0.627449 -0.710672 -0.733172
v 0.627449 -0.010672 -0.733172
v 0.627449 0.089328 -0.733172
v 0.727449 -0.710672 -0.733172
v 0.727449 -0.010672 -0.733172
v 0.727449 0.089328 -0.733172
v -0.672551 -0.710672 -0.833172
v -0.672551 -0.010672 -0.833172
v -0.672551 0.089328 -0.833172
v 0.627449 -0.710672 -0.833172
v 0.627449 -0.010672 -0.833172
v 0.627449 0.089328 -0.833172
v -0.072551 -1.110672 -0.133172
v 0.027449 -1.110672 -0.133172
v -0.072551 -1.110672 -0.233172
v 0.027449 -1.110672 -0.233172
v -0.072551 -1.010672 0.166828
v 0.027449 -1.010672 0.166828
v -0.372551 -1.010672 -0.133172
v -0.072551 -1.010672 -0.133172
v 0.027449 -1.010672 -0.133172
v 0.327449 -1.010672 -0.133172
v -0.372551 -1.010672 -0.233172
v -0.072551 -1.010672 -0.233172
v 0.027449 -1.010672 -0.233172
v 0.327449 -1.010672 -0.233172
v -0.072551 -1.010672 -0.533172
v 0.027449 -1.010672 -0.533172
v -0.172551 -0.910672 -0.033172
v -0.072551 -0.910672 -0.033172
v 0.027449 -0.910672 -0.033172
v 0.127449 -0.910672 -0.033172
v -0.172551 -0.910672 -0.133172
v -0.072551 -0.910672 -0.133172
v 0.027449 -0.910672 -0.133172
v 0.127449 -0.910672 -0.133172
v -0.172551 -0.910672 -0.233172
v -0.072551 -0.910672 -0.233172
v 0.027449 -0.910672 -0.233172
v 0.127449 -0.910672 -0.233172
v -0.172551 -0.910672 -0.333172
v -0.072551 -0.910672 -0.333172
v 0.027449 -0.910672 -0.333172
v 0.127449 -0.910672 -0.333172
v -0.672551 -0.810672 0.366828
v 0.627449 -0.810672 0.366828
v -0.172551 -0.810672 -0.033172
v 0.127449 -0.810672 -0.033172
v -0.172551 -0.810672 -0.333172
v 0.127449 -0.810672 -0.333172
v -0.672551 -0.810672 -0.733172
v 0.627449 -0.810672 -0.733172
v -0.672551 -0.710672 0.466828
v 0.627449 -0.710672 0.466828
v -0.772551 -0.710672 0.366828
v -0.672551 -0.710672 0.366828
v 0.627449 -0.710672 0.366828
v 0.727449 -0.710672 0.366828
v -0.772551 -0.710672 -0.733172
v -0.672551 -0.710672 -0.733172
v 0.627449 -0.710672 -0.733172
v 0.727449 -0.710672 -0.733172
v -0.672551 -0.710672 -0.833172
v 0.627449 -0.710672 -0.833172
v -0.172551 -0.610672 0.566828
v 0.127449 -0.610672 0.566828
v -0.172551 -0.610672 0.466828
v 0.127449 -0.610672 0.466828
v -0.272551 -0.510672 0.566828
v -0.172551 -0.510672 0.566828
v 0.127449 -0.510672 0.566828
v 0.227449 -0.510672 0.566828
v -0.272551 -0.510672 0.466828
v -0.172551 -0.510672 0.466828
v 0.127449 -0.510672 0.466828
v 0.227449 -0.510672 0.466828
v 0.527449 0.089328 0.166828
v 0.627449 0.089328 0.166828
v 0.527449 0.089328 -0.533172
v 0.627449 0.089328 -0.533172
v -0.172551 0.189328 0.666828
v 0.127449 0.189328 0.666828
v -0.672551 0.189328 0.466828
v -0.372551 0.189328 0.466828
v -0.272551 0.189328 0.466828
v -0.172551 0.189328 0.466828
v 0.127449 0.189328 0.466828
v 0.427449 0.189328 0.466828
v 0.527449 0.189328 0.466828
v 0.627449 0.189328 0.466828
v -0.672551 0.189328 0.366828
v -0.572551 0.189328 0.366828
v -0.372551 0.189328 0.366828
v -0.272551 0.189328 0.366828
v -0.172551 0.189328 0.366828
v 0.127449 0.189328 0.366828
v 0.427449 0.189328 0.366828
v 0.527449 0.189328 0.366828
v 0.627449 0.189328 0.366828
v -0.572551 0.289328 0.266828
v 0.527449 0.289328 0.266828
v -0.472551 0.289328 0.166828
v 0.427449 0.289328 0.166828
v -0.472551 0.289328 -0.533172
v 0.427449 0.289328 -0.533172
v -0.572551 0.289328 -0.633172
v 0.527449 0.289328 -0.633172
v -0.672551 0.389328 0.366828
v -0.572551 0.389328 0.366828
v 0.527449 0.389328 0.366828
v 0.627449 0.389328 0.366828
v -0.572551 0.389328 0.266828
v 0.527449 0.389328 0.266828
v -0.472551 0.389328 0.166828
v 0.427449 0.389328 0.166828
v -0.672551 0.389328 -0.133172
v -0.572551 0.389328 -0.133172
v 0.527449 0.389328 -0.133172
v 0.627449 0.389328 -0.133172
v -0.472551 0.389328 -0.533172
v 0.427449 0.389328 -0.533172
v -0.072551 0.689328 0.466828
v 0.027449 0.689328 0.466828
v -0.072551 0.689328 0.366828
v 0.027449 0.689328 0.366828
v -0.072551 0.789328 0.566828
v 0.027449 0.789328 0.566828
v -0.072551 0.789328 0.466828
v 0.027449 0.789328 0.466828
v -0.072551 -0.910672 0.166828
v 0.027449 -0.910672 0.166828
v -0.072551 -0.910672 -0.033172
v 0.027449 -0.910672 -0.033172
v -0.372551 -0.910672 -0.133172
v -0.172551 -0.910672 -0.133172
v 0.127449 -0.910672 -0.133172
v 0.327449 -0.910672 -0.133172
v -0.372551 -0.910672 -0.233172
v -0.172551 -0.910672 -0.233172
v 0.127449 -0.910672 -0.233172
v 0.327449 -0.910672 -0.233172
v -0.072551 -0.910672 -0.333172
v 0.027449 -0.910672 -0.333172
v -0.072551 -0.910672 -0.533172
v 0.027449 -0.910672 -0.533172
v -0.672551 -0.710672 0.366828
v -0.572551 -0.710672 0.366828
v 0.527449 -0.710672 0.366828
v 0.627449 -0.710672 0.366828
v -0.672551 -0.710672 0.266828
v -0.572551 -0.710672 0.266828
v 0.527449 -0.710672 0.266828
v 0.627449 -0.710672 0.266828
v 0.527449 -0.710672 0.166828
v 0.627449 -0.710672 0.166828
v -0.072551 -0.710672 -0.033172
v 0.027449 -0.710672 -0.033172
v -0.172551 -0.710672 -0.133172
v -0.072551 -0.710672 -0.133172
v 0.027449 -0.710672 -0.133172
v 0.127449 -0.710672 -0.133172
v -0.172551 -0.710672 -0.233172
v -0.072551 -0.710672 -0.233172
v 0.027449 -0.710672 -0.233172
v 0.127449 -0.710672 -0.233172
v -0.072551 -0.710672 -0.333172
v 0.027449 -0.710672 -0.333172
v 0.527449 -0.710672 -0.533172
v 0.627449 -0.710672 -0.533172
v -0.672551 -0.710672 -0.633172
v -0.572551 -0.710672 -0.633172
v 0.527449 -0.710672 -0.633172
v 0.627449 -0.710672 -0.633172
v -0.672551 -0.710672 -0.733172
v -0.572551 -0.710672 -0.733172
v 0.527449 -0.710672 -0.733172
v 0.627449 -0.710672 -0.733172
v -0.272551 -0.210672 0.566828
v -0.172551 -0.210672 0.566828
v 0.127449 -0.210672 0.566828
v 0.227449 -0.210672 0.566828
v -0.272551 -0.210672 0.466828
v -0.172551 -0.210672 0.466828
v 0.127449 -0.210672 0.466828
v 0.227449 -0.210672 0.466828
v -0.172551 -0.110672 0.566828
v -0.072551 -0.110672 0.566828
v 0.127449 -0.110672 0.566828
v -0.172551 -0.110672 0.466828
v -0.072551 -0.110672 0.466828
v 0.127449 -0.110672 0.466828
v -0.672551 0.089328 0.466828
v 0.627449 0.089328 0.466828
v -0.772551 0.089328 0.366828
v -0.672551 0.089328 0.366828
v -0.572551 0.089328 0.366828
v 0.527449 0.089328 0.366828
v 0.627449 0.089328 0.366828
v 0.727449 0.089328 0.366828
v -0.672551 0.089328 0.266828
v 0.627449 0.089328 0.266828
v -0.672551 0.089328 -0.633172
v 0.627449 0.089328 -0.633172
v -0.772551 0.089328 -0.733172
v -0.672551 0.089328 -0.733172
v -0.572551 0.089328 -0.733172
v 0.527449 0.089328 -0.733172
v 0.627449 0.089328 -0.733172
v 0.727449 0.089328 -0.733172
v -0.672551 0.089328 -0.833172
v 0.627449 0.089328 -0.833172
v -0.172551 0.289328 0.666828
v 0.127449 0.289328 0.666828
v -0.172551 0.289328 0.466828
v 0.127449 0.289328 0.466828
v -0.572551 0.289328 0.366828
v -0.472551 0.289328 0.366828
v 0.427449 0.289328 0.366828
v 0.527449 0.289328 0.366828
v -0.672551 0.289328 0.266828
v -0.572551 0.289328 0.266828
v -0.472551 0.289328 0.266828
v 0.427449 0.289328 0.266828
v 0.527449 0.289328 0.266828
v 0.627449 0.289328 0.266828
v -0.672551 0.289328 -0.133172
v -0.572551 0.289328 -0.133172
v 0.527449 0.289328 -0.133172
v 0.627449 0.289328 -0.133172
v -0.672551 0.289328 -0.233172
v -0.572551 0.289328 -0.233172
v 0.527449 0.289328 -0.233172
v 0.627449 0.289328 -0.233172
v -0.672551 0.289328 -0.633172
v -0.572551 0.289328 -0.633172
v 0.527449 0.289328 -0.633172
v 0.627449 0.289328 -0.633172
v -0.572551 0.289328 -0.733172
v 0.527449 0.289328 -0.733172
v -0.172551 0.389328 0.466828
v 0.127449 0.389328 0.466828
v -0.472551 0.389328 0.366828
v -0.372551 0.389328 0.366828
v -0.172551 0.389328 0.366828
v 0.127449 0.389328 0.366828
v 0.327449 0.389328 0.366828
v 0.427449 0.389328 0.366828
v -0.572551 0.389328 0.266828
v -0.472551 0.389328 0.266828
v -0.372551 0.389328 0.266828
v 0.327449 0.389328 0.266828
v 0.427449 0.389328 0.266828
v 0.527449 0.389328 0.266828
v -0.672551 0.389328 -0.133172
v -0.572551 0.389328 -0.133172
v 0.527449 0.389328 -0.133172
v 0.627449 0.389328 -0.133172
v -0.672551 0.389328 -0.233172
v -0.572551 0.389328 -0.233172
v 0.527449 0.389328 -0.233172
v 0.627449 0.389328 -0.233172
v -0.472551 0.389328 -0.533172
v -0.172551 0.389328 -0.533172
v 0.127449 0.389328 -0.533172
v 0.427449 0.389328 -0.533172
v -0.572551 0.389328 -0.633172
v -0.172551 0.389328 -0.633172
v 0.127449 0.389328 -0.633172
v 0.527449 0.389328 -0.633172
v -0.672551 0.489328 0.466828
v -0.172551 0.489328 0.466828
v 0.127449 0.489328 0.466828
v 0.627449 0.489328 0.466828
v -0.572551 0.489328 0.366828
v -0.372551 0.489328 0.366828
v -0.172551 0.489328 0.366828
v -0.072551 0.489328 0.366828
v 0.027449 0.489328 0.366828
v 0.127449 0.489328 0.366828
v 0.327449 0.489328 0.366828
v 0.527449 0.489328 0.366828
v -0.472551 0.489328 0.266828
v -0.372551 0.489328 0.266828
v -0.172551 0.489328 0.266828
v -0.072551 0.489328 0.266828
v 0.027449 0.489328 0.266828
v 0.127449 0.489328 0.266828
v 0.327449 0.489328 0.266828
v 0.427449 0.489328 0.266828
v -0.672551 0.489328 -0.133172
v -0.572551 0.489328 -0.133172
v 0.527449 0.489328 -0.133172
v 0.627449 0.489328 -0.133172
v -0.472551 0.489328 -0.533172
v -0.172551 0.489328 -0.533172
v 0.127449 0.489328 -0.533172
v 0.427449 0.489328 -0.533172
v -0.172551 0.489328 -0.633172
v 0.127449 0.489328 -0.633172
v -0.172551 0.589328 -0.333172
v -0.072551 0.589328 -0.333172
v 0.027449 0.589328 -0.333172
v 0.127449 0.589328 -0.333172
v -0.072551 0.589328 -0.433172
v 0.027449 0.589328 -0.433172
v -0.172551 0.589328 -0.533172
v 0.127449 0.589328 -0.533172
v -0.172551 0.689328 0.266828
v -0.072551 0.689328 0.266828
v 0.027449 0.689328 0.266828
v 0.127449 0.689328 0.266828
v -0.172551 0.689328 0.166828
v -0.072551 0.689328 0.166828
v 0.027449 0.689328 0.166828
v 0.127449 0.689328 0.166828
v -0.172551 0.689328 -0.033172
v -0.072551 0.689328 -0.033172
v 0.027449 0.689328 -0.033172
v 0.127449 0.689328 -0.033172
v -0.172551 0.689328 -0.333172
v -0.072551 0.689328 -0.333172
v 0.027449 0.689328 -0.333172
v 0.127449 0.689328 -0.333172
v -0.072551 0.689328 -0.433172
v 0.027449 0.689328 -0.433172
v -0.172551 0.789328 0.166828
v -0.072551 0.789328 0.166828
v 0.027449 0.789328 0.166828
v 0.127449 0.789328 0.166828
v -0.172551 0.789328 -0.033172
v -0.072551 0.789328 -0.033172
v 0.027449 0.789328 -0.033172
v 0.127449 0.789328 -0.033172
v -0.072551 0.789328 -0.133172
v 0.027449 0.789328 -0.133172
v -0.072551 0.789328 -0.333172
v 0.027449 0.789328 -0.333172
v -0.072551 0.889328 0.566828
v 0.027449 0.889328 0.566828
v -0.072551 0.889328 -0.133172
v 0.027449 0.889328 -0.133172
vn -1.0000 -0.0000 -0.0000
vn 1.0000 -0.0000 -0.0000
vn -0.0000 -0.0000 1.0000
vn -0.0000 -0.0000 -1.0000
vn -0.0000 -1.0000 -0.0000
vn -0.0000 1.0000 -0.0000
vt 0.529297 0.500000
vt 0.552734 0.500000
vt 0.404297 0.500000
vt 0.994141 0.500000
vt 0.962891 0.500000
vt 0.068359 0.500000
vt 0.958984 0.500000
vt 0.978516 0.500000
vt 0.037109 0.500000
s 1
usemtl palette
f 3/1/1 2/1/1 1/1/1
f 4/1/1 2/1/1 3/1/1
f 5/2/1 4/2/1 3/2/1
f 6/2/1 4/2/1 5/2/1
f 10/1/1 8/1/1 7/1/1
f 11/1/1 8/1/1 10/1/1
f 13/1/1 10/1/1 9/1/1
f 14/1/1 10/1/1 13/1/1
f 15/1/1 12/1/1 11/1/1
f 16/1/1 12/1/1 15/1/1
f 17/2/1 14/2/1 13/2/1
f 18/2/1 14/2/1 17/2/1
f 21/2/1 16/2/1 15/2/1
f 22/2/1 16/2/1 21/2/1
f 25/3/1 20/3/1 19/3/1
f 26/3/1 20/3/1 25/3/1
f 27/3/1 20/3/1 26/3/1
f 28/3/1 20/3/1 27/3/1
f 29/4/1 24/4/1 23/4/1
f 30/4/1 27/4/1 26/4/1
f 31/4/1 27/4/1 30/4/1
f 32/4/1 29/4/1 23/4/1
f 32/4/1 30/4/1 29/4/1
f 33/4/1 30/4/1 32/4/1
f 38/3/1 35/3/1 34/3/1
f 39/3/1 37/3/1 36/3/1
f 40/3/1 35/3/1 38/3/1
f 41/3/1 39/3/1 36/3/1
f 42/3/1 35/3/1 40/3/1
f 43/3/1 35/3/1 42/3/1
f 44/3/1 35/3/1 43/3/1
f 47/3/1 41/3/1 36/3/1
f 48/3/1 41/3/1 47/3/1
f 49/3/1 45/3/1 44/3/1
f 50/3/1 45/3/1 49/3/1
f 51/3/1 47/3/1 46/3/1
f 52/3/1 47/3/1 51/3/1
f 55/3/1 54/3/1 53/3/1
f 56/3/1 54/3/1 55/3/1
f 58/3/1 57/3/1 56/3/1
f 59/3/1 57/3/1 58/3/1
f 62/2/1 61/2/1 60/2/1
f 63/2/1 61/2/1 62/2/1
f 66/3/1 65/3/1 64/3/1
f 67/3/1 65/3/1 66/3/1
f 70/5/1 69/5/1 68/5/1
f 71/5/1 69/5/1 70/5/1
f 76/2/1 73/2/1 72/2/1
f 76/2/1 75/2/1 74/2/1
f 76/2/1 74/2/1 73/2/1
f 77/2/1 75/2/1 76/2/1
f 80/5/1 79/5/1 78/5/1
f 81/5/1 79/5/1 80/5/1
f 84/5/1 83/5/1 82/5/1
f 85/5/1 83/5/1 84/5/1
f 88/6/1 87/6/1 86/6/1
f 89/6/1 87/6/1 88/6/1
f 93/1/1 91/1/1 90/1/1
f 94/1/1 91/1/1 93/1/1
f 95/1/1 93/1/1 92/1/1
f 96/1/1 93/1/1 95/1/1
f 97/1/1 95/1/1 92/1/1
f 98/1/1 95/1/1 97/1/1
f 99/1/1 95/1/1 98/1/1
f 100/1/1 95/1/1 99/1/1
f 101/1/1 99/1/1 98/1/1
f 102/1/1 99/1/1 101/1/1
f 106/2/1 104/2/1 103/2/1
f 107/2/1 104/2/1 106/2/1
f 109/2/1 106/2/1 105/2/1
f 110/2/1 106/2/1 109/2/1
f 111/2/1 106/2/1 110/2/1
f 112/2/1 108/2/1 107/2/1
f 113/2/1 108/2/1 112/2/1
f 114/2/1 108/2/1 113/2/1
f 120/1/1 116/1/1 115/1/1
f 121/1/1 116/1/1 120/1/1
f 124/1/1 118/1/1 117/1/1
f 125/1/1 118/1/1 124/1/1
f 127/1/1 122/1/1 121/1/1
f 127/1/1 120/1/1 119/1/1
f 127/1/1 121/1/1 120/1/1
f 128/1/1 122/1/1 127/1/1
f 129/1/1 124/1/1 123/1/1
f 130/1/1 124/1/1 129/1/1
f 131/1/1 124/1/1 130/1/1
f 132/1/1 128/1/1 127/1/1
f 132/1/1 127/1/1 126/1/1
f 132/1/1 130/1/1 129/1/1
f 132/1/1 129/1/1 128/1/1
f 133/1/1 130/1/1 132/1/1
f 136/4/1 135/4/1 134/4/1
f 137/4/1 135/4/1 136/4/1
f 140/3/1 139/3/1 138/3/1
f 141/3/1 139/3/1 140/3/1
f 146/3/1 143/3/1 142/3/1
f 147/3/1 145/3/1 144/3/1
f 148/3/1 146/3/1 142/3/1
f 148/3/1 147/3/1 146/3/1
f 149/3/1 145/3/1 147/3/1
f 149/3/1 147/3/1 148/3/1
f 153/4/1 151/4/1 150/4/1
f 153/4/1 152/4/1 151/4/1
f 154/4/1 152/4/1 153/4/1
f 161/1/1 156/1/1 155/1/1
f 162/1/1 156/1/1 161/1/1
f 163/1/1 158/1/1 157/1/1
f 164/1/1 158/1/1 163/1/1
f 165/1/1 160/1/1 159/1/1
f 166/1/1 160/1/1 165/1/1
f 167/2/1 162/2/1 161/2/1
f 168/2/1 162/2/1 167/2/1
f 169/2/1 164/2/1 163/2/1
f 170/2/1 164/2/1 169/2/1
f 171/2/1 166/2/1 165/2/1
f 172/2/1 166/2/1 171/2/1
f 173/1/2 174/1/2 177/1/2
f 177/1/2 174/1/2 178/1/2
f 175/1/2 176/1/2 179/1/2
f 179/1/2 176/1/2 180/1/2
f 177/2/2 178/2/2 181/2/2
f 181/2/2 178/2/2 182/2/2
f 179/2/2 180/2/2 183/2/2
f 183/2/2 180/2/2 184/2/2
f 185/3/2 186/3/2 187/3/2
f 187/3/2 186/3/2 188/3/2
f 189/4/2 190/4/2 192/4/2
f 190/4/2 191/4/2 192/4/2
f 192/4/2 191/4/2 193/4/2
f 194/3/2 195/3/2 196/3/2
f 196/3/2 195/3/2 197/3/2
f 198/4/2 199/4/2 200/4/2
f 200/4/2 199/4/2 201/4/2
f 202/2/2 203/2/2 205/2/2
f 205/2/2 203/2/2 206/2/2
f 204/2/2 205/2/2 208/2/2
f 208/2/2 205/2/2 209/2/2
f 209/2/2 205/2/2 210/2/2
f 206/2/2 207/2/2 211/2/2
f 211/2/2 207/2/2 212/2/2
f 212/2/2 207/2/2 213/2/2
f 214/1/2 215/1/2 219/1/2
f 219/1/2 215/1/2 220/1/2
f 216/1/2 217/1/2 223/1/2
f 223/1/2 217/1/2 224/1/2
f 220/1/2 221/1/2 226/1/2
f 218/1/2 219/1/2 226/1/2
f 219/1/2 220/1/2 226/1/2
f 226/1/2 221/1/2 227/1/2
f 222/1/2 223/1/2 228/1/2
f 228/1/2 223/1/2 229/1/2
f 229/1/2 223/1/2 230/1/2
f 226/1/2 227/1/2 231/1/2
f 225/1/2 226/1/2 231/1/2
f 228/1/2 229/1/2 231/1/2
f 227/1/2 228/1/2 231/1/2
f 231/1/2 229/1/2 232/1/2
f 233/2/2 234/2/2 237/2/2
f 235/2/2 236/2/2 237/2/2
f 234/2/2 235/2/2 237/2/2
f 237/2/2 236/2/2 238/2/2
f 239/5/2 240/5/2 241/5/2
f 241/5/2 240/5/2 242/5/2
f 243/7/2 244/7/2 245/7/2
f 245/7/2 244/7/2 246/7/2
f 247/6/2 248/6/2 249/6/2
f 249/6/2 248/6/2 250/6/2
f 251/1/2 252/1/2 254/1/2
f 254/1/2 252/1/2 255/1/2
f 253/1/2 254/1/2 256/1/2
f 256/1/2 254/1/2 257/1/2
f 253/1/2 256/1/2 258/1/2
f 258/1/2 256/1/2 259/1/2
f 259/1/2 256/1/2 260/1/2
f 260/1/2 256/1/2 261/1/2
f 259/1/2 260/1/2 262/1/2
f 262/1/2 260/1/2 263/1/2
f 264/5/2 265/5/2 266/5/2
f 266/5/2 265/5/2 267/5/2
f 266/7/2 267/7/2 268/7/2
f 268/7/2 267/7/2 269/7/2
f 270/2/2 271/2/2 272/2/2
f 272/2/2 271/2/2 273/2/2
f 274/3/2 275/3/2 276/3/2
f 276/3/2 275/3/2 277/3/2
f 278/3/2 279/3/2 280/3/2
f 280/3/2 279/3/2 281/3/2
f 281/3/2 282/3/2 283/3/2
f 283/3/2 282/3/2 284/3/2
f 285/3/2 286/3/2 289/3/2
f 287/3/2 288/3/2 290/3/2
f 289/3/2 286/3/2 291/3/2
f 287/3/2 290/3/2 292/3/2
f 291/3/2 286/3/2 293/3/2
f 293/3/2 286/3/2 294/3/2
f 294/3/2 286/3/2 295/3/2
f 287/3/2 292/3/2 298/3/2
f 298/3/2 292/3/2 299/3/2
f 295/3/2 296/3/2 300/3/2
f 300/3/2 296/3/2 301/3/2
f 297/3/2 298/3/2 302/3/2
f 302/3/2 298/3/2 303/3/2
f 304/1/2 305/1/2 307/1/2
f 307/1/2 305/1/2 308/1/2
f 306/1/2 307/1/2 310/1/2
f 310/1/2 307/1/2 311/1/2
f 308/1/2 309/1/2 312/1/2
f 312/1/2 309/1/2 313/1/2
f 310/2/2 311/2/2 314/2/2
f 314/2/2 311/2/2 315/2/2
f 312/2/2 313/2/2 318/2/2
f 318/2/2 313/2/2 319/2/2
f 320/4/2 321/4/2 322/4/2
f 322/4/2 321/4/2 323/4/2
f 316/3/2 317/3/2 324/3/2
f 324/3/2 317/3/2 325/3/2
f 325/3/2 317/3/2 326/3/2
f 326/3/2 317/3/2 327/3/2
f 322/8/2 323/8/2 328/8/2
f 328/8/2 323/8/2 329/8/2
f 325/4/2 326/4/2 330/4/2
f 330/4/2 326/4/2 331/4/2
f 328/4/2 329/4/2 332/4/2
f 329/4/2 330/4/2 332/4/2
f 332/4/2 330/4/2 333/4/2
f 334/1/2 335/1/2 336/1/2
f 336/1/2 335/1/2 337/1/2
f 336/2/2 337/2/2 338/2/2
f 338/2/2 337/2/2 339/2/2
f 342/6/3 341/6/3 340/6/3
f 343/6/3 341/6/3 342/6/3
f 347/5/3 345/5/3 344/5/3
f 348/5/3 345/5/3 347/5/3
f 350/5/3 347/5/3 346/5/3
f 350/5/3 349/5/3 348/5/3
f 350/5/3 348/5/3 347/5/3
f 351/5/3 349/5/3 350/5/3
f 354/5/3 350/5/3 346/5/3
f 355/7/3 351/7/3 350/7/3
f 355/5/3 350/5/3 354/5/3
f 356/1/3 353/1/3 352/1/3
f 357/1/3 353/1/3 356/1/3
f 358/5/3 354/5/3 346/5/3
f 359/5/3 354/5/3 358/5/3
f 360/5/3 354/5/3 359/5/3
f 361/7/3 355/7/3 354/7/3
f 361/5/3 354/5/3 360/5/3
f 362/7/3 351/7/3 355/7/3
f 362/7/3 355/7/3 361/7/3
f 363/7/3 351/7/3 362/7/3
f 364/5/3 360/5/3 359/5/3
f 365/7/3 361/7/3 360/7/3
f 365/5/3 360/5/3 364/5/3
f 365/7/3 362/7/3 361/7/3
f 366/7/3 362/7/3 365/7/3
f 372/4/3 371/4/3 370/4/3
f 373/4/3 371/4/3 372/4/3
f 374/1/3 368/1/3 367/1/3
f 375/1/3 368/1/3 374/1/3
f 376/8/3 373/8/3 372/8/3
f 377/4/3 371/4/3 373/4/3
f 377/8/3 373/8/3 376/8/3
f 378/4/3 371/4/3 377/4/3
f 379/1/3 374/1/3 367/1/3
f 380/1/3 374/1/3 379/1/3
f 381/1/3 368/1/3 375/1/3
f 382/1/3 368/1/3 381/1/3
f 383/4/3 377/4/3 376/4/3
f 384/8/3 378/8/3 377/8/3
f 384/4/3 377/4/3 383/4/3
f 385/4/3 371/4/3 378/4/3
f 385/8/3 378/8/3 384/8/3
f 386/4/3 371/4/3 385/4/3
f 387/1/3 368/1/3 382/1/3
f 390/1/3 389/1/3 388/1/3
f 391/1/3 389/1/3 390/1/3
f 392/1/3 379/1/3 367/1/3
f 395/1/3 368/1/3 387/1/3
f 397/4/3 385/4/3 384/4/3
f 398/4/3 385/4/3 397/4/3
f 400/1/3 393/1/3 392/1/3
f 402/1/3 395/1/3 394/1/3
f 403/4/3 399/4/3 398/4/3
f 403/4/3 397/4/3 396/4/3
f 403/4/3 398/4/3 397/4/3
f 404/4/3 399/4/3 403/4/3
f 405/8/3 404/8/3 403/8/3
f 406/4/3 399/4/3 404/4/3
f 406/8/3 404/8/3 405/8/3
f 407/4/3 399/4/3 406/4/3
f 408/1/3 402/1/3 401/1/3
f 408/1/3 401/1/3 400/1/3
f 408/1/3 392/1/3 367/1/3
f 408/1/3 400/1/3 392/1/3
f 409/2/3 369/2/3 368/2/3
f 409/1/3 402/1/3 408/1/3
f 409/1/3 368/1/3 395/1/3
f 409/1/3 395/1/3 402/1/3
f 410/2/3 369/2/3 409/2/3
f 411/4/3 406/4/3 405/4/3
f 412/8/3 407/8/3 406/8/3
f 412/4/3 406/4/3 411/4/3
f 413/4/3 399/4/3 407/4/3
f 413/8/3 407/8/3 412/8/3
f 414/4/3 399/4/3 413/4/3
f 419/1/3 416/1/3 415/1/3
f 420/2/3 417/2/3 416/2/3
f 420/1/3 416/1/3 419/1/3
f 421/2/3 417/2/3 420/2/3
f 424/3/3 423/3/3 422/3/3
f 425/3/3 424/3/3 422/3/3
f 426/3/3 425/3/3 422/3/3
f 429/3/3 428/3/3 427/3/3
f 431/3/3 429/3/3 427/3/3
f 431/1/3 430/1/3 429/1/3
f 432/1/3 430/1/3 431/1/3
f 433/3/3 426/3/3 422/3/3
f 434/3/3 431/3/3 427/3/3
f 435/3/3 431/3/3 434/3/3
f 436/3/3 433/3/3 422/3/3
f 437/3/3 436/3/3 422/3/3
f 438/3/3 436/3/3 437/3/3
f 439/1/3 419/1/3 418/1/3
f 440/1/3 419/1/3 439/1/3
f 443/1/3 441/1/3 440/1/3
f 444/2/3 442/2/3 441/2/3
f 444/1/3 441/1/3 443/1/3
f 445/2/3 442/2/3 444/2/3
f 450/3/3 447/3/3 446/3/3
f 450/3/3 449/3/3 448/3/3
f 450/3/3 448/3/3 447/3/3
f 451/3/3 449/3/3 450/3/3
f 453/3/3 452/3/3 451/3/3
f 454/3/3 452/3/3 453/3/3
f 456/3/3 455/3/3 454/3/3
f 457/3/3 455/3/3 456/3/3
f 460/1/3 459/1/3 458/1/3
f 461/1/3 459/1/3 460/1/3
f 464/1/3 463/1/3 462/1/3
f 465/1/3 463/1/3 464/1/3
f 469/3/3 467/3/3 466/3/3
f 470/3/3 467/3/3 469/3/3
f 472/3/3 469/3/3 468/3/3
f 473/3/3 469/3/3 472/3/3
f 474/3/3 472/3/3 471/3/3
f 475/3/3 472/3/3 474/3/3
f 476/3/3 472/3/3 475/3/3
f 477/3/3 472/3/3 476/3/3
f 482/1/3 479/1/3 478/1/3
f 483/1/3 479/1/3 482/1/3
f 484/2/3 481/2/3 480/2/3
f 485/2/3 481/2/3 484/2/3
f 488/1/3 487/1/3 486/1/3
f 489/1/3 487/1/3 488/1/3
f 492/2/3 491/2/3 490/2/3
f 493/2/3 491/2/3 492/2/3
f 494/2/3 491/2/3 493/2/3
f 495/2/3 491/2/3 494/2/3
f 498/4/3 497/4/3 496/4/3
f 499/4/3 497/4/3 498/4/3
f 502/2/3 501/2/3 500/2/3
f 504/2/3 502/2/3 500/2/3
f 505/2/3 502/2/3 504/2/3
f 506/2/3 504/2/3 503/2/3
f 507/2/3 504/2/3 506/2/3
f 509/2/3 508/2/3 507/2/3
f 510/2/3 509/2/3 507/2/3
f 511/2/3 509/2/3 510/2/3
f 514/4/3 513/4/3 512/4/3
f 515/4/3 513/4/3 514/4/3
f 518/3/3 517/3/3 516/3/3
f 519/3/3 517/3/3 518/3/3
f 522/3/3 521/3/3 520/3/3
f 523/3/3 521/3/3 522/3/3
f 524/3/3 521/3/3 523/3/3
f 527/3/3 526/3/3 525/3/3
f 528/3/3 526/3/3 527/3/3
f 532/1/3 530/1/3 529/1/3
f 533/2/3 531/2/3 530/2/3
f 533/1/3 530/1/3 532/1/3
f 534/2/3 531/2/3 533/2/3
f 538/1/3 536/1/3 535/1/3
f 539/2/3 537/2/3 536/2/3
f 539/1/3 536/1/3 538/1/3
f 540/2/3 537/2/3 539/2/3
f 541/1/4 542/1/4 546/1/4
f 542/2/4 543/2/4 547/2/4
f 546/1/4 542/1/4 547/1/4
f 547/2/4 543/2/4 548/2/4
f 544/4/4 545/4/4 549/4/4
f 549/4/4 545/4/4 550/4/4
f 550/4/4 545/4/4 551/4/4
f 551/4/4 552/4/4 553/4/4
f 550/4/4 551/4/4 553/4/4
f 553/4/4 552/4/4 554/4/4
f 554/4/4 552/4/4 555/4/4
f 555/4/4 552/4/4 556/4/4
f 557/4/4 558/4/4 560/4/4
f 559/4/4 560/4/4 565/4/4
f 560/4/4 558/4/4 566/4/4
f 565/4/4 560/4/4 566/4/4
f 566/4/4 558/4/4 567/4/4
f 561/1/4 562/1/4 568/1/4
f 562/2/4 563/2/4 569/2/4
f 568/1/4 562/1/4 569/1/4
f 569/2/4 563/2/4 570/2/4
f 564/4/4 565/4/4 571/4/4
f 565/8/4 566/8/4 572/8/4
f 571/4/4 565/4/4 572/4/4
f 572/8/4 566/8/4 573/8/4
f 574/3/4 575/3/4 576/3/4
f 576/3/4 575/3/4 577/3/4
f 578/3/4 579/3/4 580/3/4
f 580/3/4 579/3/4 581/3/4
f 582/3/4 583/3/4 584/3/4
f 584/3/4 583/3/4 585/3/4
f 585/3/4 583/3/4 586/3/4
f 587/1/4 588/1/4 589/1/4
f 589/1/4 588/1/4 590/1/4
f 591/1/4 592/1/4 593/1/4
f 593/1/4 592/1/4 594/1/4
f 595/4/4 596/4/4 597/4/4
f 597/4/4 596/4/4 598/4/4
f 599/1/4 600/1/4 601/1/4
f 601/1/4 600/1/4 602/1/4
f 603/4/4 604/4/4 605/4/4
f 605/4/4 604/4/4 606/4/4
f 607/4/4 608/4/4 609/4/4
f 609/4/4 608/4/4 610/4/4
f 611/2/4 612/2/4 613/2/4
f 611/2/4 613/2/4 615/2/4
f 615/2/4 613/2/4 616/2/4
f 614/2/4 615/2/4 617/2/4
f 617/2/4 615/2/4 618/2/4
f 618/2/4 619/2/4 620/2/4
f 618/2/4 620/2/4 621/2/4
f 621/2/4 620/2/4 622/2/4
f 623/4/4 624/4/4 625/4/4
f 625/4/4 624/4/4 626/4/4
f 627/2/4 628/2/4 631/2/4
f 629/1/4 630/1/4 632/1/4
f 632/1/4 630/1/4 633/1/4
f 631/2/4 628/2/4 635/2/4
f 633/1/4 634/1/4 637/1/4
f 637/1/4 634/1/4 638/1/4
f 635/2/4 628/2/4 639/2/4
f 639/2/4 628/2/4 640/2/4
f 636/1/4 637/1/4 641/1/4
f 641/1/4 637/1/4 642/1/4
f 643/1/4 644/1/4 645/1/4
f 645/1/4 644/1/4 646/1/4
f 647/3/4 648/3/4 649/3/4
f 649/3/4 648/3/4 650/3/4
f 652/2/4 653/2/4 654/2/4
f 654/2/4 653/2/4 655/2/4
f 650/1/4 651/1/4 657/1/4
f 657/1/4 651/1/4 658/1/4
f 656/3/4 657/3/4 659/3/4
f 659/3/4 657/3/4 660/3/4
f 661/3/4 662/3/4 665/3/4
f 663/3/4 664/3/4 665/3/4
f 662/3/4 663/3/4 665/3/4
f 665/3/4 664/3/4 666/3/4
f 666/3/4 667/3/4 668/3/4
f 666/3/4 668/3/4 670/3/4
f 668/1/4 669/1/4 670/1/4
f 670/1/4 669/1/4 671/1/4
f 666/3/4 670/3/4 673/3/4
f 673/3/4 670/3/4 674/3/4
f 672/3/4 673/3/4 675/3/4
f 675/3/4 673/3/4 676/3/4
f 676/3/4 673/3/4 677/3/4
f 677/3/4 673/3/4 678/3/4
f 679/1/4 680/1/4 683/1/4
f 680/2/4 681/2/4 684/2/4
f 683/1/4 680/1/4 684/1/4
f 684/2/4 681/2/4 685/2/4
f 686/3/4 687/3/4 688/3/4
f 688/3/4 687/3/4 689/3/4
f 682/1/4 683/1/4 690/1/4
f 690/1/4 683/1/4 691/1/4
f 691/1/4 692/1/4 694/1/4
f 692/2/4 693/2/4 695/2/4
f 694/1/4 692/1/4 695/1/4
f 695/2/4 693/2/4 696/2/4
f 697/1/4 698/1/4 700/1/4
f 698/2/4 699/2/4 701/2/4
f 700/1/4 698/1/4 701/1/4
f 701/2/4 699/2/4 702/2/4
f 705/2/5 704/2/5 703/2/5
f 706/2/5 704/2/5 705/2/5
f 710/2/5 708/2/5 707/2/5
f 711/2/5 708/2/5 710/2/5
f 713/2/5 710/2/5 709/2/5
f 714/2/5 710/2/5 713/2/5
f 715/2/5 712/2/5 711/2/5
f 716/2/5 712/2/5 715/2/5
f 717/2/5 715/2/5 714/2/5
f 718/2/5 715/2/5 717/2/5
f 723/2/5 720/2/5 719/2/5
f 724/2/5 720/2/5 723/2/5
f 725/2/5 722/2/5 721/2/5
f 726/2/5 722/2/5 725/2/5
f 731/2/5 728/2/5 727/2/5
f 732/2/5 728/2/5 731/2/5
f 733/2/5 730/2/5 729/2/5
f 734/2/5 730/2/5 733/2/5
f 737/1/5 736/1/5 735/1/5
f 738/1/5 736/1/5 737/1/5
f 739/1/5 737/1/5 735/1/5
f 740/1/5 736/1/5 738/1/5
f 741/1/5 739/1/5 735/1/5
f 741/1/5 740/1/5 739/1/5
f 742/1/5 736/1/5 740/1/5
f 742/1/5 740/1/5 741/1/5
f 746/1/5 744/1/5 743/1/5
f 747/1/5 744/1/5 746/1/5
f 749/1/5 746/1/5 745/1/5
f 750/1/5 746/1/5 749/1/5
f 751/1/5 748/1/5 747/1/5
f 752/1/5 748/1/5 751/1/5
f 753/1/5 751/1/5 750/1/5
f 754/1/5 751/1/5 753/1/5
f 757/5/5 756/5/5 755/5/5
f 758/5/5 756/5/5 757/5/5
f 763/5/5 760/5/5 759/5/5
f 764/5/5 760/5/5 763/5/5
f 765/5/5 762/5/5 761/5/5
f 766/5/5 762/5/5 765/5/5
f 769/3/5 768/3/5 767/3/5
f 770/3/5 768/3/5 769/3/5
f 776/6/5 772/6/5 771/6/5
f 777/6/5 772/6/5 776/6/5
f 781/4/5 774/4/5 773/4/5
f 782/4/5 774/4/5 781/4/5
f 783/8/5 775/8/5 774/8/5
f 783/4/5 774/4/5 782/4/5
f 784/4/5 776/4/5 775/4/5
f 784/8/5 775/8/5 783/8/5
f 785/6/5 777/6/5 776/6/5
f 785/4/5 776/4/5 784/4/5
f 786/4/5 778/4/5 777/4/5
f 786/6/5 777/6/5 785/6/5
f 787/8/5 779/8/5 778/8/5
f 787/4/5 778/4/5 786/4/5
f 788/4/5 780/4/5 779/4/5
f 788/8/5 779/8/5 787/8/5
f 789/4/5 780/4/5 788/4/5
f 792/3/5 791/3/5 790/3/5
f 793/3/5 791/3/5 792/3/5
f 794/3/5 792/3/5 790/3/5
f 795/3/5 791/3/5 793/3/5
f 796/3/5 794/3/5 790/3/5
f 796/3/5 795/3/5 794/3/5
f 797/3/5 791/3/5 795/3/5
f 797/3/5 795/3/5 796/3/5
f 802/4/5 799/4/5 798/4/5
f 803/4/5 801/4/5 800/4/5
f 806/4/5 802/4/5 798/4/5
f 807/4/5 802/4/5 806/4/5
f 808/4/5 801/4/5 803/4/5
f 809/4/5 801/4/5 808/4/5
f 810/3/5 805/3/5 804/3/5
f 811/3/5 805/3/5 810/3/5
f 814/1/5 813/1/5 812/1/5
f 815/1/5 813/1/5 814/1/5
f 818/1/5 817/1/5 816/1/5
f 819/1/5 817/1/5 818/1/5
f 820/2/6 821/2/6 822/2/6
f 822/2/6 821/2/6 823/2/6
f 824/2/6 825/2/6 828/2/6
f 828/2/6 825/2/6 829/2/6
f 826/2/6 827/2/6 830/2/6
f 830/2/6 827/2/6 831/2/6
f 832/2/6 833/2/6 834/2/6
f 834/2/6 833/2/6 835/2/6
f 836/1/6 837/1/6 840/1/6
f 840/1/6 837/1/6 841/1/6
f 838/1/6 839/1/6 842/1/6
f 842/1/6 839/1/6 843/1/6
f 841/1/6 842/1/6 844/1/6
f 841/1/6 844/1/6 846/1/6
f 844/1/6 845/1/6 846/1/6
f 846/1/6 845/1/6 847/1/6
f 841/1/6 846/1/6 848/1/6
f 846/9/6 847/9/6 849/9/6
f 848/1/6 846/1/6 849/1/6
f 847/1/6 845/1/6 850/1/6
f 849/9/6 847/9/6 850/9/6
f 850/1/6 845/1/6 851/1/6
f 848/9/6 849/9/6 852/9/6
f 841/1/6 848/1/6 852/1/6
f 850/9/6 851/9/6 852/9/6
f 849/9/6 850/9/6 852/9/6
f 852/9/6 851/9/6 853/9/6
f 853/9/6 851/9/6 854/9/6
f 851/1/6 845/1/6 855/1/6
f 854/9/6 851/9/6 855/9/6
f 853/9/6 854/9/6 856/9/6
f 852/1/6 853/1/6 856/1/6
f 854/1/6 855/1/6 857/1/6
f 856/9/6 854/9/6 857/9/6
f 855/1/6 845/1/6 858/1/6
f 857/1/6 855/1/6 858/1/6
f 856/1/6 857/1/6 858/1/6
f 858/1/6 845/1/6 859/1/6
f 852/1/6 856/1/6 861/1/6
f 841/1/6 852/1/6 861/1/6
f 856/1/6 858/1/6 861/1/6
f 861/1/6 858/1/6 862/1/6
f 860/1/6 861/1/6 864/1/6
f 864/1/6 861/1/6 865/1/6
f 862/1/6 863/1/6 866/1/6
f 866/1/6 863/1/6 867/1/6
f 868/5/6 869/5/6 872/5/6
f 872/5/6 869/5/6 873/5/6
f 870/7/6 871/7/6 874/7/6
f 874/7/6 871/7/6 875/7/6
f 876/5/6 877/5/6 879/5/6
f 877/7/6 878/7/6 880/7/6
f 879/5/6 877/5/6 880/5/6
f 880/7/6 878/7/6 881/7/6
f 882/2/6 883/2/6 885/2/6
f 885/2/6 883/2/6 886/2/6
f 886/2/6 883/2/6 887/2/6
f 887/2/6 883/2/6 888/2/6
f 884/2/6 885/2/6 890/2/6
f 888/2/6 889/2/6 891/2/6
f 884/2/6 890/2/6 892/2/6
f 891/2/6 889/2/6 893/2/6
f 884/2/6 892/2/6 894/2/6
f 894/2/6 892/2/6 895/2/6
f 893/2/6 889/2/6 898/2/6
f 898/2/6 889/2/6 899/2/6
f 896/2/6 897/2/6 900/2/6
f 897/2/6 898/2/6 900/2/6
f 895/2/6 896/2/6 900/2/6
f 900/2/6 898/2/6 901/2/6
f 902/6/6 903/6/6 904/6/6
f 904/6/6 903/6/6 905/6/6
f 906/3/6 907/3/6 911/3/6
f 911/3/6 907/3/6 912/3/6
f 908/3/6 909/3/6 913/3/6
f 913/3/6 909/3/6 914/3/6
f 910/3/6 911/3/6 916/3/6
f 916/3/6 911/3/6 917/3/6
f 914/3/6 915/3/6 918/3/6
f 918/3/6 915/3/6 919/3/6
f 920/3/6 921/3/6 924/3/6
f 924/3/6 921/3/6 925/3/6
f 922/3/6 923/3/6 926/3/6
f 926/3/6 923/3/6 927/3/6
f 925/3/6 926/3/6 928/3/6
f 928/3/6 926/3/6 929/3/6
f 930/4/6 931/4/6 934/4/6
f 934/4/6 931/4/6 935/4/6
f 932/3/6 933/3/6 939/3/6
f 939/3/6 933/3/6 940/3/6
f 936/3/6 937/3/6 941/3/6
f 941/3/6 937/3/6 942/3/6
f 938/3/6 939/3/6 945/3/6
f 942/3/6 943/3/6 946/3/6
f 944/4/6 945/4/6 948/4/6
f 945/3/6 939/3/6 949/3/6
f 948/4/6 945/4/6 949/4/6
f 946/4/6 947/4/6 950/4/6
f 942/3/6 946/3/6 950/3/6
f 950/4/6 947/4/6 951/4/6
f 949/3/6 939/3/6 952/3/6
f 942/3/6 950/3/6 955/3/6
f 952/3/6 953/3/6 956/3/6
f 949/3/6 952/3/6 956/3/6
f 956/3/6 953/3/6 957/3/6
f 954/3/6 955/3/6 958/3/6
f 955/3/6 950/3/6 959/3/6
f 958/3/6 955/3/6 959/3/6
f 960/4/6 961/4/6 964/4/6
f 964/4/6 961/4/6 965/4/6
f 965/4/6 961/4/6 966/4/6
f 962/4/6 963/4/6 969/4/6
f 969/4/6 963/4/6 970/4/6
f 970/4/6 963/4/6 971/4/6
f 966/3/6 967/3/6 973/3/6
f 965/3/6 966/3/6 973/3/6
f 973/3/6 967/3/6 974/3/6
f 974/3/6 967/3/6 975/3/6
f 969/3/6 970/3/6 976/3/6
f 968/3/6 969/3/6 976/3/6
f 976/3/6 970/3/6 977/3/6
f 977/3/6 970/3/6 978/3/6
f 960/4/6 964/4/6 980/4/6
f 980/4/6 964/4/6 981/4/6
f 971/4/6 963/4/6 982/4/6
f 982/4/6 963/4/6 983/4/6
f 973/3/6 974/3/6 984/3/6
f 972/3/6 973/3/6 984/3/6
f 984/3/6 974/3/6 985/3/6
f 978/3/6 979/3/6 986/3/6
f 977/3/6 978/3/6 986/3/6
f 986/3/6 979/3/6 987/3/6
f 985/1/6 986/1/6 988/1/6
f 988/1/6 986/1/6 989/1/6
f 990/1/6 991/1/6 994/1/6
f 992/1/6 993/1/6 995/1/6
f 990/1/6 994/1/6 996/1/6
f 994/1/6 995/1/6 996/1/6
f 995/1/6 993/1/6 997/1/6
f 996/1/6 995/1/6 997/1/6
f 998/1/6 999/1/6 1002/1/6
f 1002/1/6 999/1/6 1003/1/6
f 1000/1/6 1001/1/6 1004/1/6
f 1004/1/6 1001/1/6 1005/1/6
f 1006/1/6 1007/1/6 1010/1/6
f 1010/1/6 1007/1/6 1011/1/6
f 1008/1/6 1009/1/6 1012/1/6
f 1012/1/6 1009/1/6 1013/1/6
f 1011/1/6 1012/1/6 1014/1/6
f 1014/1/6 1012/1/6 1015/1/6
f 1016/1/6 1017/1/6 1020/1/6
f 1020/1/6 1017/1/6 1021/1/6
f 1018/1/6 1019/1/6 1022/1/6
f 1022/1/6 1019/1/6 1023/1/6
f 1024/1/6 1025/1/6 1026/1/6
f 1026/1/6 1025/1/6 1027/1/6
f 1028/1/6 1029/1/6 1030/1/6
f 1030/1/6 1029/1/6 1031/1/6
