# Blender 5.0.0
# www.blender.org
mtllib HiyokoGlassPropeller.mtl
o Untitled
v -0.768856 -0.526601 0.400487
v -0.768856 -0.526601 -0.699513
v -0.768856 0.173399 0.400487
v -0.768856 0.173399 -0.699513
v -0.768856 0.273399 0.400487
v -0.768856 0.273399 -0.699513
v -0.668856 -0.626601 0.400487
v -0.668856 -0.626601 -0.699513
v -0.668856 -0.526601 0.500487
v -0.668856 -0.526601 0.400487
v -0.668856 -0.526601 -0.699513
v -0.668856 -0.526601 -0.799513
v -0.668856 0.173399 0.500487
v -0.668856 0.173399 0.400487
v -0.668856 0.173399 -0.699513
v -0.668856 0.173399 -0.799513
v -0.668856 0.273399 0.500487
v -0.668856 0.273399 0.400487
v -0.668856 0.273399 0.300487
v -0.668856 0.273399 -0.599513
v -0.668856 0.273399 -0.699513
v -0.668856 0.273399 -0.799513
v -0.668856 0.373399 0.500487
v -0.668856 0.373399 0.400487
v -0.668856 0.473399 0.300487
v -0.668856 0.473399 -0.099513
v -0.668856 0.473399 -0.199513
v -0.668856 0.473399 -0.599514
v -0.668856 0.573399 0.400487
v -0.668856 0.573399 -0.099513
v -0.668856 0.573399 -0.199513
v -0.668856 0.673399 0.500486
v -0.668856 0.673399 -0.099513
v -0.568856 -0.526601 0.400487
v -0.568856 -0.526601 0.300487
v -0.568856 -0.526601 -0.599513
v -0.568856 -0.526601 -0.699513
v -0.568856 0.173399 0.400487
v -0.568856 0.173399 -0.699513
v -0.568856 0.273399 0.400487
v -0.568856 0.273399 -0.699513
v -0.568856 0.373399 0.400487
v -0.568856 0.373399 0.300487
v -0.568856 0.473399 0.400487
v -0.568856 0.473399 0.300487
v -0.568856 0.473399 -0.099513
v -0.568856 0.473399 -0.199513
v -0.568856 0.473399 -0.599514
v -0.568856 0.473399 -0.699513
v -0.568856 0.573399 0.300487
v -0.568856 0.573399 -0.099513
v -0.568856 0.573399 -0.199513
v -0.568856 0.573399 -0.599514
v -0.468856 0.473399 0.400487
v -0.468856 0.473399 0.300487
v -0.468856 0.573399 0.400487
v -0.468856 0.573399 0.300487
v -0.468856 0.573399 -0.499513
v -0.468856 0.673399 0.300487
v -0.468856 0.673399 -0.499513
v -0.368856 -0.826601 0.200487
v -0.368856 -0.826601 0.100487
v -0.368856 -0.826601 -0.399513
v -0.368856 -0.826601 -0.499513
v -0.368856 -0.726601 0.200487
v -0.368856 -0.726601 0.100487
v -0.368856 -0.726601 -0.399513
v -0.368856 -0.726601 -0.499513
v -0.368856 0.573399 0.400487
v -0.368856 0.573399 0.300487
v -0.368856 0.673399 0.400487
v -0.368856 0.673399 0.300487
v -0.268856 -0.826601 0.100487
v -0.268856 -0.826601 0.000487
v -0.268856 -0.826601 -0.299513
v -0.268856 -0.826601 -0.399513
v -0.268856 -0.726601 0.100487
v -0.268856 -0.726601 0.000487
v -0.268856 -0.726601 -0.299513
v -0.268856 -0.726601 -0.399513
v -0.268856 -0.326601 0.600487
v -0.268856 -0.326601 0.500487
v -0.268856 -0.026601 0.600487
v -0.268856 -0.026601 0.500487
v -0.268856 0.673399 0.100487
v -0.268856 0.673399 -0.199513
v -0.268856 0.773399 0.100487
v -0.268856 0.773399 0.000487
v -0.268856 0.773399 -0.099513
v -0.268856 0.773399 -0.199513
v -0.268856 0.873399 0.000487
v -0.268856 0.873399 -0.099513
v -0.168856 -0.826601 0.000487
v -0.168856 -0.826601 -0.099513
v -0.168856 -0.826601 -0.199513
v -0.168856 -0.826601 -0.299513
v -0.168856 -0.726601 0.000487
v -0.168856 -0.726601 -0.099513
v -0.168856 -0.726601 -0.199513
v -0.168856 -0.726601 -0.299513
v -0.168856 -0.626601 -0.099513
v -0.168856 -0.626601 -0.199513
v -0.168856 -0.426601 0.600487
v -0.168856 -0.426601 0.500487
v -0.168856 -0.326601 0.600487
v -0.168856 -0.326601 0.500487
v -0.168856 -0.026601 0.600487
v -0.168856 -0.026601 0.500487
v -0.168856 0.073399 0.600487
v -0.168856 0.073399 0.500487
v -0.168856 0.373399 0.700487
v -0.168856 0.373399 0.500487
v -0.168856 0.473399 0.700486
v -0.168856 0.473399 0.500486
v -0.168856 0.673399 0.200487
v -0.168856 0.673399 0.100487
v -0.168856 0.673399 -0.199513
v -0.168856 0.673399 -0.299513
v -0.168856 0.773399 0.200487
v -0.168856 0.773399 0.100487
v -0.168856 0.773399 -0.199513
v -0.168856 0.773399 -0.299513
v -0.068856 -0.926601 -0.099513
v -0.068856 -0.926601 -0.199513
v -0.068856 -0.826601 -0.099513
v -0.068856 -0.826601 -0.199513
v -0.068856 -0.726601 0.000487
v -0.068856 -0.726601 -0.099513
v -0.068856 -0.726601 -0.199513
v -0.068856 -0.726601 -0.299513
v -0.068856 -0.626601 0.000487
v -0.068856 -0.626601 -0.099513
v -0.068856 -0.626601 -0.199513
v -0.068856 -0.626601 -0.299513
v -0.068856 0.773399 0.200487
v -0.068856 0.773399 0.100487
v -0.068856 0.773399 -0.199513
v -0.068856 0.773399 -0.299513
v -0.068856 0.873399 0.200487
v -0.068856 0.873399 0.100487
v -0.068856 0.873399 -0.199513
v -0.068856 0.873399 -0.299513
v 0.031144 -0.826601 0.000487
v 0.031144 -0.826601 -0.099513
v 0.031144 -0.826601 -0.199513
v 0.031144 -0.826601 -0.299513
v 0.031144 -0.726601 0.000487
v 0.031144 -0.726601 -0.099513
v 0.031144 -0.726601 -0.199513
v 0.031144 -0.726601 -0.299513
v 0.131144 -0.826601 0.100487
v 0.131144 -0.826601 0.000487
v 0.131144 -0.826601 -0.299513
v 0.131144 -0.826601 -0.399513
v 0.131144 -0.726601 0.100487
v 0.131144 -0.726601 0.000487
v 0.131144 -0.726601 -0.299513
v 0.131144 -0.726601 -0.399513
v 0.131144 0.573399 0.500486
v 0.131144 0.573399 0.400487
v 0.131144 0.673399 0.500486
v 0.131144 0.673399 0.400487
v 0.131144 0.773399 0.000487
v 0.131144 0.773399 -0.099513
v 0.131144 0.873399 0.000487
v 0.131144 0.873399 -0.099513
v 0.231144 -0.826601 0.200487
v 0.231144 -0.826601 0.100487
v 0.231144 -0.826601 -0.399513
v 0.231144 -0.826601 -0.499513
v 0.231144 -0.726601 0.200487
v 0.231144 -0.726601 0.100487
v 0.231144 -0.726601 -0.399513
v 0.231144 -0.726601 -0.499513
v 0.431144 0.473399 0.200487
v 0.431144 0.473399 -0.499513
v 0.431144 0.573399 0.200487
v 0.431144 0.573399 -0.499513
v 0.531144 -0.526601 0.300487
v 0.531144 -0.526601 0.200487
v 0.531144 -0.526601 -0.499513
v 0.531144 -0.526601 -0.599513
v 0.531144 0.273399 0.200487
v 0.531144 0.273399 -0.499513
v 0.531144 0.373399 0.300487
v 0.531144 0.473399 0.300487
v 0.531144 0.473399 -0.599514
v 0.531144 0.573399 0.400487
v 0.531144 0.573399 0.300487
v 0.531144 0.573399 -0.099513
v 0.531144 0.673399 0.400487
v 0.531144 0.673399 -0.099513
v 0.631144 -0.526601 0.400487
v 0.631144 -0.526601 0.300487
v 0.631144 -0.526601 0.200487
v 0.631144 -0.526601 -0.499513
v 0.631144 -0.526601 -0.599513
v 0.631144 -0.526601 -0.699513
v 0.631144 0.173399 0.400487
v 0.631144 0.173399 0.300487
v 0.631144 0.173399 0.200487
v 0.631144 0.173399 -0.499513
v 0.631144 0.173399 -0.599513
v 0.631144 0.173399 -0.699513
v 0.631144 0.273399 0.400487
v 0.631144 0.273399 0.300487
v 0.631144 0.273399 0.200487
v 0.631144 0.273399 -0.499513
v 0.631144 0.273399 -0.599513
v 0.631144 0.273399 -0.699513
v -0.668856 -0.526601 0.400487
v -0.668856 -0.526601 0.300487
v -0.668856 -0.526601 -0.599513
v -0.668856 -0.526601 -0.699513
v -0.668856 0.173399 0.400487
v -0.668856 0.173399 0.300487
v -0.668856 0.173399 -0.599513
v -0.668856 0.173399 -0.699513
v -0.668856 0.273399 0.400487
v -0.668856 0.273399 0.300487
v -0.668856 0.273399 -0.599513
v -0.668856 0.273399 -0.699513
v -0.568856 -0.526601 0.300487
v -0.568856 -0.526601 -0.599513
v -0.568856 0.373399 0.300487
v -0.568856 0.473399 0.300487
v -0.568856 0.473399 -0.599514
v -0.568856 0.573399 0.400487
v -0.568856 0.573399 0.300487
v -0.568856 0.573399 -0.099513
v -0.568856 0.673399 0.400487
v -0.568856 0.673399 -0.099513
v -0.468856 0.473399 0.200487
v -0.468856 0.473399 -0.499513
v -0.468856 0.573399 0.200487
v -0.468856 0.573399 -0.499513
v -0.268856 -0.826601 0.200487
v -0.268856 -0.826601 0.100487
v -0.268856 -0.826601 -0.399513
v -0.268856 -0.826601 -0.499513
v -0.268856 -0.726601 0.200487
v -0.268856 -0.726601 0.100487
v -0.268856 -0.726601 -0.399513
v -0.268856 -0.726601 -0.499513
v -0.168856 -0.826601 0.100487
v -0.168856 -0.826601 0.000487
v -0.168856 -0.826601 -0.299513
v -0.168856 -0.826601 -0.399513
v -0.168856 -0.726601 0.100487
v -0.168856 -0.726601 0.000487
v -0.168856 -0.726601 -0.299513
v -0.168856 -0.726601 -0.399513
v -0.168856 0.573399 0.500486
v -0.168856 0.573399 0.400487
v -0.168856 0.673399 0.500486
v -0.168856 0.673399 0.400487
v -0.168856 0.773399 0.000487
v -0.168856 0.773399 -0.099513
v -0.168856 0.873399 0.000487
v -0.168856 0.873399 -0.099513
v -0.068856 -0.826601 0.000487
v -0.068856 -0.826601 -0.099513
v -0.068856 -0.826601 -0.199513
v -0.068856 -0.826601 -0.299513
v -0.068856 -0.726601 0.000487
v -0.068856 -0.726601 -0.099513
v -0.068856 -0.726601 -0.199513
v -0.068856 -0.726601 -0.299513
v 0.031144 -0.926601 -0.099513
v 0.031144 -0.926601 -0.199513
v 0.031144 -0.826601 -0.099513
v 0.031144 -0.826601 -0.199513
v 0.031144 -0.726601 0.000487
v 0.031144 -0.726601 -0.099513
v 0.031144 -0.726601 -0.199513
v 0.031144 -0.726601 -0.299513
v 0.031144 -0.626601 0.000487
v 0.031144 -0.626601 -0.099513
v 0.031144 -0.626601 -0.199513
v 0.031144 -0.626601 -0.299513
v 0.031144 0.773399 0.200487
v 0.031144 0.773399 0.100487
v 0.031144 0.773399 -0.199513
v 0.031144 0.773399 -0.299513
v 0.031144 0.873399 0.200487
v 0.031144 0.873399 0.100487
v 0.031144 0.873399 -0.199513
v 0.031144 0.873399 -0.299513
v 0.131144 -0.826601 0.000487
v 0.131144 -0.826601 -0.099513
v 0.131144 -0.826601 -0.199513
v 0.131144 -0.826601 -0.299513
v 0.131144 -0.726601 0.000487
v 0.131144 -0.726601 -0.099513
v 0.131144 -0.726601 -0.199513
v 0.131144 -0.726601 -0.299513
v 0.131144 -0.626601 -0.099513
v 0.131144 -0.626601 -0.199513
v 0.131144 -0.426601 0.600487
v 0.131144 -0.426601 0.500487
v 0.131144 -0.326601 0.600487
v 0.131144 -0.326601 0.500487
v 0.131144 -0.026601 0.600487
v 0.131144 -0.026601 0.500487
v 0.131144 0.073399 0.600487
v 0.131144 0.073399 0.500487
v 0.131144 0.373399 0.700487
v 0.131144 0.373399 0.500487
v 0.131144 0.473399 0.700486
v 0.131144 0.473399 0.500486
v 0.131144 0.673399 0.200487
v 0.131144 0.673399 0.100487
v 0.131144 0.673399 -0.199513
v 0.131144 0.673399 -0.299513
v 0.131144 0.773399 0.200487
v 0.131144 0.773399 0.100487
v 0.131144 0.773399 -0.199513
v 0.131144 0.773399 -0.299513
v 0.231144 -0.826601 0.100487
v 0.231144 -0.826601 0.000487
v 0.231144 -0.826601 -0.299513
v 0.231144 -0.826601 -0.399513
v 0.231144 -0.726601 0.100487
v 0.231144 -0.726601 0.000487
v 0.231144 -0.726601 -0.299513
v 0.231144 -0.726601 -0.399513
v 0.231144 -0.326601 0.600487
v 0.231144 -0.326601 0.500487
v 0.231144 -0.226601 0.600487
v 0.231144 -0.226601 0.500487
v 0.231144 -0.026601 0.600487
v 0.231144 -0.026601 0.500487
v 0.231144 0.673399 0.100487
v 0.231144 0.673399 -0.199513
v 0.231144 0.773399 0.100487
v 0.231144 0.773399 0.000487
v 0.231144 0.773399 -0.099513
v 0.231144 0.773399 -0.199513
v 0.231144 0.873399 0.000487
v 0.231144 0.873399 -0.099513
v 0.331144 -0.826601 0.200487
v 0.331144 -0.826601 0.100487
v 0.331144 -0.826601 -0.399513
v 0.331144 -0.826601 -0.499513
v 0.331144 -0.726601 0.200487
v 0.331144 -0.726601 0.100487
v 0.331144 -0.726601 -0.399513
v 0.331144 -0.726601 -0.499513
v 0.331144 0.573399 0.400487
v 0.331144 0.573399 0.300487
v 0.331144 0.673399 0.400487
v 0.331144 0.673399 0.300487
v 0.431144 0.473399 0.400487
v 0.431144 0.473399 0.300487
v 0.431144 0.573399 0.400487
v 0.431144 0.573399 0.300487
v 0.431144 0.573399 -0.499513
v 0.431144 0.673399 0.300487
v 0.431144 0.673399 -0.499513
v 0.531144 -0.526601 0.400487
v 0.531144 -0.526601 0.300487
v 0.531144 -0.526601 -0.599513
v 0.531144 -0.526601 -0.699513
v 0.531144 0.173399 0.400487
v 0.531144 0.173399 -0.699513
v 0.531144 0.273399 0.400487
v 0.531144 0.273399 -0.699513
v 0.531144 0.373399 0.400487
v 0.531144 0.373399 0.300487
v 0.531144 0.473399 0.400487
v 0.531144 0.473399 0.300487
v 0.531144 0.473399 -0.099513
v 0.531144 0.473399 -0.199513
v 0.531144 0.473399 -0.599514
v 0.531144 0.473399 -0.699513
v 0.531144 0.573399 0.300487
v 0.531144 0.573399 -0.099513
v 0.531144 0.573399 -0.199513
v 0.531144 0.573399 -0.599514
v 0.631144 -0.626601 0.400487
v 0.631144 -0.626601 -0.699513
v 0.631144 -0.526601 0.500487
v 0.631144 -0.526601 0.400487
v 0.631144 -0.526601 -0.699513
v 0.631144 -0.526601 -0.799513
v 0.631144 0.173399 0.500487
v 0.631144 0.173399 0.400487
v 0.631144 0.173399 -0.699513
v 0.631144 0.173399 -0.799513
v 0.631144 0.273399 0.500487
v 0.631144 0.273399 0.400487
v 0.631144 0.273399 0.300487
v 0.631144 0.273399 -0.599513
v 0.631144 0.273399 -0.699513
v 0.631144 0.273399 -0.799513
v 0.631144 0.373399 0.500487
v 0.631144 0.373399 0.400487
v 0.631144 0.473399 0.500486
v 0.631144 0.473399 0.400487
v 0.631144 0.473399 0.300487
v 0.631144 0.473399 -0.099513
v 0.631144 0.473399 -0.199513
v 0.631144 0.473399 -0.599514
v 0.631144 0.573399 0.500486
v 0.631144 0.573399 0.400487
v 0.631144 0.573399 -0.099513
v 0.631144 0.573399 -0.199513
v 0.631144 0.673399 0.500486
v 0.631144 0.673399 -0.099513
v 0.731144 -0.526601 0.400487
v 0.731144 -0.526601 -0.699513
v 0.731144 0.173399 0.400487
v 0.731144 0.173399 -0.699513
v 0.731144 0.273399 0.400487
v 0.731144 0.273399 -0.699513
v -0.168856 0.373399 0.700487
v -0.168856 0.473399 0.700486
v 0.131144 0.373399 0.700487
v 0.131144 0.473399 0.700486
v -0.268856 -0.326601 0.600487
v -0.268856 -0.026601 0.600487
v -0.168856 -0.426601 0.600487
v -0.168856 -0.326601 0.600487
v -0.168856 -0.026601 0.600487
v -0.168856 0.073399 0.600487
v -0.068856 -0.026601 0.600487
v -0.068856 0.073399 0.600487
v 0.031144 -0.126601 0.600487
v 0.031144 -0.026601 0.600487
v 0.131144 -0.426601 0.600487
v 0.131144 -0.326601 0.600487
v 0.131144 -0.226601 0.600487
v 0.131144 -0.126601 0.600487
v 0.131144 -0.026601 0.600487
v 0.131144 0.073399 0.600487
v 0.231144 -0.326601 0.600487
v 0.231144 -0.226601 0.600487
v 0.231144 -0.026601 0.600487
v -0.668856 -0.526601 0.500487
v -0.668856 0.173399 0.500487
v -0.668856 0.273399 0.500487
v -0.668856 0.373399 0.500487
v -0.668856 0.673399 0.500486
v -0.368856 0.373399 0.500487
v -0.368856 0.473399 0.500486
v -0.268856 -0.326601 0.500487
v -0.268856 -0.026601 0.500487
v -0.268856 0.373399 0.500487
v -0.268856 0.473399 0.500486
v -0.268856 0.573399 0.500486
v -0.168856 -0.426601 0.500487
v -0.168856 -0.326601 0.500487
v -0.168856 -0.026601 0.500487
v -0.168856 0.073399 0.500487
v -0.168856 0.373399 0.500487
v -0.168856 0.473399 0.500486
v -0.168856 0.573399 0.500486
v -0.168856 0.673399 0.500486
v -0.068856 0.073399 0.500487
v 0.131144 -0.426601 0.500487
v 0.131144 -0.326601 0.500487
v 0.131144 -0.026601 0.500487
v 0.131144 0.073399 0.500487
v 0.131144 0.373399 0.500487
v 0.131144 0.473399 0.500486
v 0.131144 0.573399 0.500486
v 0.131144 0.673399 0.500486
v 0.231144 -0.326601 0.500487
v 0.231144 -0.226601 0.500487
v 0.231144 -0.026601 0.500487
v 0.431144 0.373399 0.500487
v 0.431144 0.473399 0.500486
v 0.531144 0.373399 0.500487
v 0.531144 0.473399 0.500486
v 0.531144 0.573399 0.500486
v 0.631144 -0.526601 0.500487
v 0.631144 0.173399 0.500487
v 0.631144 0.273399 0.500487
v 0.631144 0.373399 0.500487
v 0.631144 0.473399 0.500486
v 0.631144 0.573399 0.500486
v 0.631144 0.673399 0.500486
v -0.768856 -0.526601 0.400487
v -0.768856 0.173399 0.400487
v -0.768856 0.273399 0.400487
v -0.668856 -0.626601 0.400487
v -0.668856 -0.526601 0.400487
v -0.668856 0.173399 0.400487
v -0.668856 0.273399 0.400487
v -0.568856 0.273399 0.400487
v -0.568856 0.373399 0.400487
v -0.368856 0.373399 0.400487
v -0.268856 0.373399 0.400487
v -0.168856 0.373399 0.400487
v -0.168856 0.573399 0.400487
v -0.168856 0.673399 0.400487
v 0.131144 0.373399 0.400487
v 0.131144 0.573399 0.400487
v 0.131144 0.673399 0.400487
v 0.431144 0.373399 0.400487
v 0.531144 0.273399 0.400487
v 0.531144 0.373399 0.400487
v 0.631144 -0.626601 0.400487
v 0.631144 -0.526601 0.400487
v 0.631144 0.173399 0.400487
v 0.631144 0.273399 0.400487
v 0.731144 -0.526601 0.400487
v 0.731144 0.173399 0.400487
v 0.731144 0.273399 0.400487
v -0.668856 -0.526601 0.300487
v -0.668856 0.173399 0.300487
v -0.668856 0.273399 0.300487
v -0.668856 0.473399 0.300487
v -0.568856 -0.526601 0.300487
v -0.568856 0.373399 0.300487
v -0.568856 0.473399 0.300487
v -0.568856 0.573399 0.300487
v -0.468856 0.473399 0.300487
v -0.468856 0.573399 0.300487
v -0.468856 0.673399 0.300487
v -0.368856 0.573399 0.300487
v -0.368856 0.673399 0.300487
v 0.331144 0.573399 0.300487
v 0.331144 0.673399 0.300487
v 0.431144 0.473399 0.300487
v 0.431144 0.573399 0.300487
v 0.431144 0.673399 0.300487
v 0.531144 -0.526601 0.300487
v 0.531144 0.373399 0.300487
v 0.531144 0.473399 0.300487
v 0.531144 0.573399 0.300487
v 0.631144 -0.526601 0.300487
v 0.631144 0.173399 0.300487
v 0.631144 0.273399 0.300487
v 0.631144 0.473399 0.300487
v -0.368856 -0.826601 0.200487
v -0.368856 -0.726601 0.200487
v -0.268856 -0.826601 0.200487
v -0.268856 -0.726601 0.200487
v -0.168856 0.673399 0.200487
v -0.168856 0.773399 0.200487
v -0.068856 0.773399 0.200487
v -0.068856 0.873399 0.200487
v 0.031144 0.773399 0.200487
v 0.031144 0.873399 0.200487
v 0.131144 0.673399 0.200487
v 0.131144 0.773399 0.200487
v 0.231144 -0.826601 0.200487
v 0.231144 -0.726601 0.200487
v 0.331144 -0.826601 0.200487
v 0.331144 -0.726601 0.200487
v -0.268856 -0.826601 0.100487
v -0.268856 -0.726601 0.100487
v -0.268856 0.673399 0.100487
v -0.268856 0.773399 0.100487
v -0.168856 -0.826601 0.100487
v -0.168856 -0.726601 0.100487
v -0.168856 0.673399 0.100487
v -0.168856 0.773399 0.100487
v 0.131144 -0.826601 0.100487
v 0.131144 -0.726601 0.100487
v 0.131144 0.673399 0.100487
v 0.131144 0.773399 0.100487
v 0.231144 -0.826601 0.100487
v 0.231144 -0.726601 0.100487
v 0.231144 0.673399 0.100487
v 0.231144 0.773399 0.100487
v -0.268856 0.773399 0.000487
v -0.268856 0.873399 0.000487
v -0.168856 -0.826601 0.000487
v -0.168856 -0.726601 0.000487
v -0.168856 0.773399 0.000487
v -0.168856 0.873399 0.000487
v -0.068856 -0.826601 0.000487
v -0.068856 -0.726601 0.000487
v -0.068856 -0.626601 0.000487
v 0.031144 -0.826601 0.000487
v 0.031144 -0.726601 0.000487
v 0.031144 -0.626601 0.000487
v 0.131144 -0.826601 0.000487
v 0.131144 -0.726601 0.000487
v 0.131144 0.773399 0.000487
v 0.131144 0.873399 0.000487
v 0.231144 0.773399 0.000487
v 0.231144 0.873399 0.000487
v -0.668856 0.473399 -0.099513
v -0.668856 0.573399 -0.099513
v -0.568856 0.473399 -0.099513
v -0.568856 0.573399 -0.099513
v -0.168856 -0.726601 -0.099513
v -0.168856 -0.626601 -0.099513
v -0.068856 -0.926601 -0.099513
v -0.068856 -0.826601 -0.099513
v -0.068856 -0.726601 -0.099513
v -0.068856 -0.626601 -0.099513
v 0.031144 -0.926601 -0.099513
v 0.031144 -0.826601 -0.099513
v 0.031144 -0.726601 -0.099513
v 0.031144 -0.626601 -0.099513
v 0.131144 -0.726601 -0.099513
v 0.131144 -0.626601 -0.099513
v 0.531144 0.473399 -0.099513
v 0.531144 0.573399 -0.099513
v 0.631144 0.473399 -0.099513
v 0.631144 0.573399 -0.099513
v -0.168856 -0.826601 -0.199513
v -0.168856 -0.726601 -0.199513
v -0.068856 -0.826601 -0.199513
v -0.068856 -0.726601 -0.199513
v -0.068856 0.773399 -0.199513
v -0.068856 0.873399 -0.199513
v 0.031144 -0.826601 -0.199513
v 0.031144 -0.726601 -0.199513
v 0.031144 0.773399 -0.199513
v 0.031144 0.873399 -0.199513
v 0.131144 -0.826601 -0.199513
v 0.131144 -0.726601 -0.199513
v -0.268856 -0.826601 -0.299513
v -0.268856 -0.726601 -0.299513
v -0.168856 -0.826601 -0.299513
v -0.168856 -0.726601 -0.299513
v 0.131144 -0.826601 -0.299513
v 0.131144 -0.726601 -0.299513
v 0.231144 -0.826601 -0.299513
v 0.231144 -0.726601 -0.299513
v -0.368856 -0.826601 -0.399513
v -0.368856 -0.726601 -0.399513
v -0.268856 -0.826601 -0.399513
v -0.268856 -0.726601 -0.399513
v 0.231144 -0.826601 -0.399513
v 0.231144 -0.726601 -0.399513
v 0.331144 -0.826601 -0.399513
v 0.331144 -0.726601 -0.399513
v -0.468856 0.473399 -0.499513
v -0.468856 0.573399 -0.499513
v 0.431144 0.473399 -0.499513
v 0.431144 0.573399 -0.499513
v 0.531144 -0.526601 -0.499513
v 0.531144 0.273399 -0.499513
v 0.631144 -0.526601 -0.499513
v 0.631144 0.173399 -0.499513
v 0.631144 0.273399 -0.499513
v -0.568856 -0.526601 -0.599513
v -0.568856 0.473399 -0.599514
v 0.531144 -0.526601 -0.599513
v 0.531144 0.473399 -0.599514
v -0.668856 -0.526601 -0.699513
v -0.668856 0.173399 -0.699513
v -0.668856 0.273399 -0.699513
v -0.568856 -0.526601 -0.699513
v -0.568856 0.173399 -0.699513
v -0.568856 0.273399 -0.699513
v 0.531144 -0.526601 -0.699513
v 0.531144 0.173399 -0.699513
v 0.531144 0.273399 -0.699513
v 0.631144 -0.526601 -0.699513
v 0.631144 0.173399 -0.699513
v 0.631144 0.273399 -0.699513
v -0.668856 -0.526601 0.400487
v -0.668856 0.173399 0.400487
v -0.668856 0.273399 0.400487
v -0.668856 0.373399 0.400487
v -0.668856 0.573399 0.400487
v -0.568856 -0.526601 0.400487
v -0.568856 0.173399 0.400487
v -0.568856 0.273399 0.400487
v -0.568856 0.373399 0.400487
v -0.568856 0.473399 0.400487
v -0.568856 0.573399 0.400487
v -0.568856 0.673399 0.400487
v -0.468856 0.473399 0.400487
v -0.468856 0.573399 0.400487
v -0.368856 0.573399 0.400487
v -0.368856 0.673399 0.400487
v 0.331144 0.573399 0.400487
v 0.331144 0.673399 0.400487
v 0.431144 0.473399 0.400487
v 0.431144 0.573399 0.400487
v 0.531144 -0.526601 0.400487
v 0.531144 0.173399 0.400487
v 0.531144 0.273399 0.400487
v 0.531144 0.373399 0.400487
v 0.531144 0.473399 0.400487
v 0.531144 0.573399 0.400487
v 0.531144 0.673399 0.400487
v 0.631144 -0.526601 0.400487
v 0.631144 0.173399 0.400487
v 0.631144 0.273399 0.400487
v 0.631144 0.373399 0.400487
v 0.631144 0.473399 0.400487
v 0.631144 0.573399 0.400487
v -0.568856 -0.526601 0.300487
v -0.568856 0.373399 0.300487
v -0.568856 0.473399 0.300487
v -0.368856 0.373399 0.300487
v -0.368856 0.473399 0.300487
v 0.331144 0.373399 0.300487
v 0.331144 0.473399 0.300487
v 0.531144 -0.526601 0.300487
v 0.531144 0.373399 0.300487
v 0.531144 0.473399 0.300487
v -0.468856 0.473399 0.200487
v -0.468856 0.573399 0.200487
v 0.431144 0.473399 0.200487
v 0.431144 0.573399 0.200487
v 0.531144 -0.526601 0.200487
v 0.531144 0.273399 0.200487
v 0.631144 -0.526601 0.200487
v 0.631144 0.173399 0.200487
v 0.631144 0.273399 0.200487
v -0.368856 -0.826601 0.100487
v -0.368856 -0.726601 0.100487
v -0.268856 -0.826601 0.100487
v -0.268856 -0.726601 0.100487
v -0.068856 0.773399 0.100487
v -0.068856 0.873399 0.100487
v 0.031144 0.773399 0.100487
v 0.031144 0.873399 0.100487
v 0.231144 -0.826601 0.100487
v 0.231144 -0.726601 0.100487
v 0.331144 -0.826601 0.100487
v 0.331144 -0.726601 0.100487
v -0.268856 -0.826601 0.000487
v -0.268856 -0.726601 0.000487
v -0.168856 -0.826601 0.000487
v -0.168856 -0.726601 0.000487
v 0.131144 -0.826601 0.000487
v 0.131144 -0.726601 0.000487
v 0.231144 -0.826601 0.000487
v 0.231144 -0.726601 0.000487
v -0.668856 0.573399 -0.099513
v -0.668856 0.673399 -0.099513
v -0.568856 0.573399 -0.099513
v -0.568856 0.673399 -0.099513
v -0.268856 0.773399 -0.099513
v -0.268856 0.873399 -0.099513
v -0.168856 -0.826601 -0.099513
v -0.168856 -0.726601 -0.099513
v -0.168856 0.773399 -0.099513
v -0.168856 0.873399 -0.099513
v -0.068856 -0.826601 -0.099513
v -0.068856 -0.726601 -0.099513
v 0.031144 -0.826601 -0.099513
v 0.031144 -0.726601 -0.099513
v 0.131144 -0.826601 -0.099513
v 0.131144 -0.726601 -0.099513
v 0.131144 0.773399 -0.099513
v 0.131144 0.873399 -0.099513
v 0.231144 0.773399 -0.099513
v 0.231144 0.873399 -0.099513
v 0.531144 0.573399 -0.099513
v 0.531144 0.673399 -0.099513
v 0.631144 0.573399 -0.099513
v 0.631144 0.673399 -0.099513
v -0.668856 0.473399 -0.199513
v -0.668856 0.573399 -0.199513
v -0.568856 0.473399 -0.199513
v -0.568856 0.573399 -0.199513
v -0.268856 0.673399 -0.199513
v -0.268856 0.773399 -0.199513
v -0.168856 -0.726601 -0.199513
v -0.168856 -0.626601 -0.199513
v -0.168856 0.673399 -0.199513
v -0.168856 0.773399 -0.199513
v -0.068856 -0.926601 -0.199513
v -0.068856 -0.826601 -0.199513
v -0.068856 -0.726601 -0.199513
v -0.068856 -0.626601 -0.199513
v 0.031144 -0.926601 -0.199513
v 0.031144 -0.826601 -0.199513
v 0.031144 -0.726601 -0.199513
v 0.031144 -0.626601 -0.199513
v 0.131144 -0.726601 -0.199513
v 0.131144 -0.626601 -0.199513
v 0.131144 0.673399 -0.199513
v 0.131144 0.773399 -0.199513
v 0.231144 0.673399 -0.199513
v 0.231144 0.773399 -0.199513
v 0.531144 0.473399 -0.199513
v 0.531144 0.573399 -0.199513
v 0.631144 0.473399 -0.199513
v 0.631144 0.573399 -0.199513
v -0.168856 -0.826601 -0.299513
v -0.168856 -0.726601 -0.299513
v -0.168856 0.673399 -0.299513
v -0.168856 0.773399 -0.299513
v -0.068856 -0.826601 -0.299513
v -0.068856 -0.726601 -0.299513
v -0.068856 -0.626601 -0.299513
v -0.068856 0.773399 -0.299513
v -0.068856 0.873399 -0.299513
v 0.031144 -0.826601 -0.299513
v 0.031144 -0.726601 -0.299513
v 0.031144 -0.626601 -0.299513
v 0.031144 0.773399 -0.299513
v 0.031144 0.873399 -0.299513
v 0.131144 -0.826601 -0.299513
v 0.131144 -0.726601 -0.299513
v 0.131144 0.673399 -0.299513
v 0.131144 0.773399 -0.299513
v -0.268856 -0.826601 -0.399513
v -0.268856 -0.726601 -0.399513
v -0.168856 -0.826601 -0.399513
v -0.168856 -0.726601 -0.399513
v 0.131144 -0.826601 -0.399513
v 0.131144 -0.726601 -0.399513
v 0.231144 -0.826601 -0.399513
v 0.231144 -0.726601 -0.399513
v -0.468856 0.573399 -0.499513
v -0.468856 0.673399 -0.499513
v -0.368856 -0.826601 -0.499513
v -0.368856 -0.726601 -0.499513
v -0.268856 -0.826601 -0.499513
v -0.268856 -0.726601 -0.499513
v 0.231144 -0.826601 -0.499513
v 0.231144 -0.726601 -0.499513
v 0.331144 -0.826601 -0.499513
v 0.331144 -0.726601 -0.499513
v 0.431144 0.573399 -0.499513
v 0.431144 0.673399 -0.499513
v -0.668856 -0.526601 -0.599513
v -0.668856 0.173399 -0.599513
v -0.668856 0.273399 -0.599513
v -0.668856 0.473399 -0.599514
v -0.568856 -0.526601 -0.599513
v -0.568856 0.473399 -0.599514
v -0.568856 0.573399 -0.599514
v 0.531144 -0.526601 -0.599513
v 0.531144 0.473399 -0.599514
v 0.531144 0.573399 -0.599514
v 0.631144 -0.526601 -0.599513
v 0.631144 0.173399 -0.599513
v 0.631144 0.273399 -0.599513
v 0.631144 0.473399 -0.599514
v -0.768856 -0.526601 -0.699513
v -0.768856 0.173399 -0.699513
v -0.768856 0.273399 -0.699513
v -0.668856 -0.626601 -0.699513
v -0.668856 -0.526601 -0.699513
v -0.668856 0.173399 -0.699513
v -0.668856 0.273399 -0.699513
v -0.568856 0.273399 -0.699513
v -0.568856 0.473399 -0.699513
v 0.531144 0.273399 -0.699513
v 0.531144 0.473399 -0.699513
v 0.631144 -0.626601 -0.699513
v 0.631144 -0.526601 -0.699513
v 0.631144 0.173399 -0.699513
v 0.631144 0.273399 -0.699513
v 0.731144 -0.526601 -0.699513
v 0.731144 0.173399 -0.699513
v 0.731144 0.273399 -0.699513
v -0.668856 -0.526601 -0.799513
v -0.668856 0.173399 -0.799513
v -0.668856 0.273399 -0.799513
v 0.631144 -0.526601 -0.799513
v 0.631144 0.173399 -0.799513
v 0.631144 0.273399 -0.799513
v -0.068856 -0.926601 -0.099513
v 0.031144 -0.926601 -0.099513
v -0.068856 -0.926601 -0.199513
v 0.031144 -0.926601 -0.199513
v -0.368856 -0.826601 0.200487
v -0.268856 -0.826601 0.200487
v 0.231144 -0.826601 0.200487
v 0.331144 -0.826601 0.200487
v -0.368856 -0.826601 0.100487
v -0.268856 -0.826601 0.100487
v -0.168856 -0.826601 0.100487
v 0.131144 -0.826601 0.100487
v 0.231144 -0.826601 0.100487
v 0.331144 -0.826601 0.100487
v -0.268856 -0.826601 0.000487
v -0.168856 -0.826601 0.000487
v -0.068856 -0.826601 0.000487
v 0.031144 -0.826601 0.000487
v 0.131144 -0.826601 0.000487
v 0.231144 -0.826601 0.000487
v -0.168856 -0.826601 -0.099513
v -0.068856 -0.826601 -0.099513
v 0.031144 -0.826601 -0.099513
v 0.131144 -0.826601 -0.099513
v -0.168856 -0.826601 -0.199513
v -0.068856 -0.826601 -0.199513
v 0.031144 -0.826601 -0.199513
v 0.131144 -0.826601 -0.199513
v -0.268856 -0.826601 -0.299513
v -0.168856 -0.826601 -0.299513
v -0.068856 -0.826601 -0.299513
v 0.031144 -0.826601 -0.299513
v 0.131144 -0.826601 -0.299513
v 0.231144 -0.826601 -0.299513
v -0.368856 -0.826601 -0.399513
v -0.268856 -0.826601 -0.399513
v -0.168856 -0.826601 -0.399513
v 0.131144 -0.826601 -0.399513
v 0.231144 -0.826601 -0.399513
v 0.331144 -0.826601 -0.399513
v -0.368856 -0.826601 -0.499513
v -0.268856 -0.826601 -0.499513
v 0.231144 -0.826601 -0.499513
v 0.331144 -0.826601 -0.499513
v -0.068856 -0.726601 0.000487
v 0.031144 -0.726601 0.000487
v -0.168856 -0.726601 -0.099513
v -0.068856 -0.726601 -0.099513
v 0.031144 -0.726601 -0.099513
v 0.131144 -0.726601 -0.099513
v -0.168856 -0.726601 -0.199513
v -0.068856 -0.726601 -0.199513
v 0.031144 -0.726601 -0.199513
v 0.131144 -0.726601 -0.199513
v -0.068856 -0.726601 -0.299513
v 0.031144 -0.726601 -0.299513
v -0.668856 -0.626601 0.400487
v 0.631144 -0.626601 0.400487
v -0.168856 -0.626601 0.000487
v -0.068856 -0.626601 0.000487
v 0.031144 -0.626601 0.000487
v 0.131144 -0.626601 0.000487
v -0.168856 -0.626601 -0.099513
v -0.068856 -0.626601 -0.099513
v 0.031144 -0.626601 -0.099513
v 0.131144 -0.626601 -0.099513
v -0.168856 -0.626601 -0.199513
v -0.068856 -0.626601 -0.199513
v 0.031144 -0.626601 -0.199513
v 0.131144 -0.626601 -0.199513
v -0.168856 -0.626601 -0.299513
v -0.068856 -0.626601 -0.299513
v 0.031144 -0.626601 -0.299513
v 0.131144 -0.626601 -0.299513
v -0.668856 -0.626601 -0.699513
v 0.631144 -0.626601 -0.699513
v -0.668856 -0.526601 0.500487
v 0.631144 -0.526601 0.500487
v -0.768856 -0.526601 0.400487
v -0.668856 -0.526601 0.400487
v 0.631144 -0.526601 0.400487
v 0.731144 -0.526601 0.400487
v -0.768856 -0.526601 -0.699513
v -0.668856 -0.526601 -0.699513
v 0.631144 -0.526601 -0.699513
v 0.731144 -0.526601 -0.699513
v -0.668856 -0.526601 -0.799513
v 0.631144 -0.526601 -0.799513
v -0.168856 -0.426601 0.600487
v 0.131144 -0.426601 0.600487
v -0.168856 -0.426601 0.500487
v 0.131144 -0.426601 0.500487
v -0.268856 -0.326601 0.600487
v -0.168856 -0.326601 0.600487
v 0.131144 -0.326601 0.600487
v 0.231144 -0.326601 0.600487
v -0.268856 -0.326601 0.500487
v -0.168856 -0.326601 0.500487
v 0.131144 -0.326601 0.500487
v 0.231144 -0.326601 0.500487
v 0.531144 0.273399 0.200487
v 0.631144 0.273399 0.200487
v 0.531144 0.273399 -0.499513
v 0.631144 0.273399 -0.499513
v -0.168856 0.373399 0.700487
v 0.131144 0.373399 0.700487
v -0.668856 0.373399 0.500487
v -0.368856 0.373399 0.500487
v -0.268856 0.373399 0.500487
v -0.168856 0.373399 0.500487
v 0.131144 0.373399 0.500487
v 0.431144 0.373399 0.500487
v 0.531144 0.373399 0.500487
v 0.631144 0.373399 0.500487
v -0.668856 0.373399 0.400487
v -0.568856 0.373399 0.400487
v -0.368856 0.373399 0.400487
v -0.268856 0.373399 0.400487
v -0.168856 0.373399 0.400487
v 0.131144 0.373399 0.400487
v 0.431144 0.373399 0.400487
v 0.531144 0.373399 0.400487
v 0.631144 0.373399 0.400487
v -0.568856 0.473399 0.300487
v -0.368856 0.473399 0.300487
v 0.331144 0.473399 0.300487
v 0.531144 0.473399 0.300487
v -0.468856 0.473399 0.200487
v 0.431144 0.473399 0.200487
v -0.468856 0.473399 -0.499513
v 0.431144 0.473399 -0.499513
v -0.568856 0.473399 -0.599514
v 0.531144 0.473399 -0.599514
v -0.668856 0.573399 0.400487
v -0.568856 0.573399 0.400487
v 0.531144 0.573399 0.400487
v 0.631144 0.573399 0.400487
v -0.568856 0.573399 0.300487
v 0.531144 0.573399 0.300487
v -0.468856 0.573399 0.200487
v 0.431144 0.573399 0.200487
v -0.668856 0.573399 -0.099513
v -0.568856 0.573399 -0.099513
v 0.531144 0.573399 -0.099513
v 0.631144 0.573399 -0.099513
v -0.468856 0.573399 -0.499513
v 0.431144 0.573399 -0.499513
v -0.368856 -0.726601 0.200487
v -0.268856 -0.726601 0.200487
v 0.231144 -0.726601 0.200487
v 0.331144 -0.726601 0.200487
v -0.368856 -0.726601 0.100487
v -0.268856 -0.726601 0.100487
v -0.168856 -0.726601 0.100487
v 0.131144 -0.726601 0.100487
v 0.231144 -0.726601 0.100487
v 0.331144 -0.726601 0.100487
v -0.268856 -0.726601 0.000487
v -0.168856 -0.726601 0.000487
v -0.068856 -0.726601 0.000487
v 0.031144 -0.726601 0.000487
v 0.131144 -0.726601 0.000487
v 0.231144 -0.726601 0.000487
v -0.168856 -0.726601 -0.099513
v -0.068856 -0.726601 -0.099513
v 0.031144 -0.726601 -0.099513
v 0.131144 -0.726601 -0.099513
v -0.168856 -0.726601 -0.199513
v -0.068856 -0.726601 -0.199513
v 0.031144 -0.726601 -0.199513
v 0.131144 -0.726601 -0.199513
v -0.268856 -0.726601 -0.299513
v -0.168856 -0.726601 -0.299513
v -0.068856 -0.726601 -0.299513
v 0.031144 -0.726601 -0.299513
v 0.131144 -0.726601 -0.299513
v 0.231144 -0.726601 -0.299513
v -0.368856 -0.726601 -0.399513
v -0.268856 -0.726601 -0.399513
v -0.168856 -0.726601 -0.399513
v 0.131144 -0.726601 -0.399513
v 0.231144 -0.726601 -0.399513
v 0.331144 -0.726601 -0.399513
v -0.368856 -0.726601 -0.499513
v -0.268856 -0.726601 -0.499513
v 0.231144 -0.726601 -0.499513
v 0.331144 -0.726601 -0.499513
v -0.668856 -0.526601 0.400487
v -0.568856 -0.526601 0.400487
v 0.531144 -0.526601 0.400487
v 0.631144 -0.526601 0.400487
v -0.668856 -0.526601 0.300487
v -0.568856 -0.526601 0.300487
v 0.531144 -0.526601 0.300487
v 0.631144 -0.526601 0.300487
v 0.531144 -0.526601 0.200487
v 0.631144 -0.526601 0.200487
v -0.168856 -0.526601 0.000487
v 0.131144 -0.526601 0.000487
v -0.168856 -0.526601 -0.299513
v 0.131144 -0.526601 -0.299513
v 0.531144 -0.526601 -0.499513
v 0.631144 -0.526601 -0.499513
v -0.668856 -0.526601 -0.599513
v -0.568856 -0.526601 -0.599513
v 0.531144 -0.526601 -0.599513
v 0.631144 -0.526601 -0.599513
v -0.668856 -0.526601 -0.699513
v -0.568856 -0.526601 -0.699513
v 0.531144 -0.526601 -0.699513
v 0.631144 -0.526601 -0.699513
v -0.268856 -0.026601 0.600487
v -0.168856 -0.026601 0.600487
v 0.131144 -0.026601 0.600487
v 0.231144 -0.026601 0.600487
v -0.268856 -0.026601 0.500487
v -0.168856 -0.026601 0.500487
v 0.131144 -0.026601 0.500487
v 0.231144 -0.026601 0.500487
v -0.168856 0.073399 0.600487
v -0.068856 0.073399 0.600487
v 0.131144 0.073399 0.600487
v -0.168856 0.073399 0.500487
v -0.068856 0.073399 0.500487
v 0.131144 0.073399 0.500487
v -0.668856 0.273399 0.500487
v 0.631144 0.273399 0.500487
v -0.768856 0.273399 0.400487
v -0.668856 0.273399 0.400487
v -0.568856 0.273399 0.400487
v 0.531144 0.273399 0.400487
v 0.631144 0.273399 0.400487
v 0.731144 0.273399 0.400487
v -0.668856 0.273399 0.300487
v 0.631144 0.273399 0.300487
v -0.668856 0.273399 -0.599513
v 0.631144 0.273399 -0.599513
v -0.768856 0.273399 -0.699513
v -0.668856 0.273399 -0.699513
v -0.568856 0.273399 -0.699513
v 0.531144 0.273399 -0.699513
v 0.631144 0.273399 -0.699513
v 0.731144 0.273399 -0.699513
v -0.668856 0.273399 -0.799513
v 0.631144 0.273399 -0.799513
v -0.168856 0.473399 0.700486
v 0.131144 0.473399 0.700486
v -0.168856 0.473399 0.500486
v 0.131144 0.473399 0.500486
v -0.568856 0.473399 0.400487
v -0.468856 0.473399 0.400487
v 0.431144 0.473399 0.400487
v 0.531144 0.473399 0.400487
v -0.668856 0.473399 0.300487
v -0.568856 0.473399 0.300487
v -0.468856 0.473399 0.300487
v 0.431144 0.473399 0.300487
v 0.531144 0.473399 0.300487
v 0.631144 0.473399 0.300487
v -0.668856 0.473399 -0.099513
v -0.568856 0.473399 -0.099513
v 0.531144 0.473399 -0.099513
v 0.631144 0.473399 -0.099513
v -0.668856 0.473399 -0.199513
v -0.568856 0.473399 -0.199513
v 0.531144 0.473399 -0.199513
v 0.631144 0.473399 -0.199513
v -0.668856 0.473399 -0.599514
v -0.568856 0.473399 -0.599514
v 0.531144 0.473399 -0.599514
v 0.631144 0.473399 -0.599514
v -0.568856 0.473399 -0.699513
v 0.531144 0.473399 -0.699513
v -0.168856 0.573399 0.500486
v 0.131144 0.573399 0.500486
v -0.468856 0.573399 0.400487
v -0.368856 0.573399 0.400487
v -0.168856 0.573399 0.400487
v 0.131144 0.573399 0.400487
v 0.331144 0.573399 0.400487
v 0.431144 0.573399 0.400487
v -0.568856 0.573399 0.300487
v -0.468856 0.573399 0.300487
v -0.368856 0.573399 0.300487
v 0.331144 0.573399 0.300487
v 0.431144 0.573399 0.300487
v 0.531144 0.573399 0.300487
v -0.668856 0.573399 -0.099513
v -0.568856 0.573399 -0.099513
v 0.531144 0.573399 -0.099513
v 0.631144 0.573399 -0.099513
v -0.668856 0.573399 -0.199513
v -0.568856 0.573399 -0.199513
v 0.531144 0.573399 -0.199513
v 0.631144 0.573399 -0.199513
v -0.468856 0.573399 -0.499513
v 0.431144 0.573399 -0.499513
v -0.568856 0.573399 -0.599514
v 0.531144 0.573399 -0.599514
v -0.668856 0.673399 0.500486
v -0.168856 0.673399 0.500486
v 0.131144 0.673399 0.500486
v 0.631144 0.673399 0.500486
v -0.568856 0.673399 0.400487
v -0.368856 0.673399 0.400487
v -0.168856 0.673399 0.400487
v 0.131144 0.673399 0.400487
v 0.331144 0.673399 0.400487
v 0.531144 0.673399 0.400487
v -0.468856 0.673399 0.300487
v -0.368856 0.673399 0.300487
v 0.331144 0.673399 0.300487
v 0.431144 0.673399 0.300487
v -0.168856 0.673399 0.200487
v 0.131144 0.673399 0.200487
v -0.268856 0.673399 0.100487
v -0.168856 0.673399 0.100487
v 0.131144 0.673399 0.100487
v 0.231144 0.673399 0.100487
v -0.668856 0.673399 -0.099513
v -0.568856 0.673399 -0.099513
v 0.531144 0.673399 -0.099513
v 0.631144 0.673399 -0.099513
v -0.268856 0.673399 -0.199513
v -0.168856 0.673399 -0.199513
v 0.131144 0.673399 -0.199513
v 0.231144 0.673399 -0.199513
v -0.168856 0.673399 -0.299513
v 0.131144 0.673399 -0.299513
v -0.468856 0.673399 -0.499513
v 0.431144 0.673399 -0.499513
v -0.168856 0.773399 0.200487
v -0.068856 0.773399 0.200487
v 0.031144 0.773399 0.200487
v 0.131144 0.773399 0.200487
v -0.268856 0.773399 0.100487
v -0.168856 0.773399 0.100487
v -0.068856 0.773399 0.100487
v 0.031144 0.773399 0.100487
v 0.131144 0.773399 0.100487
v 0.231144 0.773399 0.100487
v -0.268856 0.773399 0.000487
v -0.168856 0.773399 0.000487
v 0.131144 0.773399 0.000487
v 0.231144 0.773399 0.000487
v -0.268856 0.773399 -0.099513
v -0.168856 0.773399 -0.099513
v 0.131144 0.773399 -0.099513
v 0.231144 0.773399 -0.099513
v -0.268856 0.773399 -0.199513
v -0.168856 0.773399 -0.199513
v -0.068856 0.773399 -0.199513
v 0.031144 0.773399 -0.199513
v 0.131144 0.773399 -0.199513
v 0.231144 0.773399 -0.199513
v -0.168856 0.773399 -0.299513
v -0.068856 0.773399 -0.299513
v 0.031144 0.773399 -0.299513
v 0.131144 0.773399 -0.299513
v -0.068856 0.873399 0.200487
v 0.031144 0.873399 0.200487
v -0.068856 0.873399 0.100487
v 0.031144 0.873399 0.100487
v -0.268856 0.873399 0.000487
v -0.168856 0.873399 0.000487
v 0.131144 0.873399 0.000487
v 0.231144 0.873399 0.000487
v -0.268856 0.873399 -0.099513
v -0.168856 0.873399 -0.099513
v 0.131144 0.873399 -0.099513
v 0.231144 0.873399 -0.099513
v -0.068856 0.873399 -0.199513
v 0.031144 0.873399 -0.199513
v -0.068856 0.873399 -0.299513
v 0.031144 0.873399 -0.299513
vn -1.0000 -0.0000 -0.0000
vn 1.0000 -0.0000 -0.0000
vn -0.0000 -0.0000 1.0000
vn -0.0000 -0.0000 -1.0000
vn -0.0000 -1.0000 -0.0000
vn -0.0000 1.0000 -0.0000
vt 0.041016 0.500000
vt 0.208984 0.500000
vt 0.021484 0.500000
vt 0.994141 0.500000
vt 0.111328 0.500000
vt 0.962891 0.500000
vt 0.185547 0.500000
vt 0.068359 0.500000
vt 0.205078 0.500000
vt 0.958984 0.500000
vt 0.978516 0.500000
vt 0.037109 0.500000
s 1
usemtl palette
f 3/1/1 2/1/1 1/1/1
f 4/1/1 2/1/1 3/1/1
f 5/2/1 4/2/1 3/2/1
f 6/2/1 4/2/1 5/2/1
f 10/1/1 8/1/1 7/1/1
f 11/1/1 8/1/1 10/1/1
f 13/1/1 10/1/1 9/1/1
f 14/1/1 10/1/1 13/1/1
f 15/1/1 12/1/1 11/1/1
f 16/1/1 12/1/1 15/1/1
f 17/2/1 14/2/1 13/2/1
f 18/2/1 14/2/1 17/2/1
f 21/2/1 16/2/1 15/2/1
f 22/2/1 16/2/1 21/2/1
f 25/3/1 20/3/1 19/3/1
f 26/3/1 20/3/1 25/3/1
f 27/3/1 20/3/1 26/3/1
f 28/3/1 20/3/1 27/3/1
f 29/4/1 24/4/1 23/4/1
f 30/4/1 27/4/1 26/4/1
f 31/4/1 27/4/1 30/4/1
f 32/4/1 29/4/1 23/4/1
f 32/4/1 30/4/1 29/4/1
f 33/4/1 30/4/1 32/4/1
f 38/3/1 35/3/1 34/3/1
f 39/3/1 37/3/1 36/3/1
f 40/3/1 35/3/1 38/3/1
f 41/3/1 39/3/1 36/3/1
f 42/3/1 35/3/1 40/3/1
f 43/3/1 35/3/1 42/3/1
f 44/5/1 43/5/1 42/5/1
f 45/5/1 43/5/1 44/5/1
f 48/3/1 41/3/1 36/3/1
f 49/3/1 41/3/1 48/3/1
f 50/3/1 46/3/1 45/3/1
f 51/3/1 46/3/1 50/3/1
f 52/3/1 48/3/1 47/3/1
f 53/3/1 48/3/1 52/3/1
f 56/3/1 55/3/1 54/3/1
f 57/3/1 55/3/1 56/3/1
f 59/3/1 58/3/1 57/3/1
f 60/3/1 58/3/1 59/3/1
f 65/2/1 62/2/1 61/2/1
f 66/2/1 62/2/1 65/2/1
f 67/2/1 64/2/1 63/2/1
f 68/2/1 64/2/1 67/2/1
f 71/3/1 70/3/1 69/3/1
f 72/3/1 70/3/1 71/3/1
f 77/2/1 74/2/1 73/2/1
f 78/2/1 74/2/1 77/2/1
f 79/2/1 76/2/1 75/2/1
f 80/2/1 76/2/1 79/2/1
f 83/6/1 82/6/1 81/6/1
f 84/6/1 82/6/1 83/6/1
f 87/7/1 86/7/1 85/7/1
f 88/7/1 86/7/1 87/7/1
f 89/7/1 86/7/1 88/7/1
f 90/7/1 86/7/1 89/7/1
f 91/7/1 89/7/1 88/7/1
f 92/7/1 89/7/1 91/7/1
f 97/2/1 94/2/1 93/2/1
f 98/2/1 94/2/1 97/2/1
f 99/2/1 96/2/1 95/2/1
f 100/2/1 96/2/1 99/2/1
f 101/2/1 99/2/1 98/2/1
f 102/2/1 99/2/1 101/2/1
f 105/6/1 104/6/1 103/6/1
f 106/6/1 104/6/1 105/6/1
f 109/6/1 108/6/1 107/6/1
f 110/6/1 108/6/1 109/6/1
f 113/8/1 112/8/1 111/8/1
f 114/8/1 112/8/1 113/8/1
f 119/7/1 116/7/1 115/7/1
f 120/7/1 116/7/1 119/7/1
f 121/7/1 118/7/1 117/7/1
f 122/7/1 118/7/1 121/7/1
f 125/2/1 124/2/1 123/2/1
f 126/2/1 124/2/1 125/2/1
f 128/9/1 126/9/1 125/9/1
f 129/9/1 126/9/1 128/9/1
f 131/2/1 128/2/1 127/2/1
f 132/2/1 128/2/1 131/2/1
f 133/2/1 130/2/1 129/2/1
f 134/2/1 130/2/1 133/2/1
f 139/7/1 136/7/1 135/7/1
f 140/7/1 136/7/1 139/7/1
f 141/7/1 138/7/1 137/7/1
f 142/7/1 138/7/1 141/7/1
f 147/2/1 144/2/1 143/2/1
f 148/2/1 144/2/1 147/2/1
f 149/2/1 146/2/1 145/2/1
f 150/2/1 146/2/1 149/2/1
f 155/2/1 152/2/1 151/2/1
f 156/2/1 152/2/1 155/2/1
f 157/2/1 154/2/1 153/2/1
f 158/2/1 154/2/1 157/2/1
f 161/4/1 160/4/1 159/4/1
f 162/4/1 160/4/1 161/4/1
f 165/7/1 164/7/1 163/7/1
f 166/7/1 164/7/1 165/7/1
f 171/2/1 168/2/1 167/2/1
f 172/2/1 168/2/1 171/2/1
f 173/2/1 170/2/1 169/2/1
f 174/2/1 170/2/1 173/2/1
f 177/3/1 176/3/1 175/3/1
f 178/3/1 176/3/1 177/3/1
f 183/3/1 180/3/1 179/3/1
f 184/3/1 182/3/1 181/3/1
f 185/3/1 183/3/1 179/3/1
f 185/3/1 184/3/1 183/3/1
f 186/3/1 184/3/1 185/3/1
f 187/3/1 182/3/1 184/3/1
f 187/3/1 184/3/1 186/3/1
f 191/4/1 189/4/1 188/4/1
f 191/4/1 190/4/1 189/4/1
f 192/4/1 190/4/1 191/4/1
f 199/1/1 194/1/1 193/1/1
f 200/1/1 194/1/1 199/1/1
f 201/1/1 196/1/1 195/1/1
f 202/1/1 196/1/1 201/1/1
f 203/1/1 198/1/1 197/1/1
f 204/1/1 198/1/1 203/1/1
f 205/2/1 200/2/1 199/2/1
f 206/2/1 200/2/1 205/2/1
f 207/2/1 202/2/1 201/2/1
f 208/2/1 202/2/1 207/2/1
f 209/2/1 204/2/1 203/2/1
f 210/2/1 204/2/1 209/2/1
f 211/1/2 212/1/2 215/1/2
f 215/1/2 212/1/2 216/1/2
f 213/1/2 214/1/2 217/1/2
f 217/1/2 214/1/2 218/1/2
f 215/2/2 216/2/2 219/2/2
f 219/2/2 216/2/2 220/2/2
f 217/2/2 218/2/2 221/2/2
f 221/2/2 218/2/2 222/2/2
f 223/3/2 224/3/2 225/3/2
f 225/3/2 224/3/2 226/3/2
f 226/3/2 224/3/2 227/3/2
f 228/4/2 229/4/2 231/4/2
f 229/4/2 230/4/2 231/4/2
f 231/4/2 230/4/2 232/4/2
f 233/3/2 234/3/2 235/3/2
f 235/3/2 234/3/2 236/3/2
f 237/2/2 238/2/2 241/2/2
f 241/2/2 238/2/2 242/2/2
f 239/2/2 240/2/2 243/2/2
f 243/2/2 240/2/2 244/2/2
f 245/2/2 246/2/2 249/2/2
f 249/2/2 246/2/2 250/2/2
f 247/2/2 248/2/2 251/2/2
f 251/2/2 248/2/2 252/2/2
f 253/4/2 254/4/2 255/4/2
f 255/4/2 254/4/2 256/4/2
f 257/7/2 258/7/2 259/7/2
f 259/7/2 258/7/2 260/7/2
f 261/2/2 262/2/2 265/2/2
f 265/2/2 262/2/2 266/2/2
f 263/2/2 264/2/2 267/2/2
f 267/2/2 264/2/2 268/2/2
f 269/2/2 270/2/2 271/2/2
f 271/2/2 270/2/2 272/2/2
f 271/9/2 272/9/2 274/9/2
f 274/9/2 272/9/2 275/9/2
f 273/2/2 274/2/2 277/2/2
f 277/2/2 274/2/2 278/2/2
f 275/2/2 276/2/2 279/2/2
f 279/2/2 276/2/2 280/2/2
f 281/7/2 282/7/2 285/7/2
f 285/7/2 282/7/2 286/7/2
f 283/7/2 284/7/2 287/7/2
f 287/7/2 284/7/2 288/7/2
f 289/2/2 290/2/2 293/2/2
f 293/2/2 290/2/2 294/2/2
f 291/2/2 292/2/2 295/2/2
f 295/2/2 292/2/2 296/2/2
f 294/2/2 295/2/2 297/2/2
f 297/2/2 295/2/2 298/2/2
f 299/6/2 300/6/2 301/6/2
f 301/6/2 300/6/2 302/6/2
f 303/10/2 304/10/2 305/10/2
f 305/10/2 304/10/2 306/10/2
f 307/8/2 308/8/2 309/8/2
f 309/8/2 308/8/2 310/8/2
f 311/7/2 312/7/2 315/7/2
f 315/7/2 312/7/2 316/7/2
f 313/7/2 314/7/2 317/7/2
f 317/7/2 314/7/2 318/7/2
f 319/2/2 320/2/2 323/2/2
f 323/2/2 320/2/2 324/2/2
f 321/2/2 322/2/2 325/2/2
f 325/2/2 322/2/2 326/2/2
f 327/6/2 328/6/2 329/6/2
f 329/6/2 328/6/2 330/6/2
f 329/10/2 330/10/2 331/10/2
f 331/10/2 330/10/2 332/10/2
f 333/7/2 334/7/2 335/7/2
f 335/7/2 334/7/2 336/7/2
f 336/7/2 334/7/2 337/7/2
f 337/7/2 334/7/2 338/7/2
f 336/7/2 337/7/2 339/7/2
f 339/7/2 337/7/2 340/7/2
f 341/2/2 342/2/2 345/2/2
f 345/2/2 342/2/2 346/2/2
f 343/2/2 344/2/2 347/2/2
f 347/2/2 344/2/2 348/2/2
f 349/3/2 350/3/2 351/3/2
f 351/3/2 350/3/2 352/3/2
f 353/3/2 354/3/2 355/3/2
f 355/3/2 354/3/2 356/3/2
f 356/3/2 357/3/2 358/3/2
f 358/3/2 357/3/2 359/3/2
f 360/3/2 361/3/2 364/3/2
f 362/3/2 363/3/2 365/3/2
f 364/3/2 361/3/2 366/3/2
f 362/3/2 365/3/2 367/3/2
f 366/3/2 361/3/2 368/3/2
f 368/3/2 361/3/2 369/3/2
f 368/5/2 369/5/2 370/5/2
f 370/5/2 369/5/2 371/5/2
f 362/3/2 367/3/2 374/3/2
f 374/3/2 367/3/2 375/3/2
f 371/3/2 372/3/2 376/3/2
f 376/3/2 372/3/2 377/3/2
f 373/3/2 374/3/2 378/3/2
f 378/3/2 374/3/2 379/3/2
f 380/1/2 381/1/2 383/1/2
f 383/1/2 381/1/2 384/1/2
f 382/1/2 383/1/2 386/1/2
f 386/1/2 383/1/2 387/1/2
f 384/1/2 385/1/2 388/1/2
f 388/1/2 385/1/2 389/1/2
f 386/2/2 387/2/2 390/2/2
f 390/2/2 387/2/2 391/2/2
f 388/2/2 389/2/2 394/2/2
f 394/2/2 389/2/2 395/2/2
f 396/4/2 397/4/2 398/4/2
f 398/4/2 397/4/2 399/4/2
f 392/3/2 393/3/2 400/3/2
f 400/3/2 393/3/2 401/3/2
f 401/3/2 393/3/2 402/3/2
f 402/3/2 393/3/2 403/3/2
f 398/11/2 399/11/2 404/11/2
f 404/11/2 399/11/2 405/11/2
f 401/4/2 402/4/2 406/4/2
f 406/4/2 402/4/2 407/4/2
f 404/4/2 405/4/2 408/4/2
f 405/4/2 406/4/2 408/4/2
f 408/4/2 406/4/2 409/4/2
f 410/1/2 411/1/2 412/1/2
f 412/1/2 411/1/2 413/1/2
f 412/2/2 413/2/2 414/2/2
f 414/2/2 413/2/2 415/2/2
f 418/8/3 417/8/3 416/8/3
f 419/8/3 417/8/3 418/8/3
f 423/6/3 421/6/3 420/6/3
f 424/6/3 421/6/3 423/6/3
f 426/6/3 423/6/3 422/6/3
f 426/6/3 425/6/3 424/6/3
f 426/6/3 424/6/3 423/6/3
f 427/6/3 425/6/3 426/6/3
f 428/6/3 426/6/3 422/6/3
f 429/10/3 427/10/3 426/10/3
f 429/6/3 426/6/3 428/6/3
f 430/6/3 428/6/3 422/6/3
f 431/6/3 428/6/3 430/6/3
f 432/6/3 428/6/3 431/6/3
f 433/10/3 429/10/3 428/10/3
f 433/6/3 428/6/3 432/6/3
f 434/10/3 427/10/3 429/10/3
f 434/10/3 429/10/3 433/10/3
f 435/10/3 427/10/3 434/10/3
f 436/6/3 432/6/3 431/6/3
f 437/10/3 433/10/3 432/10/3
f 437/6/3 432/6/3 436/6/3
f 437/10/3 434/10/3 433/10/3
f 438/10/3 434/10/3 437/10/3
f 444/4/3 443/4/3 442/4/3
f 445/4/3 443/4/3 444/4/3
f 446/1/3 440/1/3 439/1/3
f 447/1/3 440/1/3 446/1/3
f 448/11/3 445/11/3 444/11/3
f 449/4/3 443/4/3 445/4/3
f 449/11/3 445/11/3 448/11/3
f 450/4/3 443/4/3 449/4/3
f 451/1/3 446/1/3 439/1/3
f 452/1/3 446/1/3 451/1/3
f 453/1/3 440/1/3 447/1/3
f 454/1/3 440/1/3 453/1/3
f 455/4/3 449/4/3 448/4/3
f 456/11/3 450/11/3 449/11/3
f 456/4/3 449/4/3 455/4/3
f 457/4/3 443/4/3 450/4/3
f 457/11/3 450/11/3 456/11/3
f 458/4/3 443/4/3 457/4/3
f 459/1/3 440/1/3 454/1/3
f 460/1/3 451/1/3 439/1/3
f 463/1/3 440/1/3 459/1/3
f 465/4/3 457/4/3 456/4/3
f 466/4/3 457/4/3 465/4/3
f 468/1/3 461/1/3 460/1/3
f 470/1/3 463/1/3 462/1/3
f 471/4/3 467/4/3 466/4/3
f 471/4/3 465/4/3 464/4/3
f 471/4/3 466/4/3 465/4/3
f 472/4/3 467/4/3 471/4/3
f 473/11/3 472/11/3 471/11/3
f 474/4/3 467/4/3 472/4/3
f 474/11/3 472/11/3 473/11/3
f 475/4/3 467/4/3 474/4/3
f 476/1/3 469/1/3 468/1/3
f 476/1/3 470/1/3 469/1/3
f 476/1/3 460/1/3 439/1/3
f 476/1/3 468/1/3 460/1/3
f 477/2/3 441/2/3 440/2/3
f 477/1/3 470/1/3 476/1/3
f 477/1/3 440/1/3 463/1/3
f 477/1/3 463/1/3 470/1/3
f 478/2/3 441/2/3 477/2/3
f 479/4/3 474/4/3 473/4/3
f 480/11/3 475/11/3 474/11/3
f 480/4/3 474/4/3 479/4/3
f 481/4/3 467/4/3 475/4/3
f 481/11/3 475/11/3 480/11/3
f 482/4/3 467/4/3 481/4/3
f 487/1/3 484/1/3 483/1/3
f 488/2/3 485/2/3 484/2/3
f 488/1/3 484/1/3 487/1/3
f 489/2/3 485/2/3 488/2/3
f 492/3/3 491/3/3 490/3/3
f 493/3/3 492/3/3 490/3/3
f 494/3/3 493/3/3 490/3/3
f 497/3/3 494/3/3 490/3/3
f 498/3/3 496/3/3 495/3/3
f 499/3/3 496/3/3 498/3/3
f 500/3/3 497/3/3 490/3/3
f 501/3/3 500/3/3 490/3/3
f 502/3/3 500/3/3 501/3/3
f 503/1/3 487/1/3 486/1/3
f 504/1/3 487/1/3 503/1/3
f 507/1/3 505/1/3 504/1/3
f 508/2/3 506/2/3 505/2/3
f 508/1/3 505/1/3 507/1/3
f 509/2/3 506/2/3 508/2/3
f 514/3/3 511/3/3 510/3/3
f 514/3/3 513/3/3 512/3/3
f 514/3/3 512/3/3 511/3/3
f 515/3/3 513/3/3 514/3/3
f 516/3/3 513/3/3 515/3/3
f 518/3/3 517/3/3 516/3/3
f 519/3/3 517/3/3 518/3/3
f 521/3/3 520/3/3 519/3/3
f 522/3/3 520/3/3 521/3/3
f 526/3/3 524/3/3 523/3/3
f 527/3/3 524/3/3 526/3/3
f 530/3/3 526/3/3 525/3/3
f 531/3/3 526/3/3 530/3/3
f 532/3/3 529/3/3 528/3/3
f 532/3/3 530/3/3 529/3/3
f 533/3/3 530/3/3 532/3/3
f 534/3/3 530/3/3 533/3/3
f 535/3/3 530/3/3 534/3/3
f 538/2/3 537/2/3 536/2/3
f 539/2/3 537/2/3 538/2/3
f 542/7/3 541/7/3 540/7/3
f 544/7/3 542/7/3 540/7/3
f 544/7/3 543/7/3 542/7/3
f 545/7/3 543/7/3 544/7/3
f 546/7/3 544/7/3 540/7/3
f 547/7/3 544/7/3 546/7/3
f 550/2/3 549/2/3 548/2/3
f 551/2/3 549/2/3 550/2/3
f 556/2/3 553/2/3 552/2/3
f 557/2/3 553/2/3 556/2/3
f 558/7/3 555/7/3 554/7/3
f 559/7/3 555/7/3 558/7/3
f 564/2/3 561/2/3 560/2/3
f 565/2/3 561/2/3 564/2/3
f 566/7/3 563/7/3 562/7/3
f 567/7/3 563/7/3 566/7/3
f 572/7/3 569/7/3 568/7/3
f 573/7/3 569/7/3 572/7/3
f 574/2/3 571/2/3 570/2/3
f 575/2/3 571/2/3 574/2/3
f 578/2/3 576/2/3 575/2/3
f 579/2/3 576/2/3 578/2/3
f 580/2/3 578/2/3 577/2/3
f 581/2/3 578/2/3 580/2/3
f 584/7/3 583/7/3 582/7/3
f 585/7/3 583/7/3 584/7/3
f 588/4/3 587/4/3 586/4/3
f 589/4/3 587/4/3 588/4/3
f 594/2/3 591/2/3 590/2/3
f 595/2/3 591/2/3 594/2/3
f 596/2/3 593/2/3 592/2/3
f 597/9/3 594/9/3 593/9/3
f 597/2/3 593/2/3 596/2/3
f 598/9/3 594/9/3 597/9/3
f 600/2/3 599/2/3 598/2/3
f 601/2/3 599/2/3 600/2/3
f 604/4/3 603/4/3 602/4/3
f 605/4/3 603/4/3 604/4/3
f 608/2/3 607/2/3 606/2/3
f 609/2/3 607/2/3 608/2/3
f 614/7/3 611/7/3 610/7/3
f 615/7/3 611/7/3 614/7/3
f 616/2/3 613/2/3 612/2/3
f 617/2/3 613/2/3 616/2/3
f 620/2/3 619/2/3 618/2/3
f 621/2/3 619/2/3 620/2/3
f 624/2/3 623/2/3 622/2/3
f 625/2/3 623/2/3 624/2/3
f 628/2/3 627/2/3 626/2/3
f 629/2/3 627/2/3 628/2/3
f 632/2/3 631/2/3 630/2/3
f 633/2/3 631/2/3 632/2/3
f 636/3/3 635/3/3 634/3/3
f 637/3/3 635/3/3 636/3/3
f 640/3/3 639/3/3 638/3/3
f 641/3/3 639/3/3 640/3/3
f 642/3/3 639/3/3 641/3/3
f 645/3/3 644/3/3 643/3/3
f 646/3/3 644/3/3 645/3/3
f 650/1/3 648/1/3 647/1/3
f 651/2/3 649/2/3 648/2/3
f 651/1/3 648/1/3 650/1/3
f 652/2/3 649/2/3 651/2/3
f 656/1/3 654/1/3 653/1/3
f 657/2/3 655/2/3 654/2/3
f 657/1/3 654/1/3 656/1/3
f 658/2/3 655/2/3 657/2/3
f 659/1/4 660/1/4 664/1/4
f 660/2/4 661/2/4 665/2/4
f 664/1/4 660/1/4 665/1/4
f 665/2/4 661/2/4 666/2/4
f 662/4/4 663/4/4 667/4/4
f 667/4/4 663/4/4 668/4/4
f 668/4/4 663/4/4 669/4/4
f 669/4/4 670/4/4 671/4/4
f 668/4/4 669/4/4 671/4/4
f 671/4/4 670/4/4 672/4/4
f 672/4/4 670/4/4 673/4/4
f 673/4/4 670/4/4 674/4/4
f 675/4/4 676/4/4 678/4/4
f 677/4/4 678/4/4 683/4/4
f 678/4/4 676/4/4 684/4/4
f 683/4/4 678/4/4 684/4/4
f 684/4/4 676/4/4 685/4/4
f 679/1/4 680/1/4 686/1/4
f 680/2/4 681/2/4 687/2/4
f 686/1/4 680/1/4 687/1/4
f 687/2/4 681/2/4 688/2/4
f 682/4/4 683/4/4 689/4/4
f 683/11/4 684/11/4 690/11/4
f 689/4/4 683/4/4 690/4/4
f 690/11/4 684/11/4 691/11/4
f 692/3/4 693/3/4 695/3/4
f 693/5/4 694/5/4 695/5/4
f 695/5/4 694/5/4 696/5/4
f 692/3/4 695/3/4 697/3/4
f 695/3/4 696/3/4 697/3/4
f 697/3/4 696/3/4 698/3/4
f 692/3/4 697/3/4 699/3/4
f 697/5/4 698/5/4 700/5/4
f 699/3/4 697/3/4 700/3/4
f 700/5/4 698/5/4 701/5/4
f 702/3/4 703/3/4 704/3/4
f 704/3/4 703/3/4 705/3/4
f 706/3/4 707/3/4 708/3/4
f 708/3/4 707/3/4 709/3/4
f 709/3/4 707/3/4 710/3/4
f 711/2/4 712/2/4 713/2/4
f 713/2/4 712/2/4 714/2/4
f 715/7/4 716/7/4 717/7/4
f 717/7/4 716/7/4 718/7/4
f 719/2/4 720/2/4 721/2/4
f 721/2/4 720/2/4 722/2/4
f 723/2/4 724/2/4 725/2/4
f 725/2/4 724/2/4 726/2/4
f 727/2/4 728/2/4 729/2/4
f 729/2/4 728/2/4 730/2/4
f 731/4/4 732/4/4 733/4/4
f 733/4/4 732/4/4 734/4/4
f 735/7/4 736/7/4 739/7/4
f 739/7/4 736/7/4 740/7/4
f 737/2/4 738/2/4 741/2/4
f 741/2/4 738/2/4 742/2/4
f 743/2/4 744/2/4 745/2/4
f 745/2/4 744/2/4 746/2/4
f 747/7/4 748/7/4 749/7/4
f 749/7/4 748/7/4 750/7/4
f 751/4/4 752/4/4 753/4/4
f 753/4/4 752/4/4 754/4/4
f 755/4/4 756/4/4 757/4/4
f 757/4/4 756/4/4 758/4/4
f 759/7/4 760/7/4 763/7/4
f 763/7/4 760/7/4 764/7/4
f 761/2/4 762/2/4 767/2/4
f 767/2/4 762/2/4 768/2/4
f 765/2/4 766/2/4 769/2/4
f 766/9/4 767/9/4 770/9/4
f 769/2/4 766/2/4 770/2/4
f 770/9/4 767/9/4 771/9/4
f 771/2/4 772/2/4 773/2/4
f 773/2/4 772/2/4 774/2/4
f 775/7/4 776/7/4 777/7/4
f 777/7/4 776/7/4 778/7/4
f 779/4/4 780/4/4 781/4/4
f 781/4/4 780/4/4 782/4/4
f 783/2/4 784/2/4 787/2/4
f 787/2/4 784/2/4 788/2/4
f 785/7/4 786/7/4 790/7/4
f 788/2/4 789/2/4 793/2/4
f 793/2/4 789/2/4 794/2/4
f 785/7/4 790/7/4 795/7/4
f 790/7/4 791/7/4 795/7/4
f 795/7/4 791/7/4 796/7/4
f 792/2/4 793/2/4 797/2/4
f 797/2/4 793/2/4 798/2/4
f 785/7/4 795/7/4 799/7/4
f 799/7/4 795/7/4 800/7/4
f 801/2/4 802/2/4 803/2/4
f 803/2/4 802/2/4 804/2/4
f 805/2/4 806/2/4 807/2/4
f 807/2/4 806/2/4 808/2/4
f 811/2/4 812/2/4 813/2/4
f 813/2/4 812/2/4 814/2/4
f 815/2/4 816/2/4 817/2/4
f 817/2/4 816/2/4 818/2/4
f 809/3/4 810/3/4 819/3/4
f 819/3/4 810/3/4 820/3/4
f 821/3/4 822/3/4 825/3/4
f 823/3/4 824/3/4 825/3/4
f 822/3/4 823/3/4 825/3/4
f 825/3/4 824/3/4 826/3/4
f 826/3/4 827/3/4 829/3/4
f 829/3/4 827/3/4 830/3/4
f 828/3/4 829/3/4 831/3/4
f 831/3/4 829/3/4 832/3/4
f 832/3/4 829/3/4 833/3/4
f 833/3/4 829/3/4 834/3/4
f 835/1/4 836/1/4 839/1/4
f 836/2/4 837/2/4 840/2/4
f 839/1/4 836/1/4 840/1/4
f 840/2/4 837/2/4 841/2/4
f 842/3/4 843/3/4 844/3/4
f 844/3/4 843/3/4 845/3/4
f 838/1/4 839/1/4 846/1/4
f 846/1/4 839/1/4 847/1/4
f 847/1/4 848/1/4 850/1/4
f 848/2/4 849/2/4 851/2/4
f 850/1/4 848/1/4 851/1/4
f 851/2/4 849/2/4 852/2/4
f 853/1/4 854/1/4 856/1/4
f 854/2/4 855/2/4 857/2/4
f 856/1/4 854/1/4 857/1/4
f 857/2/4 855/2/4 858/2/4
f 861/2/5 860/2/5 859/2/5
f 862/2/5 860/2/5 861/2/5
f 867/2/5 864/2/5 863/2/5
f 868/2/5 864/2/5 867/2/5
f 871/2/5 866/2/5 865/2/5
f 872/2/5 866/2/5 871/2/5
f 873/2/5 869/2/5 868/2/5
f 874/2/5 869/2/5 873/2/5
f 877/2/5 871/2/5 870/2/5
f 878/2/5 871/2/5 877/2/5
f 879/2/5 875/2/5 874/2/5
f 880/2/5 875/2/5 879/2/5
f 881/2/5 877/2/5 876/2/5
f 882/2/5 877/2/5 881/2/5
f 888/2/5 884/2/5 883/2/5
f 889/2/5 884/2/5 888/2/5
f 890/2/5 886/2/5 885/2/5
f 891/2/5 886/2/5 890/2/5
f 894/2/5 888/2/5 887/2/5
f 895/2/5 888/2/5 894/2/5
f 896/2/5 892/2/5 891/2/5
f 897/2/5 892/2/5 896/2/5
f 899/2/5 894/2/5 893/2/5
f 900/2/5 894/2/5 899/2/5
f 901/2/5 898/2/5 897/2/5
f 902/2/5 898/2/5 901/2/5
f 906/2/5 904/2/5 903/2/5
f 907/2/5 904/2/5 906/2/5
f 909/2/5 906/2/5 905/2/5
f 910/2/5 906/2/5 909/2/5
f 911/2/5 908/2/5 907/2/5
f 912/2/5 908/2/5 911/2/5
f 913/2/5 911/2/5 910/2/5
f 914/2/5 911/2/5 913/2/5
f 917/1/5 916/1/5 915/1/5
f 918/1/5 916/1/5 917/1/5
f 919/1/5 916/1/5 918/1/5
f 920/1/5 916/1/5 919/1/5
f 921/1/5 917/1/5 915/1/5
f 921/12/5 918/12/5 917/12/5
f 922/12/5 918/12/5 921/12/5
f 923/12/5 920/12/5 919/12/5
f 924/1/5 916/1/5 920/1/5
f 924/12/5 920/12/5 923/12/5
f 925/1/5 921/1/5 915/1/5
f 928/1/5 916/1/5 924/1/5
f 929/12/5 926/12/5 925/12/5
f 929/1/5 925/1/5 915/1/5
f 930/12/5 926/12/5 929/12/5
f 931/12/5 928/12/5 927/12/5
f 932/1/5 916/1/5 928/1/5
f 932/12/5 928/12/5 931/12/5
f 933/1/5 930/1/5 929/1/5
f 933/1/5 931/1/5 930/1/5
f 933/1/5 932/1/5 931/1/5
f 933/1/5 929/1/5 915/1/5
f 934/1/5 916/1/5 932/1/5
f 934/1/5 932/1/5 933/1/5
f 938/1/5 936/1/5 935/1/5
f 939/1/5 936/1/5 938/1/5
f 941/1/5 938/1/5 937/1/5
f 942/1/5 938/1/5 941/1/5
f 943/1/5 940/1/5 939/1/5
f 944/1/5 940/1/5 943/1/5
f 945/1/5 943/1/5 942/1/5
f 946/1/5 943/1/5 945/1/5
f 949/6/5 948/6/5 947/6/5
f 950/6/5 948/6/5 949/6/5
f 955/6/5 952/6/5 951/6/5
f 956/6/5 952/6/5 955/6/5
f 957/6/5 954/6/5 953/6/5
f 958/6/5 954/6/5 957/6/5
f 961/3/5 960/3/5 959/3/5
f 962/3/5 960/3/5 961/3/5
f 968/8/5 964/8/5 963/8/5
f 969/8/5 964/8/5 968/8/5
f 973/4/5 966/4/5 965/4/5
f 974/4/5 966/4/5 973/4/5
f 975/11/5 967/11/5 966/11/5
f 975/4/5 966/4/5 974/4/5
f 976/4/5 968/4/5 967/4/5
f 976/11/5 967/11/5 975/11/5
f 977/8/5 969/8/5 968/8/5
f 977/4/5 968/4/5 976/4/5
f 978/4/5 970/4/5 969/4/5
f 978/8/5 969/8/5 977/8/5
f 979/11/5 971/11/5 970/11/5
f 979/4/5 970/4/5 978/4/5
f 980/4/5 972/4/5 971/4/5
f 980/11/5 971/11/5 979/11/5
f 981/4/5 972/4/5 980/4/5
f 986/3/5 983/3/5 982/3/5
f 986/3/5 985/3/5 984/3/5
f 986/3/5 984/3/5 983/3/5
f 987/3/5 985/3/5 986/3/5
f 988/3/5 986/3/5 982/3/5
f 989/3/5 985/3/5 987/3/5
f 990/3/5 988/3/5 982/3/5
f 990/3/5 989/3/5 988/3/5
f 991/3/5 985/3/5 989/3/5
f 991/3/5 989/3/5 990/3/5
f 996/4/5 993/4/5 992/4/5
f 997/4/5 995/4/5 994/4/5
f 1000/4/5 996/4/5 992/4/5
f 1001/4/5 996/4/5 1000/4/5
f 1002/4/5 995/4/5 997/4/5
f 1003/4/5 995/4/5 1002/4/5
f 1004/3/5 999/3/5 998/3/5
f 1005/3/5 999/3/5 1004/3/5
f 1006/2/6 1007/2/6 1010/2/6
f 1010/2/6 1007/2/6 1011/2/6
f 1008/2/6 1009/2/6 1014/2/6
f 1014/2/6 1009/2/6 1015/2/6
f 1011/2/6 1012/2/6 1016/2/6
f 1016/2/6 1012/2/6 1017/2/6
f 1013/2/6 1014/2/6 1020/2/6
f 1020/2/6 1014/2/6 1021/2/6
f 1017/2/6 1018/2/6 1022/2/6
f 1022/2/6 1018/2/6 1023/2/6
f 1019/2/6 1020/2/6 1024/2/6
f 1024/2/6 1020/2/6 1025/2/6
f 1026/2/6 1027/2/6 1031/2/6
f 1031/2/6 1027/2/6 1032/2/6
f 1028/2/6 1029/2/6 1033/2/6
f 1033/2/6 1029/2/6 1034/2/6
f 1030/2/6 1031/2/6 1037/2/6
f 1037/2/6 1031/2/6 1038/2/6
f 1034/2/6 1035/2/6 1039/2/6
f 1039/2/6 1035/2/6 1040/2/6
f 1036/2/6 1037/2/6 1042/2/6
f 1042/2/6 1037/2/6 1043/2/6
f 1040/2/6 1041/2/6 1044/2/6
f 1044/2/6 1041/2/6 1045/2/6
f 1046/1/6 1047/1/6 1050/1/6
f 1050/1/6 1047/1/6 1051/1/6
f 1048/1/6 1049/1/6 1052/1/6
f 1052/1/6 1049/1/6 1053/1/6
f 1051/1/6 1052/1/6 1054/1/6
f 1051/1/6 1054/1/6 1056/1/6
f 1054/1/6 1055/1/6 1056/1/6
f 1056/1/6 1055/1/6 1057/1/6
f 1051/1/6 1056/1/6 1058/1/6
f 1056/12/6 1057/12/6 1058/12/6
f 1057/1/6 1055/1/6 1059/1/6
f 1058/12/6 1057/12/6 1059/12/6
f 1058/1/6 1059/1/6 1060/1/6
f 1059/1/6 1055/1/6 1060/1/6
f 1060/1/6 1055/1/6 1061/1/6
f 1051/1/6 1058/1/6 1063/1/6
f 1058/1/6 1060/1/6 1063/1/6
f 1063/1/6 1060/1/6 1064/1/6
f 1062/1/6 1063/1/6 1066/1/6
f 1066/1/6 1063/1/6 1067/1/6
f 1064/1/6 1065/1/6 1068/1/6
f 1068/1/6 1065/1/6 1069/1/6
f 1070/6/6 1071/6/6 1074/6/6
f 1074/6/6 1071/6/6 1075/6/6
f 1072/10/6 1073/10/6 1076/10/6
f 1076/10/6 1073/10/6 1077/10/6
f 1078/6/6 1079/6/6 1081/6/6
f 1079/10/6 1080/10/6 1082/10/6
f 1081/6/6 1079/6/6 1082/6/6
f 1082/10/6 1080/10/6 1083/10/6
f 1084/2/6 1085/2/6 1087/2/6
f 1087/2/6 1085/2/6 1088/2/6
f 1088/2/6 1085/2/6 1089/2/6
f 1089/2/6 1085/2/6 1090/2/6
f 1086/2/6 1087/2/6 1092/2/6
f 1090/2/6 1091/2/6 1093/2/6
f 1086/2/6 1092/2/6 1094/2/6
f 1093/2/6 1091/2/6 1095/2/6
f 1086/2/6 1094/2/6 1096/2/6
f 1096/2/6 1094/2/6 1097/2/6
f 1095/2/6 1091/2/6 1100/2/6
f 1100/2/6 1091/2/6 1101/2/6
f 1098/2/6 1099/2/6 1102/2/6
f 1099/2/6 1100/2/6 1102/2/6
f 1097/2/6 1098/2/6 1102/2/6
f 1102/2/6 1100/2/6 1103/2/6
f 1104/8/6 1105/8/6 1106/8/6
f 1106/8/6 1105/8/6 1107/8/6
f 1108/5/6 1109/5/6 1113/5/6
f 1113/5/6 1109/5/6 1114/5/6
f 1110/5/6 1111/5/6 1115/5/6
f 1115/5/6 1111/5/6 1116/5/6
f 1112/3/6 1113/3/6 1118/3/6
f 1118/3/6 1113/3/6 1119/3/6
f 1116/3/6 1117/3/6 1120/3/6
f 1120/3/6 1117/3/6 1121/3/6
f 1122/3/6 1123/3/6 1126/3/6
f 1126/3/6 1123/3/6 1127/3/6
f 1124/3/6 1125/3/6 1128/3/6
f 1128/3/6 1125/3/6 1129/3/6
f 1127/3/6 1128/3/6 1130/3/6
f 1130/3/6 1128/3/6 1131/3/6
f 1132/4/6 1133/4/6 1136/4/6
f 1136/4/6 1133/4/6 1137/4/6
f 1134/3/6 1135/3/6 1141/3/6
f 1141/3/6 1135/3/6 1142/3/6
f 1138/3/6 1139/3/6 1143/3/6
f 1143/3/6 1139/3/6 1144/3/6
f 1140/3/6 1141/3/6 1147/3/6
f 1144/3/6 1145/3/6 1148/3/6
f 1146/4/6 1147/4/6 1150/4/6
f 1147/3/6 1141/3/6 1151/3/6
f 1150/4/6 1147/4/6 1151/4/6
f 1148/4/6 1149/4/6 1152/4/6
f 1144/3/6 1148/3/6 1152/3/6
f 1152/4/6 1149/4/6 1153/4/6
f 1151/3/6 1141/3/6 1154/3/6
f 1144/3/6 1152/3/6 1155/3/6
f 1151/3/6 1154/3/6 1156/3/6
f 1154/3/6 1155/3/6 1156/3/6
f 1155/3/6 1152/3/6 1157/3/6
f 1156/3/6 1155/3/6 1157/3/6
f 1158/4/6 1159/4/6 1162/4/6
f 1162/4/6 1159/4/6 1163/4/6
f 1163/4/6 1159/4/6 1164/4/6
f 1160/4/6 1161/4/6 1165/4/6
f 1165/4/6 1161/4/6 1166/4/6
f 1166/4/6 1161/4/6 1167/4/6
f 1163/3/6 1164/3/6 1169/3/6
f 1165/3/6 1166/3/6 1169/3/6
f 1164/3/6 1165/3/6 1169/3/6
f 1169/3/6 1166/3/6 1170/3/6
f 1168/3/6 1169/3/6 1172/3/6
f 1170/3/6 1171/3/6 1172/3/6
f 1169/3/6 1170/3/6 1172/3/6
f 1172/3/6 1171/3/6 1173/3/6
f 1168/3/6 1172/3/6 1174/3/6
f 1174/3/6 1172/3/6 1175/3/6
f 1173/3/6 1171/3/6 1176/3/6
f 1176/3/6 1171/3/6 1177/3/6
f 1158/4/6 1162/4/6 1178/4/6
f 1178/4/6 1162/4/6 1179/4/6
f 1167/4/6 1161/4/6 1180/4/6
f 1180/4/6 1161/4/6 1181/4/6
f 1168/3/6 1174/3/6 1182/3/6
f 1177/3/6 1171/3/6 1185/3/6
f 1182/3/6 1183/3/6 1186/3/6
f 1184/3/6 1185/3/6 1187/3/6
f 1182/3/6 1186/3/6 1188/3/6
f 1186/3/6 1187/3/6 1188/3/6
f 1168/3/6 1182/3/6 1188/3/6
f 1187/3/6 1185/3/6 1189/3/6
f 1188/3/6 1187/3/6 1189/3/6
f 1185/3/6 1171/3/6 1189/3/6
f 1190/7/6 1191/7/6 1195/7/6
f 1195/7/6 1191/7/6 1196/7/6
f 1192/7/6 1193/7/6 1197/7/6
f 1197/7/6 1193/7/6 1198/7/6
f 1195/7/6 1196/7/6 1200/7/6
f 1198/7/6 1199/7/6 1200/7/6
f 1197/7/6 1198/7/6 1200/7/6
f 1196/7/6 1197/7/6 1200/7/6
f 1194/7/6 1195/7/6 1200/7/6
f 1200/7/6 1199/7/6 1201/7/6
f 1201/7/6 1199/7/6 1202/7/6
f 1202/7/6 1199/7/6 1203/7/6
f 1201/7/6 1202/7/6 1205/7/6
f 1205/7/6 1202/7/6 1206/7/6
f 1204/7/6 1205/7/6 1208/7/6
f 1206/7/6 1207/7/6 1208/7/6
f 1205/7/6 1206/7/6 1208/7/6
f 1208/7/6 1207/7/6 1209/7/6
f 1209/7/6 1207/7/6 1210/7/6
f 1210/7/6 1207/7/6 1211/7/6
f 1211/7/6 1207/7/6 1212/7/6
f 1212/7/6 1207/7/6 1213/7/6
f 1209/7/6 1210/7/6 1214/7/6
f 1214/7/6 1210/7/6 1215/7/6
f 1211/7/6 1212/7/6 1216/7/6
f 1216/7/6 1212/7/6 1217/7/6
f 1218/7/6 1219/7/6 1220/7/6
f 1220/7/6 1219/7/6 1221/7/6
f 1222/7/6 1223/7/6 1226/7/6
f 1226/7/6 1223/7/6 1227/7/6
f 1224/7/6 1225/7/6 1228/7/6
f 1228/7/6 1225/7/6 1229/7/6
f 1230/7/6 1231/7/6 1232/7/6
f 1232/7/6 1231/7/6 1233/7/6
