# Blender 5.0.0
# www.blender.org
mtllib HiyokoPropeller.mtl
o Untitled
v -0.766575 -0.456897 0.425754
v -0.766575 -0.456897 -0.674246
v -0.766575 0.243103 0.425753
v -0.766575 0.243103 -0.674246
v -0.766575 0.343103 0.425753
v -0.766575 0.343103 -0.674246
v -0.666575 -0.556897 0.425754
v -0.666575 -0.556897 -0.674246
v -0.666575 -0.456897 0.525754
v -0.666575 -0.456897 0.425754
v -0.666575 -0.456897 -0.674246
v -0.666575 -0.456897 -0.774246
v -0.666575 0.243103 0.525753
v -0.666575 0.243103 0.425753
v -0.666575 0.243103 -0.674246
v -0.666575 0.243103 -0.774247
v -0.666575 0.343103 0.525753
v -0.666575 0.343103 0.425753
v -0.666575 0.343103 0.325753
v -0.666575 0.343103 -0.574247
v -0.666575 0.343103 -0.674246
v -0.666575 0.343103 -0.774247
v -0.666575 0.443103 0.325753
v -0.666575 0.443103 0.225753
v -0.666575 0.543103 0.325753
v -0.666575 0.543103 0.225753
v -0.666575 0.543103 -0.574247
v -0.566575 -0.456897 0.425754
v -0.566575 -0.456897 0.325754
v -0.566575 -0.456897 -0.574246
v -0.566575 -0.456897 -0.674246
v -0.566575 0.243103 0.425753
v -0.566575 0.243103 -0.674246
v -0.566575 0.343103 0.425753
v -0.566575 0.343103 -0.674246
v -0.566575 0.443103 0.425753
v -0.566575 0.443103 0.325753
v -0.566575 0.543103 0.425753
v -0.566575 0.543103 0.325753
v -0.566575 0.543103 0.225753
v -0.566575 0.543103 -0.574247
v -0.566575 0.543103 -0.674247
v -0.566575 0.643103 0.325753
v -0.566575 0.643103 -0.574247
v -0.466575 0.543103 0.425753
v -0.466575 0.543103 0.325753
v -0.466575 0.643103 0.425753
v -0.466575 0.643103 0.325753
v -0.466575 0.643103 -0.474247
v -0.466575 0.743103 0.325753
v -0.466575 0.743103 -0.474247
v -0.366575 -0.756897 0.225754
v -0.366575 -0.756897 0.125754
v -0.366575 -0.756897 -0.374246
v -0.366575 -0.756897 -0.474246
v -0.366575 -0.656897 0.225754
v -0.366575 -0.656897 0.125754
v -0.366575 -0.656897 -0.374246
v -0.366575 -0.656897 -0.474246
v -0.366575 0.643103 0.425753
v -0.366575 0.643103 0.325753
v -0.366575 0.743103 0.425753
v -0.366575 0.743103 0.325753
v -0.266575 -0.756897 0.125754
v -0.266575 -0.756897 0.025754
v -0.266575 -0.756897 -0.274246
v -0.266575 -0.756897 -0.374246
v -0.266575 -0.656897 0.125754
v -0.266575 -0.656897 0.025754
v -0.266575 -0.656897 -0.274246
v -0.266575 -0.656897 -0.374246
v -0.266575 -0.256897 0.625754
v -0.266575 -0.256897 0.525753
v -0.266575 0.043103 0.625754
v -0.266575 0.043103 0.525753
v -0.266575 0.743103 0.125753
v -0.266575 0.743103 -0.174247
v -0.266575 0.843103 0.125753
v -0.266575 0.843103 0.025753
v -0.266575 0.843103 -0.074247
v -0.266575 0.843103 -0.174247
v -0.266575 0.943103 0.025753
v -0.266575 0.943103 -0.074247
v -0.166575 -0.756897 0.025754
v -0.166575 -0.756897 -0.074246
v -0.166575 -0.756897 -0.174246
v -0.166575 -0.756897 -0.274246
v -0.166575 -0.656897 0.025754
v -0.166575 -0.656897 -0.074246
v -0.166575 -0.656897 -0.174246
v -0.166575 -0.656897 -0.274246
v -0.166575 -0.556897 -0.074246
v -0.166575 -0.556897 -0.174246
v -0.166575 -0.356897 0.625754
v -0.166575 -0.356897 0.525753
v -0.166575 -0.256897 0.625754
v -0.166575 -0.256897 0.525753
v -0.166575 0.043103 0.625754
v -0.166575 0.043103 0.525753
v -0.166575 0.143103 0.625754
v -0.166575 0.143103 0.525753
v -0.166575 0.443103 0.625753
v -0.166575 0.443103 0.425753
v -0.166575 0.543103 0.625753
v -0.166575 0.543103 0.425753
v -0.166575 0.743103 0.225753
v -0.166575 0.743103 0.125753
v -0.166575 0.743103 -0.174247
v -0.166575 0.743103 -0.274247
v -0.166575 0.843103 0.225753
v -0.166575 0.843103 0.125753
v -0.166575 0.843103 -0.174247
v -0.166575 0.843103 -0.274247
v -0.066575 -0.856897 -0.074246
v -0.066575 -0.856897 -0.174246
v -0.066575 -0.756897 -0.074246
v -0.066575 -0.756897 -0.174246
v -0.066575 -0.656897 0.025754
v -0.066575 -0.656897 -0.074246
v -0.066575 -0.656897 -0.174246
v -0.066575 -0.656897 -0.274246
v -0.066575 -0.556897 0.025754
v -0.066575 -0.556897 -0.074246
v -0.066575 -0.556897 -0.174246
v -0.066575 -0.556897 -0.274246
v -0.066575 0.843103 0.225753
v -0.066575 0.843103 0.125753
v -0.066575 0.843103 -0.174247
v -0.066575 0.843103 -0.274247
v -0.066575 0.943103 0.225753
v -0.066575 0.943103 0.125753
v -0.066575 0.943103 -0.174247
v -0.066575 0.943103 -0.274247
v 0.033425 -0.756897 0.025754
v 0.033425 -0.756897 -0.074246
v 0.033425 -0.756897 -0.174246
v 0.033425 -0.756897 -0.274246
v 0.033425 -0.656897 0.025754
v 0.033425 -0.656897 -0.074246
v 0.033425 -0.656897 -0.174246
v 0.033425 -0.656897 -0.274246
v 0.133425 -0.756897 0.125754
v 0.133425 -0.756897 0.025754
v 0.133425 -0.756897 -0.274246
v 0.133425 -0.756897 -0.374246
v 0.133425 -0.656897 0.125754
v 0.133425 -0.656897 0.025754
v 0.133425 -0.656897 -0.274246
v 0.133425 -0.656897 -0.374246
v 0.133425 0.843103 0.025753
v 0.133425 0.843103 -0.074247
v 0.133425 0.943103 0.025753
v 0.133425 0.943103 -0.074247
v 0.233425 -0.756897 0.225754
v 0.233425 -0.756897 0.125754
v 0.233425 -0.756897 -0.374246
v 0.233425 -0.756897 -0.474246
v 0.233425 -0.656897 0.225754
v 0.233425 -0.656897 0.125754
v 0.233425 -0.656897 -0.374246
v 0.233425 -0.656897 -0.474246
v 0.433425 0.543103 0.225753
v 0.433425 0.543103 -0.474247
v 0.433425 0.643103 0.225753
v 0.433425 0.643103 -0.474247
v 0.533425 -0.456897 0.325754
v 0.533425 -0.456897 0.225754
v 0.533425 -0.456897 -0.474246
v 0.533425 -0.456897 -0.574246
v 0.533425 0.343103 0.225753
v 0.533425 0.343103 -0.474247
v 0.533425 0.443103 0.325753
v 0.533425 0.443103 0.225753
v 0.533425 0.543103 0.325753
v 0.533425 0.543103 0.225753
v 0.533425 0.543103 -0.574247
v 0.633425 -0.456897 0.425754
v 0.633425 -0.456897 0.325754
v 0.633425 -0.456897 0.225754
v 0.633425 -0.456897 -0.474246
v 0.633425 -0.456897 -0.574246
v 0.633425 -0.456897 -0.674246
v 0.633425 0.243103 0.425753
v 0.633425 0.243103 0.325753
v 0.633425 0.243103 0.225753
v 0.633425 0.243103 -0.474247
v 0.633425 0.243103 -0.574247
v 0.633425 0.243103 -0.674246
v 0.633425 0.343103 0.425753
v 0.633425 0.343103 0.325753
v 0.633425 0.343103 0.225753
v 0.633425 0.343103 -0.474247
v 0.633425 0.343103 -0.574247
v 0.633425 0.343103 -0.674246
v -0.666575 -0.456897 0.425754
v -0.666575 -0.456897 0.325754
v -0.666575 -0.456897 -0.574246
v -0.666575 -0.456897 -0.674246
v -0.666575 0.243103 0.425753
v -0.666575 0.243103 0.325753
v -0.666575 0.243103 -0.574247
v -0.666575 0.243103 -0.674246
v -0.666575 0.343103 0.425753
v -0.666575 0.343103 0.325753
v -0.666575 0.343103 -0.574247
v -0.666575 0.343103 -0.674246
v -0.566575 -0.456897 0.325754
v -0.566575 -0.456897 -0.574246
v -0.566575 0.443103 0.325753
v -0.566575 0.443103 0.225753
v -0.566575 0.543103 0.325753
v -0.566575 0.543103 0.225753
v -0.566575 0.543103 -0.574247
v -0.466575 0.543103 0.225753
v -0.466575 0.543103 -0.474247
v -0.466575 0.643103 0.225753
v -0.466575 0.643103 -0.474247
v -0.266575 -0.756897 0.225754
v -0.266575 -0.756897 0.125754
v -0.266575 -0.756897 -0.374246
v -0.266575 -0.756897 -0.474246
v -0.266575 -0.656897 0.225754
v -0.266575 -0.656897 0.125754
v -0.266575 -0.656897 -0.374246
v -0.266575 -0.656897 -0.474246
v -0.166575 -0.756897 0.125754
v -0.166575 -0.756897 0.025754
v -0.166575 -0.756897 -0.274246
v -0.166575 -0.756897 -0.374246
v -0.166575 -0.656897 0.125754
v -0.166575 -0.656897 0.025754
v -0.166575 -0.656897 -0.274246
v -0.166575 -0.656897 -0.374246
v -0.166575 0.843103 0.025753
v -0.166575 0.843103 -0.074247
v -0.166575 0.943103 0.025753
v -0.166575 0.943103 -0.074247
v -0.066575 -0.756897 0.025754
v -0.066575 -0.756897 -0.074246
v -0.066575 -0.756897 -0.174246
v -0.066575 -0.756897 -0.274246
v -0.066575 -0.656897 0.025754
v -0.066575 -0.656897 -0.074246
v -0.066575 -0.656897 -0.174246
v -0.066575 -0.656897 -0.274246
v 0.033425 -0.856897 -0.074246
v 0.033425 -0.856897 -0.174246
v 0.033425 -0.756897 -0.074246
v 0.033425 -0.756897 -0.174246
v 0.033425 -0.656897 0.025754
v 0.033425 -0.656897 -0.074246
v 0.033425 -0.656897 -0.174246
v 0.033425 -0.656897 -0.274246
v 0.033425 -0.556897 0.025754
v 0.033425 -0.556897 -0.074246
v 0.033425 -0.556897 -0.174246
v 0.033425 -0.556897 -0.274246
v 0.033425 0.843103 0.225753
v 0.033425 0.843103 0.125753
v 0.033425 0.843103 -0.174247
v 0.033425 0.843103 -0.274247
v 0.033425 0.943103 0.225753
v 0.033425 0.943103 0.125753
v 0.033425 0.943103 -0.174247
v 0.033425 0.943103 -0.274247
v 0.133425 -0.756897 0.025754
v 0.133425 -0.756897 -0.074246
v 0.133425 -0.756897 -0.174246
v 0.133425 -0.756897 -0.274246
v 0.133425 -0.656897 0.025754
v 0.133425 -0.656897 -0.074246
v 0.133425 -0.656897 -0.174246
v 0.133425 -0.656897 -0.274246
v 0.133425 -0.556897 -0.074246
v 0.133425 -0.556897 -0.174246
v 0.133425 -0.356897 0.625754
v 0.133425 -0.356897 0.525753
v 0.133425 -0.256897 0.625754
v 0.133425 -0.256897 0.525753
v 0.133425 0.043103 0.625754
v 0.133425 0.043103 0.525753
v 0.133425 0.143103 0.625754
v 0.133425 0.143103 0.525753
v 0.133425 0.443103 0.625753
v 0.133425 0.443103 0.425753
v 0.133425 0.543103 0.625753
v 0.133425 0.543103 0.425753
v 0.133425 0.743103 0.225753
v 0.133425 0.743103 0.125753
v 0.133425 0.743103 -0.174247
v 0.133425 0.743103 -0.274247
v 0.133425 0.843103 0.225753
v 0.133425 0.843103 0.125753
v 0.133425 0.843103 -0.174247
v 0.133425 0.843103 -0.274247
v 0.233425 -0.756897 0.125754
v 0.233425 -0.756897 0.025754
v 0.233425 -0.756897 -0.274246
v 0.233425 -0.756897 -0.374246
v 0.233425 -0.656897 0.125754
v 0.233425 -0.656897 0.025754
v 0.233425 -0.656897 -0.274246
v 0.233425 -0.656897 -0.374246
v 0.233425 -0.256897 0.625754
v 0.233425 -0.256897 0.525753
v 0.233425 -0.156897 0.625754
v 0.233425 -0.156897 0.525753
v 0.233425 0.043103 0.625754
v 0.233425 0.043103 0.525753
v 0.233425 0.743103 0.125753
v 0.233425 0.743103 -0.174247
v 0.233425 0.843103 0.125753
v 0.233425 0.843103 0.025753
v 0.233425 0.843103 -0.074247
v 0.233425 0.843103 -0.174247
v 0.233425 0.943103 0.025753
v 0.233425 0.943103 -0.074247
v 0.333425 -0.756897 0.225754
v 0.333425 -0.756897 0.125754
v 0.333425 -0.756897 -0.374246
v 0.333425 -0.756897 -0.474246
v 0.333425 -0.656897 0.225754
v 0.333425 -0.656897 0.125754
v 0.333425 -0.656897 -0.374246
v 0.333425 -0.656897 -0.474246
v 0.333425 0.643103 0.425753
v 0.333425 0.643103 0.325753
v 0.333425 0.743103 0.425753
v 0.333425 0.743103 0.325753
v 0.433425 0.543103 0.425753
v 0.433425 0.543103 0.325753
v 0.433425 0.643103 0.425753
v 0.433425 0.643103 0.325753
v 0.433425 0.643103 -0.474247
v 0.433425 0.743103 0.325753
v 0.433425 0.743103 -0.474247
v 0.533425 -0.456897 0.425754
v 0.533425 -0.456897 0.325754
v 0.533425 -0.456897 -0.574246
v 0.533425 -0.456897 -0.674246
v 0.533425 0.243103 0.425753
v 0.533425 0.243103 -0.674246
v 0.533425 0.343103 0.425753
v 0.533425 0.343103 -0.674246
v 0.533425 0.443103 0.425753
v 0.533425 0.443103 0.325753
v 0.533425 0.543103 0.425753
v 0.533425 0.543103 0.325753
v 0.533425 0.543103 0.225753
v 0.533425 0.543103 -0.574247
v 0.533425 0.543103 -0.674247
v 0.533425 0.643103 0.325753
v 0.533425 0.643103 -0.574247
v 0.633425 -0.556897 0.425754
v 0.633425 -0.556897 -0.674246
v 0.633425 -0.456897 0.525754
v 0.633425 -0.456897 0.425754
v 0.633425 -0.456897 -0.674246
v 0.633425 -0.456897 -0.774246
v 0.633425 0.243103 0.525753
v 0.633425 0.243103 0.425753
v 0.633425 0.243103 -0.674246
v 0.633425 0.243103 -0.774247
v 0.633425 0.343103 0.525753
v 0.633425 0.343103 0.425753
v 0.633425 0.343103 0.325753
v 0.633425 0.343103 -0.574247
v 0.633425 0.343103 -0.674246
v 0.633425 0.343103 -0.774247
v 0.633425 0.443103 0.325753
v 0.633425 0.443103 0.225753
v 0.633425 0.543103 0.325753
v 0.633425 0.543103 0.225753
v 0.633425 0.543103 -0.574247
v 0.733425 -0.456897 0.425754
v 0.733425 -0.456897 -0.674246
v 0.733425 0.243103 0.425753
v 0.733425 0.243103 -0.674246
v 0.733425 0.343103 0.425753
v 0.733425 0.343103 -0.674246
v -0.266575 -0.256897 0.625754
v -0.266575 0.043103 0.625754
v -0.166575 -0.356897 0.625754
v -0.166575 -0.256897 0.625754
v -0.166575 0.043103 0.625754
v -0.166575 0.143103 0.625754
v -0.166575 0.443103 0.625753
v -0.166575 0.543103 0.625753
v -0.066575 0.043103 0.625754
v -0.066575 0.143103 0.625754
v 0.033425 -0.056897 0.625754
v 0.033425 0.043103 0.625754
v 0.133425 -0.356897 0.625754
v 0.133425 -0.256897 0.625754
v 0.133425 -0.156897 0.625754
v 0.133425 -0.056897 0.625754
v 0.133425 0.043103 0.625754
v 0.133425 0.143103 0.625754
v 0.133425 0.443103 0.625753
v 0.133425 0.543103 0.625753
v 0.233425 -0.256897 0.625754
v 0.233425 -0.156897 0.625754
v 0.233425 0.043103 0.625754
v -0.666575 -0.456897 0.525754
v -0.666575 0.243103 0.525753
v -0.666575 0.343103 0.525753
v -0.266575 -0.256897 0.525753
v -0.266575 0.043103 0.525753
v -0.166575 -0.356897 0.525753
v -0.166575 -0.256897 0.525753
v -0.166575 0.043103 0.525753
v -0.166575 0.143103 0.525753
v -0.066575 0.143103 0.525753
v 0.133425 -0.356897 0.525753
v 0.133425 -0.256897 0.525753
v 0.133425 0.043103 0.525753
v 0.133425 0.143103 0.525753
v 0.233425 -0.256897 0.525753
v 0.233425 -0.156897 0.525753
v 0.233425 0.043103 0.525753
v 0.633425 -0.456897 0.525754
v 0.633425 0.243103 0.525753
v 0.633425 0.343103 0.525753
v -0.766575 -0.456897 0.425754
v -0.766575 0.243103 0.425753
v -0.766575 0.343103 0.425753
v -0.666575 -0.556897 0.425754
v -0.666575 -0.456897 0.425754
v -0.666575 0.243103 0.425753
v -0.666575 0.343103 0.425753
v -0.566575 0.343103 0.425753
v -0.566575 0.443103 0.425753
v -0.566575 0.543103 0.425753
v -0.466575 0.443103 0.425753
v -0.466575 0.543103 0.425753
v -0.466575 0.643103 0.425753
v -0.366575 0.543103 0.425753
v -0.366575 0.643103 0.425753
v -0.366575 0.743103 0.425753
v -0.266575 0.543103 0.425753
v -0.266575 0.643103 0.425753
v -0.166575 0.443103 0.425753
v -0.166575 0.543103 0.425753
v -0.166575 0.643103 0.425753
v 0.133425 0.443103 0.425753
v 0.133425 0.543103 0.425753
v 0.133425 0.643103 0.425753
v 0.233425 0.543103 0.425753
v 0.233425 0.643103 0.425753
v 0.333425 0.543103 0.425753
v 0.333425 0.643103 0.425753
v 0.333425 0.743103 0.425753
v 0.433425 0.443103 0.425753
v 0.433425 0.543103 0.425753
v 0.433425 0.643103 0.425753
v 0.533425 0.343103 0.425753
v 0.533425 0.443103 0.425753
v 0.533425 0.543103 0.425753
v 0.633425 -0.556897 0.425754
v 0.633425 -0.456897 0.425754
v 0.633425 0.243103 0.425753
v 0.633425 0.343103 0.425753
v 0.733425 -0.456897 0.425754
v 0.733425 0.243103 0.425753
v 0.733425 0.343103 0.425753
v -0.666575 -0.456897 0.325754
v -0.666575 0.243103 0.325753
v -0.666575 0.343103 0.325753
v -0.666575 0.443103 0.325753
v -0.666575 0.543103 0.325753
v -0.566575 -0.456897 0.325754
v -0.566575 0.443103 0.325753
v -0.566575 0.543103 0.325753
v -0.566575 0.643103 0.325753
v -0.466575 0.543103 0.325753
v -0.466575 0.643103 0.325753
v -0.466575 0.743103 0.325753
v -0.366575 0.643103 0.325753
v -0.366575 0.743103 0.325753
v 0.333425 0.643103 0.325753
v 0.333425 0.743103 0.325753
v 0.433425 0.543103 0.325753
v 0.433425 0.643103 0.325753
v 0.433425 0.743103 0.325753
v 0.533425 -0.456897 0.325754
v 0.533425 0.443103 0.325753
v 0.533425 0.543103 0.325753
v 0.533425 0.643103 0.325753
v 0.633425 -0.456897 0.325754
v 0.633425 0.243103 0.325753
v 0.633425 0.343103 0.325753
v 0.633425 0.443103 0.325753
v 0.633425 0.543103 0.325753
v -0.366575 -0.756897 0.225754
v -0.366575 -0.656897 0.225754
v -0.266575 -0.756897 0.225754
v -0.266575 -0.656897 0.225754
v -0.166575 0.743103 0.225753
v -0.166575 0.843103 0.225753
v -0.066575 0.843103 0.225753
v -0.066575 0.943103 0.225753
v 0.033425 0.843103 0.225753
v 0.033425 0.943103 0.225753
v 0.133425 0.743103 0.225753
v 0.133425 0.843103 0.225753
v 0.233425 -0.756897 0.225754
v 0.233425 -0.656897 0.225754
v 0.333425 -0.756897 0.225754
v 0.333425 -0.656897 0.225754
v -0.266575 -0.756897 0.125754
v -0.266575 -0.656897 0.125754
v -0.266575 0.743103 0.125753
v -0.266575 0.843103 0.125753
v -0.166575 -0.756897 0.125754
v -0.166575 -0.656897 0.125754
v -0.166575 0.743103 0.125753
v -0.166575 0.843103 0.125753
v 0.133425 -0.756897 0.125754
v 0.133425 -0.656897 0.125754
v 0.133425 0.743103 0.125753
v 0.133425 0.843103 0.125753
v 0.233425 -0.756897 0.125754
v 0.233425 -0.656897 0.125754
v 0.233425 0.743103 0.125753
v 0.233425 0.843103 0.125753
v -0.266575 0.843103 0.025753
v -0.266575 0.943103 0.025753
v -0.166575 -0.756897 0.025754
v -0.166575 -0.656897 0.025754
v -0.166575 0.843103 0.025753
v -0.166575 0.943103 0.025753
v -0.066575 -0.756897 0.025754
v -0.066575 -0.656897 0.025754
v -0.066575 -0.556897 0.025754
v 0.033425 -0.756897 0.025754
v 0.033425 -0.656897 0.025754
v 0.033425 -0.556897 0.025754
v 0.133425 -0.756897 0.025754
v 0.133425 -0.656897 0.025754
v 0.133425 0.843103 0.025753
v 0.133425 0.943103 0.025753
v 0.233425 0.843103 0.025753
v 0.233425 0.943103 0.025753
v -0.166575 -0.656897 -0.074246
v -0.166575 -0.556897 -0.074246
v -0.066575 -0.856897 -0.074246
v -0.066575 -0.756897 -0.074246
v -0.066575 -0.656897 -0.074246
v -0.066575 -0.556897 -0.074246
v 0.033425 -0.856897 -0.074246
v 0.033425 -0.756897 -0.074246
v 0.033425 -0.656897 -0.074246
v 0.033425 -0.556897 -0.074246
v 0.133425 -0.656897 -0.074246
v 0.133425 -0.556897 -0.074246
v -0.166575 -0.756897 -0.174246
v -0.166575 -0.656897 -0.174246
v -0.066575 -0.756897 -0.174246
v -0.066575 -0.656897 -0.174246
v -0.066575 0.843103 -0.174247
v -0.066575 0.943103 -0.174247
v 0.033425 -0.756897 -0.174246
v 0.033425 -0.656897 -0.174246
v 0.033425 0.843103 -0.174247
v 0.033425 0.943103 -0.174247
v 0.133425 -0.756897 -0.174246
v 0.133425 -0.656897 -0.174246
v -0.266575 -0.756897 -0.274246
v -0.266575 -0.656897 -0.274246
v -0.166575 -0.756897 -0.274246
v -0.166575 -0.656897 -0.274246
v 0.133425 -0.756897 -0.274246
v 0.133425 -0.656897 -0.274246
v 0.233425 -0.756897 -0.274246
v 0.233425 -0.656897 -0.274246
v -0.366575 -0.756897 -0.374246
v -0.366575 -0.656897 -0.374246
v -0.266575 -0.756897 -0.374246
v -0.266575 -0.656897 -0.374246
v 0.233425 -0.756897 -0.374246
v 0.233425 -0.656897 -0.374246
v 0.333425 -0.756897 -0.374246
v 0.333425 -0.656897 -0.374246
v -0.466575 0.543103 -0.474247
v -0.466575 0.643103 -0.474247
v 0.433425 0.543103 -0.474247
v 0.433425 0.643103 -0.474247
v 0.533425 -0.456897 -0.474246
v 0.533425 0.343103 -0.474247
v 0.633425 -0.456897 -0.474246
v 0.633425 0.243103 -0.474247
v 0.633425 0.343103 -0.474247
v -0.566575 -0.456897 -0.574246
v -0.566575 0.543103 -0.574247
v 0.533425 -0.456897 -0.574246
v 0.533425 0.543103 -0.574247
v -0.666575 -0.456897 -0.674246
v -0.666575 0.243103 -0.674246
v -0.666575 0.343103 -0.674246
v -0.566575 -0.456897 -0.674246
v -0.566575 0.243103 -0.674246
v -0.566575 0.343103 -0.674246
v 0.533425 -0.456897 -0.674246
v 0.533425 0.243103 -0.674246
v 0.533425 0.343103 -0.674246
v 0.633425 -0.456897 -0.674246
v 0.633425 0.243103 -0.674246
v 0.633425 0.343103 -0.674246
v -0.666575 -0.456897 0.425754
v -0.666575 0.243103 0.425753
v -0.666575 0.343103 0.425753
v -0.566575 -0.456897 0.425754
v -0.566575 0.243103 0.425753
v -0.566575 0.343103 0.425753
v 0.533425 -0.456897 0.425754
v 0.533425 0.243103 0.425753
v 0.533425 0.343103 0.425753
v 0.633425 -0.456897 0.425754
v 0.633425 0.243103 0.425753
v 0.633425 0.343103 0.425753
v -0.566575 -0.456897 0.325754
v -0.566575 0.443103 0.325753
v -0.566575 0.543103 0.325753
v -0.466575 0.443103 0.325753
v -0.466575 0.543103 0.325753
v 0.433425 0.443103 0.325753
v 0.433425 0.543103 0.325753
v 0.533425 -0.456897 0.325754
v 0.533425 0.443103 0.325753
v 0.533425 0.543103 0.325753
v -0.466575 0.543103 0.225753
v -0.466575 0.643103 0.225753
v 0.433425 0.543103 0.225753
v 0.433425 0.643103 0.225753
v 0.533425 -0.456897 0.225754
v 0.533425 0.343103 0.225753
v 0.633425 -0.456897 0.225754
v 0.633425 0.243103 0.225753
v 0.633425 0.343103 0.225753
v -0.366575 -0.756897 0.125754
v -0.366575 -0.656897 0.125754
v -0.266575 -0.756897 0.125754
v -0.266575 -0.656897 0.125754
v -0.066575 0.843103 0.125753
v -0.066575 0.943103 0.125753
v 0.033425 0.843103 0.125753
v 0.033425 0.943103 0.125753
v 0.233425 -0.756897 0.125754
v 0.233425 -0.656897 0.125754
v 0.333425 -0.756897 0.125754
v 0.333425 -0.656897 0.125754
v -0.266575 -0.756897 0.025754
v -0.266575 -0.656897 0.025754
v -0.166575 -0.756897 0.025754
v -0.166575 -0.656897 0.025754
v 0.133425 -0.756897 0.025754
v 0.133425 -0.656897 0.025754
v 0.233425 -0.756897 0.025754
v 0.233425 -0.656897 0.025754
v -0.266575 0.843103 -0.074247
v -0.266575 0.943103 -0.074247
v -0.166575 -0.756897 -0.074246
v -0.166575 -0.656897 -0.074246
v -0.166575 0.843103 -0.074247
v -0.166575 0.943103 -0.074247
v -0.066575 -0.756897 -0.074246
v -0.066575 -0.656897 -0.074246
v 0.033425 -0.756897 -0.074246
v 0.033425 -0.656897 -0.074246
v 0.133425 -0.756897 -0.074246
v 0.133425 -0.656897 -0.074246
v 0.133425 0.843103 -0.074247
v 0.133425 0.943103 -0.074247
v 0.233425 0.843103 -0.074247
v 0.233425 0.943103 -0.074247
v -0.266575 0.743103 -0.174247
v -0.266575 0.843103 -0.174247
v -0.166575 -0.656897 -0.174246
v -0.166575 -0.556897 -0.174246
v -0.166575 0.743103 -0.174247
v -0.166575 0.843103 -0.174247
v -0.066575 -0.856897 -0.174246
v -0.066575 -0.756897 -0.174246
v -0.066575 -0.656897 -0.174246
v -0.066575 -0.556897 -0.174246
v 0.033425 -0.856897 -0.174246
v 0.033425 -0.756897 -0.174246
v 0.033425 -0.656897 -0.174246
v 0.033425 -0.556897 -0.174246
v 0.133425 -0.656897 -0.174246
v 0.133425 -0.556897 -0.174246
v 0.133425 0.743103 -0.174247
v 0.133425 0.843103 -0.174247
v 0.233425 0.743103 -0.174247
v 0.233425 0.843103 -0.174247
v -0.166575 -0.756897 -0.274246
v -0.166575 -0.656897 -0.274246
v -0.166575 0.743103 -0.274247
v -0.166575 0.843103 -0.274247
v -0.066575 -0.756897 -0.274246
v -0.066575 -0.656897 -0.274246
v -0.066575 -0.556897 -0.274246
v -0.066575 0.843103 -0.274247
v -0.066575 0.943103 -0.274247
v 0.033425 -0.756897 -0.274246
v 0.033425 -0.656897 -0.274246
v 0.033425 -0.556897 -0.274246
v 0.033425 0.843103 -0.274247
v 0.033425 0.943103 -0.274247
v 0.133425 -0.756897 -0.274246
v 0.133425 -0.656897 -0.274246
v 0.133425 0.743103 -0.274247
v 0.133425 0.843103 -0.274247
v -0.266575 -0.756897 -0.374246
v -0.266575 -0.656897 -0.374246
v -0.166575 -0.756897 -0.374246
v -0.166575 -0.656897 -0.374246
v 0.133425 -0.756897 -0.374246
v 0.133425 -0.656897 -0.374246
v 0.233425 -0.756897 -0.374246
v 0.233425 -0.656897 -0.374246
v -0.466575 0.643103 -0.474247
v -0.466575 0.743103 -0.474247
v -0.366575 -0.756897 -0.474246
v -0.366575 -0.656897 -0.474246
v -0.266575 -0.756897 -0.474246
v -0.266575 -0.656897 -0.474246
v 0.233425 -0.756897 -0.474246
v 0.233425 -0.656897 -0.474246
v 0.333425 -0.756897 -0.474246
v 0.333425 -0.656897 -0.474246
v 0.433425 0.643103 -0.474247
v 0.433425 0.743103 -0.474247
v -0.666575 -0.456897 -0.574246
v -0.666575 0.243103 -0.574247
v -0.666575 0.343103 -0.574247
v -0.666575 0.543103 -0.574247
v -0.566575 -0.456897 -0.574246
v -0.566575 0.543103 -0.574247
v -0.566575 0.643103 -0.574247
v 0.533425 -0.456897 -0.574246
v 0.533425 0.543103 -0.574247
v 0.533425 0.643103 -0.574247
v 0.633425 -0.456897 -0.574246
v 0.633425 0.243103 -0.574247
v 0.633425 0.343103 -0.574247
v 0.633425 0.543103 -0.574247
v -0.766575 -0.456897 -0.674246
v -0.766575 0.243103 -0.674246
v -0.766575 0.343103 -0.674246
v -0.666575 -0.556897 -0.674246
v -0.666575 -0.456897 -0.674246
v -0.666575 0.243103 -0.674246
v -0.666575 0.343103 -0.674246
v -0.566575 0.343103 -0.674246
v -0.566575 0.543103 -0.674247
v 0.533425 0.343103 -0.674246
v 0.533425 0.543103 -0.674247
v 0.633425 -0.556897 -0.674246
v 0.633425 -0.456897 -0.674246
v 0.633425 0.243103 -0.674246
v 0.633425 0.343103 -0.674246
v 0.733425 -0.456897 -0.674246
v 0.733425 0.243103 -0.674246
v 0.733425 0.343103 -0.674246
v -0.666575 -0.456897 -0.774246
v -0.666575 0.243103 -0.774247
v -0.666575 0.343103 -0.774247
v 0.633425 -0.456897 -0.774246
v 0.633425 0.243103 -0.774247
v 0.633425 0.343103 -0.774247
v -0.066575 -0.856897 -0.074246
v 0.033425 -0.856897 -0.074246
v -0.066575 -0.856897 -0.174246
v 0.033425 -0.856897 -0.174246
v -0.366575 -0.756897 0.225754
v -0.266575 -0.756897 0.225754
v 0.233425 -0.756897 0.225754
v 0.333425 -0.756897 0.225754
v -0.366575 -0.756897 0.125754
v -0.266575 -0.756897 0.125754
v -0.166575 -0.756897 0.125754
v 0.133425 -0.756897 0.125754
v 0.233425 -0.756897 0.125754
v 0.333425 -0.756897 0.125754
v -0.266575 -0.756897 0.025754
v -0.166575 -0.756897 0.025754
v -0.066575 -0.756897 0.025754
v 0.033425 -0.756897 0.025754
v 0.133425 -0.756897 0.025754
v 0.233425 -0.756897 0.025754
v -0.166575 -0.756897 -0.074246
v -0.066575 -0.756897 -0.074246
v 0.033425 -0.756897 -0.074246
v 0.133425 -0.756897 -0.074246
v -0.166575 -0.756897 -0.174246
v -0.066575 -0.756897 -0.174246
v 0.033425 -0.756897 -0.174246
v 0.133425 -0.756897 -0.174246
v -0.266575 -0.756897 -0.274246
v -0.166575 -0.756897 -0.274246
v -0.066575 -0.756897 -0.274246
v 0.033425 -0.756897 -0.274246
v 0.133425 -0.756897 -0.274246
v 0.233425 -0.756897 -0.274246
v -0.366575 -0.756897 -0.374246
v -0.266575 -0.756897 -0.374246
v -0.166575 -0.756897 -0.374246
v 0.133425 -0.756897 -0.374246
v 0.233425 -0.756897 -0.374246
v 0.333425 -0.756897 -0.374246
v -0.366575 -0.756897 -0.474246
v -0.266575 -0.756897 -0.474246
v 0.233425 -0.756897 -0.474246
v 0.333425 -0.756897 -0.474246
v -0.066575 -0.656897 0.025754
v 0.033425 -0.656897 0.025754
v -0.166575 -0.656897 -0.074246
v -0.066575 -0.656897 -0.074246
v 0.033425 -0.656897 -0.074246
v 0.133425 -0.656897 -0.074246
v -0.166575 -0.656897 -0.174246
v -0.066575 -0.656897 -0.174246
v 0.033425 -0.656897 -0.174246
v 0.133425 -0.656897 -0.174246
v -0.066575 -0.656897 -0.274246
v 0.033425 -0.656897 -0.274246
v -0.666575 -0.556897 0.425754
v 0.633425 -0.556897 0.425754
v -0.166575 -0.556897 0.025754
v -0.066575 -0.556897 0.025754
v 0.033425 -0.556897 0.025754
v 0.133425 -0.556897 0.025754
v -0.166575 -0.556897 -0.074246
v -0.066575 -0.556897 -0.074246
v 0.033425 -0.556897 -0.074246
v 0.133425 -0.556897 -0.074246
v -0.166575 -0.556897 -0.174246
v -0.066575 -0.556897 -0.174246
v 0.033425 -0.556897 -0.174246
v 0.133425 -0.556897 -0.174246
v -0.166575 -0.556897 -0.274246
v -0.066575 -0.556897 -0.274246
v 0.033425 -0.556897 -0.274246
v 0.133425 -0.556897 -0.274246
v -0.666575 -0.556897 -0.674246
v 0.633425 -0.556897 -0.674246
v -0.666575 -0.456897 0.525754
v 0.633425 -0.456897 0.525754
v -0.766575 -0.456897 0.425754
v -0.666575 -0.456897 0.425754
v 0.633425 -0.456897 0.425754
v 0.733425 -0.456897 0.425754
v -0.766575 -0.456897 -0.674246
v -0.666575 -0.456897 -0.674246
v 0.633425 -0.456897 -0.674246
v 0.733425 -0.456897 -0.674246
v -0.666575 -0.456897 -0.774246
v 0.633425 -0.456897 -0.774246
v -0.166575 -0.356897 0.625754
v 0.133425 -0.356897 0.625754
v -0.166575 -0.356897 0.525753
v 0.133425 -0.356897 0.525753
v -0.266575 -0.256897 0.625754
v -0.166575 -0.256897 0.625754
v 0.133425 -0.256897 0.625754
v 0.233425 -0.256897 0.625754
v -0.266575 -0.256897 0.525753
v -0.166575 -0.256897 0.525753
v 0.133425 -0.256897 0.525753
v 0.233425 -0.256897 0.525753
v 0.533425 0.343103 0.225753
v 0.633425 0.343103 0.225753
v 0.533425 0.343103 -0.474247
v 0.633425 0.343103 -0.474247
v -0.166575 0.443103 0.625753
v 0.133425 0.443103 0.625753
v -0.166575 0.443103 0.425753
v 0.133425 0.443103 0.425753
v -0.566575 0.543103 0.325753
v -0.466575 0.543103 0.325753
v 0.433425 0.543103 0.325753
v 0.533425 0.543103 0.325753
v -0.566575 0.543103 0.225753
v -0.466575 0.543103 0.225753
v 0.433425 0.543103 0.225753
v 0.533425 0.543103 0.225753
v -0.466575 0.543103 -0.474247
v 0.433425 0.543103 -0.474247
v -0.566575 0.543103 -0.574247
v 0.533425 0.543103 -0.574247
v -0.466575 0.643103 0.225753
v 0.433425 0.643103 0.225753
v -0.466575 0.643103 -0.474247
v 0.433425 0.643103 -0.474247
v -0.366575 -0.656897 0.225754
v -0.266575 -0.656897 0.225754
v 0.233425 -0.656897 0.225754
v 0.333425 -0.656897 0.225754
v -0.366575 -0.656897 0.125754
v -0.266575 -0.656897 0.125754
v -0.166575 -0.656897 0.125754
v 0.133425 -0.656897 0.125754
v 0.233425 -0.656897 0.125754
v 0.333425 -0.656897 0.125754
v -0.266575 -0.656897 0.025754
v -0.166575 -0.656897 0.025754
v -0.066575 -0.656897 0.025754
v 0.033425 -0.656897 0.025754
v 0.133425 -0.656897 0.025754
v 0.233425 -0.656897 0.025754
v -0.166575 -0.656897 -0.074246
v -0.066575 -0.656897 -0.074246
v 0.033425 -0.656897 -0.074246
v 0.133425 -0.656897 -0.074246
v -0.166575 -0.656897 -0.174246
v -0.066575 -0.656897 -0.174246
v 0.033425 -0.656897 -0.174246
v 0.133425 -0.656897 -0.174246
v -0.266575 -0.656897 -0.274246
v -0.166575 -0.656897 -0.274246
v -0.066575 -0.656897 -0.274246
v 0.033425 -0.656897 -0.274246
v 0.133425 -0.656897 -0.274246
v 0.233425 -0.656897 -0.274246
v -0.366575 -0.656897 -0.374246
v -0.266575 -0.656897 -0.374246
v -0.166575 -0.656897 -0.374246
v 0.133425 -0.656897 -0.374246
v 0.233425 -0.656897 -0.374246
v 0.333425 -0.656897 -0.374246
v -0.366575 -0.656897 -0.474246
v -0.266575 -0.656897 -0.474246
v 0.233425 -0.656897 -0.474246
v 0.333425 -0.656897 -0.474246
v -0.666575 -0.456897 0.425754
v -0.566575 -0.456897 0.425754
v 0.533425 -0.456897 0.425754
v 0.633425 -0.456897 0.425754
v -0.666575 -0.456897 0.325754
v -0.566575 -0.456897 0.325754
v 0.533425 -0.456897 0.325754
v 0.633425 -0.456897 0.325754
v 0.533425 -0.456897 0.225754
v 0.633425 -0.456897 0.225754
v -0.166575 -0.456897 0.025754
v 0.133425 -0.456897 0.025754
v -0.166575 -0.456897 -0.274246
v 0.133425 -0.456897 -0.274246
v 0.533425 -0.456897 -0.474246
v 0.633425 -0.456897 -0.474246
v -0.666575 -0.456897 -0.574246
v -0.566575 -0.456897 -0.574246
v 0.533425 -0.456897 -0.574246
v 0.633425 -0.456897 -0.574246
v -0.666575 -0.456897 -0.674246
v -0.566575 -0.456897 -0.674246
v 0.533425 -0.456897 -0.674246
v 0.633425 -0.456897 -0.674246
v -0.266575 0.043103 0.625754
v -0.166575 0.043103 0.625754
v 0.133425 0.043103 0.625754
v 0.233425 0.043103 0.625754
v -0.266575 0.043103 0.525753
v -0.166575 0.043103 0.525753
v 0.133425 0.043103 0.525753
v 0.233425 0.043103 0.525753
v -0.166575 0.143103 0.625754
v -0.066575 0.143103 0.625754
v 0.133425 0.143103 0.625754
v -0.166575 0.143103 0.525753
v -0.066575 0.143103 0.525753
v 0.133425 0.143103 0.525753
v -0.666575 0.343103 0.525753
v 0.633425 0.343103 0.525753
v -0.766575 0.343103 0.425753
v -0.666575 0.343103 0.425753
v -0.566575 0.343103 0.425753
v 0.533425 0.343103 0.425753
v 0.633425 0.343103 0.425753
v 0.733425 0.343103 0.425753
v -0.666575 0.343103 0.325753
v 0.633425 0.343103 0.325753
v -0.666575 0.343103 -0.574247
v 0.633425 0.343103 -0.574247
v -0.766575 0.343103 -0.674246
v -0.666575 0.343103 -0.674246
v -0.566575 0.343103 -0.674246
v 0.533425 0.343103 -0.674246
v 0.633425 0.343103 -0.674246
v 0.733425 0.343103 -0.674246
v -0.666575 0.343103 -0.774247
v 0.633425 0.343103 -0.774247
v -0.166575 0.543103 0.625753
v 0.133425 0.543103 0.625753
v -0.566575 0.543103 0.425753
v -0.466575 0.543103 0.425753
v -0.166575 0.543103 0.425753
v 0.133425 0.543103 0.425753
v 0.433425 0.543103 0.425753
v 0.533425 0.543103 0.425753
v -0.666575 0.543103 0.325753
v -0.566575 0.543103 0.325753
v -0.466575 0.543103 0.325753
v 0.433425 0.543103 0.325753
v 0.533425 0.543103 0.325753
v 0.633425 0.543103 0.325753
v -0.666575 0.543103 0.225753
v -0.566575 0.543103 0.225753
v 0.533425 0.543103 0.225753
v 0.633425 0.543103 0.225753
v -0.666575 0.543103 -0.574247
v -0.566575 0.543103 -0.574247
v 0.533425 0.543103 -0.574247
v 0.633425 0.543103 -0.574247
v -0.566575 0.543103 -0.674247
v 0.533425 0.543103 -0.674247
v -0.466575 0.643103 0.425753
v -0.366575 0.643103 0.425753
v 0.333425 0.643103 0.425753
v 0.433425 0.643103 0.425753
v -0.566575 0.643103 0.325753
v -0.466575 0.643103 0.325753
v -0.366575 0.643103 0.325753
v 0.333425 0.643103 0.325753
v 0.433425 0.643103 0.325753
v 0.533425 0.643103 0.325753
v -0.466575 0.643103 -0.474247
v 0.433425 0.643103 -0.474247
v -0.566575 0.643103 -0.574247
v 0.533425 0.643103 -0.574247
v -0.366575 0.743103 0.425753
v 0.333425 0.743103 0.425753
v -0.466575 0.743103 0.325753
v -0.366575 0.743103 0.325753
v 0.333425 0.743103 0.325753
v 0.433425 0.743103 0.325753
v -0.166575 0.743103 0.225753
v 0.133425 0.743103 0.225753
v -0.266575 0.743103 0.125753
v -0.166575 0.743103 0.125753
v 0.133425 0.743103 0.125753
v 0.233425 0.743103 0.125753
v -0.266575 0.743103 -0.174247
v -0.166575 0.743103 -0.174247
v 0.133425 0.743103 -0.174247
v 0.233425 0.743103 -0.174247
v -0.166575 0.743103 -0.274247
v 0.133425 0.743103 -0.274247
v -0.466575 0.743103 -0.474247
v 0.433425 0.743103 -0.474247
v -0.166575 0.843103 0.225753
v -0.066575 0.843103 0.225753
v 0.033425 0.843103 0.225753
v 0.133425 0.843103 0.225753
v -0.266575 0.843103 0.125753
v -0.166575 0.843103 0.125753
v -0.066575 0.843103 0.125753
v 0.033425 0.843103 0.125753
v 0.133425 0.843103 0.125753
v 0.233425 0.843103 0.125753
v -0.266575 0.843103 0.025753
v -0.166575 0.843103 0.025753
v 0.133425 0.843103 0.025753
v 0.233425 0.843103 0.025753
v -0.266575 0.843103 -0.074247
v -0.166575 0.843103 -0.074247
v 0.133425 0.843103 -0.074247
v 0.233425 0.843103 -0.074247
v -0.266575 0.843103 -0.174247
v -0.166575 0.843103 -0.174247
v -0.066575 0.843103 -0.174247
v 0.033425 0.843103 -0.174247
v 0.133425 0.843103 -0.174247
v 0.233425 0.843103 -0.174247
v -0.166575 0.843103 -0.274247
v -0.066575 0.843103 -0.274247
v 0.033425 0.843103 -0.274247
v 0.133425 0.843103 -0.274247
v -0.066575 0.943103 0.225753
v 0.033425 0.943103 0.225753
v -0.066575 0.943103 0.125753
v 0.033425 0.943103 0.125753
v -0.266575 0.943103 0.025753
v -0.166575 0.943103 0.025753
v 0.133425 0.943103 0.025753
v 0.233425 0.943103 0.025753
v -0.266575 0.943103 -0.074247
v -0.166575 0.943103 -0.074247
v 0.133425 0.943103 -0.074247
v 0.233425 0.943103 -0.074247
v -0.066575 0.943103 -0.174247
v 0.033425 0.943103 -0.174247
v -0.066575 0.943103 -0.274247
v 0.033425 0.943103 -0.274247
vn -1.0000 -0.0000 -0.0000
vn 1.0000 -0.0000 -0.0000
vn -0.0000 -0.0000 1.0000
vn -0.0000 -0.0000 -1.0000
vn -0.0000 -1.0000 -0.0000
vn -0.0000 1.0000 -0.0000
vt 0.041016 0.500000
vt 0.208984 0.500000
vt 0.021484 0.500000
vt 0.111328 0.500000
vt 0.962891 0.500000
vt 0.185547 0.500000
vt 0.068359 0.500000
vt 0.205078 0.500000
vt 0.958984 0.500000
vt 0.994141 0.500000
vt 0.037109 0.500000
s 1
usemtl palette
f 3/1/1 2/1/1 1/1/1
f 4/1/1 2/1/1 3/1/1
f 5/2/1 4/2/1 3/2/1
f 6/2/1 4/2/1 5/2/1
f 10/1/1 8/1/1 7/1/1
f 11/1/1 8/1/1 10/1/1
f 13/1/1 10/1/1 9/1/1
f 14/1/1 10/1/1 13/1/1
f 15/1/1 12/1/1 11/1/1
f 16/1/1 12/1/1 15/1/1
f 17/2/1 14/2/1 13/2/1
f 18/2/1 14/2/1 17/2/1
f 21/2/1 16/2/1 15/2/1
f 22/2/1 16/2/1 21/2/1
f 23/3/1 20/3/1 19/3/1
f 24/3/1 20/3/1 23/3/1
f 25/4/1 24/4/1 23/4/1
f 26/3/1 20/3/1 24/3/1
f 26/4/1 24/4/1 25/4/1
f 27/3/1 20/3/1 26/3/1
f 32/3/1 29/3/1 28/3/1
f 33/3/1 31/3/1 30/3/1
f 34/3/1 29/3/1 32/3/1
f 35/3/1 33/3/1 30/3/1
f 36/3/1 29/3/1 34/3/1
f 37/3/1 29/3/1 36/3/1
f 38/4/1 37/4/1 36/4/1
f 39/4/1 37/4/1 38/4/1
f 41/3/1 35/3/1 30/3/1
f 42/3/1 35/3/1 41/3/1
f 43/3/1 40/3/1 39/3/1
f 43/3/1 41/3/1 40/3/1
f 44/3/1 41/3/1 43/3/1
f 47/3/1 46/3/1 45/3/1
f 48/3/1 46/3/1 47/3/1
f 50/3/1 49/3/1 48/3/1
f 51/3/1 49/3/1 50/3/1
f 56/2/1 53/2/1 52/2/1
f 57/2/1 53/2/1 56/2/1
f 58/2/1 55/2/1 54/2/1
f 59/2/1 55/2/1 58/2/1
f 62/3/1 61/3/1 60/3/1
f 63/3/1 61/3/1 62/3/1
f 68/2/1 65/2/1 64/2/1
f 69/2/1 65/2/1 68/2/1
f 70/2/1 67/2/1 66/2/1
f 71/2/1 67/2/1 70/2/1
f 74/5/1 73/5/1 72/5/1
f 75/5/1 73/5/1 74/5/1
f 78/6/1 77/6/1 76/6/1
f 79/6/1 77/6/1 78/6/1
f 80/6/1 77/6/1 79/6/1
f 81/6/1 77/6/1 80/6/1
f 82/6/1 80/6/1 79/6/1
f 83/6/1 80/6/1 82/6/1
f 88/2/1 85/2/1 84/2/1
f 89/2/1 85/2/1 88/2/1
f 90/2/1 87/2/1 86/2/1
f 91/2/1 87/2/1 90/2/1
f 92/2/1 90/2/1 89/2/1
f 93/2/1 90/2/1 92/2/1
f 96/5/1 95/5/1 94/5/1
f 97/5/1 95/5/1 96/5/1
f 100/5/1 99/5/1 98/5/1
f 101/5/1 99/5/1 100/5/1
f 104/7/1 103/7/1 102/7/1
f 105/7/1 103/7/1 104/7/1
f 110/6/1 107/6/1 106/6/1
f 111/6/1 107/6/1 110/6/1
f 112/6/1 109/6/1 108/6/1
f 113/6/1 109/6/1 112/6/1
f 116/2/1 115/2/1 114/2/1
f 117/2/1 115/2/1 116/2/1
f 119/8/1 117/8/1 116/8/1
f 120/8/1 117/8/1 119/8/1
f 122/2/1 119/2/1 118/2/1
f 123/2/1 119/2/1 122/2/1
f 124/2/1 121/2/1 120/2/1
f 125/2/1 121/2/1 124/2/1
f 130/6/1 127/6/1 126/6/1
f 131/6/1 127/6/1 130/6/1
f 132/6/1 129/6/1 128/6/1
f 133/6/1 129/6/1 132/6/1
f 138/2/1 135/2/1 134/2/1
f 139/2/1 135/2/1 138/2/1
f 140/2/1 137/2/1 136/2/1
f 141/2/1 137/2/1 140/2/1
f 146/2/1 143/2/1 142/2/1
f 147/2/1 143/2/1 146/2/1
f 148/2/1 145/2/1 144/2/1
f 149/2/1 145/2/1 148/2/1
f 152/6/1 151/6/1 150/6/1
f 153/6/1 151/6/1 152/6/1
f 158/2/1 155/2/1 154/2/1
f 159/2/1 155/2/1 158/2/1
f 160/2/1 157/2/1 156/2/1
f 161/2/1 157/2/1 160/2/1
f 164/3/1 163/3/1 162/3/1
f 165/3/1 163/3/1 164/3/1
f 170/3/1 167/3/1 166/3/1
f 171/3/1 169/3/1 168/3/1
f 172/3/1 170/3/1 166/3/1
f 172/3/1 171/3/1 170/3/1
f 173/3/1 171/3/1 172/3/1
f 174/4/1 173/4/1 172/4/1
f 175/3/1 171/3/1 173/3/1
f 175/4/1 173/4/1 174/4/1
f 176/3/1 169/3/1 171/3/1
f 176/3/1 171/3/1 175/3/1
f 183/1/1 178/1/1 177/1/1
f 184/1/1 178/1/1 183/1/1
f 185/1/1 180/1/1 179/1/1
f 186/1/1 180/1/1 185/1/1
f 187/1/1 182/1/1 181/1/1
f 188/1/1 182/1/1 187/1/1
f 189/2/1 184/2/1 183/2/1
f 190/2/1 184/2/1 189/2/1
f 191/2/1 186/2/1 185/2/1
f 192/2/1 186/2/1 191/2/1
f 193/2/1 188/2/1 187/2/1
f 194/2/1 188/2/1 193/2/1
f 195/1/2 196/1/2 199/1/2
f 199/1/2 196/1/2 200/1/2
f 197/1/2 198/1/2 201/1/2
f 201/1/2 198/1/2 202/1/2
f 199/2/2 200/2/2 203/2/2
f 203/2/2 200/2/2 204/2/2
f 201/2/2 202/2/2 205/2/2
f 205/2/2 202/2/2 206/2/2
f 207/3/2 208/3/2 209/3/2
f 209/3/2 208/3/2 210/3/2
f 209/4/2 210/4/2 211/4/2
f 210/3/2 208/3/2 212/3/2
f 211/4/2 210/4/2 212/4/2
f 212/3/2 208/3/2 213/3/2
f 214/3/2 215/3/2 216/3/2
f 216/3/2 215/3/2 217/3/2
f 218/2/2 219/2/2 222/2/2
f 222/2/2 219/2/2 223/2/2
f 220/2/2 221/2/2 224/2/2
f 224/2/2 221/2/2 225/2/2
f 226/2/2 227/2/2 230/2/2
f 230/2/2 227/2/2 231/2/2
f 228/2/2 229/2/2 232/2/2
f 232/2/2 229/2/2 233/2/2
f 234/6/2 235/6/2 236/6/2
f 236/6/2 235/6/2 237/6/2
f 238/2/2 239/2/2 242/2/2
f 242/2/2 239/2/2 243/2/2
f 240/2/2 241/2/2 244/2/2
f 244/2/2 241/2/2 245/2/2
f 246/2/2 247/2/2 248/2/2
f 248/2/2 247/2/2 249/2/2
f 248/8/2 249/8/2 251/8/2
f 251/8/2 249/8/2 252/8/2
f 250/2/2 251/2/2 254/2/2
f 254/2/2 251/2/2 255/2/2
f 252/2/2 253/2/2 256/2/2
f 256/2/2 253/2/2 257/2/2
f 258/6/2 259/6/2 262/6/2
f 262/6/2 259/6/2 263/6/2
f 260/6/2 261/6/2 264/6/2
f 264/6/2 261/6/2 265/6/2
f 266/2/2 267/2/2 270/2/2
f 270/2/2 267/2/2 271/2/2
f 268/2/2 269/2/2 272/2/2
f 272/2/2 269/2/2 273/2/2
f 271/2/2 272/2/2 274/2/2
f 274/2/2 272/2/2 275/2/2
f 276/5/2 277/5/2 278/5/2
f 278/5/2 277/5/2 279/5/2
f 280/9/2 281/9/2 282/9/2
f 282/9/2 281/9/2 283/9/2
f 284/7/2 285/7/2 286/7/2
f 286/7/2 285/7/2 287/7/2
f 288/6/2 289/6/2 292/6/2
f 292/6/2 289/6/2 293/6/2
f 290/6/2 291/6/2 294/6/2
f 294/6/2 291/6/2 295/6/2
f 296/2/2 297/2/2 300/2/2
f 300/2/2 297/2/2 301/2/2
f 298/2/2 299/2/2 302/2/2
f 302/2/2 299/2/2 303/2/2
f 304/5/2 305/5/2 306/5/2
f 306/5/2 305/5/2 307/5/2
f 306/9/2 307/9/2 308/9/2
f 308/9/2 307/9/2 309/9/2
f 310/6/2 311/6/2 312/6/2
f 312/6/2 311/6/2 313/6/2
f 313/6/2 311/6/2 314/6/2
f 314/6/2 311/6/2 315/6/2
f 313/6/2 314/6/2 316/6/2
f 316/6/2 314/6/2 317/6/2
f 318/2/2 319/2/2 322/2/2
f 322/2/2 319/2/2 323/2/2
f 320/2/2 321/2/2 324/2/2
f 324/2/2 321/2/2 325/2/2
f 326/3/2 327/3/2 328/3/2
f 328/3/2 327/3/2 329/3/2
f 330/3/2 331/3/2 332/3/2
f 332/3/2 331/3/2 333/3/2
f 333/3/2 334/3/2 335/3/2
f 335/3/2 334/3/2 336/3/2
f 337/3/2 338/3/2 341/3/2
f 339/3/2 340/3/2 342/3/2
f 341/3/2 338/3/2 343/3/2
f 339/3/2 342/3/2 344/3/2
f 343/3/2 338/3/2 345/3/2
f 345/3/2 338/3/2 346/3/2
f 345/4/2 346/4/2 347/4/2
f 347/4/2 346/4/2 348/4/2
f 339/3/2 344/3/2 350/3/2
f 350/3/2 344/3/2 351/3/2
f 348/3/2 349/3/2 352/3/2
f 349/3/2 350/3/2 352/3/2
f 352/3/2 350/3/2 353/3/2
f 354/1/2 355/1/2 357/1/2
f 357/1/2 355/1/2 358/1/2
f 356/1/2 357/1/2 360/1/2
f 360/1/2 357/1/2 361/1/2
f 358/1/2 359/1/2 362/1/2
f 362/1/2 359/1/2 363/1/2
f 360/2/2 361/2/2 364/2/2
f 364/2/2 361/2/2 365/2/2
f 362/2/2 363/2/2 368/2/2
f 368/2/2 363/2/2 369/2/2
f 366/3/2 367/3/2 370/3/2
f 370/3/2 367/3/2 371/3/2
f 370/4/2 371/4/2 372/4/2
f 371/3/2 367/3/2 373/3/2
f 372/4/2 371/4/2 373/4/2
f 373/3/2 367/3/2 374/3/2
f 375/1/2 376/1/2 377/1/2
f 377/1/2 376/1/2 378/1/2
f 377/2/2 378/2/2 379/2/2
f 379/2/2 378/2/2 380/2/2
f 384/5/3 382/5/3 381/5/3
f 385/5/3 382/5/3 384/5/3
f 389/5/3 384/5/3 383/5/3
f 389/5/3 385/5/3 384/5/3
f 389/5/3 386/5/3 385/5/3
f 390/5/3 386/5/3 389/5/3
f 391/5/3 389/5/3 383/5/3
f 392/9/3 390/9/3 389/9/3
f 392/5/3 389/5/3 391/5/3
f 393/5/3 391/5/3 383/5/3
f 394/5/3 391/5/3 393/5/3
f 395/5/3 391/5/3 394/5/3
f 396/9/3 392/9/3 391/9/3
f 396/5/3 391/5/3 395/5/3
f 397/9/3 390/9/3 392/9/3
f 397/9/3 392/9/3 396/9/3
f 398/9/3 390/9/3 397/9/3
f 399/7/3 388/7/3 387/7/3
f 400/7/3 388/7/3 399/7/3
f 401/5/3 395/5/3 394/5/3
f 402/9/3 397/9/3 396/9/3
f 402/5/3 395/5/3 401/5/3
f 402/9/3 396/9/3 395/9/3
f 403/9/3 397/9/3 402/9/3
f 407/1/3 405/1/3 404/1/3
f 408/1/3 405/1/3 407/1/3
f 409/1/3 407/1/3 404/1/3
f 410/1/3 407/1/3 409/1/3
f 411/1/3 405/1/3 408/1/3
f 412/1/3 405/1/3 411/1/3
f 413/1/3 405/1/3 412/1/3
f 414/1/3 409/1/3 404/1/3
f 417/1/3 405/1/3 413/1/3
f 418/1/3 415/1/3 414/1/3
f 420/1/3 417/1/3 416/1/3
f 421/1/3 419/1/3 418/1/3
f 421/1/3 420/1/3 419/1/3
f 421/1/3 414/1/3 404/1/3
f 421/1/3 418/1/3 414/1/3
f 422/2/3 406/2/3 405/2/3
f 422/1/3 420/1/3 421/1/3
f 422/1/3 417/1/3 420/1/3
f 422/1/3 405/1/3 417/1/3
f 423/2/3 406/2/3 422/2/3
f 428/1/3 425/1/3 424/1/3
f 429/2/3 426/2/3 425/2/3
f 429/1/3 425/1/3 428/1/3
f 430/2/3 426/2/3 429/2/3
f 434/3/3 432/3/3 431/3/3
f 434/4/3 433/4/3 432/4/3
f 435/4/3 433/4/3 434/4/3
f 437/3/3 435/3/3 434/3/3
f 437/3/3 436/3/3 435/3/3
f 438/3/3 436/3/3 437/3/3
f 440/3/3 437/3/3 434/3/3
f 440/9/3 438/9/3 437/9/3
f 441/3/3 439/3/3 438/3/3
f 441/9/3 438/9/3 440/9/3
f 442/3/3 434/3/3 431/3/3
f 442/3/3 440/3/3 434/3/3
f 443/10/3 441/10/3 440/10/3
f 443/3/3 440/3/3 442/3/3
f 444/3/3 439/3/3 441/3/3
f 444/10/3 441/10/3 443/10/3
f 445/3/3 442/3/3 431/3/3
f 446/3/3 444/3/3 443/3/3
f 447/3/3 439/3/3 444/3/3
f 447/3/3 444/3/3 446/3/3
f 448/3/3 446/3/3 445/3/3
f 448/10/3 447/10/3 446/10/3
f 449/3/3 439/3/3 447/3/3
f 449/10/3 447/10/3 448/10/3
f 450/3/3 448/3/3 445/3/3
f 450/9/3 449/9/3 448/9/3
f 451/3/3 439/3/3 449/3/3
f 451/9/3 449/9/3 450/9/3
f 452/3/3 439/3/3 451/3/3
f 453/3/3 450/3/3 445/3/3
f 453/3/3 445/3/3 431/3/3
f 453/3/3 451/3/3 450/3/3
f 454/3/3 451/3/3 453/3/3
f 455/3/3 451/3/3 454/3/3
f 456/3/3 453/3/3 431/3/3
f 457/4/3 454/4/3 453/4/3
f 457/3/3 453/3/3 456/3/3
f 458/4/3 454/4/3 457/4/3
f 459/1/3 428/1/3 427/1/3
f 460/1/3 428/1/3 459/1/3
f 463/1/3 461/1/3 460/1/3
f 464/2/3 462/2/3 461/2/3
f 464/1/3 461/1/3 463/1/3
f 465/2/3 462/2/3 464/2/3
f 471/3/3 467/3/3 466/3/3
f 471/3/3 468/3/3 467/3/3
f 471/3/3 469/3/3 468/3/3
f 472/4/3 470/4/3 469/4/3
f 472/3/3 469/3/3 471/3/3
f 473/4/3 470/4/3 472/4/3
f 475/3/3 474/3/3 473/3/3
f 476/3/3 474/3/3 475/3/3
f 478/3/3 477/3/3 476/3/3
f 479/3/3 477/3/3 478/3/3
f 483/3/3 481/3/3 480/3/3
f 484/3/3 481/3/3 483/3/3
f 487/3/3 483/3/3 482/3/3
f 488/3/3 483/3/3 487/3/3
f 489/3/3 486/3/3 485/3/3
f 490/3/3 486/3/3 489/3/3
f 491/3/3 486/3/3 490/3/3
f 492/4/3 487/4/3 486/4/3
f 492/3/3 486/3/3 491/3/3
f 493/4/3 487/4/3 492/4/3
f 496/2/3 495/2/3 494/2/3
f 497/2/3 495/2/3 496/2/3
f 500/6/3 499/6/3 498/6/3
f 502/6/3 500/6/3 498/6/3
f 502/6/3 501/6/3 500/6/3
f 503/6/3 501/6/3 502/6/3
f 504/6/3 502/6/3 498/6/3
f 505/6/3 502/6/3 504/6/3
f 508/2/3 507/2/3 506/2/3
f 509/2/3 507/2/3 508/2/3
f 514/2/3 511/2/3 510/2/3
f 515/2/3 511/2/3 514/2/3
f 516/6/3 513/6/3 512/6/3
f 517/6/3 513/6/3 516/6/3
f 522/2/3 519/2/3 518/2/3
f 523/2/3 519/2/3 522/2/3
f 524/6/3 521/6/3 520/6/3
f 525/6/3 521/6/3 524/6/3
f 530/6/3 527/6/3 526/6/3
f 531/6/3 527/6/3 530/6/3
f 532/2/3 529/2/3 528/2/3
f 533/2/3 529/2/3 532/2/3
f 536/2/3 534/2/3 533/2/3
f 537/2/3 534/2/3 536/2/3
f 538/2/3 536/2/3 535/2/3
f 539/2/3 536/2/3 538/2/3
f 542/6/3 541/6/3 540/6/3
f 543/6/3 541/6/3 542/6/3
f 548/2/3 545/2/3 544/2/3
f 549/2/3 545/2/3 548/2/3
f 550/2/3 547/2/3 546/2/3
f 551/8/3 548/8/3 547/8/3
f 551/2/3 547/2/3 550/2/3
f 552/8/3 548/8/3 551/8/3
f 554/2/3 553/2/3 552/2/3
f 555/2/3 553/2/3 554/2/3
f 558/2/3 557/2/3 556/2/3
f 559/2/3 557/2/3 558/2/3
f 564/6/3 561/6/3 560/6/3
f 565/6/3 561/6/3 564/6/3
f 566/2/3 563/2/3 562/2/3
f 567/2/3 563/2/3 566/2/3
f 570/2/3 569/2/3 568/2/3
f 571/2/3 569/2/3 570/2/3
f 574/2/3 573/2/3 572/2/3
f 575/2/3 573/2/3 574/2/3
f 578/2/3 577/2/3 576/2/3
f 579/2/3 577/2/3 578/2/3
f 582/2/3 581/2/3 580/2/3
f 583/2/3 581/2/3 582/2/3
f 586/3/3 585/3/3 584/3/3
f 587/3/3 585/3/3 586/3/3
f 590/3/3 589/3/3 588/3/3
f 591/3/3 589/3/3 590/3/3
f 592/3/3 589/3/3 591/3/3
f 595/3/3 594/3/3 593/3/3
f 596/3/3 594/3/3 595/3/3
f 600/1/3 598/1/3 597/1/3
f 601/2/3 599/2/3 598/2/3
f 601/1/3 598/1/3 600/1/3
f 602/2/3 599/2/3 601/2/3
f 606/1/3 604/1/3 603/1/3
f 607/2/3 605/2/3 604/2/3
f 607/1/3 604/1/3 606/1/3
f 608/2/3 605/2/3 607/2/3
f 609/1/4 610/1/4 612/1/4
f 610/2/4 611/2/4 613/2/4
f 612/1/4 610/1/4 613/1/4
f 613/2/4 611/2/4 614/2/4
f 615/1/4 616/1/4 618/1/4
f 616/2/4 617/2/4 619/2/4
f 618/1/4 616/1/4 619/1/4
f 619/2/4 617/2/4 620/2/4
f 621/3/4 622/3/4 624/3/4
f 622/4/4 623/4/4 624/4/4
f 624/4/4 623/4/4 625/4/4
f 621/3/4 624/3/4 626/3/4
f 624/3/4 625/3/4 626/3/4
f 626/3/4 625/3/4 627/3/4
f 621/3/4 626/3/4 628/3/4
f 626/4/4 627/4/4 629/4/4
f 628/3/4 626/3/4 629/3/4
f 629/4/4 627/4/4 630/4/4
f 631/3/4 632/3/4 633/3/4
f 633/3/4 632/3/4 634/3/4
f 635/3/4 636/3/4 637/3/4
f 637/3/4 636/3/4 638/3/4
f 638/3/4 636/3/4 639/3/4
f 640/2/4 641/2/4 642/2/4
f 642/2/4 641/2/4 643/2/4
f 644/6/4 645/6/4 646/6/4
f 646/6/4 645/6/4 647/6/4
f 648/2/4 649/2/4 650/2/4
f 650/2/4 649/2/4 651/2/4
f 652/2/4 653/2/4 654/2/4
f 654/2/4 653/2/4 655/2/4
f 656/2/4 657/2/4 658/2/4
f 658/2/4 657/2/4 659/2/4
f 660/6/4 661/6/4 664/6/4
f 664/6/4 661/6/4 665/6/4
f 662/2/4 663/2/4 666/2/4
f 666/2/4 663/2/4 667/2/4
f 668/2/4 669/2/4 670/2/4
f 670/2/4 669/2/4 671/2/4
f 672/6/4 673/6/4 674/6/4
f 674/6/4 673/6/4 675/6/4
f 676/6/4 677/6/4 680/6/4
f 680/6/4 677/6/4 681/6/4
f 678/2/4 679/2/4 684/2/4
f 684/2/4 679/2/4 685/2/4
f 682/2/4 683/2/4 686/2/4
f 683/8/4 684/8/4 687/8/4
f 686/2/4 683/2/4 687/2/4
f 687/8/4 684/8/4 688/8/4
f 688/2/4 689/2/4 690/2/4
f 690/2/4 689/2/4 691/2/4
f 692/6/4 693/6/4 694/6/4
f 694/6/4 693/6/4 695/6/4
f 696/2/4 697/2/4 700/2/4
f 700/2/4 697/2/4 701/2/4
f 698/6/4 699/6/4 703/6/4
f 701/2/4 702/2/4 706/2/4
f 706/2/4 702/2/4 707/2/4
f 698/6/4 703/6/4 708/6/4
f 703/6/4 704/6/4 708/6/4
f 708/6/4 704/6/4 709/6/4
f 705/2/4 706/2/4 710/2/4
f 710/2/4 706/2/4 711/2/4
f 698/6/4 708/6/4 712/6/4
f 712/6/4 708/6/4 713/6/4
f 714/2/4 715/2/4 716/2/4
f 716/2/4 715/2/4 717/2/4
f 718/2/4 719/2/4 720/2/4
f 720/2/4 719/2/4 721/2/4
f 724/2/4 725/2/4 726/2/4
f 726/2/4 725/2/4 727/2/4
f 728/2/4 729/2/4 730/2/4
f 730/2/4 729/2/4 731/2/4
f 722/3/4 723/3/4 732/3/4
f 732/3/4 723/3/4 733/3/4
f 734/3/4 735/3/4 738/3/4
f 736/3/4 737/3/4 738/3/4
f 735/3/4 736/3/4 738/3/4
f 738/3/4 737/3/4 739/3/4
f 739/3/4 740/3/4 742/3/4
f 742/3/4 740/3/4 743/3/4
f 741/3/4 742/3/4 744/3/4
f 744/3/4 742/3/4 745/3/4
f 745/3/4 742/3/4 746/3/4
f 746/3/4 742/3/4 747/3/4
f 748/1/4 749/1/4 752/1/4
f 749/2/4 750/2/4 753/2/4
f 752/1/4 749/1/4 753/1/4
f 753/2/4 750/2/4 754/2/4
f 755/3/4 756/3/4 757/3/4
f 757/3/4 756/3/4 758/3/4
f 751/1/4 752/1/4 759/1/4
f 759/1/4 752/1/4 760/1/4
f 760/1/4 761/1/4 763/1/4
f 761/2/4 762/2/4 764/2/4
f 763/1/4 761/1/4 764/1/4
f 764/2/4 762/2/4 765/2/4
f 766/1/4 767/1/4 769/1/4
f 767/2/4 768/2/4 770/2/4
f 769/1/4 767/1/4 770/1/4
f 770/2/4 768/2/4 771/2/4
f 774/2/5 773/2/5 772/2/5
f 775/2/5 773/2/5 774/2/5
f 780/2/5 777/2/5 776/2/5
f 781/2/5 777/2/5 780/2/5
f 784/2/5 779/2/5 778/2/5
f 785/2/5 779/2/5 784/2/5
f 786/2/5 782/2/5 781/2/5
f 787/2/5 782/2/5 786/2/5
f 790/2/5 784/2/5 783/2/5
f 791/2/5 784/2/5 790/2/5
f 792/2/5 788/2/5 787/2/5
f 793/2/5 788/2/5 792/2/5
f 794/2/5 790/2/5 789/2/5
f 795/2/5 790/2/5 794/2/5
f 801/2/5 797/2/5 796/2/5
f 802/2/5 797/2/5 801/2/5
f 803/2/5 799/2/5 798/2/5
f 804/2/5 799/2/5 803/2/5
f 807/2/5 801/2/5 800/2/5
f 808/2/5 801/2/5 807/2/5
f 809/2/5 805/2/5 804/2/5
f 810/2/5 805/2/5 809/2/5
f 812/2/5 807/2/5 806/2/5
f 813/2/5 807/2/5 812/2/5
f 814/2/5 811/2/5 810/2/5
f 815/2/5 811/2/5 814/2/5
f 819/2/5 817/2/5 816/2/5
f 820/2/5 817/2/5 819/2/5
f 822/2/5 819/2/5 818/2/5
f 823/2/5 819/2/5 822/2/5
f 824/2/5 821/2/5 820/2/5
f 825/2/5 821/2/5 824/2/5
f 826/2/5 824/2/5 823/2/5
f 827/2/5 824/2/5 826/2/5
f 830/1/5 829/1/5 828/1/5
f 831/1/5 829/1/5 830/1/5
f 832/1/5 829/1/5 831/1/5
f 833/1/5 829/1/5 832/1/5
f 834/1/5 830/1/5 828/1/5
f 834/11/5 831/11/5 830/11/5
f 835/11/5 831/11/5 834/11/5
f 836/11/5 833/11/5 832/11/5
f 837/1/5 829/1/5 833/1/5
f 837/11/5 833/11/5 836/11/5
f 838/1/5 834/1/5 828/1/5
f 841/1/5 829/1/5 837/1/5
f 842/11/5 839/11/5 838/11/5
f 842/1/5 838/1/5 828/1/5
f 843/11/5 839/11/5 842/11/5
f 844/11/5 841/11/5 840/11/5
f 845/1/5 829/1/5 841/1/5
f 845/11/5 841/11/5 844/11/5
f 846/1/5 843/1/5 842/1/5
f 846/1/5 844/1/5 843/1/5
f 846/1/5 845/1/5 844/1/5
f 846/1/5 842/1/5 828/1/5
f 847/1/5 829/1/5 845/1/5
f 847/1/5 845/1/5 846/1/5
f 851/1/5 849/1/5 848/1/5
f 852/1/5 849/1/5 851/1/5
f 854/1/5 851/1/5 850/1/5
f 855/1/5 851/1/5 854/1/5
f 856/1/5 853/1/5 852/1/5
f 857/1/5 853/1/5 856/1/5
f 858/1/5 856/1/5 855/1/5
f 859/1/5 856/1/5 858/1/5
f 862/5/5 861/5/5 860/5/5
f 863/5/5 861/5/5 862/5/5
f 868/5/5 865/5/5 864/5/5
f 869/5/5 865/5/5 868/5/5
f 870/5/5 867/5/5 866/5/5
f 871/5/5 867/5/5 870/5/5
f 874/3/5 873/3/5 872/3/5
f 875/3/5 873/3/5 874/3/5
f 878/7/5 877/7/5 876/7/5
f 879/7/5 877/7/5 878/7/5
f 884/3/5 881/3/5 880/3/5
f 884/3/5 883/3/5 882/3/5
f 884/3/5 882/3/5 881/3/5
f 885/3/5 883/3/5 884/3/5
f 886/3/5 883/3/5 885/3/5
f 887/3/5 883/3/5 886/3/5
f 888/3/5 885/3/5 884/3/5
f 889/3/5 887/3/5 886/3/5
f 890/3/5 888/3/5 884/3/5
f 890/3/5 889/3/5 888/3/5
f 891/3/5 887/3/5 889/3/5
f 891/3/5 889/3/5 890/3/5
f 894/3/5 893/3/5 892/3/5
f 895/3/5 893/3/5 894/3/5
f 896/2/6 897/2/6 900/2/6
f 900/2/6 897/2/6 901/2/6
f 898/2/6 899/2/6 904/2/6
f 904/2/6 899/2/6 905/2/6
f 901/2/6 902/2/6 906/2/6
f 906/2/6 902/2/6 907/2/6
f 903/2/6 904/2/6 910/2/6
f 910/2/6 904/2/6 911/2/6
f 907/2/6 908/2/6 912/2/6
f 912/2/6 908/2/6 913/2/6
f 909/2/6 910/2/6 914/2/6
f 914/2/6 910/2/6 915/2/6
f 916/2/6 917/2/6 921/2/6
f 921/2/6 917/2/6 922/2/6
f 918/2/6 919/2/6 923/2/6
f 923/2/6 919/2/6 924/2/6
f 920/2/6 921/2/6 927/2/6
f 927/2/6 921/2/6 928/2/6
f 924/2/6 925/2/6 929/2/6
f 929/2/6 925/2/6 930/2/6
f 926/2/6 927/2/6 932/2/6
f 932/2/6 927/2/6 933/2/6
f 930/2/6 931/2/6 934/2/6
f 934/2/6 931/2/6 935/2/6
f 936/1/6 937/1/6 940/1/6
f 940/1/6 937/1/6 941/1/6
f 938/1/6 939/1/6 942/1/6
f 942/1/6 939/1/6 943/1/6
f 941/1/6 942/1/6 944/1/6
f 941/1/6 944/1/6 946/1/6
f 944/1/6 945/1/6 946/1/6
f 946/1/6 945/1/6 947/1/6
f 941/1/6 946/1/6 948/1/6
f 946/11/6 947/11/6 948/11/6
f 947/1/6 945/1/6 949/1/6
f 948/11/6 947/11/6 949/11/6
f 948/1/6 949/1/6 950/1/6
f 949/1/6 945/1/6 950/1/6
f 950/1/6 945/1/6 951/1/6
f 941/1/6 948/1/6 953/1/6
f 948/1/6 950/1/6 953/1/6
f 953/1/6 950/1/6 954/1/6
f 952/1/6 953/1/6 956/1/6
f 956/1/6 953/1/6 957/1/6
f 954/1/6 955/1/6 958/1/6
f 958/1/6 955/1/6 959/1/6
f 960/5/6 961/5/6 964/5/6
f 964/5/6 961/5/6 965/5/6
f 962/9/6 963/9/6 966/9/6
f 966/9/6 963/9/6 967/9/6
f 968/5/6 969/5/6 971/5/6
f 969/9/6 970/9/6 972/9/6
f 971/5/6 969/5/6 972/5/6
f 972/9/6 970/9/6 973/9/6
f 974/2/6 975/2/6 977/2/6
f 977/2/6 975/2/6 978/2/6
f 978/2/6 975/2/6 979/2/6
f 979/2/6 975/2/6 980/2/6
f 976/2/6 977/2/6 982/2/6
f 980/2/6 981/2/6 983/2/6
f 976/2/6 982/2/6 984/2/6
f 983/2/6 981/2/6 985/2/6
f 976/2/6 984/2/6 986/2/6
f 986/2/6 984/2/6 987/2/6
f 985/2/6 981/2/6 990/2/6
f 990/2/6 981/2/6 991/2/6
f 988/2/6 989/2/6 992/2/6
f 989/2/6 990/2/6 992/2/6
f 987/2/6 988/2/6 992/2/6
f 992/2/6 990/2/6 993/2/6
f 994/7/6 995/7/6 998/7/6
f 998/7/6 995/7/6 999/7/6
f 996/4/6 997/4/6 1003/4/6
f 1003/4/6 997/4/6 1004/4/6
f 1000/4/6 1001/4/6 1005/4/6
f 1005/4/6 1001/4/6 1006/4/6
f 1002/4/6 1003/4/6 1008/4/6
f 1008/4/6 1003/4/6 1009/4/6
f 1006/4/6 1007/4/6 1010/4/6
f 1010/4/6 1007/4/6 1011/4/6
f 1008/3/6 1009/3/6 1012/3/6
f 1012/3/6 1009/3/6 1013/3/6
f 1010/3/6 1011/3/6 1014/3/6
f 1014/3/6 1011/3/6 1015/3/6
f 1013/3/6 1014/3/6 1016/3/6
f 1016/3/6 1014/3/6 1017/3/6
f 1018/3/6 1019/3/6 1023/3/6
f 1023/3/6 1019/3/6 1024/3/6
f 1020/3/6 1021/3/6 1025/3/6
f 1025/3/6 1021/3/6 1026/3/6
f 1022/3/6 1023/3/6 1028/3/6
f 1026/3/6 1027/3/6 1029/3/6
f 1022/3/6 1028/3/6 1030/3/6
f 1028/3/6 1029/3/6 1030/3/6
f 1029/3/6 1027/3/6 1031/3/6
f 1030/3/6 1029/3/6 1031/3/6
f 1032/3/6 1033/3/6 1035/3/6
f 1035/3/6 1033/3/6 1036/3/6
f 1034/3/6 1035/3/6 1038/3/6
f 1036/3/6 1037/3/6 1038/3/6
f 1035/3/6 1036/3/6 1038/3/6
f 1038/3/6 1037/3/6 1039/3/6
f 1034/3/6 1038/3/6 1040/3/6
f 1040/3/6 1038/3/6 1041/3/6
f 1039/3/6 1037/3/6 1042/3/6
f 1042/3/6 1037/3/6 1043/3/6
f 1034/3/6 1040/3/6 1044/3/6
f 1043/3/6 1037/3/6 1047/3/6
f 1044/3/6 1045/3/6 1048/3/6
f 1046/3/6 1047/3/6 1049/3/6
f 1044/3/6 1048/3/6 1050/3/6
f 1048/3/6 1049/3/6 1050/3/6
f 1034/3/6 1044/3/6 1050/3/6
f 1049/3/6 1047/3/6 1051/3/6
f 1050/3/6 1049/3/6 1051/3/6
f 1047/3/6 1037/3/6 1051/3/6
f 1052/6/6 1053/6/6 1057/6/6
f 1057/6/6 1053/6/6 1058/6/6
f 1054/6/6 1055/6/6 1059/6/6
f 1059/6/6 1055/6/6 1060/6/6
f 1057/6/6 1058/6/6 1062/6/6
f 1060/6/6 1061/6/6 1062/6/6
f 1059/6/6 1060/6/6 1062/6/6
f 1058/6/6 1059/6/6 1062/6/6
f 1056/6/6 1057/6/6 1062/6/6
f 1062/6/6 1061/6/6 1063/6/6
f 1063/6/6 1061/6/6 1064/6/6
f 1064/6/6 1061/6/6 1065/6/6
f 1063/6/6 1064/6/6 1067/6/6
f 1067/6/6 1064/6/6 1068/6/6
f 1066/6/6 1067/6/6 1070/6/6
f 1068/6/6 1069/6/6 1070/6/6
f 1067/6/6 1068/6/6 1070/6/6
f 1070/6/6 1069/6/6 1071/6/6
f 1071/6/6 1069/6/6 1072/6/6
f 1072/6/6 1069/6/6 1073/6/6
f 1073/6/6 1069/6/6 1074/6/6
f 1074/6/6 1069/6/6 1075/6/6
f 1071/6/6 1072/6/6 1076/6/6
f 1076/6/6 1072/6/6 1077/6/6
f 1073/6/6 1074/6/6 1078/6/6
f 1078/6/6 1074/6/6 1079/6/6
f 1080/6/6 1081/6/6 1082/6/6
f 1082/6/6 1081/6/6 1083/6/6
f 1084/6/6 1085/6/6 1088/6/6
f 1088/6/6 1085/6/6 1089/6/6
f 1086/6/6 1087/6/6 1090/6/6
f 1090/6/6 1087/6/6 1091/6/6
f 1092/6/6 1093/6/6 1094/6/6
f 1094/6/6 1093/6/6 1095/6/6
