# Blender 5.0.0
# www.blender.org
mtllib FrameConer.mtl
o Untitled
v 0.689189 -1.283784 -1.580405
v 0.689189 -1.283784 0.419594
v 0.689189 -0.883784 0.119595
v 0.689189 -0.883784 0.219595
v 0.689189 -0.883784 0.419595
v 0.689189 -0.783784 0.019595
v 0.689189 -0.783784 0.119595
v 0.689189 -0.683784 -0.180405
v 0.689189 -0.683784 0.019595
v 0.689189 -0.683784 0.219595
v 0.689189 -0.483784 -0.180405
v 0.689189 -0.483784 -0.080405
v 0.689189 -0.483784 0.019595
v 0.689189 -0.083784 -0.180405
v 0.689189 -0.083784 -0.080405
v 0.689189 -0.083784 0.019595
v 0.689189 0.116216 -0.080405
v 0.689189 0.116216 0.019595
v 0.689189 0.116216 0.219595
v 0.689189 0.216216 0.019595
v 0.689189 0.216216 0.119595
v 0.689189 0.316216 0.119595
v 0.689189 0.316216 0.219595
v 0.689189 0.316216 0.419595
v 0.689189 0.716216 -1.580405
v 0.689189 0.716216 0.419595
v -0.510811 -0.483784 -0.080405
v -0.510811 -0.483784 0.019595
v -0.510811 0.716216 -0.080405
v -0.510811 0.716216 0.019595
v -0.710811 -0.683784 0.019595
v -0.710811 -0.683784 0.219595
v -0.710811 0.716216 0.019595
v -0.710811 0.716216 0.219595
v -0.910811 -0.883784 0.219595
v -0.910811 -0.883784 0.419595
v -0.910811 0.716216 0.219595
v -0.910811 0.716216 0.419595
v 0.289189 0.316216 0.219595
v 0.289189 0.316216 0.419595
v 0.289189 0.716216 0.219595
v 0.289189 0.716216 0.419595
v 0.089189 0.116216 0.019595
v 0.089189 0.116216 0.219595
v 0.089189 0.716216 0.019595
v 0.089189 0.716216 0.219595
v -0.110811 -0.083784 -0.080405
v -0.110811 -0.083784 0.019595
v -0.110811 0.716216 -0.080405
v -0.110811 0.716216 0.019595
v -1.310811 -1.283784 -1.580405
v -1.310811 -1.283784 0.419595
v -1.310811 0.716216 -1.580405
v -1.310811 0.716216 0.419595
v 0.689189 -1.283784 -1.580405
v 0.689189 0.716216 -1.580405
v -1.310811 -1.283784 -1.580405
v -1.310811 0.716216 -1.580405
v 0.689189 -0.483784 -0.080405
v 0.689189 -0.083784 -0.080405
v -0.110811 -0.083784 -0.080405
v -0.110811 0.716216 -0.080405
v -0.510811 -0.483784 -0.080405
v -0.510811 0.716216 -0.080405
v 0.689189 -0.683784 0.019595
v 0.689189 -0.483784 0.019595
v 0.689189 -0.083784 0.019595
v 0.689189 0.116216 0.019595
v 0.089189 0.116216 0.019595
v 0.089189 0.716216 0.019595
v -0.110811 -0.083784 0.019595
v -0.110811 0.716216 0.019595
v -0.510811 -0.483784 0.019595
v -0.510811 0.716216 0.019595
v -0.710811 -0.683784 0.019595
v -0.710811 0.716216 0.019595
v 0.689189 -0.883784 0.219595
v 0.689189 -0.683784 0.219595
v 0.689189 0.116216 0.219595
v 0.689189 0.316216 0.219595
v 0.289189 0.316216 0.219595
v 0.289189 0.716216 0.219595
v 0.089189 0.116216 0.219595
v 0.089189 0.716216 0.219595
v -0.710811 -0.683784 0.219595
v -0.710811 0.716216 0.219595
v -0.910811 -0.883784 0.219595
v -0.910811 0.716216 0.219595
v 0.689189 -1.283784 0.419594
v 0.689189 -0.883784 0.419595
v 0.689189 0.316216 0.419595
v 0.689189 0.716216 0.419595
v 0.289189 0.316216 0.419595
v 0.289189 0.716216 0.419595
v -0.910811 -0.883784 0.419595
v -0.910811 0.716216 0.419595
v -1.310811 -1.283784 0.419595
v -1.310811 0.716216 0.419595
v 0.689189 -1.283784 -1.580405
v -1.310811 -1.283784 -1.580405
v 0.689189 -1.283784 0.419594
v -1.310811 -1.283784 0.419595
v 0.689189 -0.083784 -0.080405
v -0.110811 -0.083784 -0.080405
v 0.689189 -0.083784 0.019595
v -0.110811 -0.083784 0.019595
v 0.689189 0.116216 0.019595
v 0.089189 0.116216 0.019595
v 0.689189 0.116216 0.219595
v 0.089189 0.116216 0.219595
v 0.689189 0.316216 0.219595
v 0.289189 0.316216 0.219595
v 0.689189 0.316216 0.419595
v 0.289189 0.316216 0.419595
v 0.689189 -0.883784 0.219595
v -0.910811 -0.883784 0.219595
v 0.689189 -0.883784 0.419595
v -0.910811 -0.883784 0.419595
v 0.689189 -0.683784 0.019595
v -0.710811 -0.683784 0.019595
v 0.689189 -0.683784 0.219595
v -0.710811 -0.683784 0.219595
v 0.689189 -0.483784 -0.080405
v -0.510811 -0.483784 -0.080405
v 0.689189 -0.483784 0.019595
v -0.510811 -0.483784 0.019595
v 0.689189 0.716216 -1.580405
v -1.310811 0.716216 -1.580405
v -0.110811 0.716216 -0.180405
v -0.510811 0.716216 -0.180405
v 0.289189 0.716216 -0.080405
v 0.089189 0.716216 -0.080405
v -0.110811 0.716216 -0.080405
v -0.510811 0.716216 -0.080405
v -0.710811 0.716216 -0.080405
v -0.910811 0.716216 -0.080405
v 0.089189 0.716216 0.019595
v -0.110811 0.716216 0.019595
v -0.510811 0.716216 0.019595
v -0.710811 0.716216 0.019595
v 0.289189 0.716216 0.219595
v 0.089189 0.716216 0.219595
v -0.710811 0.716216 0.219595
v -0.910811 0.716216 0.219595
v 0.689189 0.716216 0.419595
v 0.289189 0.716216 0.419595
v -0.910811 0.716216 0.419595
v -1.310811 0.716216 0.419595
vn 1.0000 -0.0000 -0.0000
vn -1.0000 -0.0000 -0.0000
vn -0.0000 -0.0000 -1.0000
vn -0.0000 -0.0000 1.0000
vn -0.0000 -1.0000 -0.0000
vn -0.0000 1.0000 -0.0000
vt 0.302734 0.500000
vt 0.255859 0.500000
vt 0.294922 0.500000
vt 0.314453 0.500000
s 1
usemtl palette
f 3/1/1 2/1/1 1/1/1
f 4/1/1 2/1/1 3/1/1
f 5/1/1 2/1/1 4/1/1
f 6/1/1 3/1/1 1/1/1
f 7/2/1 4/2/1 3/2/1
f 7/1/1 3/1/1 6/1/1
f 8/1/1 6/1/1 1/1/1
f 9/2/1 7/2/1 6/2/1
f 9/1/1 6/1/1 8/1/1
f 10/2/1 4/2/1 7/2/1
f 10/2/1 7/2/1 9/2/1
f 11/3/1 9/3/1 8/3/1
f 11/1/1 8/1/1 1/1/1
f 12/3/1 9/3/1 11/3/1
f 13/3/1 9/3/1 12/3/1
f 14/1/1 11/1/1 1/1/1
f 14/4/1 12/4/1 11/4/1
f 15/4/1 12/4/1 14/4/1
f 17/1/1 15/1/1 14/1/1
f 17/3/1 16/3/1 15/3/1
f 18/3/1 16/3/1 17/3/1
f 20/1/1 18/1/1 17/1/1
f 20/2/1 19/2/1 18/2/1
f 21/2/1 19/2/1 20/2/1
f 22/1/1 21/1/1 20/1/1
f 22/2/1 19/2/1 21/2/1
f 23/2/1 19/2/1 22/2/1
f 25/1/1 23/1/1 22/1/1
f 25/1/1 24/1/1 23/1/1
f 25/1/1 22/1/1 20/1/1
f 25/1/1 20/1/1 17/1/1
f 25/1/1 14/1/1 1/1/1
f 25/1/1 17/1/1 14/1/1
f 26/1/1 24/1/1 25/1/1
f 29/3/1 28/3/1 27/3/1
f 30/3/1 28/3/1 29/3/1
f 33/2/1 32/2/1 31/2/1
f 34/2/1 32/2/1 33/2/1
f 37/1/1 36/1/1 35/1/1
f 38/1/1 36/1/1 37/1/1
f 39/1/2 40/1/2 41/1/2
f 41/1/2 40/1/2 42/1/2
f 43/2/2 44/2/2 45/2/2
f 45/2/2 44/2/2 46/2/2
f 47/3/2 48/3/2 49/3/2
f 49/3/2 48/3/2 50/3/2
f 51/1/2 52/1/2 53/1/2
f 53/1/2 52/1/2 54/1/2
f 57/1/3 56/1/3 55/1/3
f 58/1/3 56/1/3 57/1/3
f 59/4/4 60/4/4 61/4/4
f 59/4/4 61/4/4 63/4/4
f 61/4/4 62/4/4 63/4/4
f 63/4/4 62/4/4 64/4/4
f 67/3/4 68/3/4 69/3/4
f 67/3/4 69/3/4 71/3/4
f 69/3/4 70/3/4 71/3/4
f 71/3/4 70/3/4 72/3/4
f 65/3/4 66/3/4 73/3/4
f 65/3/4 73/3/4 75/3/4
f 73/3/4 74/3/4 75/3/4
f 75/3/4 74/3/4 76/3/4
f 79/2/4 80/2/4 81/2/4
f 79/2/4 81/2/4 83/2/4
f 81/2/4 82/2/4 83/2/4
f 83/2/4 82/2/4 84/2/4
f 77/2/4 78/2/4 85/2/4
f 77/2/4 85/2/4 87/2/4
f 85/2/4 86/2/4 87/2/4
f 87/2/4 86/2/4 88/2/4
f 91/1/4 92/1/4 93/1/4
f 93/1/4 92/1/4 94/1/4
f 89/1/4 90/1/4 95/1/4
f 89/1/4 95/1/4 97/1/4
f 95/1/4 96/1/4 97/1/4
f 97/1/4 96/1/4 98/1/4
f 101/1/5 100/1/5 99/1/5
f 102/1/5 100/1/5 101/1/5
f 105/3/5 104/3/5 103/3/5
f 106/3/5 104/3/5 105/3/5
f 109/2/5 108/2/5 107/2/5
f 110/2/5 108/2/5 109/2/5
f 113/1/5 112/1/5 111/1/5
f 114/1/5 112/1/5 113/1/5
f 115/1/6 116/1/6 117/1/6
f 117/1/6 116/1/6 118/1/6
f 119/2/6 120/2/6 121/2/6
f 121/2/6 120/2/6 122/2/6
f 123/3/6 124/3/6 125/3/6
f 125/3/6 124/3/6 126/3/6
f 127/1/6 128/1/6 129/1/6
f 129/1/6 128/1/6 130/1/6
f 127/1/6 129/1/6 131/1/6
f 131/1/6 129/1/6 132/1/6
f 129/4/6 130/4/6 133/4/6
f 132/1/6 129/1/6 133/1/6
f 130/1/6 128/1/6 134/1/6
f 133/4/6 130/4/6 134/4/6
f 134/1/6 128/1/6 135/1/6
f 135/1/6 128/1/6 136/1/6
f 132/3/6 133/3/6 137/3/6
f 131/2/6 132/2/6 137/2/6
f 137/3/6 133/3/6 138/3/6
f 134/3/6 135/3/6 139/3/6
f 135/2/6 136/2/6 140/2/6
f 139/3/6 135/3/6 140/3/6
f 127/1/6 131/1/6 141/1/6
f 131/2/6 137/2/6 141/2/6
f 141/2/6 137/2/6 142/2/6
f 140/2/6 136/2/6 143/2/6
f 136/1/6 128/1/6 144/1/6
f 143/2/6 136/2/6 144/2/6
f 127/1/6 141/1/6 145/1/6
f 145/1/6 141/1/6 146/1/6
f 144/1/6 128/1/6 147/1/6
f 147/1/6 128/1/6 148/1/6
